M48
;Layer_Color=9474304
;FILE_FORMAT=2:4
INCH,LZ
;TYPE=PLATED
T1F00S00C0.0010
T2F00S00C0.0157
T3F00S00C0.0240
T4F00S00C0.0315
T5F00S00C0.0330
T6F00S00C0.0360
T7F00S00C0.0420
T8F00S00C0.0512
T9F00S00C0.0551
T10F00S00C0.1181
%
T01
X05444Y037996
Y040752
T02
X04816Y01961
X0482Y021192
X0488Y021205
X048806Y0206
X050008
X0506
Y021192
X05Y021205
X04956Y02398
X0508Y02389
X05105Y0253
X0493Y02518
X04945Y02652
X04941Y02717
X047394Y026199
X047382Y0256
X0476Y02402
X047603Y030159
X048381Y030169
X049178Y030147
X051Y0312
X0514Y031206
X0518Y029
X0524
X053
X0536
X046658Y0262
X046079
X04528Y0244
X045007Y024027
X044496
X04396
X043693Y02317
X04426Y023161
X044276Y02254
X04396Y02282
X044633Y02284
X04502Y02254
X0462Y0228
X0468
X046816Y0234
X0462Y023415
X04542Y02081
X0452Y019
X0458Y018994
X044594
X040486Y018804
X03993Y01888
X04031Y02095
X04151Y021192
X041602Y0236
Y0242
X041595Y0248
X040998
Y024191
Y023598
X04225Y02367
X04293Y02317
X04165Y0267
X04124Y02718
X04116Y02882
X04151Y02952
X04179Y02986
X04207Y03022
X04243Y03056
X04272Y03003
X04394Y0303
X04161Y03087
X040237Y030794
X04023Y03007
X03965Y02942
X03915
X0383Y029422
X03855Y029828
X03628Y02977
X03629Y03047
X03579Y03054
X03505Y03057
X0346Y030894
X03663Y03024
X03659Y02926
X03629Y02792
X0372Y027548
X03795Y027439
X039252Y02727
X03975Y02687
X04017Y02806
X03805Y02597
X0372Y02665
Y025182
X0375Y024158
X03784Y02342
X03629Y02306
X03627Y02246
X03724Y02029
X03538Y01973
X03228Y02217
X03162Y02374
X033Y02373
X03399Y02521
X03283Y0292
X02821Y02933
X02876Y03068
X02584Y02745
X0258Y0238
X02639
Y0232
X0258Y0232
X02835Y02402
X0294Y023796
Y0232
X03
Y0238
X020563Y025752
X01924Y02479
X0192Y0276
X0186
X01799
X0174
X0168
X017196Y0292
Y0298
X0178
Y0292
X01889Y02845
X02021Y03073
X01441Y03035
X0146Y02654
X013Y0396
Y0404
Y0412
Y042
Y0428
X0176Y042794
Y042
Y0412
Y0404
X018313Y036872
X01998Y03772
X0222Y037996
Y0386
X0228
Y038
X02127Y034583
X01928Y033855
X0242Y033987
X024204Y033404
X024807Y033388
Y034
X02615Y03226
X02717Y03862
X02768Y03856
X029073Y0409
X03095Y03967
X0308Y0362
X030195
X03045Y044946
X0256Y042012
Y0414
X025Y041397
Y042
Y040788
X0256
X0319Y04167
X032687Y04277
X0327Y04427
X0336Y0448
X034194
X0348
X0354Y044794
X036Y0448
X03641Y04257
X03729Y04273
X03829Y043443
X03909Y04342
X039913
X04077
X042532Y04356
X0436
X04449Y04315
X04479Y042812
X04561Y043536
X04663Y04351
X04657Y04391
X04607Y04211
X046598Y0412
X046406Y0402
X0458
X04557Y03837
X04619Y03846
X04633Y037
X04511Y03673
X0451Y03765
X04534Y03555
X043204Y0338
X04275Y033388
X04292Y03251
X042474Y032134
X042065Y032706
X0412Y0332
X04112Y033795
X04071Y03411
X04031Y03414
X039515Y034314
X0394Y03327
X03933Y03282
X0386Y032904
X0381Y0329
X037323Y032173
X038847Y031448
X03935
X04017Y0332
X04339Y032916
X04348Y03195
X04327Y03133
X0459Y03143
X03525Y03277
X03471Y03327
X033Y03462
X03195Y03382
X0314Y0362
X0342Y03597
X03397Y03758
X03435Y03785
X03347Y03782
X0327Y03862
Y04007
X0314Y03927
X034454Y038926
Y039676
X0342Y04207
X03691Y040752
X03778Y04077
Y03765
X0363Y03775
X03631Y03702
X04342Y0456
X048126Y044846
X04895Y04452
X04952Y04473
X049377Y043654
X0494Y0426
X04824Y04303
X05048Y04356
X05331Y043032
X05349Y04239
X05321Y04211
X0538Y0418
X0542Y0414
X05369Y04107
X05331Y04089
X05146Y04067
X05189Y0399
X05216Y03798
X0508Y037629
X05035Y03761
X04921Y03789
X04859Y03763
X04838Y03818
X048Y03922
X04863Y03949
X04916Y03922
X04949Y03994
X047002Y0408
X04704Y03852
X04702Y03806
X04709Y03463
X0488Y03508
X049977Y035113
X05007Y034603
X05113Y03512
X052327Y035133
X05209Y0344
X05226Y03221
X05217Y03141
X051403Y0316
X051
X05054Y031604
X05354Y03203
X04957Y03649
X0552Y0422
X0548Y042603
T03
X054305Y037996
X054575
Y040752
X054305
T04
X0313Y02181
Y02481
X0303
X0293
X02736Y02481
X02636
X02536
Y02181
X02636
X02736
X0293Y02181
X0303
T05
X053377Y038389
Y040358
T06
X0477Y01791
X0487
X05008Y01977
X05108
X05208
X05308
X05408
X05508
X05379Y02807
X05279
X05179
X05079
X04979
X04879
X04562Y02795
Y02694
X04474Y0291
Y03008
Y03109
X03969Y02497
X03869
Y02397
X03969
Y02297
X03869
Y02197
X03969
X04124Y0197
Y01872
Y01771
X04243Y01822
Y01923
X0437Y01791
X0447
X0457
X0467
X03524Y02649
X03426
X03325
X03324Y02793
X03425
X03523
X03363Y02924
Y03024
Y03124
X03131Y02658
X03031
X02931
X02831
X02731
X02631
X02531
X02431
X02276
X02176
X02076
X01976
X01876
X01776
X01676
X01576
X01659Y02422
Y02321
Y02223
X01803Y02224
Y02322
Y02423
X01948Y02421
Y0232
Y02222
X02093Y02224
Y02322
Y02423
X02238
Y02322
Y02224
X02383Y02223
Y02321
Y02422
X01513Y02422
Y02321
Y02223
X01368
Y02321
Y02422
X01441Y03338
Y03439
X01591
Y03338
X01576Y03158
X01676
X01776
X01876
X01976
X02076
X02176
X02276
X02431
X02531
X02631
X02731
X02831
X02931
X03031
X02965Y03761
Y03862
X0285
Y03963
X0287Y04171
Y04272
Y0437
X02754Y04205
Y04104
X03131Y03158
X03363Y03224
Y03324
X03484Y03452
X03585
X03683
X03784
X04475Y03438
Y03337
Y03239
X04676Y03916
Y041947
X04662Y04454
X04561
X04463
X04362
X05354Y03696
X05452
X05553
T07
X0348Y03622
X0358
X0368
X0378
X0388
X0398
X0408
X0418
X0428
X0438
T08
X01343Y027162
Y02913
Y031098
T09
X03147Y020539
X03297
X03505
X03655
X03805
X03955
X02997
X02847
X02639
X02489
X02339
X02189
X01982
X01832
X01682
X01532
X01664Y036834
Y038334
Y04045
Y04195
T10
X0544Y01822
X01321Y01899
Y0441
X03055Y0337
X0544Y0441
M30
