G04*
G04 #@! TF.GenerationSoftware,Altium Limited,Altium Designer,18.1.6 (161)*
G04*
G04 Layer_Color=2752767*
%FSTAX24Y24*%
%MOIN*%
G70*
G01*
G75*
%ADD136C,0.0020*%
%ADD137C,0.0027*%
%ADD138C,0.0013*%
D136*
X04366Y0322D02*
Y03236D01*
X04382D01*
Y0322D01*
X04366D01*
Y0362D02*
Y03636D01*
X04382D01*
Y0362D01*
X04366D01*
Y0352D02*
Y03536D01*
X04382D01*
Y0352D01*
X04366D01*
Y0342D02*
Y03436D01*
X04382D01*
Y0342D01*
X04366D01*
Y0332D02*
Y03336D01*
X04382D01*
Y0332D01*
X04366D01*
Y0312D02*
Y03136D01*
X04382D01*
Y0312D01*
X04366D01*
X04745Y01794D02*
Y0181D01*
X04761D01*
Y01794D01*
X04745D01*
X04645D02*
Y0181D01*
X04661D01*
Y01794D01*
X04645D01*
X04545D02*
Y0181D01*
X04561D01*
Y01794D01*
X04545D01*
X04445D02*
Y0181D01*
X04461D01*
Y01794D01*
X04445D01*
X04345D02*
Y0181D01*
X04361D01*
Y01794D01*
X04345D01*
X04245D02*
Y0181D01*
X04261D01*
Y01794D01*
X04245D01*
X02375Y02414D02*
Y0243D01*
X02391D01*
Y02414D01*
X02375D01*
Y02313D02*
Y02329D01*
X02391D01*
Y02313D01*
X02375D01*
Y02215D02*
Y02231D01*
X02391D01*
Y02215D01*
X02375D01*
X02241Y02414D02*
Y0243D01*
X02257D01*
Y02414D01*
X02241D01*
Y02313D02*
Y02329D01*
X02257D01*
Y02313D01*
X02241D01*
Y02215D02*
Y02231D01*
X02257D01*
Y02215D01*
X02241D01*
X02107D02*
Y02231D01*
X02123D01*
Y02215D01*
X02107D01*
Y02313D02*
Y02329D01*
X02123D01*
Y02313D01*
X02107D01*
Y02414D02*
Y0243D01*
X02123D01*
Y02414D01*
X02107D01*
X01973Y02215D02*
Y02231D01*
X01989D01*
Y02215D01*
X01973D01*
Y02313D02*
Y02329D01*
X01989D01*
Y02313D01*
X01973D01*
Y02414D02*
Y0243D01*
X01989D01*
Y02414D01*
X01973D01*
X01839Y02215D02*
Y02231D01*
X01855D01*
Y02215D01*
X01839D01*
Y02313D02*
Y02329D01*
X01855D01*
Y02313D01*
X01839D01*
Y02414D02*
Y0243D01*
X01855D01*
Y02414D01*
X01839D01*
X01705Y02215D02*
Y02231D01*
X01721D01*
Y02215D01*
X01705D01*
Y02313D02*
Y02329D01*
X01721D01*
Y02313D01*
X01705D01*
Y02414D02*
Y0243D01*
X01721D01*
Y02414D01*
X01705D01*
X01571Y02215D02*
Y02231D01*
X01587D01*
Y02215D01*
X01571D01*
Y02313D02*
Y02329D01*
X01587D01*
Y02313D01*
X01571D01*
Y02414D02*
Y0243D01*
X01587D01*
Y02414D01*
X01571D01*
X01437D02*
Y0243D01*
X01453D01*
Y02414D01*
X01437D01*
Y02313D02*
Y02329D01*
X01453D01*
Y02313D01*
X01437D01*
Y02215D02*
Y02231D01*
X01453D01*
Y02215D01*
X01437D01*
X02189Y020459D02*
X02181Y020619D01*
X02197D01*
X02189Y020459D01*
X02339D02*
X02331Y020619D01*
X02347D01*
X02339Y020459D01*
X02489D02*
X02481Y020619D01*
X02497D01*
X02489Y020459D01*
X02639D02*
X02631Y020619D01*
X02647D01*
X02639Y020459D01*
X05221Y02779D02*
Y02795D01*
X05237D01*
Y02779D01*
X05221D01*
X05121D02*
Y02795D01*
X05137D01*
Y02779D01*
X05121D01*
X05021D02*
Y02795D01*
X05037D01*
Y02779D01*
X05021D01*
X04921D02*
Y02795D01*
X04937D01*
Y02779D01*
X04921D01*
X04821D02*
Y02795D01*
X04837D01*
Y02779D01*
X04821D01*
X04721D02*
Y02795D01*
X04737D01*
Y02779D01*
X04721D01*
X03547Y02707D02*
Y02723D01*
X03563D01*
Y02707D01*
X03547D01*
X03449D02*
Y02723D01*
X03465D01*
Y02707D01*
X03449D01*
X03348D02*
Y02723D01*
X03364D01*
Y02707D01*
X03348D01*
X03547Y02557D02*
Y02573D01*
X03563D01*
Y02557D01*
X03547D01*
X03449D02*
Y02573D01*
X03465D01*
Y02557D01*
X03449D01*
X03348D02*
Y02573D01*
X03364D01*
Y02557D01*
X03348D01*
X0293Y02473D02*
X02934Y02477D01*
X02938D01*
X02934Y02481D01*
X02938Y02485D01*
X02934D01*
X0293Y02489D01*
X02926Y02485D01*
X02922D01*
X02926Y02481D01*
X02922Y02477D01*
X02926D01*
X0293Y02473D01*
X0303D02*
X03034Y02477D01*
X03038D01*
X03034Y02481D01*
X03038Y02485D01*
X03034D01*
X0303Y02489D01*
X03026Y02485D01*
X03022D01*
X03026Y02481D01*
X03022Y02477D01*
X03026D01*
X0303Y02473D01*
X0313D02*
X03134Y02477D01*
X03138D01*
X03134Y02481D01*
X03138Y02485D01*
X03134D01*
X0313Y02489D01*
X03126Y02485D01*
X03122D01*
X03126Y02481D01*
X03122Y02477D01*
X03126D01*
X0313Y02473D01*
Y02173D02*
X03134Y02177D01*
X03138D01*
X03134Y02181D01*
X03138Y02185D01*
X03134D01*
X0313Y02189D01*
X03126Y02185D01*
X03122D01*
X03126Y02181D01*
X03122Y02177D01*
X03126D01*
X0313Y02173D01*
X0303D02*
X03034Y02177D01*
X03038D01*
X03034Y02181D01*
X03038Y02185D01*
X03034D01*
X0303Y02189D01*
X03026Y02185D01*
X03022D01*
X03026Y02181D01*
X03022Y02177D01*
X03026D01*
X0303Y02173D01*
X0293D02*
X02934Y02177D01*
X02938D01*
X02934Y02181D01*
X02938Y02185D01*
X02934D01*
X0293Y02189D01*
X02926Y02185D01*
X02922D01*
X02926Y02181D01*
X02922Y02177D01*
X02926D01*
X0293Y02173D01*
X02536Y02473D02*
X0254Y02477D01*
X02544D01*
X0254Y02481D01*
X02544Y02485D01*
X0254D01*
X02536Y02489D01*
X02532Y02485D01*
X02528D01*
X02532Y02481D01*
X02528Y02477D01*
X02532D01*
X02536Y02473D01*
X02636D02*
X0264Y02477D01*
X02644D01*
X0264Y02481D01*
X02644Y02485D01*
X0264D01*
X02636Y02489D01*
X02632Y02485D01*
X02628D01*
X02632Y02481D01*
X02628Y02477D01*
X02632D01*
X02636Y02473D01*
X02736D02*
X0274Y02477D01*
X02744D01*
X0274Y02481D01*
X02744Y02485D01*
X0274D01*
X02736Y02489D01*
X02732Y02485D01*
X02728D01*
X02732Y02481D01*
X02728Y02477D01*
X02732D01*
X02736Y02473D01*
Y02173D02*
X0274Y02177D01*
X02744D01*
X0274Y02181D01*
X02744Y02185D01*
X0274D01*
X02736Y02189D01*
X02732Y02185D01*
X02728D01*
X02732Y02181D01*
X02728Y02177D01*
X02732D01*
X02736Y02173D01*
X02636D02*
X0264Y02177D01*
X02644D01*
X0264Y02181D01*
X02644Y02185D01*
X0264D01*
X02636Y02189D01*
X02632Y02185D01*
X02628D01*
X02632Y02181D01*
X02628Y02177D01*
X02632D01*
X02636Y02173D01*
X02536D02*
X0254Y02177D01*
X02544D01*
X0254Y02181D01*
X02544Y02185D01*
X0254D01*
X02536Y02189D01*
X02532Y02185D01*
X02528D01*
X02532Y02181D01*
X02528Y02177D01*
X02532D01*
X02536Y02173D01*
X01982Y020459D02*
X01974Y020619D01*
X0199D01*
X01982Y020459D01*
X01832D02*
X01824Y020619D01*
X0184D01*
X01832Y020459D01*
X01682D02*
X01674Y020619D01*
X0169D01*
X01682Y020459D01*
X01532D02*
X01524Y020619D01*
X0154D01*
X01532Y020459D01*
X02847D02*
X02839Y020619D01*
X02855D01*
X02847Y020459D01*
X02997D02*
X02989Y020619D01*
X03005D01*
X02997Y020459D01*
X03147D02*
X03139Y020619D01*
X03155D01*
X03147Y020459D01*
X03297D02*
X03289Y020619D01*
X03305D01*
X03297Y020459D01*
X03505D02*
X03497Y020619D01*
X03513D01*
X03505Y020459D01*
X03655D02*
X03647Y020619D01*
X03663D01*
X03655Y020459D01*
X03805D02*
X03797Y020619D01*
X03813D01*
X03805Y020459D01*
X03955D02*
X03947Y020619D01*
X03963D01*
X03955Y020459D01*
X0446Y02695D02*
Y02711D01*
X04476D01*
Y02695D01*
X0446D01*
X04561D02*
Y02711D01*
X04577D01*
Y02695D01*
X04561D01*
X04116Y01962D02*
Y01978D01*
X04132D01*
Y01962D01*
X04116D01*
Y01864D02*
Y0188D01*
X04132D01*
Y01864D01*
X04116D01*
Y01763D02*
Y01779D01*
X04132D01*
Y01763D01*
X04116D01*
X03861Y02489D02*
Y02505D01*
X03877D01*
Y02489D01*
X03861D01*
X03961D02*
Y02505D01*
X03977D01*
Y02489D01*
X03961D01*
X03861Y02389D02*
Y02405D01*
X03877D01*
Y02389D01*
X03861D01*
X03961D02*
Y02405D01*
X03977D01*
Y02389D01*
X03961D01*
X03861Y02289D02*
Y02305D01*
X03877D01*
Y02289D01*
X03861D01*
X03961D02*
Y02305D01*
X03977D01*
Y02289D01*
X03961D01*
X03861Y02189D02*
Y02205D01*
X03877D01*
Y02189D01*
X03861D01*
X03961D02*
Y02205D01*
X03977D01*
Y02189D01*
X03961D01*
X03976Y03614D02*
X0398Y03622D01*
X03976Y0363D01*
X03984Y03626D01*
X03992Y0363D01*
X03988Y03622D01*
X03992Y03614D01*
X03984Y03618D01*
X03976Y03614D01*
X03776D02*
X0378Y03622D01*
X03776Y0363D01*
X03784Y03626D01*
X03792Y0363D01*
X03788Y03622D01*
X03792Y03614D01*
X03784Y03618D01*
X03776Y03614D01*
X03576D02*
X0358Y03622D01*
X03576Y0363D01*
X03584Y03626D01*
X03592Y0363D01*
X03588Y03622D01*
X03592Y03614D01*
X03584Y03618D01*
X03576Y03614D01*
X03476D02*
X0348Y03622D01*
X03476Y0363D01*
X03484Y03626D01*
X03492Y0363D01*
X03488Y03622D01*
X03492Y03614D01*
X03484Y03618D01*
X03476Y03614D01*
X03376D02*
X0338Y03622D01*
X03376Y0363D01*
X03384Y03626D01*
X03392Y0363D01*
X03388Y03622D01*
X03392Y03614D01*
X03384Y03618D01*
X03376Y03614D01*
X03276D02*
X0328Y03622D01*
X03276Y0363D01*
X03284Y03626D01*
X03292Y0363D01*
X03288Y03622D01*
X03292Y03614D01*
X03284Y03618D01*
X03276Y03614D01*
X03676D02*
X0368Y03622D01*
X03676Y0363D01*
X03684Y03626D01*
X03692Y0363D01*
X03688Y03622D01*
X03692Y03614D01*
X03684Y03618D01*
X03676Y03614D01*
X03876D02*
X0388Y03622D01*
X03876Y0363D01*
X03884Y03626D01*
X03892Y0363D01*
X03888Y03622D01*
X03892Y03614D01*
X03884Y03618D01*
X03876Y03614D01*
X04076D02*
X0408Y03622D01*
X04076Y0363D01*
X04084Y03626D01*
X04092Y0363D01*
X04088Y03622D01*
X04092Y03614D01*
X04084Y03618D01*
X04076Y03614D01*
X04176D02*
X0418Y03622D01*
X04176Y0363D01*
X04184Y03626D01*
X04192Y0363D01*
X04188Y03622D01*
X04192Y03614D01*
X04184Y03618D01*
X04176Y03614D01*
X03611Y03467D02*
Y03483D01*
X03627D01*
Y03467D01*
X03611D01*
X0351D02*
Y03483D01*
X03526D01*
Y03467D01*
X0351D01*
X03412D02*
Y03483D01*
X03428D01*
Y03467D01*
X03412D01*
X03311D02*
Y03483D01*
X03327D01*
Y03467D01*
X03311D01*
X03406Y02957D02*
Y02973D01*
X03422D01*
Y02957D01*
X03406D01*
Y03057D02*
Y03073D01*
X03422D01*
Y03057D01*
X03406D01*
Y03157D02*
Y03173D01*
X03422D01*
Y03157D01*
X03406D01*
Y03257D02*
Y03273D01*
X03422D01*
Y03257D01*
X03406D01*
Y02857D02*
Y02873D01*
X03422D01*
Y02857D01*
X03406D01*
X02496Y0265D02*
Y02666D01*
X02512D01*
Y0265D01*
X02496D01*
X02596D02*
Y02666D01*
X02612D01*
Y0265D01*
X02596D01*
X02696D02*
Y02666D01*
X02712D01*
Y0265D01*
X02696D01*
X02796D02*
Y02666D01*
X02812D01*
Y0265D01*
X02796D01*
X02896D02*
Y02666D01*
X02912D01*
Y0265D01*
X02896D01*
X02996D02*
Y02666D01*
X03012D01*
Y0265D01*
X02996D01*
X03096D02*
Y02666D01*
X03112D01*
Y0265D01*
X03096D01*
X03196D02*
Y02666D01*
X03212D01*
Y0265D01*
X03196D01*
Y0315D02*
Y03166D01*
X03212D01*
Y0315D01*
X03196D01*
X03096D02*
Y03166D01*
X03112D01*
Y0315D01*
X03096D01*
X02996D02*
Y03166D01*
X03012D01*
Y0315D01*
X02996D01*
X02896D02*
Y03166D01*
X02912D01*
Y0315D01*
X02896D01*
X02796D02*
Y03166D01*
X02812D01*
Y0315D01*
X02796D01*
X02696D02*
Y03166D01*
X02712D01*
Y0315D01*
X02696D01*
X02596D02*
Y03166D01*
X02612D01*
Y0315D01*
X02596D01*
X02496D02*
Y03166D01*
X02512D01*
Y0315D01*
X02496D01*
X01679Y0265D02*
Y02666D01*
X01695D01*
Y0265D01*
X01679D01*
X01779D02*
Y02666D01*
X01795D01*
Y0265D01*
X01779D01*
X01879D02*
Y02666D01*
X01895D01*
Y0265D01*
X01879D01*
X01979D02*
Y02666D01*
X01995D01*
Y0265D01*
X01979D01*
X02079D02*
Y02666D01*
X02095D01*
Y0265D01*
X02079D01*
X02179D02*
Y02666D01*
X02195D01*
Y0265D01*
X02179D01*
X02279D02*
Y02666D01*
X02295D01*
Y0265D01*
X02279D01*
X02379D02*
Y02666D01*
X02395D01*
Y0265D01*
X02379D01*
Y0315D02*
Y03166D01*
X02395D01*
Y0315D01*
X02379D01*
X02279D02*
Y03166D01*
X02295D01*
Y0315D01*
X02279D01*
X02179D02*
Y03166D01*
X02195D01*
Y0315D01*
X02179D01*
X02079D02*
Y03166D01*
X02095D01*
Y0315D01*
X02079D01*
X01979D02*
Y03166D01*
X01995D01*
Y0315D01*
X01979D01*
X01879D02*
Y03166D01*
X01895D01*
Y0315D01*
X01879D01*
X01779D02*
Y03166D01*
X01795D01*
Y0315D01*
X01779D01*
X01679D02*
Y03166D01*
X01695D01*
Y0315D01*
X01679D01*
X014473Y028342D02*
Y028301D01*
X014553D01*
Y028342D01*
X014593D01*
Y028421D01*
X014553D01*
Y028461D01*
X014473D01*
Y028421D01*
X014433D01*
Y028342D01*
X014473D01*
Y032278D02*
Y032239D01*
X014553D01*
Y032278D01*
X014593D01*
Y032359D01*
X014553D01*
Y032399D01*
X014473D01*
Y032359D01*
X014433D01*
Y032278D01*
X014473D01*
Y03031D02*
Y03027D01*
X014553D01*
Y03031D01*
X014593D01*
Y03039D01*
X014553D01*
Y03043D01*
X014473D01*
Y03039D01*
X014433D01*
Y03031D01*
X014473D01*
X01597Y03433D02*
Y03449D01*
X01613D01*
Y03433D01*
X01597D01*
Y03534D02*
Y0355D01*
X01613D01*
Y03534D01*
X01597D01*
X01455Y03433D02*
Y03449D01*
X01471D01*
Y03433D01*
X01455D01*
Y03534D02*
Y0355D01*
X01471D01*
Y03534D01*
X01455D01*
X01664Y037234D02*
X01656Y037394D01*
X01672D01*
X01664Y037234D01*
Y038734D02*
X01656Y038894D01*
X01672D01*
X01664Y038734D01*
Y04085D02*
X01656Y04101D01*
X01672D01*
X01664Y04085D01*
Y04235D02*
X01656Y04251D01*
X01672D01*
X01664Y04235D01*
X02653Y04171D02*
Y04187D01*
X02669D01*
Y04171D01*
X02653D01*
Y0407D02*
Y04086D01*
X02669D01*
Y0407D01*
X02653D01*
X02769Y04168D02*
Y04184D01*
X02785D01*
Y04168D01*
X02769D01*
Y0407D02*
Y04086D01*
X02785D01*
Y0407D01*
X02769D01*
Y03969D02*
Y03985D01*
X02785D01*
Y03969D01*
X02769D01*
X02655Y03846D02*
Y03862D01*
X02671D01*
Y03846D01*
X02655D01*
Y03745D02*
Y03761D01*
X02671D01*
Y03745D01*
X02655D01*
X02767Y03744D02*
Y0376D01*
X02783D01*
Y03744D01*
X02767D01*
Y03845D02*
Y03861D01*
X02783D01*
Y03845D01*
X02767D01*
X04479Y041865D02*
Y042025D01*
X04495D01*
Y041865D01*
X04479D01*
Y039078D02*
Y039238D01*
X04495D01*
Y039078D01*
X04479D01*
X04465Y044458D02*
Y044618D01*
X04481D01*
Y044458D01*
X04465D01*
X04364D02*
Y044618D01*
X0438D01*
Y044458D01*
X04364D01*
X04266D02*
Y044618D01*
X04282D01*
Y044458D01*
X04266D01*
X04165D02*
Y044618D01*
X04181D01*
Y044458D01*
X04165D01*
X03233Y04224D02*
Y0424D01*
X03249D01*
Y04224D01*
X03233D01*
Y04322D02*
Y04338D01*
X03249D01*
Y04322D01*
X03233D01*
Y04423D02*
Y04439D01*
X03249D01*
Y04423D01*
X03233D01*
X04511Y03231D02*
Y03247D01*
X04527D01*
Y03231D01*
X04511D01*
Y03329D02*
Y03345D01*
X04527D01*
Y03329D01*
X04511D01*
Y0343D02*
Y03446D01*
X04527D01*
Y0343D01*
X04511D01*
Y03116D02*
Y03132D01*
X04527D01*
Y03116D01*
X04511D01*
Y03015D02*
Y03031D01*
X04527D01*
Y03015D01*
X04511D01*
Y02917D02*
Y02933D01*
X04527D01*
Y02917D01*
X04511D01*
X0446Y02805D02*
Y02821D01*
X04476D01*
Y02805D01*
X0446D01*
X04561D02*
Y02821D01*
X04577D01*
Y02805D01*
X04561D01*
X05247Y04067D02*
X05251D01*
X05255Y04071D01*
X05259Y04067D01*
X05263D01*
Y04071D01*
X05259Y04075D01*
X05263Y04079D01*
Y04083D01*
X05259D01*
X05255Y04079D01*
X05251Y04083D01*
X05247D01*
Y04079D01*
X05251Y04075D01*
X05247Y04071D01*
Y04067D01*
X052605Y04075D02*
X052685Y04083D01*
X052765Y04075D01*
X052685Y04067D01*
X052605Y04075D01*
X052335D02*
X052415Y04083D01*
X052495Y04075D01*
X052415Y04067D01*
X052335Y04075D01*
X05247Y037914D02*
X05251D01*
X05255Y037954D01*
X05259Y037914D01*
X05263D01*
Y037954D01*
X05259Y037994D01*
X05263Y038034D01*
Y038074D01*
X05259D01*
X05255Y038034D01*
X05251Y038074D01*
X05247D01*
Y038034D01*
X05251Y037994D01*
X05247Y037954D01*
Y037914D01*
X052605Y037994D02*
X052685Y038074D01*
X052765Y037994D01*
X052685Y037914D01*
X052605Y037994D01*
X052335D02*
X052415Y038074D01*
X052495Y037994D01*
X052415Y037914D01*
X052335Y037994D01*
X051407Y040276D02*
Y040436D01*
X051567D01*
Y040276D01*
X051407D01*
X051447Y040316D02*
Y040396D01*
X051527D01*
Y040316D01*
X051447D01*
X051407Y038307D02*
Y038467D01*
X051567D01*
Y038307D01*
X051407D01*
X051447Y038347D02*
Y038427D01*
X051527D01*
Y038347D01*
X051447D01*
D137*
X03063Y0337D02*
G03*
X03063Y0337I-00008J0D01*
G01*
X05227Y04465D02*
G03*
X05227Y04465I-00008J0D01*
G01*
X01482D02*
G03*
X01482Y04465I-00008J0D01*
G01*
Y02591D02*
G03*
X01482Y02591I-00008J0D01*
G01*
X05227Y01822D02*
G03*
X05227Y01822I-00008J0D01*
G01*
X04407Y041748D02*
G03*
X04407Y041748I-00008J0D01*
G01*
X0331Y0376D02*
G03*
X0331Y0376I-00008J0D01*
G01*
X03639Y03761D02*
G03*
X03639Y03761I-00008J0D01*
G01*
X03388Y03516D02*
G03*
X03388Y03516I-00008J0D01*
G01*
X03236Y03489D02*
G03*
X03236Y03489I-00008J0D01*
G01*
X03501Y04527D02*
G03*
X03501Y04527I-00008J0D01*
G01*
X01611Y02632D02*
G03*
X01611Y02632I-00008J0D01*
G01*
X01584Y02683D02*
G03*
X01584Y02683I-00008J0D01*
G01*
X04016Y03346D02*
G03*
X04016Y03346I-00008J0D01*
G01*
X04027Y033013D02*
G03*
X04027Y033013I-00008J0D01*
G01*
X04245Y03224D02*
G03*
X04245Y03224I-00008J0D01*
G01*
X0421Y03407D02*
G03*
X0421Y03407I-00008J0D01*
G01*
X03948Y03327D02*
G03*
X03948Y03327I-00008J0D01*
G01*
X03941Y03282D02*
G03*
X03941Y03282I-00008J0D01*
G01*
X03868Y032904D02*
G03*
X03868Y032904I-00008J0D01*
G01*
X03948Y0314D02*
G03*
X03948Y0314I-00008J0D01*
G01*
X03885Y03145D02*
G03*
X03885Y03145I-00008J0D01*
G01*
X038545Y03077D02*
G03*
X038545Y03077I-00008J0D01*
G01*
X03925Y02732D02*
G03*
X03925Y02732I-00008J0D01*
G01*
X03949Y02683D02*
G03*
X03949Y02683I-00008J0D01*
G01*
X0478Y02939D02*
G03*
X0478Y02939I-00008J0D01*
G01*
X04652Y03046D02*
G03*
X04652Y03046I-00008J0D01*
G01*
X04561Y03607D02*
G03*
X04561Y03607I-00008J0D01*
G01*
X04032Y03071D02*
G03*
X04032Y03071I-00008J0D01*
G01*
X04131Y028D02*
G03*
X04131Y028I-00008J0D01*
G01*
X04124Y02882D02*
G03*
X04124Y02882I-00008J0D01*
G01*
X04159Y02952D02*
G03*
X04159Y02952I-00008J0D01*
G01*
X04187Y02986D02*
G03*
X04187Y02986I-00008J0D01*
G01*
X04406Y02887D02*
G03*
X04406Y02887I-00008J0D01*
G01*
X04439Y03024D02*
G03*
X04439Y03024I-00008J0D01*
G01*
X04313Y03157D02*
G03*
X04313Y03157I-00008J0D01*
G01*
X05093Y02393D02*
G03*
X05093Y02393I-00008J0D01*
G01*
X05211Y03587D02*
G03*
X05211Y03587I-00008J0D01*
G01*
X05163Y02941D02*
G03*
X05163Y02941I-00008J0D01*
G01*
X04953Y02652D02*
G03*
X04953Y02652I-00008J0D01*
G01*
X0473Y03961D02*
G03*
X0473Y03961I-00008J0D01*
G01*
X04899Y037627D02*
G03*
X04899Y037627I-00008J0D01*
G01*
X045458Y03689D02*
G03*
X045458Y03689I-00008J0D01*
G01*
X03639Y04073D02*
G03*
X03639Y04073I-00008J0D01*
G01*
X03265Y0332D02*
G03*
X03265Y0332I-00008J0D01*
G01*
X03537Y032916D02*
G03*
X03537Y032916I-00008J0D01*
G01*
X034368Y036918D02*
G03*
X034368Y036918I-00008J0D01*
G01*
X03192Y04061D02*
G03*
X03192Y04061I-00008J0D01*
G01*
X03175Y03867D02*
G03*
X03175Y03867I-00008J0D01*
G01*
X02956Y03983D02*
G03*
X02956Y03983I-00008J0D01*
G01*
X02969Y03919D02*
G03*
X02969Y03919I-00008J0D01*
G01*
X0289Y04154D02*
G03*
X0289Y04154I-00008J0D01*
G01*
X03021Y04282D02*
G03*
X03021Y04282I-00008J0D01*
G01*
X03313Y041748D02*
G03*
X03313Y041748I-00008J0D01*
G01*
X03558Y044798D02*
G03*
X03558Y044798I-00008J0D01*
G01*
X03487D02*
G03*
X03487Y044798I-00008J0D01*
G01*
X025426Y038814D02*
G03*
X025426Y038814I-00008J0D01*
G01*
X050561Y03636D02*
G03*
X050561Y03636I-00008J0D01*
G01*
X05036Y039238D02*
G03*
X05036Y039238I-00008J0D01*
G01*
X03274Y03883D02*
G03*
X03274Y03883I-00008J0D01*
G01*
X028063Y044407D02*
G03*
X028063Y044407I-00008J0D01*
G01*
X025978Y038432D02*
G03*
X025978Y038432I-00008J0D01*
G01*
X01527Y0297D02*
G03*
X01527Y0297I-00008J0D01*
G01*
X0192Y02448D02*
G03*
X0192Y02448I-00008J0D01*
G01*
X02051Y0251D02*
G03*
X02051Y0251I-00008J0D01*
G01*
X020096Y03383D02*
G03*
X020096Y03383I-00008J0D01*
G01*
X02039Y03071D02*
G03*
X02039Y03071I-00008J0D01*
G01*
X02691Y03306D02*
G03*
X02691Y03306I-00008J0D01*
G01*
X03142Y02346D02*
G03*
X03142Y02346I-00008J0D01*
G01*
X0334Y02912D02*
G03*
X0334Y02912I-00008J0D01*
G01*
X02563Y02756D02*
G03*
X02563Y02756I-00008J0D01*
G01*
X03508Y03104D02*
G03*
X03508Y03104I-00008J0D01*
G01*
X0355Y03074D02*
G03*
X0355Y03074I-00008J0D01*
G01*
X03354Y02436D02*
G03*
X03354Y02436I-00008J0D01*
G01*
X04668Y038028D02*
G03*
X04668Y038028I-00008J0D01*
G01*
X044088Y039558D02*
G03*
X044088Y039558I-00008J0D01*
G01*
X04619Y039218D02*
G03*
X04619Y039218I-00008J0D01*
G01*
X0351Y04075D02*
G03*
X0351Y04075I-00008J0D01*
G01*
X0474Y02445D02*
G03*
X0474Y02445I-00008J0D01*
G01*
X04371Y02796D02*
G03*
X04371Y02796I-00008J0D01*
G01*
Y02497D02*
G03*
X04371Y02497I-00008J0D01*
G01*
X04966Y02425D02*
G03*
X04966Y02425I-00008J0D01*
G01*
X04688Y0228D02*
G03*
X04688Y0228I-00008J0D01*
G01*
X046896Y0234D02*
G03*
X046896Y0234I-00008J0D01*
G01*
X04628Y0228D02*
G03*
X04628Y0228I-00008J0D01*
G01*
X04888Y021205D02*
G03*
X04888Y021205I-00008J0D01*
G01*
X04828Y021192D02*
G03*
X04828Y021192I-00008J0D01*
G01*
X048886Y0206D02*
G03*
X048886Y0206I-00008J0D01*
G01*
X05113Y0253D02*
G03*
X05113Y0253I-00008J0D01*
G01*
X03798Y02725D02*
G03*
X03798Y02725I-00008J0D01*
G01*
X03671Y03024D02*
G03*
X03671Y03024I-00008J0D01*
G01*
X03639Y02907D02*
G03*
X03639Y02907I-00008J0D01*
G01*
X0372Y03193D02*
G03*
X0372Y03193I-00008J0D01*
G01*
X041434Y030892D02*
G03*
X041434Y030892I-00008J0D01*
G01*
X0371Y02739D02*
G03*
X0371Y02739I-00008J0D01*
G01*
X03627Y02802D02*
G03*
X03627Y02802I-00008J0D01*
G01*
X03616Y02975D02*
G03*
X03616Y02975I-00008J0D01*
G01*
X04179Y03069D02*
G03*
X04179Y03069I-00008J0D01*
G01*
X049161Y03427D02*
G03*
X049161Y03427I-00008J0D01*
G01*
X048511Y03603D02*
G03*
X048511Y03603I-00008J0D01*
G01*
X049921Y0317D02*
G03*
X049921Y0317I-00008J0D01*
G01*
X049871Y03239D02*
G03*
X049871Y03239I-00008J0D01*
G01*
X051116Y032365D02*
G03*
X051116Y032365I-00008J0D01*
G01*
X051005Y03338D02*
G03*
X051005Y03338I-00008J0D01*
G01*
X051962Y042498D02*
G03*
X051962Y042498I-00008J0D01*
G01*
X0515Y04303D02*
G03*
X0515Y04303I-00008J0D01*
G01*
X05143Y041548D02*
G03*
X05143Y041548I-00008J0D01*
G01*
X05174Y042078D02*
G03*
X05174Y042078I-00008J0D01*
G01*
X049331Y030649D02*
G03*
X049331Y030649I-00008J0D01*
G01*
X047021Y03525D02*
G03*
X047021Y03525I-00008J0D01*
G01*
X043504Y019104D02*
G03*
X043504Y019104I-00008J0D01*
G01*
X04411Y01911D02*
G03*
X04411Y01911I-00008J0D01*
G01*
X04471Y019104D02*
G03*
X04471Y019104I-00008J0D01*
G01*
X03008Y0238D02*
G03*
X03008Y0238I-00008J0D01*
G01*
Y0232D02*
G03*
X03008Y0232I-00008J0D01*
G01*
X02948D02*
G03*
X02948Y0232I-00008J0D01*
G01*
Y023796D02*
G03*
X02948Y023796I-00008J0D01*
G01*
X02647Y0232D02*
G03*
X02647Y0232I-00008J0D01*
G01*
Y0238D02*
G03*
X02647Y0238I-00008J0D01*
G01*
X02588Y0232D02*
G03*
X02588Y0232I-00008J0D01*
G01*
Y0238D02*
G03*
X02588Y0238I-00008J0D01*
G01*
X01788Y0298D02*
G03*
X01788Y0298I-00008J0D01*
G01*
Y0292D02*
G03*
X01788Y0292I-00008J0D01*
G01*
X017276D02*
G03*
X017276Y0292I-00008J0D01*
G01*
Y0298D02*
G03*
X017276Y0298I-00008J0D01*
G01*
X01748Y0276D02*
G03*
X01748Y0276I-00008J0D01*
G01*
X01807D02*
G03*
X01807Y0276I-00008J0D01*
G01*
X01868D02*
G03*
X01868Y0276I-00008J0D01*
G01*
X01928D02*
G03*
X01928Y0276I-00008J0D01*
G01*
X03419Y044798D02*
G03*
X03419Y044798I-00008J0D01*
G01*
X03359Y044792D02*
G03*
X03359Y044792I-00008J0D01*
G01*
X05068Y0206D02*
G03*
X05068Y0206I-00008J0D01*
G01*
Y021192D02*
G03*
X05068Y021192I-00008J0D01*
G01*
X050088Y0206D02*
G03*
X050088Y0206I-00008J0D01*
G01*
X05008Y021205D02*
G03*
X05008Y021205I-00008J0D01*
G01*
X041682Y0236D02*
G03*
X041682Y0236I-00008J0D01*
G01*
Y0242D02*
G03*
X041682Y0242I-00008J0D01*
G01*
X041675Y0248D02*
G03*
X041675Y0248I-00008J0D01*
G01*
X041078Y0236D02*
G03*
X041078Y0236I-00008J0D01*
G01*
Y0242D02*
G03*
X041078Y0242I-00008J0D01*
G01*
Y0248D02*
G03*
X041078Y0248I-00008J0D01*
G01*
X04128Y0332D02*
G03*
X04128Y0332I-00008J0D01*
G01*
X03728Y02665D02*
G03*
X03728Y02665I-00008J0D01*
G01*
X01768Y0404D02*
G03*
X01768Y0404I-00008J0D01*
G01*
Y0412D02*
G03*
X01768Y0412I-00008J0D01*
G01*
Y042D02*
G03*
X01768Y042I-00008J0D01*
G01*
Y042794D02*
G03*
X01768Y042794I-00008J0D01*
G01*
X04759Y042598D02*
G03*
X04759Y042598I-00008J0D01*
G01*
X047567Y043652D02*
G03*
X047567Y043652I-00008J0D01*
G01*
X045192Y040798D02*
G03*
X045192Y040798I-00008J0D01*
G01*
X0444Y040398D02*
G03*
X0444Y040398I-00008J0D01*
G01*
X04399Y040058D02*
G03*
X04399Y040058I-00008J0D01*
G01*
X044788Y041198D02*
G03*
X044788Y041198I-00008J0D01*
G01*
X024887Y033388D02*
G03*
X024887Y033388I-00008J0D01*
G01*
X024284Y033404D02*
G03*
X024284Y033404I-00008J0D01*
G01*
X024887Y034D02*
G03*
X024887Y034I-00008J0D01*
G01*
X02428Y033987D02*
G03*
X02428Y033987I-00008J0D01*
G01*
X02288Y038D02*
G03*
X02288Y038I-00008J0D01*
G01*
X02228Y037996D02*
G03*
X02228Y037996I-00008J0D01*
G01*
X02288Y0386D02*
G03*
X02288Y0386I-00008J0D01*
G01*
X02228D02*
G03*
X02228Y0386I-00008J0D01*
G01*
X05227Y02941D02*
G03*
X05227Y02941I-00008J0D01*
G01*
X05254Y02896D02*
G03*
X05254Y02896I-00008J0D01*
G01*
X05194D02*
G03*
X05194Y02896I-00008J0D01*
G01*
X05134D02*
G03*
X05134Y02896I-00008J0D01*
G01*
X045087Y024027D02*
G03*
X045087Y024027I-00008J0D01*
G01*
X044576D02*
G03*
X044576Y024027I-00008J0D01*
G01*
X04404D02*
G03*
X04404Y024027I-00008J0D01*
G01*
X04628Y023415D02*
G03*
X04628Y023415I-00008J0D01*
G01*
X04268Y043148D02*
G03*
X04268Y043148I-00008J0D01*
G01*
X0438Y043534D02*
G03*
X0438Y043534I-00008J0D01*
G01*
X04298Y04281D02*
G03*
X04298Y04281I-00008J0D01*
G01*
X04179Y043558D02*
G03*
X04179Y043558I-00008J0D01*
G01*
X040722D02*
G03*
X040722Y043558I-00008J0D01*
G01*
X04159Y021192D02*
G03*
X04159Y021192I-00008J0D01*
G01*
X04523Y038518D02*
G03*
X04523Y038518I-00008J0D01*
G01*
X04438Y038458D02*
G03*
X04438Y038458I-00008J0D01*
G01*
X02135Y034583D02*
G03*
X02135Y034583I-00008J0D01*
G01*
X018393Y036872D02*
G03*
X018393Y036872I-00008J0D01*
G01*
X02006Y03772D02*
G03*
X02006Y03772I-00008J0D01*
G01*
X03546Y01973D02*
G03*
X03546Y01973I-00008J0D01*
G01*
X03236Y02217D02*
G03*
X03236Y02217I-00008J0D01*
G01*
X04771Y044728D02*
G03*
X04771Y044728I-00008J0D01*
G01*
X04867Y043558D02*
G03*
X04867Y043558I-00008J0D01*
G01*
X04482Y043508D02*
G03*
X04482Y043508I-00008J0D01*
G01*
X04476Y043908D02*
G03*
X04476Y043908I-00008J0D01*
G01*
X044244Y042215D02*
G03*
X044244Y042215I-00008J0D01*
G01*
X04643Y043028D02*
G03*
X04643Y043028I-00008J0D01*
G01*
X04521Y038058D02*
G03*
X04521Y038058I-00008J0D01*
G01*
X04376Y038368D02*
G03*
X04376Y038368I-00008J0D01*
G01*
X03896Y043418D02*
G03*
X03896Y043418I-00008J0D01*
G01*
X038103D02*
G03*
X038103Y043418I-00008J0D01*
G01*
X03728D02*
G03*
X03728Y043418I-00008J0D01*
G01*
X03648Y043441D02*
G03*
X03648Y043441I-00008J0D01*
G01*
X04965Y040668D02*
G03*
X04965Y040668I-00008J0D01*
G01*
X05008Y039898D02*
G03*
X05008Y039898I-00008J0D01*
G01*
X04714Y044518D02*
G03*
X04714Y044518I-00008J0D01*
G01*
X047754Y030639D02*
G03*
X047754Y030639I-00008J0D01*
G01*
X04132Y02718D02*
G03*
X04132Y02718I-00008J0D01*
G01*
X04536Y0244D02*
G03*
X04536Y0244I-00008J0D01*
G01*
X04434Y023161D02*
G03*
X04434Y023161I-00008J0D01*
G01*
X044713Y02284D02*
G03*
X044713Y02284I-00008J0D01*
G01*
X04938Y02518D02*
G03*
X04938Y02518I-00008J0D01*
G01*
X0412Y033795D02*
G03*
X0412Y033795I-00008J0D01*
G01*
X040566Y018804D02*
G03*
X040566Y018804I-00008J0D01*
G01*
X03732Y02029D02*
G03*
X03732Y02029I-00008J0D01*
G01*
X03308Y02373D02*
G03*
X03308Y02373I-00008J0D01*
G01*
X04039Y02095D02*
G03*
X04039Y02095I-00008J0D01*
G01*
X04001Y01888D02*
G03*
X04001Y01888I-00008J0D01*
G01*
X0455Y02081D02*
G03*
X0455Y02081I-00008J0D01*
G01*
X02843Y02402D02*
G03*
X02843Y02402I-00008J0D01*
G01*
X04039Y03414D02*
G03*
X04039Y03414I-00008J0D01*
G01*
X04025Y02806D02*
G03*
X04025Y02806I-00008J0D01*
G01*
X04079Y03411D02*
G03*
X04079Y03411I-00008J0D01*
G01*
X03548Y042728D02*
G03*
X03548Y042728I-00008J0D01*
G01*
X0346Y042568D02*
G03*
X0346Y042568I-00008J0D01*
G01*
X0428Y03003D02*
G03*
X0428Y03003I-00008J0D01*
G01*
X04251Y03056D02*
G03*
X04251Y03056I-00008J0D01*
G01*
X04215Y03022D02*
G03*
X04215Y03022I-00008J0D01*
G01*
X03637Y02306D02*
G03*
X03637Y02306I-00008J0D01*
G01*
X03587Y03054D02*
G03*
X03587Y03054I-00008J0D01*
G01*
X03637Y03047D02*
G03*
X03637Y03047I-00008J0D01*
G01*
X0451Y02254D02*
G03*
X0451Y02254I-00008J0D01*
G01*
X04404Y02282D02*
G03*
X04404Y02282I-00008J0D01*
G01*
X044356Y02254D02*
G03*
X044356Y02254I-00008J0D01*
G01*
X043773Y02317D02*
G03*
X043773Y02317I-00008J0D01*
G01*
X04301D02*
G03*
X04301Y02317I-00008J0D01*
G01*
X03635Y02246D02*
G03*
X03635Y02246I-00008J0D01*
G01*
X01897Y02845D02*
G03*
X01897Y02845I-00008J0D01*
G01*
X039595Y034314D02*
G03*
X039595Y034314I-00008J0D01*
G01*
X04173Y0267D02*
G03*
X04173Y0267I-00008J0D01*
G01*
X03818Y0329D02*
G03*
X03818Y0329I-00008J0D01*
G01*
X03923Y02942D02*
G03*
X03923Y02942I-00008J0D01*
G01*
X03973D02*
G03*
X03973Y02942I-00008J0D01*
G01*
X03728Y025182D02*
G03*
X03728Y025182I-00008J0D01*
G01*
X03758Y024158D02*
G03*
X03758Y024158I-00008J0D01*
G01*
X04768Y02402D02*
G03*
X04768Y02402I-00008J0D01*
G01*
X048531Y030649D02*
G03*
X048531Y030649I-00008J0D01*
G01*
X03479Y03327D02*
G03*
X03479Y03327I-00008J0D01*
G01*
X032644Y039674D02*
G03*
X032644Y039674I-00008J0D01*
G01*
X03089Y04412D02*
G03*
X03089Y04412I-00008J0D01*
G01*
X030877Y04262D02*
G03*
X030877Y04262I-00008J0D01*
G01*
X03792Y02342D02*
G03*
X03792Y02342I-00008J0D01*
G01*
X03813Y02597D02*
G03*
X03813Y02597I-00008J0D01*
G01*
X04233Y02367D02*
G03*
X04233Y02367I-00008J0D01*
G01*
X02884Y03068D02*
G03*
X02884Y03068I-00008J0D01*
G01*
X02829Y02933D02*
G03*
X02829Y02933I-00008J0D01*
G01*
D138*
X04403Y041748D02*
G03*
X04403Y041748I-00004J0D01*
G01*
X03306Y0376D02*
G03*
X03306Y0376I-00004J0D01*
G01*
X03635Y03761D02*
G03*
X03635Y03761I-00004J0D01*
G01*
X03384Y03516D02*
G03*
X03384Y03516I-00004J0D01*
G01*
X03232Y03489D02*
G03*
X03232Y03489I-00004J0D01*
G01*
X03497Y04527D02*
G03*
X03497Y04527I-00004J0D01*
G01*
X01607Y02632D02*
G03*
X01607Y02632I-00004J0D01*
G01*
X0158Y02683D02*
G03*
X0158Y02683I-00004J0D01*
G01*
X04012Y03346D02*
G03*
X04012Y03346I-00004J0D01*
G01*
X04023Y033013D02*
G03*
X04023Y033013I-00004J0D01*
G01*
X04241Y03224D02*
G03*
X04241Y03224I-00004J0D01*
G01*
X04206Y03407D02*
G03*
X04206Y03407I-00004J0D01*
G01*
X03944Y03327D02*
G03*
X03944Y03327I-00004J0D01*
G01*
X03937Y03282D02*
G03*
X03937Y03282I-00004J0D01*
G01*
X03864Y032904D02*
G03*
X03864Y032904I-00004J0D01*
G01*
X03944Y0314D02*
G03*
X03944Y0314I-00004J0D01*
G01*
X03881Y03145D02*
G03*
X03881Y03145I-00004J0D01*
G01*
X038505Y03077D02*
G03*
X038505Y03077I-00004J0D01*
G01*
X03921Y02732D02*
G03*
X03921Y02732I-00004J0D01*
G01*
X03945Y02683D02*
G03*
X03945Y02683I-00004J0D01*
G01*
X04776Y02939D02*
G03*
X04776Y02939I-00004J0D01*
G01*
X04648Y03046D02*
G03*
X04648Y03046I-00004J0D01*
G01*
X04557Y03607D02*
G03*
X04557Y03607I-00004J0D01*
G01*
X04028Y03071D02*
G03*
X04028Y03071I-00004J0D01*
G01*
X04127Y028D02*
G03*
X04127Y028I-00004J0D01*
G01*
X0412Y02882D02*
G03*
X0412Y02882I-00004J0D01*
G01*
X04155Y02952D02*
G03*
X04155Y02952I-00004J0D01*
G01*
X04183Y02986D02*
G03*
X04183Y02986I-00004J0D01*
G01*
X04402Y02887D02*
G03*
X04402Y02887I-00004J0D01*
G01*
X04435Y03024D02*
G03*
X04435Y03024I-00004J0D01*
G01*
X04309Y03157D02*
G03*
X04309Y03157I-00004J0D01*
G01*
X05089Y02393D02*
G03*
X05089Y02393I-00004J0D01*
G01*
X05207Y03587D02*
G03*
X05207Y03587I-00004J0D01*
G01*
X05159Y02941D02*
G03*
X05159Y02941I-00004J0D01*
G01*
X04949Y02652D02*
G03*
X04949Y02652I-00004J0D01*
G01*
X04726Y03961D02*
G03*
X04726Y03961I-00004J0D01*
G01*
X04895Y037627D02*
G03*
X04895Y037627I-00004J0D01*
G01*
X045418Y03689D02*
G03*
X045418Y03689I-00004J0D01*
G01*
X03635Y04073D02*
G03*
X03635Y04073I-00004J0D01*
G01*
X03261Y0332D02*
G03*
X03261Y0332I-00004J0D01*
G01*
X03533Y032916D02*
G03*
X03533Y032916I-00004J0D01*
G01*
X034328Y036918D02*
G03*
X034328Y036918I-00004J0D01*
G01*
X03188Y04061D02*
G03*
X03188Y04061I-00004J0D01*
G01*
X03171Y03867D02*
G03*
X03171Y03867I-00004J0D01*
G01*
X02952Y03983D02*
G03*
X02952Y03983I-00004J0D01*
G01*
X02965Y03919D02*
G03*
X02965Y03919I-00004J0D01*
G01*
X02886Y04154D02*
G03*
X02886Y04154I-00004J0D01*
G01*
X03017Y04282D02*
G03*
X03017Y04282I-00004J0D01*
G01*
X03309Y041748D02*
G03*
X03309Y041748I-00004J0D01*
G01*
X03554Y044798D02*
G03*
X03554Y044798I-00004J0D01*
G01*
X03483D02*
G03*
X03483Y044798I-00004J0D01*
G01*
X025386Y038814D02*
G03*
X025386Y038814I-00004J0D01*
G01*
X050521Y03636D02*
G03*
X050521Y03636I-00004J0D01*
G01*
X05032Y039238D02*
G03*
X05032Y039238I-00004J0D01*
G01*
X0327Y03883D02*
G03*
X0327Y03883I-00004J0D01*
G01*
X028023Y044407D02*
G03*
X028023Y044407I-00004J0D01*
G01*
X025938Y038432D02*
G03*
X025938Y038432I-00004J0D01*
G01*
X01523Y0297D02*
G03*
X01523Y0297I-00004J0D01*
G01*
X01916Y02448D02*
G03*
X01916Y02448I-00004J0D01*
G01*
X02047Y0251D02*
G03*
X02047Y0251I-00004J0D01*
G01*
X020056Y03383D02*
G03*
X020056Y03383I-00004J0D01*
G01*
X02035Y03071D02*
G03*
X02035Y03071I-00004J0D01*
G01*
X02687Y03306D02*
G03*
X02687Y03306I-00004J0D01*
G01*
X03138Y02346D02*
G03*
X03138Y02346I-00004J0D01*
G01*
X03336Y02912D02*
G03*
X03336Y02912I-00004J0D01*
G01*
X02559Y02756D02*
G03*
X02559Y02756I-00004J0D01*
G01*
X03504Y03104D02*
G03*
X03504Y03104I-00004J0D01*
G01*
X03546Y03074D02*
G03*
X03546Y03074I-00004J0D01*
G01*
X0335Y02436D02*
G03*
X0335Y02436I-00004J0D01*
G01*
X04664Y038028D02*
G03*
X04664Y038028I-00004J0D01*
G01*
X044048Y039558D02*
G03*
X044048Y039558I-00004J0D01*
G01*
X04615Y039218D02*
G03*
X04615Y039218I-00004J0D01*
G01*
X03506Y04075D02*
G03*
X03506Y04075I-00004J0D01*
G01*
X04736Y02445D02*
G03*
X04736Y02445I-00004J0D01*
G01*
X04367Y02796D02*
G03*
X04367Y02796I-00004J0D01*
G01*
Y02497D02*
G03*
X04367Y02497I-00004J0D01*
G01*
X04962Y02425D02*
G03*
X04962Y02425I-00004J0D01*
G01*
X04684Y0228D02*
G03*
X04684Y0228I-00004J0D01*
G01*
X046856Y0234D02*
G03*
X046856Y0234I-00004J0D01*
G01*
X04624Y0228D02*
G03*
X04624Y0228I-00004J0D01*
G01*
X04884Y021205D02*
G03*
X04884Y021205I-00004J0D01*
G01*
X04824Y021192D02*
G03*
X04824Y021192I-00004J0D01*
G01*
X048846Y0206D02*
G03*
X048846Y0206I-00004J0D01*
G01*
X05109Y0253D02*
G03*
X05109Y0253I-00004J0D01*
G01*
X03794Y02725D02*
G03*
X03794Y02725I-00004J0D01*
G01*
X03667Y03024D02*
G03*
X03667Y03024I-00004J0D01*
G01*
X03635Y02907D02*
G03*
X03635Y02907I-00004J0D01*
G01*
X03716Y03193D02*
G03*
X03716Y03193I-00004J0D01*
G01*
X041394Y030892D02*
G03*
X041394Y030892I-00004J0D01*
G01*
X03706Y02739D02*
G03*
X03706Y02739I-00004J0D01*
G01*
X03623Y02802D02*
G03*
X03623Y02802I-00004J0D01*
G01*
X03612Y02975D02*
G03*
X03612Y02975I-00004J0D01*
G01*
X04175Y03069D02*
G03*
X04175Y03069I-00004J0D01*
G01*
X049121Y03427D02*
G03*
X049121Y03427I-00004J0D01*
G01*
X048471Y03603D02*
G03*
X048471Y03603I-00004J0D01*
G01*
X049881Y0317D02*
G03*
X049881Y0317I-00004J0D01*
G01*
X049831Y03239D02*
G03*
X049831Y03239I-00004J0D01*
G01*
X051076Y032365D02*
G03*
X051076Y032365I-00004J0D01*
G01*
X050965Y03338D02*
G03*
X050965Y03338I-00004J0D01*
G01*
X051922Y042498D02*
G03*
X051922Y042498I-00004J0D01*
G01*
X05146Y04303D02*
G03*
X05146Y04303I-00004J0D01*
G01*
X05139Y041548D02*
G03*
X05139Y041548I-00004J0D01*
G01*
X0517Y042078D02*
G03*
X0517Y042078I-00004J0D01*
G01*
X049291Y030649D02*
G03*
X049291Y030649I-00004J0D01*
G01*
X046981Y03525D02*
G03*
X046981Y03525I-00004J0D01*
G01*
X043464Y019104D02*
G03*
X043464Y019104I-00004J0D01*
G01*
X04407Y01911D02*
G03*
X04407Y01911I-00004J0D01*
G01*
X04467Y019104D02*
G03*
X04467Y019104I-00004J0D01*
G01*
X03004Y0238D02*
G03*
X03004Y0238I-00004J0D01*
G01*
Y0232D02*
G03*
X03004Y0232I-00004J0D01*
G01*
X02944D02*
G03*
X02944Y0232I-00004J0D01*
G01*
Y023796D02*
G03*
X02944Y023796I-00004J0D01*
G01*
X02643Y0232D02*
G03*
X02643Y0232I-00004J0D01*
G01*
Y0238D02*
G03*
X02643Y0238I-00004J0D01*
G01*
X02584Y0232D02*
G03*
X02584Y0232I-00004J0D01*
G01*
Y0238D02*
G03*
X02584Y0238I-00004J0D01*
G01*
X01784Y0298D02*
G03*
X01784Y0298I-00004J0D01*
G01*
Y0292D02*
G03*
X01784Y0292I-00004J0D01*
G01*
X017236D02*
G03*
X017236Y0292I-00004J0D01*
G01*
Y0298D02*
G03*
X017236Y0298I-00004J0D01*
G01*
X01744Y0276D02*
G03*
X01744Y0276I-00004J0D01*
G01*
X01803D02*
G03*
X01803Y0276I-00004J0D01*
G01*
X01864D02*
G03*
X01864Y0276I-00004J0D01*
G01*
X01924D02*
G03*
X01924Y0276I-00004J0D01*
G01*
X03415Y044798D02*
G03*
X03415Y044798I-00004J0D01*
G01*
X03355Y044792D02*
G03*
X03355Y044792I-00004J0D01*
G01*
X05064Y0206D02*
G03*
X05064Y0206I-00004J0D01*
G01*
Y021192D02*
G03*
X05064Y021192I-00004J0D01*
G01*
X050048Y0206D02*
G03*
X050048Y0206I-00004J0D01*
G01*
X05004Y021205D02*
G03*
X05004Y021205I-00004J0D01*
G01*
X041642Y0236D02*
G03*
X041642Y0236I-00004J0D01*
G01*
Y0242D02*
G03*
X041642Y0242I-00004J0D01*
G01*
X041635Y0248D02*
G03*
X041635Y0248I-00004J0D01*
G01*
X041038Y0236D02*
G03*
X041038Y0236I-00004J0D01*
G01*
Y0242D02*
G03*
X041038Y0242I-00004J0D01*
G01*
Y0248D02*
G03*
X041038Y0248I-00004J0D01*
G01*
X04124Y0332D02*
G03*
X04124Y0332I-00004J0D01*
G01*
X03724Y02665D02*
G03*
X03724Y02665I-00004J0D01*
G01*
X01764Y0404D02*
G03*
X01764Y0404I-00004J0D01*
G01*
Y0412D02*
G03*
X01764Y0412I-00004J0D01*
G01*
Y042D02*
G03*
X01764Y042I-00004J0D01*
G01*
Y042794D02*
G03*
X01764Y042794I-00004J0D01*
G01*
X04755Y042598D02*
G03*
X04755Y042598I-00004J0D01*
G01*
X047527Y043652D02*
G03*
X047527Y043652I-00004J0D01*
G01*
X045152Y040798D02*
G03*
X045152Y040798I-00004J0D01*
G01*
X04436Y040398D02*
G03*
X04436Y040398I-00004J0D01*
G01*
X04395Y040058D02*
G03*
X04395Y040058I-00004J0D01*
G01*
X044748Y041198D02*
G03*
X044748Y041198I-00004J0D01*
G01*
X024847Y033388D02*
G03*
X024847Y033388I-00004J0D01*
G01*
X024244Y033404D02*
G03*
X024244Y033404I-00004J0D01*
G01*
X024847Y034D02*
G03*
X024847Y034I-00004J0D01*
G01*
X02424Y033987D02*
G03*
X02424Y033987I-00004J0D01*
G01*
X02284Y038D02*
G03*
X02284Y038I-00004J0D01*
G01*
X02224Y037996D02*
G03*
X02224Y037996I-00004J0D01*
G01*
X02284Y0386D02*
G03*
X02284Y0386I-00004J0D01*
G01*
X02224D02*
G03*
X02224Y0386I-00004J0D01*
G01*
X05223Y02941D02*
G03*
X05223Y02941I-00004J0D01*
G01*
X0525Y02896D02*
G03*
X0525Y02896I-00004J0D01*
G01*
X051901D02*
G03*
X051901Y02896I-00004J0D01*
G01*
X0513D02*
G03*
X0513Y02896I-00004J0D01*
G01*
X045047Y024027D02*
G03*
X045047Y024027I-00004J0D01*
G01*
X044536D02*
G03*
X044536Y024027I-00004J0D01*
G01*
X044D02*
G03*
X044Y024027I-00004J0D01*
G01*
X04624Y023415D02*
G03*
X04624Y023415I-00004J0D01*
G01*
X04264Y043148D02*
G03*
X04264Y043148I-00004J0D01*
G01*
X04376Y043534D02*
G03*
X04376Y043534I-00004J0D01*
G01*
X04294Y04281D02*
G03*
X04294Y04281I-00004J0D01*
G01*
X04175Y043558D02*
G03*
X04175Y043558I-00004J0D01*
G01*
X040682D02*
G03*
X040682Y043558I-00004J0D01*
G01*
X04155Y021192D02*
G03*
X04155Y021192I-00004J0D01*
G01*
X04519Y038518D02*
G03*
X04519Y038518I-00004J0D01*
G01*
X04434Y038458D02*
G03*
X04434Y038458I-00004J0D01*
G01*
X02131Y034583D02*
G03*
X02131Y034583I-00004J0D01*
G01*
X018353Y036872D02*
G03*
X018353Y036872I-00004J0D01*
G01*
X02002Y03772D02*
G03*
X02002Y03772I-00004J0D01*
G01*
X03542Y01973D02*
G03*
X03542Y01973I-00004J0D01*
G01*
X03232Y02217D02*
G03*
X03232Y02217I-00004J0D01*
G01*
X04767Y044728D02*
G03*
X04767Y044728I-00004J0D01*
G01*
X04863Y043558D02*
G03*
X04863Y043558I-00004J0D01*
G01*
X04478Y043508D02*
G03*
X04478Y043508I-00004J0D01*
G01*
X04472Y043908D02*
G03*
X04472Y043908I-00004J0D01*
G01*
X044204Y042215D02*
G03*
X044204Y042215I-00004J0D01*
G01*
X04639Y043028D02*
G03*
X04639Y043028I-00004J0D01*
G01*
X04517Y038058D02*
G03*
X04517Y038058I-00004J0D01*
G01*
X04372Y038368D02*
G03*
X04372Y038368I-00004J0D01*
G01*
X03892Y043418D02*
G03*
X03892Y043418I-00004J0D01*
G01*
X038063D02*
G03*
X038063Y043418I-00004J0D01*
G01*
X03724D02*
G03*
X03724Y043418I-00004J0D01*
G01*
X03644Y043441D02*
G03*
X03644Y043441I-00004J0D01*
G01*
X04961Y040668D02*
G03*
X04961Y040668I-00004J0D01*
G01*
X05004Y039898D02*
G03*
X05004Y039898I-00004J0D01*
G01*
X0471Y044518D02*
G03*
X0471Y044518I-00004J0D01*
G01*
X047714Y030639D02*
G03*
X047714Y030639I-00004J0D01*
G01*
X04128Y02718D02*
G03*
X04128Y02718I-00004J0D01*
G01*
X04532Y0244D02*
G03*
X04532Y0244I-00004J0D01*
G01*
X0443Y023161D02*
G03*
X0443Y023161I-00004J0D01*
G01*
X044673Y02284D02*
G03*
X044673Y02284I-00004J0D01*
G01*
X04934Y02518D02*
G03*
X04934Y02518I-00004J0D01*
G01*
X04116Y033795D02*
G03*
X04116Y033795I-00004J0D01*
G01*
X040526Y018804D02*
G03*
X040526Y018804I-00004J0D01*
G01*
X03728Y02029D02*
G03*
X03728Y02029I-00004J0D01*
G01*
X03304Y02373D02*
G03*
X03304Y02373I-00004J0D01*
G01*
X04035Y02095D02*
G03*
X04035Y02095I-00004J0D01*
G01*
X03997Y01888D02*
G03*
X03997Y01888I-00004J0D01*
G01*
X04546Y02081D02*
G03*
X04546Y02081I-00004J0D01*
G01*
X02839Y02402D02*
G03*
X02839Y02402I-00004J0D01*
G01*
X04035Y03414D02*
G03*
X04035Y03414I-00004J0D01*
G01*
X04021Y02806D02*
G03*
X04021Y02806I-00004J0D01*
G01*
X04075Y03411D02*
G03*
X04075Y03411I-00004J0D01*
G01*
X03544Y042728D02*
G03*
X03544Y042728I-00004J0D01*
G01*
X03456Y042568D02*
G03*
X03456Y042568I-00004J0D01*
G01*
X04276Y03003D02*
G03*
X04276Y03003I-00004J0D01*
G01*
X04247Y03056D02*
G03*
X04247Y03056I-00004J0D01*
G01*
X04211Y03022D02*
G03*
X04211Y03022I-00004J0D01*
G01*
X03633Y02306D02*
G03*
X03633Y02306I-00004J0D01*
G01*
X03583Y03054D02*
G03*
X03583Y03054I-00004J0D01*
G01*
X03633Y03047D02*
G03*
X03633Y03047I-00004J0D01*
G01*
X04506Y02254D02*
G03*
X04506Y02254I-00004J0D01*
G01*
X044Y02282D02*
G03*
X044Y02282I-00004J0D01*
G01*
X044316Y02254D02*
G03*
X044316Y02254I-00004J0D01*
G01*
X043733Y02317D02*
G03*
X043733Y02317I-00004J0D01*
G01*
X04297D02*
G03*
X04297Y02317I-00004J0D01*
G01*
X03631Y02246D02*
G03*
X03631Y02246I-00004J0D01*
G01*
X01893Y02845D02*
G03*
X01893Y02845I-00004J0D01*
G01*
X039555Y034314D02*
G03*
X039555Y034314I-00004J0D01*
G01*
X04169Y0267D02*
G03*
X04169Y0267I-00004J0D01*
G01*
X03814Y0329D02*
G03*
X03814Y0329I-00004J0D01*
G01*
X03919Y02942D02*
G03*
X03919Y02942I-00004J0D01*
G01*
X03969D02*
G03*
X03969Y02942I-00004J0D01*
G01*
X03724Y025182D02*
G03*
X03724Y025182I-00004J0D01*
G01*
X03754Y024158D02*
G03*
X03754Y024158I-00004J0D01*
G01*
X04764Y02402D02*
G03*
X04764Y02402I-00004J0D01*
G01*
X048491Y030649D02*
G03*
X048491Y030649I-00004J0D01*
G01*
X03475Y03327D02*
G03*
X03475Y03327I-00004J0D01*
G01*
X032604Y039674D02*
G03*
X032604Y039674I-00004J0D01*
G01*
X03085Y04412D02*
G03*
X03085Y04412I-00004J0D01*
G01*
X030837Y04262D02*
G03*
X030837Y04262I-00004J0D01*
G01*
X03788Y02342D02*
G03*
X03788Y02342I-00004J0D01*
G01*
X03809Y02597D02*
G03*
X03809Y02597I-00004J0D01*
G01*
X04229Y02367D02*
G03*
X04229Y02367I-00004J0D01*
G01*
X0288Y03068D02*
G03*
X0288Y03068I-00004J0D01*
G01*
X02825Y02933D02*
G03*
X02825Y02933I-00004J0D01*
G01*
M02*
