G04*
G04 #@! TF.GenerationSoftware,Altium Limited,Altium Designer,18.1.6 (161)*
G04*
G04 Layer_Color=16711935*
%FSTAX24Y24*%
%MOIN*%
G70*
G01*
G75*
%ADD45R,0.0580X0.0630*%
%ADD47R,0.0630X0.0580*%
%ADD56O,0.0880X0.0680*%
%ADD58O,0.0480X0.0680*%
%ADD59O,0.0680X0.0480*%
%ADD63R,0.0230X0.0230*%
%ADD64R,0.0830X0.0730*%
%ADD65O,0.0830X0.0730*%
%ADD66C,0.1460*%
%ADD67R,0.0730X0.0930*%
%ADD68O,0.0730X0.0930*%
%ADD69R,0.0907X0.0907*%
%ADD70C,0.0907*%
%ADD71O,0.0730X0.0830*%
%ADD72R,0.0730X0.0830*%
%ADD73C,0.0592*%
%ADD74O,0.0940X0.0680*%
%ADD75O,0.0730X0.0980*%
%ADD76R,0.0730X0.0980*%
%ADD77O,0.0980X0.0730*%
%ADD78R,0.0980X0.0730*%
%ADD79C,0.0848*%
%ADD80R,0.0848X0.0848*%
%ADD81R,0.0907X0.0907*%
%ADD82C,0.0880*%
%ADD83R,0.0880X0.0880*%
%ADD84O,0.0750X0.0480*%
%ADD85C,0.0320*%
%ADD86C,0.0650*%
%ADD117R,0.0210X0.0710*%
%ADD118R,0.0210X0.0670*%
%ADD122R,0.1000X0.0256*%
%ADD123R,0.0300X0.0600*%
%ADD124R,0.0600X0.0300*%
%ADD125R,0.0580X0.0950*%
%ADD126R,0.0680X0.0290*%
%ADD127R,0.1025X0.1379*%
%ADD128R,0.1025X0.0474*%
D45*
X05285Y03543D02*
D03*
X05375D02*
D03*
X05394Y033014D02*
D03*
X05304D02*
D03*
X05185Y03221D02*
D03*
X05275D02*
D03*
X047578Y032104D02*
D03*
X046678D02*
D03*
X047578Y031354D02*
D03*
X046678D02*
D03*
X04871Y02894D02*
D03*
X04961D02*
D03*
X04934Y02187D02*
D03*
X04844D02*
D03*
X039747Y03197D02*
D03*
X038847D02*
D03*
X03965Y025969D02*
D03*
X03875D02*
D03*
X020289Y036146D02*
D03*
X019389D02*
D03*
X03155Y043546D02*
D03*
X03065D02*
D03*
X039818Y028844D02*
D03*
X040718D02*
D03*
X018639Y039046D02*
D03*
X017739D02*
D03*
X047578Y030604D02*
D03*
X046678D02*
D03*
X05129Y033014D02*
D03*
X05219D02*
D03*
D47*
X05279Y030954D02*
D03*
Y030054D02*
D03*
X04929Y033864D02*
D03*
Y032964D02*
D03*
X05009Y033864D02*
D03*
Y032964D02*
D03*
X04877Y02695D02*
D03*
Y02605D02*
D03*
X03825Y031244D02*
D03*
Y030344D02*
D03*
X03909Y029994D02*
D03*
Y030894D02*
D03*
X039865Y030289D02*
D03*
Y031189D02*
D03*
X037Y02367D02*
D03*
Y02457D02*
D03*
X02601Y02858D02*
D03*
Y02948D02*
D03*
X017739Y037446D02*
D03*
Y036546D02*
D03*
X02748Y03929D02*
D03*
Y04019D02*
D03*
X02765Y03657D02*
D03*
Y03747D02*
D03*
X02755Y04372D02*
D03*
Y04282D02*
D03*
X0327Y043946D02*
D03*
Y043046D02*
D03*
X032687Y03892D02*
D03*
Y03982D02*
D03*
X045164Y039D02*
D03*
Y0399D02*
D03*
X021339Y038146D02*
D03*
Y039046D02*
D03*
X048381Y031504D02*
D03*
Y030604D02*
D03*
X04919Y031504D02*
D03*
Y030604D02*
D03*
D56*
X0503Y02187D02*
D03*
Y02287D02*
D03*
Y02487D02*
D03*
Y02587D02*
D03*
D58*
X052208Y03707D02*
D03*
X051617D02*
D03*
X051027D02*
D03*
X050436D02*
D03*
X049846D02*
D03*
X049255D02*
D03*
X048665D02*
D03*
X048074D02*
D03*
D59*
X0527Y044846D02*
D03*
Y044255D02*
D03*
Y043664D02*
D03*
Y043074D02*
D03*
Y042483D02*
D03*
Y041893D02*
D03*
Y041302D02*
D03*
Y040712D02*
D03*
Y040121D02*
D03*
Y039531D02*
D03*
Y03894D02*
D03*
Y03835D02*
D03*
Y037759D02*
D03*
X047582D02*
D03*
Y03835D02*
D03*
Y03894D02*
D03*
Y039531D02*
D03*
Y040121D02*
D03*
Y040712D02*
D03*
Y041302D02*
D03*
Y041893D02*
D03*
Y042483D02*
D03*
Y043074D02*
D03*
Y043664D02*
D03*
Y044255D02*
D03*
Y044846D02*
D03*
D63*
X02771Y02778D02*
D03*
D64*
X02383Y02422D02*
D03*
X02238Y02423D02*
D03*
X02093D02*
D03*
X01948Y02421D02*
D03*
X01803Y02423D02*
D03*
X01659Y02422D02*
D03*
X01513Y02422D02*
D03*
X01368D02*
D03*
X04243Y01822D02*
D03*
X04124Y01771D02*
D03*
X01591Y03439D02*
D03*
X01441D02*
D03*
X02754Y04104D02*
D03*
X0287Y04171D02*
D03*
X0285Y03862D02*
D03*
X02965D02*
D03*
X04475Y03438D02*
D03*
X04474Y03109D02*
D03*
X04562Y02795D02*
D03*
D65*
X02383Y02321D02*
D03*
Y02223D02*
D03*
X02238Y02322D02*
D03*
Y02224D02*
D03*
X02093D02*
D03*
Y02322D02*
D03*
X01948Y02222D02*
D03*
Y0232D02*
D03*
X01803Y02224D02*
D03*
Y02322D02*
D03*
X01659Y02223D02*
D03*
Y02321D02*
D03*
X01513Y02223D02*
D03*
Y02321D02*
D03*
X01368D02*
D03*
Y02223D02*
D03*
X04243Y01923D02*
D03*
X04124Y0197D02*
D03*
Y01872D02*
D03*
X01591Y03338D02*
D03*
X01441D02*
D03*
X02754Y04205D02*
D03*
X0287Y0437D02*
D03*
Y04272D02*
D03*
X0285Y03963D02*
D03*
X02965Y03761D02*
D03*
X04475Y03239D02*
D03*
Y03337D02*
D03*
X04474Y03008D02*
D03*
Y0291D02*
D03*
X04562Y02694D02*
D03*
D66*
X03055Y0337D02*
D03*
X0544Y0441D02*
D03*
X01321D02*
D03*
Y01899D02*
D03*
X0544Y01822D02*
D03*
D67*
X0437Y01791D02*
D03*
X04879Y02807D02*
D03*
X05008Y01977D02*
D03*
D68*
X0447Y01791D02*
D03*
X0457D02*
D03*
X0467D02*
D03*
X0477D02*
D03*
X0487D02*
D03*
X05379Y02807D02*
D03*
X05279D02*
D03*
X05179D02*
D03*
X05079D02*
D03*
X04979D02*
D03*
X05508Y01977D02*
D03*
X05308D02*
D03*
X05208D02*
D03*
X05108D02*
D03*
X05408D02*
D03*
X02431Y02658D02*
D03*
X02531D02*
D03*
X02631D02*
D03*
X02731D02*
D03*
X02831D02*
D03*
X02931D02*
D03*
X03031D02*
D03*
X03131D02*
D03*
Y03158D02*
D03*
X03031D02*
D03*
X02931D02*
D03*
X02831D02*
D03*
X02731D02*
D03*
X02631D02*
D03*
X02531D02*
D03*
X02431D02*
D03*
X01576Y02658D02*
D03*
X01676D02*
D03*
X01776D02*
D03*
X01876D02*
D03*
X01976D02*
D03*
X02076D02*
D03*
X02176D02*
D03*
X02276D02*
D03*
Y03158D02*
D03*
X02176D02*
D03*
X02076D02*
D03*
X01976D02*
D03*
X01876D02*
D03*
X01776D02*
D03*
X01676D02*
D03*
X01576D02*
D03*
D69*
X02189Y020539D02*
D03*
X01532D02*
D03*
X02847D02*
D03*
X03505D02*
D03*
D70*
X02339D02*
D03*
X02489D02*
D03*
X02639D02*
D03*
X01982D02*
D03*
X01832D02*
D03*
X01682D02*
D03*
X02997D02*
D03*
X03147D02*
D03*
X03297D02*
D03*
X03655D02*
D03*
X03805D02*
D03*
X03955D02*
D03*
X01664Y036834D02*
D03*
Y04045D02*
D03*
D71*
X03523Y02793D02*
D03*
X03425D02*
D03*
X03524Y02649D02*
D03*
X03426D02*
D03*
X03784Y03452D02*
D03*
X03683D02*
D03*
X03585D02*
D03*
X03484D02*
D03*
X04662Y04454D02*
D03*
X04561D02*
D03*
X04463D02*
D03*
X04362D02*
D03*
X05354Y03696D02*
D03*
X05452D02*
D03*
D72*
X03324Y02793D02*
D03*
X03325Y02649D02*
D03*
X05553Y03696D02*
D03*
D73*
X0293Y02481D02*
D03*
X0303D02*
D03*
X0313D02*
D03*
Y02181D02*
D03*
X0303D02*
D03*
X0293D02*
D03*
X02536Y02481D02*
D03*
X02636D02*
D03*
X02736D02*
D03*
Y02181D02*
D03*
X02636D02*
D03*
X02536D02*
D03*
D74*
X03869Y02497D02*
D03*
X03969D02*
D03*
X03869Y02397D02*
D03*
X03969D02*
D03*
X03869Y02297D02*
D03*
X03969D02*
D03*
X03869Y02197D02*
D03*
X03969D02*
D03*
D75*
X0418Y03622D02*
D03*
X0398D02*
D03*
X0378D02*
D03*
X0368D02*
D03*
X0358D02*
D03*
X0388D02*
D03*
X0408D02*
D03*
X0428D02*
D03*
X0438D02*
D03*
D76*
X0348D02*
D03*
D77*
X03363Y03024D02*
D03*
Y03124D02*
D03*
Y03224D02*
D03*
Y02924D02*
D03*
D78*
Y03324D02*
D03*
D79*
X01343Y027162D02*
D03*
Y02913D02*
D03*
D80*
Y031098D02*
D03*
D81*
X01664Y038334D02*
D03*
Y04195D02*
D03*
D82*
X04676Y041947D02*
D03*
D83*
Y03916D02*
D03*
D84*
X05444Y040752D02*
D03*
Y037996D02*
D03*
D85*
X054575Y040752D02*
D03*
X054305D02*
D03*
X054575Y037996D02*
D03*
X054305D02*
D03*
D86*
X053377Y040358D02*
D03*
Y038389D02*
D03*
D117*
X04225Y02545D02*
D03*
X04275D02*
D03*
X04325D02*
D03*
X04375D02*
D03*
X04425D02*
D03*
X04475D02*
D03*
X04525D02*
D03*
X04575D02*
D03*
X04625D02*
D03*
X04675D02*
D03*
Y02169D02*
D03*
X04625D02*
D03*
X04575D02*
D03*
X04525D02*
D03*
X04475D02*
D03*
X04425D02*
D03*
X04375D02*
D03*
X04325D02*
D03*
X04275D02*
D03*
X04225D02*
D03*
D118*
X03635Y023695D02*
D03*
X03585D02*
D03*
X03535D02*
D03*
X03485D02*
D03*
X03435D02*
D03*
X03385D02*
D03*
X03335D02*
D03*
Y021645D02*
D03*
X03385D02*
D03*
X03435D02*
D03*
X03485D02*
D03*
X03535D02*
D03*
X03585D02*
D03*
X03635D02*
D03*
D122*
X04305Y04322D02*
D03*
Y042826D02*
D03*
Y042432D02*
D03*
Y042039D02*
D03*
Y041645D02*
D03*
Y041251D02*
D03*
Y040857D02*
D03*
Y040464D02*
D03*
Y04007D02*
D03*
Y039676D02*
D03*
Y039283D02*
D03*
Y038889D02*
D03*
Y038495D02*
D03*
Y038102D02*
D03*
Y037708D02*
D03*
Y037314D02*
D03*
Y03692D02*
D03*
X035633D02*
D03*
Y037314D02*
D03*
Y038102D02*
D03*
Y038495D02*
D03*
Y038889D02*
D03*
Y039283D02*
D03*
Y039676D02*
D03*
Y04007D02*
D03*
Y040464D02*
D03*
Y040857D02*
D03*
Y041251D02*
D03*
Y041645D02*
D03*
Y042039D02*
D03*
Y042432D02*
D03*
Y042826D02*
D03*
Y04322D02*
D03*
D123*
X053915Y033842D02*
D03*
X053165D02*
D03*
X05354Y034548D02*
D03*
X052115Y033898D02*
D03*
X051365D02*
D03*
X05174Y034603D02*
D03*
X019614Y039068D02*
D03*
X020364D02*
D03*
X019989Y038362D02*
D03*
D124*
X054294Y03202D02*
D03*
X053588Y032395D02*
D03*
Y031645D02*
D03*
X054294Y030603D02*
D03*
X053588Y030978D02*
D03*
Y030228D02*
D03*
X045854Y041137D02*
D03*
X045148Y041512D02*
D03*
Y040762D02*
D03*
D125*
X04754Y034754D02*
D03*
X04624D02*
D03*
D126*
X019442Y036872D02*
D03*
Y037246D02*
D03*
Y03762D02*
D03*
X020537Y036872D02*
D03*
Y03762D02*
D03*
D127*
X024158Y03657D02*
D03*
X024108Y03972D02*
D03*
X024117Y04282D02*
D03*
D128*
X026442Y035664D02*
D03*
Y03657D02*
D03*
Y037475D02*
D03*
X026392Y038814D02*
D03*
Y03972D02*
D03*
Y040625D02*
D03*
X0264Y041914D02*
D03*
Y04282D02*
D03*
Y043725D02*
D03*
M02*
