G04*
G04 #@! TF.GenerationSoftware,Altium Limited,Altium Designer,18.1.6 (161)*
G04*
G04 Layer_Color=128*
%FSTAX24Y24*%
%MOIN*%
G70*
G01*
G75*
%ADD136C,0.0020*%
D136*
X04356Y03228D02*
X04392D01*
X04374Y0321D02*
Y03246D01*
X04356Y03628D02*
X04392D01*
X04374Y0361D02*
Y03646D01*
X04356Y03528D02*
X04392D01*
X04374Y0351D02*
Y03546D01*
X04356Y03428D02*
X04392D01*
X04374Y0341D02*
Y03446D01*
X04356Y03328D02*
X04392D01*
X04374Y0331D02*
Y03346D01*
X04356Y03128D02*
X04392D01*
X04374Y0311D02*
Y03146D01*
X04735Y01802D02*
X04771D01*
X04753Y01784D02*
Y0182D01*
X04635Y01802D02*
X04671D01*
X04653Y01784D02*
Y0182D01*
X04535Y01802D02*
X04571D01*
X04553Y01784D02*
Y0182D01*
X04435Y01802D02*
X04471D01*
X04453Y01784D02*
Y0182D01*
X04335Y01802D02*
X04371D01*
X04353Y01784D02*
Y0182D01*
X04235Y01802D02*
X04271D01*
X04253Y01784D02*
Y0182D01*
X02365Y02422D02*
X02401D01*
X02383Y02404D02*
Y0244D01*
X02365Y02321D02*
X02401D01*
X02383Y02303D02*
Y02339D01*
X02365Y02223D02*
X02401D01*
X02383Y02205D02*
Y02241D01*
X02231Y02422D02*
X02267D01*
X02249Y02404D02*
Y0244D01*
X02231Y02321D02*
X02267D01*
X02249Y02303D02*
Y02339D01*
X02231Y02223D02*
X02267D01*
X02249Y02205D02*
Y02241D01*
X02097Y02223D02*
X02133D01*
X02115Y02205D02*
Y02241D01*
X02097Y02321D02*
X02133D01*
X02115Y02303D02*
Y02339D01*
X02097Y02422D02*
X02133D01*
X02115Y02404D02*
Y0244D01*
X01963Y02223D02*
X01999D01*
X01981Y02205D02*
Y02241D01*
X01963Y02321D02*
X01999D01*
X01981Y02303D02*
Y02339D01*
X01963Y02422D02*
X01999D01*
X01981Y02404D02*
Y0244D01*
X01829Y02223D02*
X01865D01*
X01847Y02205D02*
Y02241D01*
X01829Y02321D02*
X01865D01*
X01847Y02303D02*
Y02339D01*
X01829Y02422D02*
X01865D01*
X01847Y02404D02*
Y0244D01*
X01695Y02223D02*
X01731D01*
X01713Y02205D02*
Y02241D01*
X01695Y02321D02*
X01731D01*
X01713Y02303D02*
Y02339D01*
X01695Y02422D02*
X01731D01*
X01713Y02404D02*
Y0244D01*
X01561Y02223D02*
X01597D01*
X01579Y02205D02*
Y02241D01*
X01561Y02321D02*
X01597D01*
X01579Y02303D02*
Y02339D01*
X01561Y02422D02*
X01597D01*
X01579Y02404D02*
Y0244D01*
X01427Y02422D02*
X01463D01*
X01445Y02404D02*
Y0244D01*
X01427Y02321D02*
X01463D01*
X01445Y02303D02*
Y02339D01*
X01427Y02223D02*
X01463D01*
X01445Y02205D02*
Y02241D01*
X029959Y0337D02*
X03114D01*
X03055Y03311D02*
Y03429D01*
X021614Y020539D02*
X022166D01*
X02189Y020263D02*
Y020814D01*
X023114Y020539D02*
X023666D01*
X02339Y020263D02*
Y020814D01*
X024614Y020539D02*
X025166D01*
X02489Y020263D02*
Y020814D01*
X026114Y020539D02*
X026666D01*
X02639Y020263D02*
Y020814D01*
X05211Y02787D02*
X05247D01*
X05229Y02769D02*
Y02805D01*
X05111Y02787D02*
X05147D01*
X05129Y02769D02*
Y02805D01*
X05011Y02787D02*
X05047D01*
X05029Y02769D02*
Y02805D01*
X04911Y02787D02*
X04947D01*
X04929Y02769D02*
Y02805D01*
X04811Y02787D02*
X04847D01*
X04829Y02769D02*
Y02805D01*
X04711Y02787D02*
X04747D01*
X04729Y02769D02*
Y02805D01*
X03537Y02715D02*
X03573D01*
X03555Y02697D02*
Y02733D01*
X03439Y02715D02*
X03475D01*
X03457Y02697D02*
Y02733D01*
X03338Y02715D02*
X03374D01*
X03356Y02697D02*
Y02733D01*
X03537Y02565D02*
X03573D01*
X03555Y02547D02*
Y02583D01*
X03439Y02565D02*
X03475D01*
X03457Y02547D02*
Y02583D01*
X03338Y02565D02*
X03374D01*
X03356Y02547D02*
Y02583D01*
X029143Y02481D02*
X029457D01*
X0293Y024652D02*
Y024967D01*
X030143Y02481D02*
X030457D01*
X0303Y024652D02*
Y024967D01*
X031143Y02481D02*
X031457D01*
X0313Y024652D02*
Y024967D01*
X031143Y02181D02*
X031457D01*
X0313Y021652D02*
Y021967D01*
X030143Y02181D02*
X030457D01*
X0303Y021652D02*
Y021967D01*
X029143Y02181D02*
X029457D01*
X0293Y021652D02*
Y021967D01*
X025203Y02481D02*
X025517D01*
X02536Y024652D02*
Y024967D01*
X026203Y02481D02*
X026517D01*
X02636Y024652D02*
Y024967D01*
X027203Y02481D02*
X027517D01*
X02736Y024652D02*
Y024967D01*
X027203Y02181D02*
X027517D01*
X02736Y021652D02*
Y021967D01*
X026203Y02181D02*
X026517D01*
X02636Y021652D02*
Y021967D01*
X025203Y02181D02*
X025517D01*
X02536Y021652D02*
Y021967D01*
X019544Y020539D02*
X020096D01*
X01982Y020263D02*
Y020814D01*
X018044Y020539D02*
X018596D01*
X01832Y020263D02*
Y020814D01*
X016544Y020539D02*
X017096D01*
X01682Y020263D02*
Y020814D01*
X015044Y020539D02*
X015596D01*
X01532Y020263D02*
Y020814D01*
X028194Y020539D02*
X028746D01*
X02847Y020263D02*
Y020814D01*
X029694Y020539D02*
X030246D01*
X02997Y020263D02*
Y020814D01*
X031194Y020539D02*
X031746D01*
X03147Y020263D02*
Y020814D01*
X032694Y020539D02*
X033246D01*
X03297Y020263D02*
Y020814D01*
X034774Y020539D02*
X035326D01*
X03505Y020263D02*
Y020814D01*
X036274Y020539D02*
X036826D01*
X03655Y020263D02*
Y020814D01*
X037774Y020539D02*
X038326D01*
X03805Y020263D02*
Y020814D01*
X039274Y020539D02*
X039826D01*
X03955Y020263D02*
Y020814D01*
X0445Y02703D02*
X04486D01*
X04468Y02685D02*
Y02721D01*
X04551Y02703D02*
X04587D01*
X04569Y02685D02*
Y02721D01*
X04106Y0197D02*
X04142D01*
X04124Y01952D02*
Y01988D01*
X04106Y01872D02*
X04142D01*
X04124Y01854D02*
Y0189D01*
X04106Y01771D02*
X04142D01*
X04124Y01753D02*
Y01789D01*
X03851Y02497D02*
X03887D01*
X03869Y02479D02*
Y02515D01*
X03951Y02497D02*
X03987D01*
X03969Y02479D02*
Y02515D01*
X03851Y02397D02*
X03887D01*
X03869Y02379D02*
Y02415D01*
X03951Y02397D02*
X03987D01*
X03969Y02379D02*
Y02415D01*
X03851Y02297D02*
X03887D01*
X03869Y02279D02*
Y02315D01*
X03951Y02297D02*
X03987D01*
X03969Y02279D02*
Y02315D01*
X03851Y02197D02*
X03887D01*
X03869Y02179D02*
Y02215D01*
X03951Y02197D02*
X03987D01*
X03969Y02179D02*
Y02215D01*
X03963Y03622D02*
X04005D01*
X03984Y03601D02*
Y03643D01*
X03763Y03622D02*
X03805D01*
X03784Y03601D02*
Y03643D01*
X03563Y03622D02*
X03605D01*
X03584Y03601D02*
Y03643D01*
X03463Y03622D02*
X03505D01*
X03484Y03601D02*
Y03643D01*
X03363Y03622D02*
X03405D01*
X03384Y03601D02*
Y03643D01*
X03263Y03622D02*
X03305D01*
X03284Y03601D02*
Y03643D01*
X03663Y03622D02*
X03705D01*
X03684Y03601D02*
Y03643D01*
X03863Y03622D02*
X03905D01*
X03884Y03601D02*
Y03643D01*
X04063Y03622D02*
X04105D01*
X04084Y03601D02*
Y03643D01*
X04163Y03622D02*
X04205D01*
X04184Y03601D02*
Y03643D01*
X03601Y03475D02*
X03637D01*
X03619Y03457D02*
Y03493D01*
X035Y03475D02*
X03536D01*
X03518Y03457D02*
Y03493D01*
X03402Y03475D02*
X03438D01*
X0342Y03457D02*
Y03493D01*
X03301Y03475D02*
X03337D01*
X03319Y03457D02*
Y03493D01*
X03396Y02965D02*
X03432D01*
X03414Y02947D02*
Y02983D01*
X03396Y03065D02*
X03432D01*
X03414Y03047D02*
Y03083D01*
X03396Y03165D02*
X03432D01*
X03414Y03147D02*
Y03183D01*
X03396Y03265D02*
X03432D01*
X03414Y03247D02*
Y03283D01*
X03396Y02865D02*
X03432D01*
X03414Y02847D02*
Y02883D01*
X02486Y02658D02*
X02522D01*
X02504Y0264D02*
Y02676D01*
X02586Y02658D02*
X02622D01*
X02604Y0264D02*
Y02676D01*
X02686Y02658D02*
X02722D01*
X02704Y0264D02*
Y02676D01*
X02786Y02658D02*
X02822D01*
X02804Y0264D02*
Y02676D01*
X02886Y02658D02*
X02922D01*
X02904Y0264D02*
Y02676D01*
X02986Y02658D02*
X03022D01*
X03004Y0264D02*
Y02676D01*
X03086Y02658D02*
X03122D01*
X03104Y0264D02*
Y02676D01*
X03186Y02658D02*
X03222D01*
X03204Y0264D02*
Y02676D01*
X03186Y03158D02*
X03222D01*
X03204Y0314D02*
Y03176D01*
X03086Y03158D02*
X03122D01*
X03104Y0314D02*
Y03176D01*
X02986Y03158D02*
X03022D01*
X03004Y0314D02*
Y03176D01*
X02886Y03158D02*
X02922D01*
X02904Y0314D02*
Y03176D01*
X02786Y03158D02*
X02822D01*
X02804Y0314D02*
Y03176D01*
X02686Y03158D02*
X02722D01*
X02704Y0314D02*
Y03176D01*
X02586Y03158D02*
X02622D01*
X02604Y0314D02*
Y03176D01*
X02486Y03158D02*
X02522D01*
X02504Y0314D02*
Y03176D01*
X01669Y02658D02*
X01705D01*
X01687Y0264D02*
Y02676D01*
X01769Y02658D02*
X01805D01*
X01787Y0264D02*
Y02676D01*
X01869Y02658D02*
X01905D01*
X01887Y0264D02*
Y02676D01*
X01969Y02658D02*
X02005D01*
X01987Y0264D02*
Y02676D01*
X02069Y02658D02*
X02105D01*
X02087Y0264D02*
Y02676D01*
X02169Y02658D02*
X02205D01*
X02187Y0264D02*
Y02676D01*
X02269Y02658D02*
X02305D01*
X02287Y0264D02*
Y02676D01*
X02369Y02658D02*
X02405D01*
X02387Y0264D02*
Y02676D01*
X02369Y03158D02*
X02405D01*
X02387Y0314D02*
Y03176D01*
X02269Y03158D02*
X02305D01*
X02287Y0314D02*
Y03176D01*
X02169Y03158D02*
X02205D01*
X02187Y0314D02*
Y03176D01*
X02069Y03158D02*
X02105D01*
X02087Y0314D02*
Y03176D01*
X01969Y03158D02*
X02005D01*
X01987Y0314D02*
Y03176D01*
X01869Y03158D02*
X01905D01*
X01887Y0314D02*
Y03176D01*
X01769Y03158D02*
X01805D01*
X01787Y0314D02*
Y03176D01*
X01669Y03158D02*
X01705D01*
X01687Y0314D02*
Y03176D01*
X014257Y028382D02*
X014769D01*
X014513Y028126D02*
Y028637D01*
X014257Y032318D02*
X014769D01*
X014513Y032063D02*
Y032574D01*
X014257Y03035D02*
X014769D01*
X014513Y030094D02*
Y030606D01*
X01587Y03441D02*
X01623D01*
X01605Y03423D02*
Y03459D01*
X01587Y03542D02*
X01623D01*
X01605Y03524D02*
Y0356D01*
X01445Y03441D02*
X01481D01*
X01463Y03423D02*
Y03459D01*
X01445Y03542D02*
X01481D01*
X01463Y03524D02*
Y0356D01*
X016364Y037314D02*
X016916D01*
X01664Y037038D02*
Y03759D01*
X016364Y038814D02*
X016916D01*
X01664Y038538D02*
Y03909D01*
X016364Y04093D02*
X016916D01*
X01664Y040654D02*
Y041205D01*
X016364Y04243D02*
X016916D01*
X01664Y042154D02*
Y042705D01*
X02643Y04179D02*
X02679D01*
X02661Y04161D02*
Y04197D01*
X02643Y04078D02*
X02679D01*
X02661Y0406D02*
Y04096D01*
X02759Y04176D02*
X02795D01*
X02777Y04158D02*
Y04194D01*
X02759Y04078D02*
X02795D01*
X02777Y0406D02*
Y04096D01*
X02759Y03977D02*
X02795D01*
X02777Y03959D02*
Y03995D01*
X02645Y03854D02*
X02681D01*
X02663Y03836D02*
Y03872D01*
X02645Y03753D02*
X02681D01*
X02663Y03735D02*
Y03771D01*
X02757Y03752D02*
X02793D01*
X02775Y03734D02*
Y0377D01*
X02757Y03853D02*
X02793D01*
X02775Y03835D02*
Y03871D01*
X04469Y041945D02*
X04505D01*
X04487Y041765D02*
Y042125D01*
X04469Y039158D02*
X04505D01*
X04487Y038978D02*
Y039338D01*
X04455Y044538D02*
X04491D01*
X04473Y044358D02*
Y044718D01*
X04354Y044538D02*
X0439D01*
X04372Y044358D02*
Y044718D01*
X04256Y044538D02*
X04292D01*
X04274Y044358D02*
Y044718D01*
X04155Y044538D02*
X04191D01*
X04173Y044358D02*
Y044718D01*
X03223Y04232D02*
X03259D01*
X03241Y04214D02*
Y0425D01*
X03223Y0433D02*
X03259D01*
X03241Y04312D02*
Y04348D01*
X03223Y04431D02*
X03259D01*
X03241Y04413D02*
Y04449D01*
X04501Y03239D02*
X04537D01*
X04519Y03221D02*
Y03257D01*
X04501Y03337D02*
X04537D01*
X04519Y03319D02*
Y03355D01*
X04501Y03438D02*
X04537D01*
X04519Y0342D02*
Y03456D01*
X04501Y03124D02*
X04537D01*
X04519Y03106D02*
Y03142D01*
X04501Y03023D02*
X04537D01*
X04519Y03005D02*
Y03041D01*
X04501Y02925D02*
X04537D01*
X04519Y02907D02*
Y02943D01*
X0445Y02813D02*
X04486D01*
X04468Y02795D02*
Y02831D01*
X04551Y02813D02*
X04587D01*
X04569Y02795D02*
Y02831D01*
X052545Y04075D02*
X052555D01*
X05255Y040745D02*
Y040755D01*
X052565Y04075D02*
X052805D01*
X052685Y04063D02*
Y04087D01*
X052295Y04075D02*
X052535D01*
X052415Y04063D02*
Y04087D01*
X052545Y037994D02*
X052555D01*
X05255Y037989D02*
Y037999D01*
X052565Y037994D02*
X052805D01*
X052685Y037874D02*
Y038114D01*
X052295Y037994D02*
X052535D01*
X052415Y037874D02*
Y038114D01*
X051322Y040356D02*
X051652D01*
X051487Y040191D02*
Y040521D01*
X051322Y038387D02*
X051652D01*
X051487Y038222D02*
Y038552D01*
X051599Y04465D02*
X05278D01*
X05219Y04406D02*
Y045241D01*
X01415Y04465D02*
X01533D01*
X01474Y04406D02*
Y045241D01*
X01415Y02591D02*
X01533D01*
X01474Y025319D02*
Y0265D01*
X051599Y01822D02*
X05278D01*
X05219Y017629D02*
Y01881D01*
X043911Y041748D02*
X044069D01*
X04399Y041669D02*
Y041827D01*
X032941Y0376D02*
X033099D01*
X03302Y037521D02*
Y037679D01*
X036231Y03761D02*
X036389D01*
X03631Y037531D02*
Y037689D01*
X033721Y03516D02*
X033879D01*
X0338Y035081D02*
Y035239D01*
X032201Y03489D02*
X032359D01*
X03228Y034811D02*
Y034969D01*
X034851Y04527D02*
X035009D01*
X03493Y045191D02*
Y045349D01*
X015951Y02632D02*
X016109D01*
X01603Y026241D02*
Y026399D01*
X015681Y02683D02*
X015839D01*
X01576Y026751D02*
Y026909D01*
X040001Y03346D02*
X040159D01*
X04008Y033381D02*
Y033539D01*
X040111Y033013D02*
X040269D01*
X04019Y032934D02*
Y033091D01*
X042291Y03224D02*
X042449D01*
X04237Y032161D02*
Y032319D01*
X041941Y03407D02*
X042099D01*
X04202Y033991D02*
Y034149D01*
X039321Y03327D02*
X039479D01*
X0394Y033191D02*
Y033348D01*
X039251Y03282D02*
X039409D01*
X03933Y032741D02*
Y032899D01*
X038521Y032904D02*
X038679D01*
X0386Y032825D02*
Y032983D01*
X039321Y0314D02*
X039479D01*
X0394Y031321D02*
Y031479D01*
X038691Y03145D02*
X038849D01*
X03877Y031371D02*
Y031529D01*
X038386Y03077D02*
X038544D01*
X038465Y030691D02*
Y030849D01*
X039091Y02732D02*
X039249D01*
X03917Y027241D02*
Y027399D01*
X039331Y02683D02*
X039489D01*
X03941Y026751D02*
Y026909D01*
X047641Y02939D02*
X047799D01*
X04772Y029311D02*
Y029469D01*
X046361Y03046D02*
X046519D01*
X04644Y030381D02*
Y030539D01*
X045451Y03607D02*
X045609D01*
X04553Y035991D02*
Y036149D01*
X040161Y03071D02*
X040319D01*
X04024Y030631D02*
Y030789D01*
X041151Y028D02*
X041309D01*
X04123Y027921D02*
Y028079D01*
X041081Y02882D02*
X041239D01*
X04116Y028741D02*
Y028899D01*
X041431Y02952D02*
X041589D01*
X04151Y029441D02*
Y029599D01*
X041711Y02986D02*
X041869D01*
X04179Y029781D02*
Y029939D01*
X043901Y02887D02*
X044059D01*
X04398Y028791D02*
Y028949D01*
X044231Y03024D02*
X044389D01*
X04431Y030161D02*
Y030319D01*
X042971Y03157D02*
X043128D01*
X04305Y031492D02*
Y031649D01*
X050771Y02393D02*
X050929D01*
X05085Y023851D02*
Y024009D01*
X051951Y03587D02*
X052109D01*
X05203Y035791D02*
Y035949D01*
X051471Y02941D02*
X051629D01*
X05155Y029331D02*
Y029489D01*
X049371Y02652D02*
X049529D01*
X04945Y026441D02*
Y026598D01*
X047141Y03961D02*
X047299D01*
X04722Y039531D02*
Y039689D01*
X048831Y037627D02*
X048989D01*
X04891Y037548D02*
Y037705D01*
X045299Y03689D02*
X045456D01*
X045378Y036811D02*
Y036969D01*
X036231Y04073D02*
X036389D01*
X03631Y040651D02*
Y040809D01*
X032491Y0332D02*
X032648D01*
X03257Y033121D02*
Y033279D01*
X035211Y032916D02*
X035369D01*
X03529Y032837D02*
Y032994D01*
X03421Y036918D02*
X034367D01*
X034288Y03684D02*
Y036997D01*
X031761Y04061D02*
X031919D01*
X03184Y040531D02*
Y040689D01*
X031591Y03867D02*
X031749D01*
X03167Y038591D02*
Y038749D01*
X029401Y03983D02*
X029559D01*
X02948Y039751D02*
Y039909D01*
X029531Y03919D02*
X029689D01*
X02961Y039111D02*
Y039269D01*
X028741Y04154D02*
X028899D01*
X02882Y041461D02*
Y041619D01*
X030051Y04282D02*
X030209D01*
X03013Y042741D02*
Y042899D01*
X032971Y041748D02*
X033129D01*
X03305Y041669D02*
Y041827D01*
X035421Y044798D02*
X035579D01*
X0355Y044719D02*
Y044877D01*
X034711Y044798D02*
X034869D01*
X03479Y044719D02*
Y044877D01*
X025267Y038814D02*
X025425D01*
X025346Y038735D02*
Y038893D01*
X050402Y03636D02*
X050559D01*
X050481Y036281D02*
Y036439D01*
X050201Y039238D02*
X050359D01*
X05028Y039159D02*
Y039317D01*
X032581Y03883D02*
X032739D01*
X03266Y038751D02*
Y038909D01*
X027904Y044407D02*
X028062D01*
X027983Y044328D02*
Y044486D01*
X025819Y038432D02*
X025977D01*
X025898Y038353D02*
Y038511D01*
X015111Y0297D02*
X015269D01*
X01519Y029621D02*
Y029779D01*
X019041Y02448D02*
X019199D01*
X01912Y024401D02*
Y024559D01*
X020351Y0251D02*
X020509D01*
X02043Y025021D02*
Y025179D01*
X019937Y03383D02*
X020095D01*
X020016Y033751D02*
Y033909D01*
X020231Y03071D02*
X020389D01*
X02031Y030631D02*
Y030789D01*
X026751Y03306D02*
X026909D01*
X02683Y032981D02*
Y033138D01*
X031261Y02346D02*
X031419D01*
X03134Y023381D02*
Y023539D01*
X033241Y02912D02*
X033399D01*
X03332Y029041D02*
Y029199D01*
X025471Y02756D02*
X025629D01*
X02555Y027481D02*
Y027639D01*
X034921Y03104D02*
X035079D01*
X035Y030961D02*
Y031119D01*
X035341Y03074D02*
X035499D01*
X03542Y030661D02*
Y030819D01*
X033381Y02436D02*
X033539D01*
X03346Y024281D02*
Y024439D01*
X046521Y038028D02*
X046679D01*
X0466Y037949D02*
Y038107D01*
X04393Y039558D02*
X044087D01*
X044008Y039479D02*
Y039637D01*
X046031Y039218D02*
X046189D01*
X04611Y039139D02*
Y039297D01*
X034941Y04075D02*
X035099D01*
X03502Y040671D02*
Y040828D01*
X047241Y02445D02*
X047399D01*
X04732Y024371D02*
Y024529D01*
X043551Y02796D02*
X043709D01*
X04363Y027881D02*
Y028039D01*
X043551Y02497D02*
X043709D01*
X04363Y024891D02*
Y025049D01*
X049502Y02425D02*
X049659D01*
X04958Y024171D02*
Y024328D01*
X046721Y0228D02*
X046879D01*
X0468Y022721D02*
Y022879D01*
X046737Y0234D02*
X046894D01*
X046816Y023321D02*
Y023479D01*
X046121Y0228D02*
X046279D01*
X0462Y022721D02*
Y022879D01*
X048721Y021205D02*
X048879D01*
X0488Y021126D02*
Y021283D01*
X048121Y021192D02*
X048279D01*
X0482Y021113D02*
Y021271D01*
X048727Y0206D02*
X048884D01*
X048806Y020521D02*
Y020679D01*
X050971Y0253D02*
X051129D01*
X05105Y025221D02*
Y025379D01*
X037821Y02725D02*
X037979D01*
X0379Y027171D02*
Y027329D01*
X036551Y03024D02*
X036709D01*
X03663Y030161D02*
Y030319D01*
X036231Y02907D02*
X036389D01*
X03631Y028991D02*
Y029149D01*
X037041Y03193D02*
X037199D01*
X03712Y031851D02*
Y032009D01*
X041275Y030892D02*
X041433D01*
X041354Y030814D02*
Y030971D01*
X036941Y02739D02*
X037099D01*
X03702Y027311D02*
Y027469D01*
X036111Y02802D02*
X036269D01*
X03619Y027941D02*
Y028098D01*
X036001Y02975D02*
X036159D01*
X03608Y029671D02*
Y029829D01*
X041631Y03069D02*
X041789D01*
X04171Y030611D02*
Y030769D01*
X049002Y03427D02*
X049159D01*
X049081Y034191D02*
Y034349D01*
X048352Y03603D02*
X048509D01*
X048431Y035951D02*
Y036109D01*
X049762Y0317D02*
X049919D01*
X049841Y031621D02*
Y031779D01*
X049712Y03239D02*
X049869D01*
X049791Y032311D02*
Y032469D01*
X050957Y032365D02*
X051114D01*
X051036Y032286D02*
Y032444D01*
X050846Y03338D02*
X051004D01*
X050925Y033301D02*
Y033459D01*
X051804Y042498D02*
X051961D01*
X051882Y042419D02*
Y042577D01*
X051341Y04303D02*
X051499D01*
X05142Y042951D02*
Y043109D01*
X051271Y041548D02*
X051429D01*
X05135Y041469D02*
Y041627D01*
X051581Y042078D02*
X051739D01*
X05166Y041999D02*
Y042157D01*
X049172Y030649D02*
X049329D01*
X049251Y03057D02*
Y030728D01*
X046862Y03525D02*
X047019D01*
X046941Y035171D02*
Y035329D01*
X043346Y019104D02*
X043503D01*
X043424Y019025D02*
Y019182D01*
X043951Y01911D02*
X044109D01*
X04403Y019031D02*
Y019189D01*
X044551Y019104D02*
X044709D01*
X04463Y019025D02*
Y019182D01*
X029921Y0238D02*
X030079D01*
X03Y023721D02*
Y023879D01*
X029921Y0232D02*
X030079D01*
X03Y023121D02*
Y023279D01*
X029321Y0232D02*
X029479D01*
X0294Y023121D02*
Y023279D01*
X029321Y023796D02*
X029479D01*
X0294Y023718D02*
Y023875D01*
X026311Y0232D02*
X026469D01*
X02639Y023121D02*
Y023279D01*
X026311Y0238D02*
X026469D01*
X02639Y023721D02*
Y023879D01*
X025721Y0232D02*
X025879D01*
X0258Y023121D02*
Y023278D01*
X025721Y0238D02*
X025879D01*
X0258Y023721D02*
Y023879D01*
X017721Y0298D02*
X017879D01*
X0178Y029721D02*
Y029879D01*
X017721Y0292D02*
X017879D01*
X0178Y029121D02*
Y029279D01*
X017118Y0292D02*
X017275D01*
X017196Y029121D02*
Y029279D01*
X017118Y0298D02*
X017275D01*
X017196Y029721D02*
Y029879D01*
X017321Y0276D02*
X017479D01*
X0174Y027521D02*
Y027679D01*
X017911Y0276D02*
X018069D01*
X01799Y027521D02*
Y027679D01*
X018521Y0276D02*
X018679D01*
X0186Y027521D02*
Y027679D01*
X019121Y0276D02*
X019279D01*
X0192Y027521D02*
Y027679D01*
X034031Y044798D02*
X034189D01*
X03411Y044719D02*
Y044877D01*
X033431Y044792D02*
X033589D01*
X03351Y044713D02*
Y044871D01*
X050521Y0206D02*
X050679D01*
X0506Y020521D02*
Y020679D01*
X050521Y021192D02*
X050679D01*
X0506Y021113D02*
Y021271D01*
X04993Y0206D02*
X050087D01*
X050008Y020521D02*
Y020679D01*
X049921Y021205D02*
X050079D01*
X05Y021126D02*
Y021283D01*
X041523Y0236D02*
X041681D01*
X041602Y023521D02*
Y023679D01*
X041523Y0242D02*
X041681D01*
X041602Y024121D02*
Y024279D01*
X041516Y0248D02*
X041674D01*
X041595Y024721D02*
Y024879D01*
X040919Y0236D02*
X041077D01*
X040998Y023521D02*
Y023679D01*
X040919Y0242D02*
X041077D01*
X040998Y024121D02*
Y024279D01*
X040919Y0248D02*
X041077D01*
X040998Y024721D02*
Y024879D01*
X041121Y0332D02*
X041279D01*
X0412Y033121D02*
Y033279D01*
X037121Y02665D02*
X037279D01*
X0372Y026571D02*
Y026729D01*
X017521Y0404D02*
X017679D01*
X0176Y040321D02*
Y040479D01*
X017521Y0412D02*
X017679D01*
X0176Y041121D02*
Y041279D01*
X017521Y042D02*
X017679D01*
X0176Y041921D02*
Y042079D01*
X017521Y042794D02*
X017679D01*
X0176Y042716D02*
Y042873D01*
X047431Y042598D02*
X047589D01*
X04751Y042519D02*
Y042677D01*
X047408Y043652D02*
X047565D01*
X047487Y043573D02*
Y04373D01*
X045033Y040798D02*
X045191D01*
X045112Y040719D02*
Y040877D01*
X044241Y040398D02*
X044399D01*
X04432Y040319D02*
Y040477D01*
X043831Y040058D02*
X043989D01*
X04391Y039979D02*
Y040137D01*
X044629Y041198D02*
X044787D01*
X044708Y041119D02*
Y041277D01*
X024728Y033388D02*
X024886D01*
X024807Y033309D02*
Y033466D01*
X024126Y033404D02*
X024283D01*
X024204Y033325D02*
Y033483D01*
X024728Y034D02*
X024886D01*
X024807Y033921D02*
Y034079D01*
X024121Y033987D02*
X024279D01*
X0242Y033908D02*
Y034066D01*
X022721Y038D02*
X022879D01*
X0228Y037921D02*
Y038079D01*
X022121Y037996D02*
X022279D01*
X0222Y037917D02*
Y038074D01*
X022721Y0386D02*
X022879D01*
X0228Y038521D02*
Y038679D01*
X022121Y0386D02*
X022279D01*
X0222Y038521D02*
Y038679D01*
X052111Y02941D02*
X052269D01*
X05219Y029331D02*
Y029489D01*
X052381Y02896D02*
X052539D01*
X05246Y028881D02*
Y029039D01*
X051782Y02896D02*
X051939D01*
X05186Y028881D02*
Y029039D01*
X051181Y02896D02*
X051339D01*
X05126Y028881D02*
Y029039D01*
X044928Y024027D02*
X045086D01*
X045007Y023948D02*
Y024106D01*
X044417Y024027D02*
X044574D01*
X044496Y023948D02*
Y024106D01*
X043881Y024027D02*
X044039D01*
X04396Y023948D02*
Y024106D01*
X046121Y023415D02*
X046279D01*
X0462Y023337D02*
Y023494D01*
X042521Y043148D02*
X042679D01*
X0426Y043069D02*
Y043227D01*
X043641Y043534D02*
X043799D01*
X04372Y043455D02*
Y043613D01*
X042821Y04281D02*
X042979D01*
X0429Y042731D02*
Y042889D01*
X041631Y043558D02*
X041789D01*
X04171Y043479D02*
Y043637D01*
X040563Y043558D02*
X040721D01*
X040642Y043479D02*
Y043637D01*
X041431Y021192D02*
X041589D01*
X04151Y021113D02*
Y021271D01*
X045071Y038518D02*
X045229D01*
X04515Y038439D02*
Y038597D01*
X044221Y038458D02*
X044379D01*
X0443Y038379D02*
Y038537D01*
X021191Y034583D02*
X021349D01*
X02127Y034505D02*
Y034662D01*
X018235Y036872D02*
X018392D01*
X018313Y036793D02*
Y03695D01*
X019901Y03772D02*
X020059D01*
X01998Y037641D02*
Y037799D01*
X035301Y01973D02*
X035459D01*
X03538Y019651D02*
Y019809D01*
X032201Y02217D02*
X032359D01*
X03228Y022091D02*
Y022249D01*
X047551Y044728D02*
X047709D01*
X04763Y044649D02*
Y044807D01*
X048511Y043558D02*
X048669D01*
X04859Y043479D02*
Y043637D01*
X044661Y043508D02*
X044819D01*
X04474Y043429D02*
Y043587D01*
X044601Y043908D02*
X044759D01*
X04468Y043829D02*
Y043987D01*
X044085Y042215D02*
X044243D01*
X044164Y042137D02*
Y042294D01*
X046271Y043028D02*
X046429D01*
X04635Y042949D02*
Y043107D01*
X045051Y038058D02*
X045209D01*
X04513Y037979D02*
Y038137D01*
X043601Y038368D02*
X043759D01*
X04368Y038289D02*
Y038447D01*
X038801Y043418D02*
X038959D01*
X03888Y043339D02*
Y043497D01*
X037944Y043418D02*
X038102D01*
X038023Y043339D02*
Y043497D01*
X037121Y043418D02*
X037279D01*
X0372Y043339D02*
Y043497D01*
X036321Y043441D02*
X036479D01*
X0364Y043362D02*
Y04352D01*
X049491Y040668D02*
X049649D01*
X04957Y040589D02*
Y040747D01*
X049921Y039898D02*
X050079D01*
X05Y039819D02*
Y039977D01*
X046981Y044518D02*
X047139D01*
X04706Y044439D02*
Y044597D01*
X047595Y030639D02*
X047752D01*
X047674Y030561D02*
Y030718D01*
X041161Y02718D02*
X041319D01*
X04124Y027101D02*
Y027259D01*
X045201Y0244D02*
X045359D01*
X04528Y024321D02*
Y024479D01*
X044181Y023161D02*
X044339D01*
X04426Y023083D02*
Y02324D01*
X044554Y02284D02*
X044711D01*
X044633Y022761D02*
Y022919D01*
X049221Y02518D02*
X049379D01*
X0493Y025101D02*
Y025259D01*
X041041Y033795D02*
X041199D01*
X04112Y033716D02*
Y033873D01*
X040408Y018804D02*
X040565D01*
X040486Y018725D02*
Y018882D01*
X037161Y02029D02*
X037319D01*
X03724Y020211D02*
Y020369D01*
X032921Y02373D02*
X033079D01*
X033Y023651D02*
Y023809D01*
X040231Y02095D02*
X040389D01*
X04031Y020871D02*
Y021029D01*
X039851Y01888D02*
X040009D01*
X03993Y018801D02*
Y018959D01*
X045341Y02081D02*
X045499D01*
X04542Y020731D02*
Y020889D01*
X028271Y02402D02*
X028429D01*
X02835Y023941D02*
Y024099D01*
X040231Y03414D02*
X040389D01*
X04031Y034061D02*
Y034219D01*
X040091Y02806D02*
X040249D01*
X04017Y027981D02*
Y028139D01*
X040631Y03411D02*
X040789D01*
X04071Y034031D02*
Y034189D01*
X035321Y042728D02*
X035479D01*
X0354Y042649D02*
Y042807D01*
X034441Y042568D02*
X034599D01*
X03452Y042489D02*
Y042647D01*
X042641Y03003D02*
X042799D01*
X04272Y029951D02*
Y030109D01*
X042351Y03056D02*
X042509D01*
X04243Y030481D02*
Y030639D01*
X041991Y03022D02*
X042149D01*
X04207Y030141D02*
Y030299D01*
X036211Y02306D02*
X036369D01*
X03629Y022981D02*
Y023138D01*
X035711Y03054D02*
X035869D01*
X03579Y030461D02*
Y030619D01*
X036211Y03047D02*
X036369D01*
X03629Y030391D02*
Y030549D01*
X044941Y02254D02*
X045099D01*
X04502Y022461D02*
Y022619D01*
X043881Y02282D02*
X044039D01*
X04396Y022741D02*
Y022898D01*
X044197Y02254D02*
X044355D01*
X044276Y022461D02*
Y022619D01*
X043614Y02317D02*
X043771D01*
X043693Y023091D02*
Y023249D01*
X042851Y02317D02*
X043009D01*
X04293Y023091D02*
Y023249D01*
X036191Y02246D02*
X036349D01*
X03627Y022381D02*
Y022539D01*
X018811Y02845D02*
X018969D01*
X01889Y028371D02*
Y028529D01*
X039436Y034314D02*
X039594D01*
X039515Y034236D02*
Y034393D01*
X041571Y0267D02*
X041729D01*
X04165Y026621D02*
Y026779D01*
X038021Y0329D02*
X038179D01*
X0381Y032821D02*
Y032979D01*
X039071Y02942D02*
X039229D01*
X03915Y029341D02*
Y029498D01*
X039571Y02942D02*
X039729D01*
X03965Y029341D02*
Y029498D01*
X037121Y025182D02*
X037279D01*
X0372Y025103D02*
Y025261D01*
X037421Y024158D02*
X037579D01*
X0375Y024079D02*
Y024237D01*
X047521Y02402D02*
X047679D01*
X0476Y023941D02*
Y024098D01*
X048372Y030649D02*
X04853D01*
X048451Y03057D02*
Y030728D01*
X034631Y03327D02*
X034788D01*
X03471Y033191D02*
Y033348D01*
X032486Y039674D02*
X032643D01*
X032564Y039596D02*
Y039753D01*
X030731Y04412D02*
X030889D01*
X03081Y044041D02*
Y044198D01*
X030718Y04262D02*
X030876D01*
X030797Y042541D02*
Y042698D01*
X037761Y02342D02*
X037919D01*
X03784Y023341D02*
Y023498D01*
X037971Y02597D02*
X038129D01*
X03805Y025891D02*
Y026048D01*
X042171Y02367D02*
X042329D01*
X04225Y023591D02*
Y023748D01*
X028681Y03068D02*
X028839D01*
X02876Y030601D02*
Y030758D01*
X028131Y02933D02*
X028289D01*
X02821Y029251D02*
Y029408D01*
M02*
