G04*
G04 #@! TF.GenerationSoftware,Altium Limited,Altium Designer,18.1.6 (161)*
G04*
G04 Layer_Color=8421504*
%FSTAX24Y24*%
%MOIN*%
G70*
G01*
G75*
%ADD22R,0.0500X0.0550*%
%ADD23R,0.0530X0.0160*%
%ADD24R,0.0550X0.0500*%
%ADD25R,0.0630X0.1240*%
%ADD26R,0.0110X0.0580*%
%ADD27R,0.0580X0.0110*%
%ADD28R,0.0433X0.0472*%
%ADD29R,0.1299X0.0945*%
%ADD30R,0.0394X0.0945*%
%ADD31R,0.1540X0.0390*%
%ADD32R,0.4510X0.4110*%
%ADD33R,0.0591X0.0787*%
%ADD34R,0.0472X0.0433*%
%ADD35O,0.0800X0.0600*%
%ADD36R,0.0800X0.0600*%
%ADD37O,0.0400X0.0600*%
%ADD38O,0.0600X0.0400*%
%ADD39R,0.0380X0.0080*%
%ADD40R,0.0080X0.0380*%
%ADD41R,0.0010X0.0010*%
%ADD42R,0.0787X0.0787*%
%ADD43R,0.0750X0.0590*%
%ADD44R,0.0150X0.0150*%
G36*
X052351Y042279D02*
X051769D01*
Y042861D01*
X052351D01*
Y042279D01*
D02*
G37*
G36*
X051691D02*
X051109D01*
Y042861D01*
X051691D01*
Y042279D01*
D02*
G37*
G36*
X052351Y041619D02*
X051769D01*
Y042201D01*
X052351D01*
Y041619D01*
D02*
G37*
G36*
X051691D02*
X051109D01*
Y042201D01*
X051691D01*
Y041619D01*
D02*
G37*
G36*
X054815Y040292D02*
X054065D01*
Y040752D01*
X054815D01*
Y040292D01*
D02*
G37*
G36*
Y037996D02*
X054065D01*
Y038456D01*
X054815D01*
Y037996D01*
D02*
G37*
D22*
X04669Y01887D02*
D03*
X04759D02*
D03*
X01966Y03073D02*
D03*
X01876D02*
D03*
X01966Y02993D02*
D03*
X01876D02*
D03*
X02821Y03073D02*
D03*
X02731D02*
D03*
X02821Y02993D02*
D03*
X02731D02*
D03*
X04339Y02257D02*
D03*
X04249D02*
D03*
X043116Y02712D02*
D03*
X042216D02*
D03*
X03257Y03552D02*
D03*
X03347D02*
D03*
X02821Y03258D02*
D03*
X02731D02*
D03*
X01971D02*
D03*
X01881D02*
D03*
X02019Y03829D02*
D03*
X01929D02*
D03*
X01944Y04384D02*
D03*
X01854D02*
D03*
X02875Y04467D02*
D03*
X02965D02*
D03*
X03639Y04411D02*
D03*
X03549D02*
D03*
X04316Y04136D02*
D03*
X04226D02*
D03*
X05004Y04406D02*
D03*
X05094D02*
D03*
X052663D02*
D03*
X051763D02*
D03*
D23*
X053387Y039118D02*
D03*
Y039374D02*
D03*
Y039886D02*
D03*
Y03963D02*
D03*
Y038862D02*
D03*
D24*
X05014Y03857D02*
D03*
Y03947D02*
D03*
X0348Y03792D02*
D03*
Y03702D02*
D03*
X033461Y03632D02*
D03*
Y03722D02*
D03*
X03265D02*
D03*
Y03632D02*
D03*
X02965Y03952D02*
D03*
Y04042D02*
D03*
X0285Y036575D02*
D03*
Y037475D02*
D03*
X02955Y03617D02*
D03*
Y03527D02*
D03*
X03719Y04216D02*
D03*
Y04126D02*
D03*
X03639Y04216D02*
D03*
Y04126D02*
D03*
X0379Y03931D02*
D03*
Y04021D02*
D03*
X03871Y04216D02*
D03*
Y04126D02*
D03*
X03791Y04216D02*
D03*
Y04126D02*
D03*
X03951Y04216D02*
D03*
Y04126D02*
D03*
X04031Y04216D02*
D03*
Y04126D02*
D03*
X04276Y04211D02*
D03*
Y04301D02*
D03*
X043523Y04211D02*
D03*
Y04301D02*
D03*
X0501Y04045D02*
D03*
Y04135D02*
D03*
D25*
X02176Y02803D02*
D03*
Y029959D02*
D03*
X03031Y02803D02*
D03*
Y029959D02*
D03*
X02621Y043095D02*
D03*
Y045025D02*
D03*
D26*
X040225Y028844D02*
D03*
X040028D02*
D03*
X039831D02*
D03*
X039634D02*
D03*
X039437D02*
D03*
X039241D02*
D03*
X039044D02*
D03*
X038847D02*
D03*
X03865D02*
D03*
X038453D02*
D03*
X038256D02*
D03*
X038059D02*
D03*
Y032164D02*
D03*
X038256D02*
D03*
X038453D02*
D03*
X03865D02*
D03*
X038847D02*
D03*
X039044D02*
D03*
X039241D02*
D03*
X039437D02*
D03*
X039634D02*
D03*
X039831D02*
D03*
X040028D02*
D03*
X040225D02*
D03*
D27*
X037482Y029422D02*
D03*
Y029619D02*
D03*
Y029816D02*
D03*
Y030012D02*
D03*
Y030209D02*
D03*
Y030406D02*
D03*
Y030603D02*
D03*
Y0308D02*
D03*
Y030997D02*
D03*
Y031193D02*
D03*
Y03139D02*
D03*
Y031587D02*
D03*
X040802D02*
D03*
Y03139D02*
D03*
Y031193D02*
D03*
Y030997D02*
D03*
Y0308D02*
D03*
Y030603D02*
D03*
Y030406D02*
D03*
Y030209D02*
D03*
Y030012D02*
D03*
Y029816D02*
D03*
Y029619D02*
D03*
Y029422D02*
D03*
D28*
X042237Y02792D02*
D03*
X043063D02*
D03*
X035527Y04321D02*
D03*
X036353D02*
D03*
X041147Y04216D02*
D03*
X041973D02*
D03*
X041147Y04296D02*
D03*
X041973D02*
D03*
X041147Y04386D02*
D03*
X041973D02*
D03*
D29*
X01974Y034717D02*
D03*
D30*
X018834Y037D02*
D03*
X01974D02*
D03*
X020646D02*
D03*
D31*
X018945Y04035D02*
D03*
Y042429D02*
D03*
D32*
X02244Y04139D02*
D03*
D33*
X03105Y037383D02*
D03*
Y035257D02*
D03*
Y040433D02*
D03*
Y038307D02*
D03*
X032703Y040433D02*
D03*
Y038307D02*
D03*
X0311Y044559D02*
D03*
Y042433D02*
D03*
X0327Y044557D02*
D03*
Y042431D02*
D03*
D34*
X038708Y040155D02*
D03*
Y039328D02*
D03*
X04031Y043823D02*
D03*
Y042996D02*
D03*
X03951Y043823D02*
D03*
Y042996D02*
D03*
X03871Y043823D02*
D03*
Y042996D02*
D03*
X03791Y043823D02*
D03*
Y042996D02*
D03*
X05009Y042307D02*
D03*
Y043133D02*
D03*
D35*
X04879Y022032D02*
D03*
Y02282D02*
D03*
Y023607D02*
D03*
Y024394D02*
D03*
Y025182D02*
D03*
D36*
Y025969D02*
D03*
D37*
X052327Y036154D02*
D03*
X05154D02*
D03*
X050753D02*
D03*
X049965D02*
D03*
X049178D02*
D03*
X04839D02*
D03*
X047603D02*
D03*
X046816D02*
D03*
Y029855D02*
D03*
X047603D02*
D03*
X04839D02*
D03*
X049178D02*
D03*
X049965D02*
D03*
X050753D02*
D03*
X05154D02*
D03*
X052327D02*
D03*
D38*
X046225Y034973D02*
D03*
Y034186D02*
D03*
Y033398D02*
D03*
Y032611D02*
D03*
Y031824D02*
D03*
Y031036D02*
D03*
D39*
X052645Y041649D02*
D03*
Y041846D02*
D03*
Y042043D02*
D03*
Y04224D02*
D03*
Y042437D02*
D03*
Y042634D02*
D03*
Y042831D02*
D03*
X050815D02*
D03*
Y042634D02*
D03*
Y042437D02*
D03*
Y04224D02*
D03*
Y042043D02*
D03*
Y041846D02*
D03*
Y041649D02*
D03*
D40*
X052321Y043155D02*
D03*
X052124D02*
D03*
X051927D02*
D03*
X05173D02*
D03*
X051533D02*
D03*
X051336D02*
D03*
X051139D02*
D03*
Y041325D02*
D03*
X051336D02*
D03*
X051533D02*
D03*
X05173D02*
D03*
X051927D02*
D03*
X052124D02*
D03*
X052321D02*
D03*
D41*
X05173Y04224D02*
D03*
D42*
X05138Y038243D02*
D03*
Y039817D02*
D03*
D43*
X05444Y039767D02*
D03*
Y03898D02*
D03*
D44*
X02496Y0325D02*
D03*
M02*
