G04*
G04 #@! TF.GenerationSoftware,Altium Limited,Altium Designer,18.1.6 (161)*
G04*
G04 Layer_Color=2752767*
%FSTAX24Y24*%
%MOIN*%
G70*
G01*
G75*
%ADD132C,0.0020*%
%ADD133C,0.0027*%
%ADD134C,0.0013*%
D132*
X02375Y02414D02*
Y0243D01*
X02391D01*
Y02414D01*
X02375D01*
Y02313D02*
Y02329D01*
X02391D01*
Y02313D01*
X02375D01*
Y02215D02*
Y02231D01*
X02391D01*
Y02215D01*
X02375D01*
X0223Y02415D02*
Y02431D01*
X02246D01*
Y02415D01*
X0223D01*
Y02314D02*
Y0233D01*
X02246D01*
Y02314D01*
X0223D01*
Y02216D02*
Y02232D01*
X02246D01*
Y02216D01*
X0223D01*
X02085D02*
Y02232D01*
X02101D01*
Y02216D01*
X02085D01*
Y02314D02*
Y0233D01*
X02101D01*
Y02314D01*
X02085D01*
Y02415D02*
Y02431D01*
X02101D01*
Y02415D01*
X02085D01*
X0194Y02214D02*
Y0223D01*
X01956D01*
Y02214D01*
X0194D01*
Y02312D02*
Y02328D01*
X01956D01*
Y02312D01*
X0194D01*
Y02413D02*
Y02429D01*
X01956D01*
Y02413D01*
X0194D01*
X01795Y02216D02*
Y02232D01*
X01811D01*
Y02216D01*
X01795D01*
Y02314D02*
Y0233D01*
X01811D01*
Y02314D01*
X01795D01*
Y02415D02*
Y02431D01*
X01811D01*
Y02415D01*
X01795D01*
X01651Y02215D02*
Y02231D01*
X01667D01*
Y02215D01*
X01651D01*
Y02313D02*
Y02329D01*
X01667D01*
Y02313D01*
X01651D01*
Y02414D02*
Y0243D01*
X01667D01*
Y02414D01*
X01651D01*
X01505Y02215D02*
Y02231D01*
X01521D01*
Y02215D01*
X01505D01*
Y02313D02*
Y02329D01*
X01521D01*
Y02313D01*
X01505D01*
Y02414D02*
Y0243D01*
X01521D01*
Y02414D01*
X01505D01*
X0136D02*
Y0243D01*
X01376D01*
Y02414D01*
X0136D01*
Y02313D02*
Y02329D01*
X01376D01*
Y02313D01*
X0136D01*
Y02215D02*
Y02231D01*
X01376D01*
Y02215D01*
X0136D01*
X04362Y01783D02*
Y01799D01*
X04378D01*
Y01783D01*
X04362D01*
X04462D02*
Y01799D01*
X04478D01*
Y01783D01*
X04462D01*
X04562D02*
Y01799D01*
X04578D01*
Y01783D01*
X04562D01*
X04662D02*
Y01799D01*
X04678D01*
Y01783D01*
X04662D01*
X04762D02*
Y01799D01*
X04778D01*
Y01783D01*
X04762D01*
X04862D02*
Y01799D01*
X04878D01*
Y01783D01*
X04862D01*
X02189Y020459D02*
X02181Y020619D01*
X02197D01*
X02189Y020459D01*
X02339D02*
X02331Y020619D01*
X02347D01*
X02339Y020459D01*
X02489D02*
X02481Y020619D01*
X02497D01*
X02489Y020459D01*
X02639D02*
X02631Y020619D01*
X02647D01*
X02639Y020459D01*
X05371Y02799D02*
Y02815D01*
X05387D01*
Y02799D01*
X05371D01*
X05271D02*
Y02815D01*
X05287D01*
Y02799D01*
X05271D01*
X05171D02*
Y02815D01*
X05187D01*
Y02799D01*
X05171D01*
X05071D02*
Y02815D01*
X05087D01*
Y02799D01*
X05071D01*
X04971D02*
Y02815D01*
X04987D01*
Y02799D01*
X04971D01*
X04871D02*
Y02815D01*
X04887D01*
Y02799D01*
X04871D01*
X03515Y02785D02*
Y02801D01*
X03531D01*
Y02785D01*
X03515D01*
X03417D02*
Y02801D01*
X03433D01*
Y02785D01*
X03417D01*
X03316D02*
Y02801D01*
X03332D01*
Y02785D01*
X03316D01*
X03516Y02641D02*
Y02657D01*
X03532D01*
Y02641D01*
X03516D01*
X03418D02*
Y02657D01*
X03434D01*
Y02641D01*
X03418D01*
X03317D02*
Y02657D01*
X03333D01*
Y02641D01*
X03317D01*
X0293Y02473D02*
X02934Y02477D01*
X02938D01*
X02934Y02481D01*
X02938Y02485D01*
X02934D01*
X0293Y02489D01*
X02926Y02485D01*
X02922D01*
X02926Y02481D01*
X02922Y02477D01*
X02926D01*
X0293Y02473D01*
X0303D02*
X03034Y02477D01*
X03038D01*
X03034Y02481D01*
X03038Y02485D01*
X03034D01*
X0303Y02489D01*
X03026Y02485D01*
X03022D01*
X03026Y02481D01*
X03022Y02477D01*
X03026D01*
X0303Y02473D01*
X0313D02*
X03134Y02477D01*
X03138D01*
X03134Y02481D01*
X03138Y02485D01*
X03134D01*
X0313Y02489D01*
X03126Y02485D01*
X03122D01*
X03126Y02481D01*
X03122Y02477D01*
X03126D01*
X0313Y02473D01*
Y02173D02*
X03134Y02177D01*
X03138D01*
X03134Y02181D01*
X03138Y02185D01*
X03134D01*
X0313Y02189D01*
X03126Y02185D01*
X03122D01*
X03126Y02181D01*
X03122Y02177D01*
X03126D01*
X0313Y02173D01*
X0303D02*
X03034Y02177D01*
X03038D01*
X03034Y02181D01*
X03038Y02185D01*
X03034D01*
X0303Y02189D01*
X03026Y02185D01*
X03022D01*
X03026Y02181D01*
X03022Y02177D01*
X03026D01*
X0303Y02173D01*
X0293D02*
X02934Y02177D01*
X02938D01*
X02934Y02181D01*
X02938Y02185D01*
X02934D01*
X0293Y02189D01*
X02926Y02185D01*
X02922D01*
X02926Y02181D01*
X02922Y02177D01*
X02926D01*
X0293Y02173D01*
X02536Y02473D02*
X0254Y02477D01*
X02544D01*
X0254Y02481D01*
X02544Y02485D01*
X0254D01*
X02536Y02489D01*
X02532Y02485D01*
X02528D01*
X02532Y02481D01*
X02528Y02477D01*
X02532D01*
X02536Y02473D01*
X02636D02*
X0264Y02477D01*
X02644D01*
X0264Y02481D01*
X02644Y02485D01*
X0264D01*
X02636Y02489D01*
X02632Y02485D01*
X02628D01*
X02632Y02481D01*
X02628Y02477D01*
X02632D01*
X02636Y02473D01*
X02736D02*
X0274Y02477D01*
X02744D01*
X0274Y02481D01*
X02744Y02485D01*
X0274D01*
X02736Y02489D01*
X02732Y02485D01*
X02728D01*
X02732Y02481D01*
X02728Y02477D01*
X02732D01*
X02736Y02473D01*
Y02173D02*
X0274Y02177D01*
X02744D01*
X0274Y02181D01*
X02744Y02185D01*
X0274D01*
X02736Y02189D01*
X02732Y02185D01*
X02728D01*
X02732Y02181D01*
X02728Y02177D01*
X02732D01*
X02736Y02173D01*
X02636D02*
X0264Y02177D01*
X02644D01*
X0264Y02181D01*
X02644Y02185D01*
X0264D01*
X02636Y02189D01*
X02632Y02185D01*
X02628D01*
X02632Y02181D01*
X02628Y02177D01*
X02632D01*
X02636Y02173D01*
X02536D02*
X0254Y02177D01*
X02544D01*
X0254Y02181D01*
X02544Y02185D01*
X0254D01*
X02536Y02189D01*
X02532Y02185D01*
X02528D01*
X02532Y02181D01*
X02528Y02177D01*
X02532D01*
X02536Y02173D01*
X01982Y020459D02*
X01974Y020619D01*
X0199D01*
X01982Y020459D01*
X01832D02*
X01824Y020619D01*
X0184D01*
X01832Y020459D01*
X01682D02*
X01674Y020619D01*
X0169D01*
X01682Y020459D01*
X01532D02*
X01524Y020619D01*
X0154D01*
X01532Y020459D01*
X02847D02*
X02839Y020619D01*
X02855D01*
X02847Y020459D01*
X02997D02*
X02989Y020619D01*
X03005D01*
X02997Y020459D01*
X03147D02*
X03139Y020619D01*
X03155D01*
X03147Y020459D01*
X03297D02*
X03289Y020619D01*
X03305D01*
X03297Y020459D01*
X03505D02*
X03497Y020619D01*
X03513D01*
X03505Y020459D01*
X03655D02*
X03647Y020619D01*
X03663D01*
X03655Y020459D01*
X03805D02*
X03797Y020619D01*
X03813D01*
X03805Y020459D01*
X03955D02*
X03947Y020619D01*
X03963D01*
X03955Y020459D01*
X04235Y01915D02*
Y01931D01*
X04251D01*
Y01915D01*
X04235D01*
Y01814D02*
Y0183D01*
X04251D01*
Y01814D01*
X04235D01*
X055Y01969D02*
Y01985D01*
X05516D01*
Y01969D01*
X055D01*
X053D02*
Y01985D01*
X05316D01*
Y01969D01*
X053D01*
X052D02*
Y01985D01*
X05216D01*
Y01969D01*
X052D01*
X051D02*
Y01985D01*
X05116D01*
Y01969D01*
X051D01*
X05D02*
Y01985D01*
X05016D01*
Y01969D01*
X05D01*
X054D02*
Y01985D01*
X05416D01*
Y01969D01*
X054D01*
X04116Y01962D02*
Y01978D01*
X04132D01*
Y01962D01*
X04116D01*
Y01864D02*
Y0188D01*
X04132D01*
Y01864D01*
X04116D01*
Y01763D02*
Y01779D01*
X04132D01*
Y01763D01*
X04116D01*
X03861Y02489D02*
Y02505D01*
X03877D01*
Y02489D01*
X03861D01*
X03961D02*
Y02505D01*
X03977D01*
Y02489D01*
X03961D01*
X03861Y02389D02*
Y02405D01*
X03877D01*
Y02389D01*
X03861D01*
X03961D02*
Y02405D01*
X03977D01*
Y02389D01*
X03961D01*
X03861Y02289D02*
Y02305D01*
X03877D01*
Y02289D01*
X03861D01*
X03961D02*
Y02305D01*
X03977D01*
Y02289D01*
X03961D01*
X03861Y02189D02*
Y02205D01*
X03877D01*
Y02189D01*
X03861D01*
X03961D02*
Y02205D01*
X03977D01*
Y02189D01*
X03961D01*
X04172Y03614D02*
X04176Y03622D01*
X04172Y0363D01*
X0418Y03626D01*
X04188Y0363D01*
X04184Y03622D01*
X04188Y03614D01*
X0418Y03618D01*
X04172Y03614D01*
X03972D02*
X03976Y03622D01*
X03972Y0363D01*
X0398Y03626D01*
X03988Y0363D01*
X03984Y03622D01*
X03988Y03614D01*
X0398Y03618D01*
X03972Y03614D01*
X03772D02*
X03776Y03622D01*
X03772Y0363D01*
X0378Y03626D01*
X03788Y0363D01*
X03784Y03622D01*
X03788Y03614D01*
X0378Y03618D01*
X03772Y03614D01*
X03672D02*
X03676Y03622D01*
X03672Y0363D01*
X0368Y03626D01*
X03688Y0363D01*
X03684Y03622D01*
X03688Y03614D01*
X0368Y03618D01*
X03672Y03614D01*
X03572D02*
X03576Y03622D01*
X03572Y0363D01*
X0358Y03626D01*
X03588Y0363D01*
X03584Y03622D01*
X03588Y03614D01*
X0358Y03618D01*
X03572Y03614D01*
X03472D02*
X03476Y03622D01*
X03472Y0363D01*
X0348Y03626D01*
X03488Y0363D01*
X03484Y03622D01*
X03488Y03614D01*
X0348Y03618D01*
X03472Y03614D01*
X03872D02*
X03876Y03622D01*
X03872Y0363D01*
X0388Y03626D01*
X03888Y0363D01*
X03884Y03622D01*
X03888Y03614D01*
X0388Y03618D01*
X03872Y03614D01*
X04072D02*
X04076Y03622D01*
X04072Y0363D01*
X0408Y03626D01*
X04088Y0363D01*
X04084Y03622D01*
X04088Y03614D01*
X0408Y03618D01*
X04072Y03614D01*
X04272D02*
X04276Y03622D01*
X04272Y0363D01*
X0428Y03626D01*
X04288Y0363D01*
X04284Y03622D01*
X04288Y03614D01*
X0428Y03618D01*
X04272Y03614D01*
X04372D02*
X04376Y03622D01*
X04372Y0363D01*
X0438Y03626D01*
X04388Y0363D01*
X04384Y03622D01*
X04388Y03614D01*
X0438Y03618D01*
X04372Y03614D01*
X03776Y03444D02*
Y0346D01*
X03792D01*
Y03444D01*
X03776D01*
X03675D02*
Y0346D01*
X03691D01*
Y03444D01*
X03675D01*
X03577D02*
Y0346D01*
X03593D01*
Y03444D01*
X03577D01*
X03476D02*
Y0346D01*
X03492D01*
Y03444D01*
X03476D01*
X03355Y03016D02*
Y03032D01*
X03371D01*
Y03016D01*
X03355D01*
Y03116D02*
Y03132D01*
X03371D01*
Y03116D01*
X03355D01*
Y03216D02*
Y03232D01*
X03371D01*
Y03216D01*
X03355D01*
Y03316D02*
Y03332D01*
X03371D01*
Y03316D01*
X03355D01*
Y02916D02*
Y02932D01*
X03371D01*
Y02916D01*
X03355D01*
X02423Y0265D02*
Y02666D01*
X02439D01*
Y0265D01*
X02423D01*
X02523D02*
Y02666D01*
X02539D01*
Y0265D01*
X02523D01*
X02623D02*
Y02666D01*
X02639D01*
Y0265D01*
X02623D01*
X02723D02*
Y02666D01*
X02739D01*
Y0265D01*
X02723D01*
X02823D02*
Y02666D01*
X02839D01*
Y0265D01*
X02823D01*
X02923D02*
Y02666D01*
X02939D01*
Y0265D01*
X02923D01*
X03023D02*
Y02666D01*
X03039D01*
Y0265D01*
X03023D01*
X03123D02*
Y02666D01*
X03139D01*
Y0265D01*
X03123D01*
Y0315D02*
Y03166D01*
X03139D01*
Y0315D01*
X03123D01*
X03023D02*
Y03166D01*
X03039D01*
Y0315D01*
X03023D01*
X02923D02*
Y03166D01*
X02939D01*
Y0315D01*
X02923D01*
X02823D02*
Y03166D01*
X02839D01*
Y0315D01*
X02823D01*
X02723D02*
Y03166D01*
X02739D01*
Y0315D01*
X02723D01*
X02623D02*
Y03166D01*
X02639D01*
Y0315D01*
X02623D01*
X02523D02*
Y03166D01*
X02539D01*
Y0315D01*
X02523D01*
X02423D02*
Y03166D01*
X02439D01*
Y0315D01*
X02423D01*
X01568Y0265D02*
Y02666D01*
X01584D01*
Y0265D01*
X01568D01*
X01668D02*
Y02666D01*
X01684D01*
Y0265D01*
X01668D01*
X01768D02*
Y02666D01*
X01784D01*
Y0265D01*
X01768D01*
X01868D02*
Y02666D01*
X01884D01*
Y0265D01*
X01868D01*
X01968D02*
Y02666D01*
X01984D01*
Y0265D01*
X01968D01*
X02068D02*
Y02666D01*
X02084D01*
Y0265D01*
X02068D01*
X02168D02*
Y02666D01*
X02184D01*
Y0265D01*
X02168D01*
X02268D02*
Y02666D01*
X02284D01*
Y0265D01*
X02268D01*
Y0315D02*
Y03166D01*
X02284D01*
Y0315D01*
X02268D01*
X02168D02*
Y03166D01*
X02184D01*
Y0315D01*
X02168D01*
X02068D02*
Y03166D01*
X02084D01*
Y0315D01*
X02068D01*
X01968D02*
Y03166D01*
X01984D01*
Y0315D01*
X01968D01*
X01868D02*
Y03166D01*
X01884D01*
Y0315D01*
X01868D01*
X01768D02*
Y03166D01*
X01784D01*
Y0315D01*
X01768D01*
X01668D02*
Y03166D01*
X01684D01*
Y0315D01*
X01668D01*
X01568D02*
Y03166D01*
X01584D01*
Y0315D01*
X01568D01*
X01339Y027122D02*
Y027081D01*
X01347D01*
Y027122D01*
X01351D01*
Y027201D01*
X01347D01*
Y027241D01*
X01339D01*
Y027201D01*
X01335D01*
Y027122D01*
X01339D01*
Y031058D02*
Y031019D01*
X01347D01*
Y031058D01*
X01351D01*
Y031139D01*
X01347D01*
Y031179D01*
X01339D01*
Y031139D01*
X01335D01*
Y031058D01*
X01339D01*
Y02909D02*
Y02905D01*
X01347D01*
Y02909D01*
X01351D01*
Y02917D01*
X01347D01*
Y02921D01*
X01339D01*
Y02917D01*
X01335D01*
Y02909D01*
X01339D01*
X01583Y0333D02*
Y03346D01*
X01599D01*
Y0333D01*
X01583D01*
Y03431D02*
Y03447D01*
X01599D01*
Y03431D01*
X01583D01*
X01433Y0333D02*
Y03346D01*
X01449D01*
Y0333D01*
X01433D01*
Y03431D02*
Y03447D01*
X01449D01*
Y03431D01*
X01433D01*
X01664Y036754D02*
X01656Y036914D01*
X01672D01*
X01664Y036754D01*
Y038254D02*
X01656Y038414D01*
X01672D01*
X01664Y038254D01*
Y04037D02*
X01656Y04053D01*
X01672D01*
X01664Y04037D01*
Y04187D02*
X01656Y04203D01*
X01672D01*
X01664Y04187D01*
X02746Y04197D02*
Y04213D01*
X02762D01*
Y04197D01*
X02746D01*
Y04096D02*
Y04112D01*
X02762D01*
Y04096D01*
X02746D01*
X02862Y04362D02*
Y04378D01*
X02878D01*
Y04362D01*
X02862D01*
Y04264D02*
Y0428D01*
X02878D01*
Y04264D01*
X02862D01*
Y04163D02*
Y04179D01*
X02878D01*
Y04163D01*
X02862D01*
X02842Y03955D02*
Y03971D01*
X02858D01*
Y03955D01*
X02842D01*
Y03854D02*
Y0387D01*
X02858D01*
Y03854D01*
X02842D01*
X02957Y03753D02*
Y03769D01*
X02973D01*
Y03753D01*
X02957D01*
Y03854D02*
Y0387D01*
X02973D01*
Y03854D01*
X02957D01*
X04668Y041867D02*
Y042027D01*
X04684D01*
Y041867D01*
X04668D01*
Y03908D02*
Y03924D01*
X04684D01*
Y03908D01*
X04668D01*
X04654Y04446D02*
Y04462D01*
X0467D01*
Y04446D01*
X04654D01*
X04553D02*
Y04462D01*
X04569D01*
Y04446D01*
X04553D01*
X04455D02*
Y04462D01*
X04471D01*
Y04446D01*
X04455D01*
X04354D02*
Y04462D01*
X0437D01*
Y04446D01*
X04354D01*
X05346Y03688D02*
Y03704D01*
X05362D01*
Y03688D01*
X05346D01*
X05444D02*
Y03704D01*
X0546D01*
Y03688D01*
X05444D01*
X05545D02*
Y03704D01*
X05561D01*
Y03688D01*
X05545D01*
X04467Y03231D02*
Y03247D01*
X04483D01*
Y03231D01*
X04467D01*
Y03329D02*
Y03345D01*
X04483D01*
Y03329D01*
X04467D01*
Y0343D02*
Y03446D01*
X04483D01*
Y0343D01*
X04467D01*
X04466Y03101D02*
Y03117D01*
X04482D01*
Y03101D01*
X04466D01*
Y03D02*
Y03016D01*
X04482D01*
Y03D01*
X04466D01*
Y02902D02*
Y02918D01*
X04482D01*
Y02902D01*
X04466D01*
X04554Y02686D02*
Y02702D01*
X0457D01*
Y02686D01*
X04554D01*
Y02787D02*
Y02803D01*
X0457D01*
Y02787D01*
X04554D01*
X05436Y040672D02*
X0544D01*
X05444Y040712D01*
X05448Y040672D01*
X05452D01*
Y040712D01*
X05448Y040752D01*
X05452Y040792D01*
Y040832D01*
X05448D01*
X05444Y040792D01*
X0544Y040832D01*
X05436D01*
Y040792D01*
X0544Y040752D01*
X05436Y040712D01*
Y040672D01*
X054495Y040752D02*
X054575Y040832D01*
X054655Y040752D01*
X054575Y040672D01*
X054495Y040752D01*
X054225D02*
X054305Y040832D01*
X054385Y040752D01*
X054305Y040672D01*
X054225Y040752D01*
X05436Y037916D02*
X0544D01*
X05444Y037956D01*
X05448Y037916D01*
X05452D01*
Y037956D01*
X05448Y037996D01*
X05452Y038036D01*
Y038076D01*
X05448D01*
X05444Y038036D01*
X0544Y038076D01*
X05436D01*
Y038036D01*
X0544Y037996D01*
X05436Y037956D01*
Y037916D01*
X054495Y037996D02*
X054575Y038076D01*
X054655Y037996D01*
X054575Y037916D01*
X054495Y037996D01*
X054225D02*
X054305Y038076D01*
X054385Y037996D01*
X054305Y037916D01*
X054225Y037996D01*
X053297Y040278D02*
Y040438D01*
X053457D01*
Y040278D01*
X053297D01*
X053337Y040318D02*
Y040398D01*
X053417D01*
Y040318D01*
X053337D01*
X053297Y038309D02*
Y038469D01*
X053457D01*
Y038309D01*
X053297D01*
X053337Y038349D02*
Y038429D01*
X053417D01*
Y038349D01*
X053337D01*
D133*
X03063Y0337D02*
G03*
X03063Y0337I-00008J0D01*
G01*
X05448Y0441D02*
G03*
X05448Y0441I-00008J0D01*
G01*
X01329D02*
G03*
X01329Y0441I-00008J0D01*
G01*
Y01899D02*
G03*
X01329Y01899I-00008J0D01*
G01*
X05448Y01822D02*
G03*
X05448Y01822I-00008J0D01*
G01*
X047462Y0256D02*
G03*
X047462Y0256I-00008J0D01*
G01*
X047474Y026199D02*
G03*
X047474Y026199I-00008J0D01*
G01*
X046738Y0262D02*
G03*
X046738Y0262I-00008J0D01*
G01*
X046158D02*
G03*
X046158Y0262I-00008J0D01*
G01*
X044674Y018994D02*
G03*
X044674Y018994I-00008J0D01*
G01*
X04528Y019D02*
G03*
X04528Y019I-00008J0D01*
G01*
X04588Y018994D02*
G03*
X04588Y018994I-00008J0D01*
G01*
X03008Y0238D02*
G03*
X03008Y0238I-00008J0D01*
G01*
Y0232D02*
G03*
X03008Y0232I-00008J0D01*
G01*
X02948D02*
G03*
X02948Y0232I-00008J0D01*
G01*
Y023796D02*
G03*
X02948Y023796I-00008J0D01*
G01*
X02647Y0232D02*
G03*
X02647Y0232I-00008J0D01*
G01*
Y0238D02*
G03*
X02647Y0238I-00008J0D01*
G01*
X02588Y0232D02*
G03*
X02588Y0232I-00008J0D01*
G01*
Y0238D02*
G03*
X02588Y0238I-00008J0D01*
G01*
X01788Y0298D02*
G03*
X01788Y0298I-00008J0D01*
G01*
Y0292D02*
G03*
X01788Y0292I-00008J0D01*
G01*
X017276D02*
G03*
X017276Y0292I-00008J0D01*
G01*
Y0298D02*
G03*
X017276Y0298I-00008J0D01*
G01*
X01688Y0276D02*
G03*
X01688Y0276I-00008J0D01*
G01*
X01748D02*
G03*
X01748Y0276I-00008J0D01*
G01*
X01807D02*
G03*
X01807Y0276I-00008J0D01*
G01*
X01868D02*
G03*
X01868Y0276I-00008J0D01*
G01*
X01928D02*
G03*
X01928Y0276I-00008J0D01*
G01*
X03608Y0448D02*
G03*
X03608Y0448I-00008J0D01*
G01*
X03548Y044794D02*
G03*
X03548Y044794I-00008J0D01*
G01*
X03488Y0448D02*
G03*
X03488Y0448I-00008J0D01*
G01*
X034274D02*
G03*
X034274Y0448I-00008J0D01*
G01*
X03368D02*
G03*
X03368Y0448I-00008J0D01*
G01*
X04828Y021192D02*
G03*
X04828Y021192I-00008J0D01*
G01*
X048886Y0206D02*
G03*
X048886Y0206I-00008J0D01*
G01*
X04888Y021205D02*
G03*
X04888Y021205I-00008J0D01*
G01*
X05068Y0206D02*
G03*
X05068Y0206I-00008J0D01*
G01*
Y021192D02*
G03*
X05068Y021192I-00008J0D01*
G01*
X050088Y0206D02*
G03*
X050088Y0206I-00008J0D01*
G01*
X05008Y021205D02*
G03*
X05008Y021205I-00008J0D01*
G01*
X041682Y0236D02*
G03*
X041682Y0236I-00008J0D01*
G01*
Y0242D02*
G03*
X041682Y0242I-00008J0D01*
G01*
X041675Y0248D02*
G03*
X041675Y0248I-00008J0D01*
G01*
X041078Y023598D02*
G03*
X041078Y023598I-00008J0D01*
G01*
Y024191D02*
G03*
X041078Y024191I-00008J0D01*
G01*
Y0248D02*
G03*
X041078Y0248I-00008J0D01*
G01*
X02508Y040788D02*
G03*
X02508Y040788I-00008J0D01*
G01*
X02568D02*
G03*
X02568Y040788I-00008J0D01*
G01*
Y0414D02*
G03*
X02568Y0414I-00008J0D01*
G01*
X02508Y041397D02*
G03*
X02508Y041397I-00008J0D01*
G01*
X02568Y042012D02*
G03*
X02568Y042012I-00008J0D01*
G01*
X02508Y042D02*
G03*
X02508Y042I-00008J0D01*
G01*
X03148Y0362D02*
G03*
X03148Y0362I-00008J0D01*
G01*
X03088D02*
G03*
X03088Y0362I-00008J0D01*
G01*
X030275D02*
G03*
X030275Y0362I-00008J0D01*
G01*
X04283Y033388D02*
G03*
X04283Y033388I-00008J0D01*
G01*
X042554Y032134D02*
G03*
X042554Y032134I-00008J0D01*
G01*
X04347Y032916D02*
G03*
X04347Y032916I-00008J0D01*
G01*
X043284Y0338D02*
G03*
X043284Y0338I-00008J0D01*
G01*
X042145Y032706D02*
G03*
X042145Y032706I-00008J0D01*
G01*
X04128Y0332D02*
G03*
X04128Y0332I-00008J0D01*
G01*
X04025D02*
G03*
X04025Y0332I-00008J0D01*
G01*
X03667Y02926D02*
G03*
X03667Y02926I-00008J0D01*
G01*
X03636Y02977D02*
G03*
X03636Y02977I-00008J0D01*
G01*
X03637Y02792D02*
G03*
X03637Y02792I-00008J0D01*
G01*
X03728Y02665D02*
G03*
X03728Y02665I-00008J0D01*
G01*
X01768Y0404D02*
G03*
X01768Y0404I-00008J0D01*
G01*
Y0412D02*
G03*
X01768Y0412I-00008J0D01*
G01*
Y042D02*
G03*
X01768Y042I-00008J0D01*
G01*
Y042794D02*
G03*
X01768Y042794I-00008J0D01*
G01*
X01308Y0428D02*
G03*
X01308Y0428I-00008J0D01*
G01*
Y0396D02*
G03*
X01308Y0396I-00008J0D01*
G01*
Y0404D02*
G03*
X01308Y0404I-00008J0D01*
G01*
Y0412D02*
G03*
X01308Y0412I-00008J0D01*
G01*
Y042D02*
G03*
X01308Y042I-00008J0D01*
G01*
X04948Y0426D02*
G03*
X04948Y0426I-00008J0D01*
G01*
X049457Y043654D02*
G03*
X049457Y043654I-00008J0D01*
G01*
X047082Y0408D02*
G03*
X047082Y0408I-00008J0D01*
G01*
X05339Y043032D02*
G03*
X05339Y043032I-00008J0D01*
G01*
X05428Y0414D02*
G03*
X05428Y0414I-00008J0D01*
G01*
X05388Y0418D02*
G03*
X05388Y0418I-00008J0D01*
G01*
X05528Y0422D02*
G03*
X05528Y0422I-00008J0D01*
G01*
X05488Y042603D02*
G03*
X05488Y042603I-00008J0D01*
G01*
X046486Y0402D02*
G03*
X046486Y0402I-00008J0D01*
G01*
X04588D02*
G03*
X04588Y0402I-00008J0D01*
G01*
X046678Y0412D02*
G03*
X046678Y0412I-00008J0D01*
G01*
X024887Y033388D02*
G03*
X024887Y033388I-00008J0D01*
G01*
X024284Y033404D02*
G03*
X024284Y033404I-00008J0D01*
G01*
X024887Y034D02*
G03*
X024887Y034I-00008J0D01*
G01*
X02428Y033987D02*
G03*
X02428Y033987I-00008J0D01*
G01*
X02288Y038D02*
G03*
X02288Y038I-00008J0D01*
G01*
X02228Y037996D02*
G03*
X02228Y037996I-00008J0D01*
G01*
X02288Y0386D02*
G03*
X02288Y0386I-00008J0D01*
G01*
X02228D02*
G03*
X02228Y0386I-00008J0D01*
G01*
X05368Y029D02*
G03*
X05368Y029I-00008J0D01*
G01*
X05308D02*
G03*
X05308Y029I-00008J0D01*
G01*
X052481D02*
G03*
X052481Y029I-00008J0D01*
G01*
X05188D02*
G03*
X05188Y029I-00008J0D01*
G01*
X051483Y0316D02*
G03*
X051483Y0316I-00008J0D01*
G01*
X05148Y031206D02*
G03*
X05148Y031206I-00008J0D01*
G01*
X05108Y0312D02*
G03*
X05108Y0312I-00008J0D01*
G01*
Y0316D02*
G03*
X05108Y0316I-00008J0D01*
G01*
X045087Y024027D02*
G03*
X045087Y024027I-00008J0D01*
G01*
X044576D02*
G03*
X044576Y024027I-00008J0D01*
G01*
X04404D02*
G03*
X04404Y024027I-00008J0D01*
G01*
X04688Y0228D02*
G03*
X04688Y0228I-00008J0D01*
G01*
X04628D02*
G03*
X04628Y0228I-00008J0D01*
G01*
X046896Y0234D02*
G03*
X046896Y0234I-00008J0D01*
G01*
X04628Y023415D02*
G03*
X04628Y023415I-00008J0D01*
G01*
X04457Y04315D02*
G03*
X04457Y04315I-00008J0D01*
G01*
X04569Y043536D02*
G03*
X04569Y043536I-00008J0D01*
G01*
X04487Y042812D02*
G03*
X04487Y042812I-00008J0D01*
G01*
X04368Y04356D02*
G03*
X04368Y04356I-00008J0D01*
G01*
X042612D02*
G03*
X042612Y04356I-00008J0D01*
G01*
X050057Y035113D02*
G03*
X050057Y035113I-00008J0D01*
G01*
X05121Y03512D02*
G03*
X05121Y03512I-00008J0D01*
G01*
X04159Y021192D02*
G03*
X04159Y021192I-00008J0D01*
G01*
X04867Y03763D02*
G03*
X04867Y03763I-00008J0D01*
G01*
X04846Y03818D02*
G03*
X04846Y03818I-00008J0D01*
G01*
X04808Y03922D02*
G03*
X04808Y03922I-00008J0D01*
G01*
X04871Y03949D02*
G03*
X04871Y03949I-00008J0D01*
G01*
X04929Y03789D02*
G03*
X04929Y03789I-00008J0D01*
G01*
X05043Y03761D02*
G03*
X05043Y03761I-00008J0D01*
G01*
X05088Y037629D02*
G03*
X05088Y037629I-00008J0D01*
G01*
X048206Y044846D02*
G03*
X048206Y044846I-00008J0D01*
G01*
X05224Y03798D02*
G03*
X05224Y03798I-00008J0D01*
G01*
X04924Y03922D02*
G03*
X04924Y03922I-00008J0D01*
G01*
X04712Y03852D02*
G03*
X04712Y03852I-00008J0D01*
G01*
X04627Y03846D02*
G03*
X04627Y03846I-00008J0D01*
G01*
X02623Y03226D02*
G03*
X02623Y03226I-00008J0D01*
G01*
X01936Y033855D02*
G03*
X01936Y033855I-00008J0D01*
G01*
X02135Y034583D02*
G03*
X02135Y034583I-00008J0D01*
G01*
X02592Y02745D02*
G03*
X02592Y02745I-00008J0D01*
G01*
X018393Y036872D02*
G03*
X018393Y036872I-00008J0D01*
G01*
X02006Y03772D02*
G03*
X02006Y03772I-00008J0D01*
G01*
X03546Y01973D02*
G03*
X03546Y01973I-00008J0D01*
G01*
X03236Y02217D02*
G03*
X03236Y02217I-00008J0D01*
G01*
X03291Y0292D02*
G03*
X03291Y0292I-00008J0D01*
G01*
X01468Y02654D02*
G03*
X01468Y02654I-00008J0D01*
G01*
X01932Y02479D02*
G03*
X01932Y02479I-00008J0D01*
G01*
X020642Y025752D02*
G03*
X020642Y025752I-00008J0D01*
G01*
X0317Y02374D02*
G03*
X0317Y02374I-00008J0D01*
G01*
X0496Y04473D02*
G03*
X0496Y04473I-00008J0D01*
G01*
X05056Y04356D02*
G03*
X05056Y04356I-00008J0D01*
G01*
X05357Y04239D02*
G03*
X05357Y04239I-00008J0D01*
G01*
X04671Y04351D02*
G03*
X04671Y04351I-00008J0D01*
G01*
X04665Y04391D02*
G03*
X04665Y04391I-00008J0D01*
G01*
X05234Y03221D02*
G03*
X05234Y03221I-00008J0D01*
G01*
X04615Y04211D02*
G03*
X04615Y04211I-00008J0D01*
G01*
X04832Y04303D02*
G03*
X04832Y04303I-00008J0D01*
G01*
X0471Y03806D02*
G03*
X0471Y03806I-00008J0D01*
G01*
X04565Y03837D02*
G03*
X04565Y03837I-00008J0D01*
G01*
X04965Y03649D02*
G03*
X04965Y03649I-00008J0D01*
G01*
X04641Y037D02*
G03*
X04641Y037I-00008J0D01*
G01*
X03405Y03758D02*
G03*
X03405Y03758I-00008J0D01*
G01*
X0435Y0456D02*
G03*
X0435Y0456I-00008J0D01*
G01*
X04085Y04342D02*
G03*
X04085Y04342I-00008J0D01*
G01*
X039993D02*
G03*
X039993Y04342I-00008J0D01*
G01*
X03917D02*
G03*
X03917Y04342I-00008J0D01*
G01*
X03837Y043443D02*
G03*
X03837Y043443I-00008J0D01*
G01*
X03699Y040752D02*
G03*
X03699Y040752I-00008J0D01*
G01*
X03786Y04077D02*
G03*
X03786Y04077I-00008J0D01*
G01*
X03638Y03775D02*
G03*
X03638Y03775I-00008J0D01*
G01*
X03786Y03765D02*
G03*
X03786Y03765I-00008J0D01*
G01*
X04957Y03994D02*
G03*
X04957Y03994I-00008J0D01*
G01*
X05154Y04067D02*
G03*
X05154Y04067I-00008J0D01*
G01*
X05197Y0399D02*
G03*
X05197Y0399I-00008J0D01*
G01*
X05339Y04089D02*
G03*
X05339Y04089I-00008J0D01*
G01*
X05377Y04107D02*
G03*
X05377Y04107I-00008J0D01*
G01*
X05329Y04211D02*
G03*
X05329Y04211I-00008J0D01*
G01*
X04903Y04452D02*
G03*
X04903Y04452I-00008J0D01*
G01*
X04888Y03508D02*
G03*
X04888Y03508I-00008J0D01*
G01*
X052407Y035133D02*
G03*
X052407Y035133I-00008J0D01*
G01*
X05217Y0344D02*
G03*
X05217Y0344I-00008J0D01*
G01*
X03639Y03702D02*
G03*
X03639Y03702I-00008J0D01*
G01*
X04717Y03463D02*
G03*
X04717Y03463I-00008J0D01*
G01*
X047683Y030159D02*
G03*
X047683Y030159I-00008J0D01*
G01*
X04132Y02718D02*
G03*
X04132Y02718I-00008J0D01*
G01*
X04536Y0244D02*
G03*
X04536Y0244I-00008J0D01*
G01*
X04434Y023161D02*
G03*
X04434Y023161I-00008J0D01*
G01*
X044713Y02284D02*
G03*
X044713Y02284I-00008J0D01*
G01*
X04598Y03143D02*
G03*
X04598Y03143I-00008J0D01*
G01*
X04949Y02717D02*
G03*
X04949Y02717I-00008J0D01*
G01*
X04964Y02398D02*
G03*
X04964Y02398I-00008J0D01*
G01*
X04938Y02518D02*
G03*
X04938Y02518I-00008J0D01*
G01*
X05088Y02389D02*
G03*
X05088Y02389I-00008J0D01*
G01*
X05113Y0253D02*
G03*
X05113Y0253I-00008J0D01*
G01*
X04824Y01961D02*
G03*
X04824Y01961I-00008J0D01*
G01*
X0412Y033795D02*
G03*
X0412Y033795I-00008J0D01*
G01*
X04356Y03195D02*
G03*
X04356Y03195I-00008J0D01*
G01*
X043Y03251D02*
G03*
X043Y03251I-00008J0D01*
G01*
X04402Y0303D02*
G03*
X04402Y0303I-00008J0D01*
G01*
X040566Y018804D02*
G03*
X040566Y018804I-00008J0D01*
G01*
X03732Y02029D02*
G03*
X03732Y02029I-00008J0D01*
G01*
X03308Y02373D02*
G03*
X03308Y02373I-00008J0D01*
G01*
X04039Y02095D02*
G03*
X04039Y02095I-00008J0D01*
G01*
X04001Y01888D02*
G03*
X04001Y01888I-00008J0D01*
G01*
X0455Y02081D02*
G03*
X0455Y02081I-00008J0D01*
G01*
X05362Y03203D02*
G03*
X05362Y03203I-00008J0D01*
G01*
X04542Y03555D02*
G03*
X04542Y03555I-00008J0D01*
G01*
X02843Y02402D02*
G03*
X02843Y02402I-00008J0D01*
G01*
X04335Y03133D02*
G03*
X04335Y03133I-00008J0D01*
G01*
X04519Y03673D02*
G03*
X04519Y03673I-00008J0D01*
G01*
X04039Y03414D02*
G03*
X04039Y03414I-00008J0D01*
G01*
X04169Y03087D02*
G03*
X04169Y03087I-00008J0D01*
G01*
X04025Y02806D02*
G03*
X04025Y02806I-00008J0D01*
G01*
X04031Y03007D02*
G03*
X04031Y03007I-00008J0D01*
G01*
X04079Y03411D02*
G03*
X04079Y03411I-00008J0D01*
G01*
X04518Y03765D02*
G03*
X04518Y03765I-00008J0D01*
G01*
X03737Y04273D02*
G03*
X03737Y04273I-00008J0D01*
G01*
X03649Y04257D02*
G03*
X03649Y04257I-00008J0D01*
G01*
X0428Y03003D02*
G03*
X0428Y03003I-00008J0D01*
G01*
X04251Y03056D02*
G03*
X04251Y03056I-00008J0D01*
G01*
X04215Y03022D02*
G03*
X04215Y03022I-00008J0D01*
G01*
X04187Y02986D02*
G03*
X04187Y02986I-00008J0D01*
G01*
X04124Y02882D02*
G03*
X04124Y02882I-00008J0D01*
G01*
X04159Y02952D02*
G03*
X04159Y02952I-00008J0D01*
G01*
X05015Y034603D02*
G03*
X05015Y034603I-00008J0D01*
G01*
X03407Y02521D02*
G03*
X03407Y02521I-00008J0D01*
G01*
X03637Y02306D02*
G03*
X03637Y02306I-00008J0D01*
G01*
X03587Y03054D02*
G03*
X03587Y03054I-00008J0D01*
G01*
X03637Y03047D02*
G03*
X03637Y03047I-00008J0D01*
G01*
X03671Y03024D02*
G03*
X03671Y03024I-00008J0D01*
G01*
X029153Y0409D02*
G03*
X029153Y0409I-00008J0D01*
G01*
X02725Y03862D02*
G03*
X02725Y03862I-00008J0D01*
G01*
X02776Y03856D02*
G03*
X02776Y03856I-00008J0D01*
G01*
X0451Y02254D02*
G03*
X0451Y02254I-00008J0D01*
G01*
X04404Y02282D02*
G03*
X04404Y02282I-00008J0D01*
G01*
X044356Y02254D02*
G03*
X044356Y02254I-00008J0D01*
G01*
X043773Y02317D02*
G03*
X043773Y02317I-00008J0D01*
G01*
X04301D02*
G03*
X04301Y02317I-00008J0D01*
G01*
X03941Y03282D02*
G03*
X03941Y03282I-00008J0D01*
G01*
X03635Y02246D02*
G03*
X03635Y02246I-00008J0D01*
G01*
X01897Y02845D02*
G03*
X01897Y02845I-00008J0D01*
G01*
X01449Y03035D02*
G03*
X01449Y03035I-00008J0D01*
G01*
X03443Y03785D02*
G03*
X03443Y03785I-00008J0D01*
G01*
X03355Y03782D02*
G03*
X03355Y03782I-00008J0D01*
G01*
X039595Y034314D02*
G03*
X039595Y034314I-00008J0D01*
G01*
X04173Y0267D02*
G03*
X04173Y0267I-00008J0D01*
G01*
X037403Y032173D02*
G03*
X037403Y032173I-00008J0D01*
G01*
X03818Y0329D02*
G03*
X03818Y0329I-00008J0D01*
G01*
X03863Y029828D02*
G03*
X03863Y029828I-00008J0D01*
G01*
X03838Y029422D02*
G03*
X03838Y029422I-00008J0D01*
G01*
X03923Y02942D02*
G03*
X03923Y02942I-00008J0D01*
G01*
X040317Y030794D02*
G03*
X040317Y030794I-00008J0D01*
G01*
X03973Y02942D02*
G03*
X03973Y02942I-00008J0D01*
G01*
X03728Y025182D02*
G03*
X03728Y025182I-00008J0D01*
G01*
X03758Y024158D02*
G03*
X03758Y024158I-00008J0D01*
G01*
X03728Y027548D02*
G03*
X03728Y027548I-00008J0D01*
G01*
X04768Y02402D02*
G03*
X04768Y02402I-00008J0D01*
G01*
X03428Y04207D02*
G03*
X03428Y04207I-00008J0D01*
G01*
X048461Y030169D02*
G03*
X048461Y030169I-00008J0D01*
G01*
X049258Y030147D02*
G03*
X049258Y030147I-00008J0D01*
G01*
X039332Y02727D02*
G03*
X039332Y02727I-00008J0D01*
G01*
X03983Y02687D02*
G03*
X03983Y02687I-00008J0D01*
G01*
X03533Y03277D02*
G03*
X03533Y03277I-00008J0D01*
G01*
X03513Y03057D02*
G03*
X03513Y03057I-00008J0D01*
G01*
X03468Y030894D02*
G03*
X03468Y030894I-00008J0D01*
G01*
X03948Y03327D02*
G03*
X03948Y03327I-00008J0D01*
G01*
X038927Y031448D02*
G03*
X038927Y031448I-00008J0D01*
G01*
X03943D02*
G03*
X03943Y031448I-00008J0D01*
G01*
X03868Y032904D02*
G03*
X03868Y032904I-00008J0D01*
G01*
X03479Y03327D02*
G03*
X03479Y03327I-00008J0D01*
G01*
X03428Y03597D02*
G03*
X03428Y03597I-00008J0D01*
G01*
X03103Y03967D02*
G03*
X03103Y03967I-00008J0D01*
G01*
X03148Y03927D02*
G03*
X03148Y03927I-00008J0D01*
G01*
X034534Y039676D02*
G03*
X034534Y039676I-00008J0D01*
G01*
Y038926D02*
G03*
X034534Y038926I-00008J0D01*
G01*
X03278Y04007D02*
G03*
X03278Y04007I-00008J0D01*
G01*
Y03862D02*
G03*
X03278Y03862I-00008J0D01*
G01*
X03308Y03462D02*
G03*
X03308Y03462I-00008J0D01*
G01*
X03278Y04427D02*
G03*
X03278Y04427I-00008J0D01*
G01*
X032767Y04277D02*
G03*
X032767Y04277I-00008J0D01*
G01*
X03203Y03382D02*
G03*
X03203Y03382I-00008J0D01*
G01*
X03803Y027439D02*
G03*
X03803Y027439I-00008J0D01*
G01*
X03792Y02342D02*
G03*
X03792Y02342I-00008J0D01*
G01*
X03198Y04167D02*
G03*
X03198Y04167I-00008J0D01*
G01*
X03053Y044946D02*
G03*
X03053Y044946I-00008J0D01*
G01*
X04953Y02652D02*
G03*
X04953Y02652I-00008J0D01*
G01*
X03813Y02597D02*
G03*
X03813Y02597I-00008J0D01*
G01*
X04233Y02367D02*
G03*
X04233Y02367I-00008J0D01*
G01*
X02884Y03068D02*
G03*
X02884Y03068I-00008J0D01*
G01*
X02829Y02933D02*
G03*
X02829Y02933I-00008J0D01*
G01*
X02029Y03073D02*
G03*
X02029Y03073I-00008J0D01*
G01*
X05062Y031604D02*
G03*
X05062Y031604I-00008J0D01*
G01*
X05225Y03141D02*
G03*
X05225Y03141I-00008J0D01*
G01*
D134*
X047422Y0256D02*
G03*
X047422Y0256I-00004J0D01*
G01*
X047434Y026199D02*
G03*
X047434Y026199I-00004J0D01*
G01*
X046698Y0262D02*
G03*
X046698Y0262I-00004J0D01*
G01*
X046118D02*
G03*
X046118Y0262I-00004J0D01*
G01*
X044634Y018994D02*
G03*
X044634Y018994I-00004J0D01*
G01*
X04524Y019D02*
G03*
X04524Y019I-00004J0D01*
G01*
X04584Y018994D02*
G03*
X04584Y018994I-00004J0D01*
G01*
X03004Y0238D02*
G03*
X03004Y0238I-00004J0D01*
G01*
Y0232D02*
G03*
X03004Y0232I-00004J0D01*
G01*
X02944D02*
G03*
X02944Y0232I-00004J0D01*
G01*
Y023796D02*
G03*
X02944Y023796I-00004J0D01*
G01*
X02643Y0232D02*
G03*
X02643Y0232I-00004J0D01*
G01*
Y0238D02*
G03*
X02643Y0238I-00004J0D01*
G01*
X02584Y0232D02*
G03*
X02584Y0232I-00004J0D01*
G01*
Y0238D02*
G03*
X02584Y0238I-00004J0D01*
G01*
X01784Y0298D02*
G03*
X01784Y0298I-00004J0D01*
G01*
Y0292D02*
G03*
X01784Y0292I-00004J0D01*
G01*
X017236D02*
G03*
X017236Y0292I-00004J0D01*
G01*
Y0298D02*
G03*
X017236Y0298I-00004J0D01*
G01*
X01684Y0276D02*
G03*
X01684Y0276I-00004J0D01*
G01*
X01744D02*
G03*
X01744Y0276I-00004J0D01*
G01*
X01803D02*
G03*
X01803Y0276I-00004J0D01*
G01*
X01864D02*
G03*
X01864Y0276I-00004J0D01*
G01*
X01924D02*
G03*
X01924Y0276I-00004J0D01*
G01*
X03604Y0448D02*
G03*
X03604Y0448I-00004J0D01*
G01*
X03544Y044794D02*
G03*
X03544Y044794I-00004J0D01*
G01*
X03484Y0448D02*
G03*
X03484Y0448I-00004J0D01*
G01*
X034234D02*
G03*
X034234Y0448I-00004J0D01*
G01*
X03364D02*
G03*
X03364Y0448I-00004J0D01*
G01*
X04824Y021192D02*
G03*
X04824Y021192I-00004J0D01*
G01*
X048846Y0206D02*
G03*
X048846Y0206I-00004J0D01*
G01*
X04884Y021205D02*
G03*
X04884Y021205I-00004J0D01*
G01*
X05064Y0206D02*
G03*
X05064Y0206I-00004J0D01*
G01*
Y021192D02*
G03*
X05064Y021192I-00004J0D01*
G01*
X050048Y0206D02*
G03*
X050048Y0206I-00004J0D01*
G01*
X05004Y021205D02*
G03*
X05004Y021205I-00004J0D01*
G01*
X041642Y0236D02*
G03*
X041642Y0236I-00004J0D01*
G01*
Y0242D02*
G03*
X041642Y0242I-00004J0D01*
G01*
X041635Y0248D02*
G03*
X041635Y0248I-00004J0D01*
G01*
X041038Y023598D02*
G03*
X041038Y023598I-00004J0D01*
G01*
Y024191D02*
G03*
X041038Y024191I-00004J0D01*
G01*
Y0248D02*
G03*
X041038Y0248I-00004J0D01*
G01*
X02504Y040788D02*
G03*
X02504Y040788I-00004J0D01*
G01*
X02564D02*
G03*
X02564Y040788I-00004J0D01*
G01*
Y0414D02*
G03*
X02564Y0414I-00004J0D01*
G01*
X02504Y041397D02*
G03*
X02504Y041397I-00004J0D01*
G01*
X02564Y042012D02*
G03*
X02564Y042012I-00004J0D01*
G01*
X02504Y042D02*
G03*
X02504Y042I-00004J0D01*
G01*
X03144Y0362D02*
G03*
X03144Y0362I-00004J0D01*
G01*
X03084D02*
G03*
X03084Y0362I-00004J0D01*
G01*
X030235D02*
G03*
X030235Y0362I-00004J0D01*
G01*
X04279Y033388D02*
G03*
X04279Y033388I-00004J0D01*
G01*
X042514Y032134D02*
G03*
X042514Y032134I-00004J0D01*
G01*
X04343Y032916D02*
G03*
X04343Y032916I-00004J0D01*
G01*
X043244Y0338D02*
G03*
X043244Y0338I-00004J0D01*
G01*
X042105Y032706D02*
G03*
X042105Y032706I-00004J0D01*
G01*
X04124Y0332D02*
G03*
X04124Y0332I-00004J0D01*
G01*
X04021D02*
G03*
X04021Y0332I-00004J0D01*
G01*
X03663Y02926D02*
G03*
X03663Y02926I-00004J0D01*
G01*
X03632Y02977D02*
G03*
X03632Y02977I-00004J0D01*
G01*
X03633Y02792D02*
G03*
X03633Y02792I-00004J0D01*
G01*
X03724Y02665D02*
G03*
X03724Y02665I-00004J0D01*
G01*
X01764Y0404D02*
G03*
X01764Y0404I-00004J0D01*
G01*
Y0412D02*
G03*
X01764Y0412I-00004J0D01*
G01*
Y042D02*
G03*
X01764Y042I-00004J0D01*
G01*
Y042794D02*
G03*
X01764Y042794I-00004J0D01*
G01*
X01304Y0428D02*
G03*
X01304Y0428I-00004J0D01*
G01*
Y0396D02*
G03*
X01304Y0396I-00004J0D01*
G01*
Y0404D02*
G03*
X01304Y0404I-00004J0D01*
G01*
Y0412D02*
G03*
X01304Y0412I-00004J0D01*
G01*
Y042D02*
G03*
X01304Y042I-00004J0D01*
G01*
X04944Y0426D02*
G03*
X04944Y0426I-00004J0D01*
G01*
X049417Y043654D02*
G03*
X049417Y043654I-00004J0D01*
G01*
X047042Y0408D02*
G03*
X047042Y0408I-00004J0D01*
G01*
X05335Y043032D02*
G03*
X05335Y043032I-00004J0D01*
G01*
X05424Y0414D02*
G03*
X05424Y0414I-00004J0D01*
G01*
X05384Y0418D02*
G03*
X05384Y0418I-00004J0D01*
G01*
X05524Y0422D02*
G03*
X05524Y0422I-00004J0D01*
G01*
X05484Y042603D02*
G03*
X05484Y042603I-00004J0D01*
G01*
X046446Y0402D02*
G03*
X046446Y0402I-00004J0D01*
G01*
X04584D02*
G03*
X04584Y0402I-00004J0D01*
G01*
X046638Y0412D02*
G03*
X046638Y0412I-00004J0D01*
G01*
X024847Y033388D02*
G03*
X024847Y033388I-00004J0D01*
G01*
X024244Y033404D02*
G03*
X024244Y033404I-00004J0D01*
G01*
X024847Y034D02*
G03*
X024847Y034I-00004J0D01*
G01*
X02424Y033987D02*
G03*
X02424Y033987I-00004J0D01*
G01*
X02284Y038D02*
G03*
X02284Y038I-00004J0D01*
G01*
X02224Y037996D02*
G03*
X02224Y037996I-00004J0D01*
G01*
X02284Y0386D02*
G03*
X02284Y0386I-00004J0D01*
G01*
X02224D02*
G03*
X02224Y0386I-00004J0D01*
G01*
X05364Y029D02*
G03*
X05364Y029I-00004J0D01*
G01*
X05304D02*
G03*
X05304Y029I-00004J0D01*
G01*
X052441D02*
G03*
X052441Y029I-00004J0D01*
G01*
X05184D02*
G03*
X05184Y029I-00004J0D01*
G01*
X051443Y0316D02*
G03*
X051443Y0316I-00004J0D01*
G01*
X05144Y031206D02*
G03*
X05144Y031206I-00004J0D01*
G01*
X05104Y0312D02*
G03*
X05104Y0312I-00004J0D01*
G01*
Y0316D02*
G03*
X05104Y0316I-00004J0D01*
G01*
X045047Y024027D02*
G03*
X045047Y024027I-00004J0D01*
G01*
X044536D02*
G03*
X044536Y024027I-00004J0D01*
G01*
X044D02*
G03*
X044Y024027I-00004J0D01*
G01*
X04684Y0228D02*
G03*
X04684Y0228I-00004J0D01*
G01*
X04624D02*
G03*
X04624Y0228I-00004J0D01*
G01*
X046856Y0234D02*
G03*
X046856Y0234I-00004J0D01*
G01*
X04624Y023415D02*
G03*
X04624Y023415I-00004J0D01*
G01*
X04453Y04315D02*
G03*
X04453Y04315I-00004J0D01*
G01*
X04565Y043536D02*
G03*
X04565Y043536I-00004J0D01*
G01*
X04483Y042812D02*
G03*
X04483Y042812I-00004J0D01*
G01*
X04364Y04356D02*
G03*
X04364Y04356I-00004J0D01*
G01*
X042572D02*
G03*
X042572Y04356I-00004J0D01*
G01*
X050017Y035113D02*
G03*
X050017Y035113I-00004J0D01*
G01*
X05117Y03512D02*
G03*
X05117Y03512I-00004J0D01*
G01*
X04155Y021192D02*
G03*
X04155Y021192I-00004J0D01*
G01*
X04863Y03763D02*
G03*
X04863Y03763I-00004J0D01*
G01*
X04842Y03818D02*
G03*
X04842Y03818I-00004J0D01*
G01*
X04804Y03922D02*
G03*
X04804Y03922I-00004J0D01*
G01*
X04867Y03949D02*
G03*
X04867Y03949I-00004J0D01*
G01*
X04925Y03789D02*
G03*
X04925Y03789I-00004J0D01*
G01*
X05039Y03761D02*
G03*
X05039Y03761I-00004J0D01*
G01*
X05084Y037629D02*
G03*
X05084Y037629I-00004J0D01*
G01*
X048166Y044846D02*
G03*
X048166Y044846I-00004J0D01*
G01*
X0522Y03798D02*
G03*
X0522Y03798I-00004J0D01*
G01*
X0492Y03922D02*
G03*
X0492Y03922I-00004J0D01*
G01*
X04708Y03852D02*
G03*
X04708Y03852I-00004J0D01*
G01*
X04623Y03846D02*
G03*
X04623Y03846I-00004J0D01*
G01*
X02619Y03226D02*
G03*
X02619Y03226I-00004J0D01*
G01*
X01932Y033855D02*
G03*
X01932Y033855I-00004J0D01*
G01*
X02131Y034583D02*
G03*
X02131Y034583I-00004J0D01*
G01*
X02588Y02745D02*
G03*
X02588Y02745I-00004J0D01*
G01*
X018353Y036872D02*
G03*
X018353Y036872I-00004J0D01*
G01*
X02002Y03772D02*
G03*
X02002Y03772I-00004J0D01*
G01*
X03542Y01973D02*
G03*
X03542Y01973I-00004J0D01*
G01*
X03232Y02217D02*
G03*
X03232Y02217I-00004J0D01*
G01*
X03287Y0292D02*
G03*
X03287Y0292I-00004J0D01*
G01*
X01464Y02654D02*
G03*
X01464Y02654I-00004J0D01*
G01*
X01928Y02479D02*
G03*
X01928Y02479I-00004J0D01*
G01*
X020603Y025752D02*
G03*
X020603Y025752I-00004J0D01*
G01*
X03166Y02374D02*
G03*
X03166Y02374I-00004J0D01*
G01*
X04956Y04473D02*
G03*
X04956Y04473I-00004J0D01*
G01*
X05052Y04356D02*
G03*
X05052Y04356I-00004J0D01*
G01*
X05353Y04239D02*
G03*
X05353Y04239I-00004J0D01*
G01*
X04667Y04351D02*
G03*
X04667Y04351I-00004J0D01*
G01*
X04661Y04391D02*
G03*
X04661Y04391I-00004J0D01*
G01*
X0523Y03221D02*
G03*
X0523Y03221I-00004J0D01*
G01*
X04611Y04211D02*
G03*
X04611Y04211I-00004J0D01*
G01*
X04828Y04303D02*
G03*
X04828Y04303I-00004J0D01*
G01*
X04706Y03806D02*
G03*
X04706Y03806I-00004J0D01*
G01*
X04561Y03837D02*
G03*
X04561Y03837I-00004J0D01*
G01*
X04961Y03649D02*
G03*
X04961Y03649I-00004J0D01*
G01*
X04637Y037D02*
G03*
X04637Y037I-00004J0D01*
G01*
X03401Y03758D02*
G03*
X03401Y03758I-00004J0D01*
G01*
X04346Y0456D02*
G03*
X04346Y0456I-00004J0D01*
G01*
X04081Y04342D02*
G03*
X04081Y04342I-00004J0D01*
G01*
X039953D02*
G03*
X039953Y04342I-00004J0D01*
G01*
X03913D02*
G03*
X03913Y04342I-00004J0D01*
G01*
X03833Y043443D02*
G03*
X03833Y043443I-00004J0D01*
G01*
X03695Y040752D02*
G03*
X03695Y040752I-00004J0D01*
G01*
X03782Y04077D02*
G03*
X03782Y04077I-00004J0D01*
G01*
X03634Y03775D02*
G03*
X03634Y03775I-00004J0D01*
G01*
X03782Y03765D02*
G03*
X03782Y03765I-00004J0D01*
G01*
X04953Y03994D02*
G03*
X04953Y03994I-00004J0D01*
G01*
X0515Y04067D02*
G03*
X0515Y04067I-00004J0D01*
G01*
X05193Y0399D02*
G03*
X05193Y0399I-00004J0D01*
G01*
X05335Y04089D02*
G03*
X05335Y04089I-00004J0D01*
G01*
X05373Y04107D02*
G03*
X05373Y04107I-00004J0D01*
G01*
X05325Y04211D02*
G03*
X05325Y04211I-00004J0D01*
G01*
X04899Y04452D02*
G03*
X04899Y04452I-00004J0D01*
G01*
X04884Y03508D02*
G03*
X04884Y03508I-00004J0D01*
G01*
X052367Y035133D02*
G03*
X052367Y035133I-00004J0D01*
G01*
X05213Y0344D02*
G03*
X05213Y0344I-00004J0D01*
G01*
X03635Y03702D02*
G03*
X03635Y03702I-00004J0D01*
G01*
X04713Y03463D02*
G03*
X04713Y03463I-00004J0D01*
G01*
X047643Y030159D02*
G03*
X047643Y030159I-00004J0D01*
G01*
X04128Y02718D02*
G03*
X04128Y02718I-00004J0D01*
G01*
X04532Y0244D02*
G03*
X04532Y0244I-00004J0D01*
G01*
X0443Y023161D02*
G03*
X0443Y023161I-00004J0D01*
G01*
X044673Y02284D02*
G03*
X044673Y02284I-00004J0D01*
G01*
X04594Y03143D02*
G03*
X04594Y03143I-00004J0D01*
G01*
X04945Y02717D02*
G03*
X04945Y02717I-00004J0D01*
G01*
X0496Y02398D02*
G03*
X0496Y02398I-00004J0D01*
G01*
X04934Y02518D02*
G03*
X04934Y02518I-00004J0D01*
G01*
X05084Y02389D02*
G03*
X05084Y02389I-00004J0D01*
G01*
X05109Y0253D02*
G03*
X05109Y0253I-00004J0D01*
G01*
X0482Y01961D02*
G03*
X0482Y01961I-00004J0D01*
G01*
X04116Y033795D02*
G03*
X04116Y033795I-00004J0D01*
G01*
X04352Y03195D02*
G03*
X04352Y03195I-00004J0D01*
G01*
X04296Y03251D02*
G03*
X04296Y03251I-00004J0D01*
G01*
X04398Y0303D02*
G03*
X04398Y0303I-00004J0D01*
G01*
X040526Y018804D02*
G03*
X040526Y018804I-00004J0D01*
G01*
X03728Y02029D02*
G03*
X03728Y02029I-00004J0D01*
G01*
X03304Y02373D02*
G03*
X03304Y02373I-00004J0D01*
G01*
X04035Y02095D02*
G03*
X04035Y02095I-00004J0D01*
G01*
X03997Y01888D02*
G03*
X03997Y01888I-00004J0D01*
G01*
X04546Y02081D02*
G03*
X04546Y02081I-00004J0D01*
G01*
X05358Y03203D02*
G03*
X05358Y03203I-00004J0D01*
G01*
X04538Y03555D02*
G03*
X04538Y03555I-00004J0D01*
G01*
X02839Y02402D02*
G03*
X02839Y02402I-00004J0D01*
G01*
X04331Y03133D02*
G03*
X04331Y03133I-00004J0D01*
G01*
X04515Y03673D02*
G03*
X04515Y03673I-00004J0D01*
G01*
X04035Y03414D02*
G03*
X04035Y03414I-00004J0D01*
G01*
X04165Y03087D02*
G03*
X04165Y03087I-00004J0D01*
G01*
X04021Y02806D02*
G03*
X04021Y02806I-00004J0D01*
G01*
X04027Y03007D02*
G03*
X04027Y03007I-00004J0D01*
G01*
X04075Y03411D02*
G03*
X04075Y03411I-00004J0D01*
G01*
X04514Y03765D02*
G03*
X04514Y03765I-00004J0D01*
G01*
X03733Y04273D02*
G03*
X03733Y04273I-00004J0D01*
G01*
X03645Y04257D02*
G03*
X03645Y04257I-00004J0D01*
G01*
X04276Y03003D02*
G03*
X04276Y03003I-00004J0D01*
G01*
X04247Y03056D02*
G03*
X04247Y03056I-00004J0D01*
G01*
X04211Y03022D02*
G03*
X04211Y03022I-00004J0D01*
G01*
X04183Y02986D02*
G03*
X04183Y02986I-00004J0D01*
G01*
X0412Y02882D02*
G03*
X0412Y02882I-00004J0D01*
G01*
X04155Y02952D02*
G03*
X04155Y02952I-00004J0D01*
G01*
X05011Y034603D02*
G03*
X05011Y034603I-00004J0D01*
G01*
X03403Y02521D02*
G03*
X03403Y02521I-00004J0D01*
G01*
X03633Y02306D02*
G03*
X03633Y02306I-00004J0D01*
G01*
X03583Y03054D02*
G03*
X03583Y03054I-00004J0D01*
G01*
X03633Y03047D02*
G03*
X03633Y03047I-00004J0D01*
G01*
X03667Y03024D02*
G03*
X03667Y03024I-00004J0D01*
G01*
X029113Y0409D02*
G03*
X029113Y0409I-00004J0D01*
G01*
X02721Y03862D02*
G03*
X02721Y03862I-00004J0D01*
G01*
X02772Y03856D02*
G03*
X02772Y03856I-00004J0D01*
G01*
X04506Y02254D02*
G03*
X04506Y02254I-00004J0D01*
G01*
X044Y02282D02*
G03*
X044Y02282I-00004J0D01*
G01*
X044316Y02254D02*
G03*
X044316Y02254I-00004J0D01*
G01*
X043733Y02317D02*
G03*
X043733Y02317I-00004J0D01*
G01*
X04297D02*
G03*
X04297Y02317I-00004J0D01*
G01*
X03937Y03282D02*
G03*
X03937Y03282I-00004J0D01*
G01*
X03631Y02246D02*
G03*
X03631Y02246I-00004J0D01*
G01*
X01893Y02845D02*
G03*
X01893Y02845I-00004J0D01*
G01*
X01445Y03035D02*
G03*
X01445Y03035I-00004J0D01*
G01*
X03439Y03785D02*
G03*
X03439Y03785I-00004J0D01*
G01*
X03351Y03782D02*
G03*
X03351Y03782I-00004J0D01*
G01*
X039555Y034314D02*
G03*
X039555Y034314I-00004J0D01*
G01*
X04169Y0267D02*
G03*
X04169Y0267I-00004J0D01*
G01*
X037363Y032173D02*
G03*
X037363Y032173I-00004J0D01*
G01*
X03814Y0329D02*
G03*
X03814Y0329I-00004J0D01*
G01*
X03859Y029828D02*
G03*
X03859Y029828I-00004J0D01*
G01*
X03834Y029422D02*
G03*
X03834Y029422I-00004J0D01*
G01*
X03919Y02942D02*
G03*
X03919Y02942I-00004J0D01*
G01*
X040277Y030794D02*
G03*
X040277Y030794I-00004J0D01*
G01*
X03969Y02942D02*
G03*
X03969Y02942I-00004J0D01*
G01*
X03724Y025182D02*
G03*
X03724Y025182I-00004J0D01*
G01*
X03754Y024158D02*
G03*
X03754Y024158I-00004J0D01*
G01*
X03724Y027548D02*
G03*
X03724Y027548I-00004J0D01*
G01*
X04764Y02402D02*
G03*
X04764Y02402I-00004J0D01*
G01*
X03424Y04207D02*
G03*
X03424Y04207I-00004J0D01*
G01*
X048421Y030169D02*
G03*
X048421Y030169I-00004J0D01*
G01*
X049218Y030147D02*
G03*
X049218Y030147I-00004J0D01*
G01*
X039292Y02727D02*
G03*
X039292Y02727I-00004J0D01*
G01*
X03979Y02687D02*
G03*
X03979Y02687I-00004J0D01*
G01*
X03529Y03277D02*
G03*
X03529Y03277I-00004J0D01*
G01*
X03509Y03057D02*
G03*
X03509Y03057I-00004J0D01*
G01*
X03464Y030894D02*
G03*
X03464Y030894I-00004J0D01*
G01*
X03944Y03327D02*
G03*
X03944Y03327I-00004J0D01*
G01*
X038887Y031448D02*
G03*
X038887Y031448I-00004J0D01*
G01*
X03939D02*
G03*
X03939Y031448I-00004J0D01*
G01*
X03864Y032904D02*
G03*
X03864Y032904I-00004J0D01*
G01*
X03475Y03327D02*
G03*
X03475Y03327I-00004J0D01*
G01*
X03424Y03597D02*
G03*
X03424Y03597I-00004J0D01*
G01*
X03099Y03967D02*
G03*
X03099Y03967I-00004J0D01*
G01*
X03144Y03927D02*
G03*
X03144Y03927I-00004J0D01*
G01*
X034494Y039676D02*
G03*
X034494Y039676I-00004J0D01*
G01*
Y038926D02*
G03*
X034494Y038926I-00004J0D01*
G01*
X03274Y04007D02*
G03*
X03274Y04007I-00004J0D01*
G01*
Y03862D02*
G03*
X03274Y03862I-00004J0D01*
G01*
X03304Y03462D02*
G03*
X03304Y03462I-00004J0D01*
G01*
X03274Y04427D02*
G03*
X03274Y04427I-00004J0D01*
G01*
X032727Y04277D02*
G03*
X032727Y04277I-00004J0D01*
G01*
X03199Y03382D02*
G03*
X03199Y03382I-00004J0D01*
G01*
X03799Y027439D02*
G03*
X03799Y027439I-00004J0D01*
G01*
X03788Y02342D02*
G03*
X03788Y02342I-00004J0D01*
G01*
X03194Y04167D02*
G03*
X03194Y04167I-00004J0D01*
G01*
X03049Y044946D02*
G03*
X03049Y044946I-00004J0D01*
G01*
X04949Y02652D02*
G03*
X04949Y02652I-00004J0D01*
G01*
X03809Y02597D02*
G03*
X03809Y02597I-00004J0D01*
G01*
X04229Y02367D02*
G03*
X04229Y02367I-00004J0D01*
G01*
X0288Y03068D02*
G03*
X0288Y03068I-00004J0D01*
G01*
X02825Y02933D02*
G03*
X02825Y02933I-00004J0D01*
G01*
X02025Y03073D02*
G03*
X02025Y03073I-00004J0D01*
G01*
X05058Y031604D02*
G03*
X05058Y031604I-00004J0D01*
G01*
X05221Y03141D02*
G03*
X05221Y03141I-00004J0D01*
G01*
M02*
