G04*
G04 #@! TF.GenerationSoftware,Altium Limited,Altium Designer,18.1.6 (161)*
G04*
G04 Layer_Color=255*
%FSTAX24Y24*%
%MOIN*%
G70*
G01*
G75*
%ADD22O,0.0800X0.0600*%
%ADD23R,0.0550X0.0500*%
%ADD24R,0.0500X0.0550*%
%ADD36O,0.0400X0.0600*%
%ADD37O,0.0600X0.0400*%
%ADD43R,0.0150X0.0150*%
%ADD85O,0.0750X0.0480*%
%ADD91O,0.0850X0.0650*%
%ADD92R,0.0850X0.0650*%
%ADD93O,0.0650X0.0850*%
%ADD94R,0.0650X0.0850*%
%ADD95R,0.0750X0.0650*%
%ADD96O,0.0750X0.0650*%
%ADD97C,0.1380*%
%ADD98R,0.0827X0.0827*%
%ADD99C,0.0827*%
%ADD100O,0.0650X0.0750*%
%ADD101R,0.0650X0.0750*%
%ADD102C,0.0512*%
%ADD103O,0.0860X0.0600*%
%ADD104O,0.0650X0.0900*%
%ADD105R,0.0650X0.0900*%
%ADD106O,0.0900X0.0650*%
%ADD107R,0.0900X0.0650*%
%ADD108C,0.0768*%
%ADD109R,0.0768X0.0768*%
%ADD110R,0.0827X0.0827*%
%ADD111C,0.0800*%
%ADD112R,0.0800X0.0800*%
%ADD113C,0.0240*%
%ADD114C,0.0570*%
%ADD118R,0.0220X0.0520*%
%ADD119R,0.0500X0.0870*%
%ADD120R,0.0520X0.0220*%
%ADD121R,0.0210X0.0710*%
%ADD122R,0.0210X0.0670*%
%ADD123R,0.0600X0.0210*%
%ADD124R,0.0945X0.1299*%
%ADD125R,0.0945X0.0394*%
%ADD126R,0.1000X0.0256*%
D22*
X0503Y02187D02*
D03*
Y02287D02*
D03*
Y02387D02*
D03*
Y02487D02*
D03*
Y02587D02*
D03*
D23*
X02883Y04001D02*
D03*
Y03911D02*
D03*
X051481Y03574D02*
D03*
Y03484D02*
D03*
X047221Y03428D02*
D03*
Y03338D02*
D03*
X048021Y03428D02*
D03*
Y03338D02*
D03*
X04877Y02695D02*
D03*
Y02605D02*
D03*
X04084Y03158D02*
D03*
Y03068D02*
D03*
X037Y02367D02*
D03*
Y02457D02*
D03*
X02601Y02858D02*
D03*
Y02948D02*
D03*
X017739Y037446D02*
D03*
Y036546D02*
D03*
X02573Y03968D02*
D03*
Y04058D02*
D03*
X02574Y03657D02*
D03*
Y03747D02*
D03*
X02564Y04372D02*
D03*
Y04282D02*
D03*
X03081Y043796D02*
D03*
Y042896D02*
D03*
X03184Y03928D02*
D03*
Y04018D02*
D03*
X043274Y038998D02*
D03*
Y039898D02*
D03*
X021339Y038146D02*
D03*
Y039046D02*
D03*
X048451Y031984D02*
D03*
Y031084D02*
D03*
X049261Y031984D02*
D03*
Y031084D02*
D03*
D24*
X050721Y03526D02*
D03*
X049821D02*
D03*
X050721Y03047D02*
D03*
X049821D02*
D03*
X048421Y03268D02*
D03*
X049321D02*
D03*
X047649Y032584D02*
D03*
X046749D02*
D03*
X047649Y031834D02*
D03*
X046749D02*
D03*
X04729Y02886D02*
D03*
X04819D02*
D03*
X04934Y02187D02*
D03*
X04844D02*
D03*
X039747Y03197D02*
D03*
X038847D02*
D03*
X03965Y025969D02*
D03*
X03875D02*
D03*
X020289Y036146D02*
D03*
X019389D02*
D03*
X02966Y043396D02*
D03*
X02876D02*
D03*
X039818Y028844D02*
D03*
X040718D02*
D03*
X018639Y039046D02*
D03*
X017739D02*
D03*
X047649Y031084D02*
D03*
X046749D02*
D03*
X048685Y03347D02*
D03*
X049585D02*
D03*
D36*
X050298Y03707D02*
D03*
X049707D02*
D03*
X049117D02*
D03*
X048526D02*
D03*
X047936D02*
D03*
X047345D02*
D03*
X046755D02*
D03*
X046164D02*
D03*
D37*
X05079Y044846D02*
D03*
Y044255D02*
D03*
Y043664D02*
D03*
Y043074D02*
D03*
Y042483D02*
D03*
Y041893D02*
D03*
Y041302D02*
D03*
Y040712D02*
D03*
Y040121D02*
D03*
Y039531D02*
D03*
Y03894D02*
D03*
Y03835D02*
D03*
Y037759D02*
D03*
X045672D02*
D03*
Y03835D02*
D03*
Y03894D02*
D03*
Y039531D02*
D03*
Y040121D02*
D03*
Y040712D02*
D03*
Y041302D02*
D03*
Y041893D02*
D03*
Y042483D02*
D03*
Y043074D02*
D03*
Y043664D02*
D03*
Y044255D02*
D03*
Y044846D02*
D03*
D43*
X02771Y02778D02*
D03*
D85*
X05255Y04075D02*
D03*
Y037994D02*
D03*
D91*
X04374Y03228D02*
D03*
Y03528D02*
D03*
Y03428D02*
D03*
Y03328D02*
D03*
Y03128D02*
D03*
D92*
Y03628D02*
D03*
D93*
X04753Y01802D02*
D03*
X04653D02*
D03*
X04553D02*
D03*
X04453D02*
D03*
X04353D02*
D03*
X05229Y02787D02*
D03*
X05129D02*
D03*
X05029D02*
D03*
X04929D02*
D03*
X04829D02*
D03*
X02504Y02658D02*
D03*
X02604D02*
D03*
X02704D02*
D03*
X02804D02*
D03*
X02904D02*
D03*
X03004D02*
D03*
X03104D02*
D03*
X03204D02*
D03*
Y03158D02*
D03*
X03104D02*
D03*
X03004D02*
D03*
X02904D02*
D03*
X02804D02*
D03*
X02704D02*
D03*
X02604D02*
D03*
X02504D02*
D03*
X01687Y02658D02*
D03*
X01787D02*
D03*
X01887D02*
D03*
X01987D02*
D03*
X02087D02*
D03*
X02187D02*
D03*
X02287D02*
D03*
X02387D02*
D03*
Y03158D02*
D03*
X02287D02*
D03*
X02187D02*
D03*
X02087D02*
D03*
X01987D02*
D03*
X01887D02*
D03*
X01787D02*
D03*
X01687D02*
D03*
D94*
X04253Y01802D02*
D03*
X04729Y02787D02*
D03*
D95*
X02383Y02422D02*
D03*
X02249D02*
D03*
X02115D02*
D03*
X01981D02*
D03*
X01847D02*
D03*
X01713D02*
D03*
X01579D02*
D03*
X01445D02*
D03*
X04124Y01771D02*
D03*
X01605Y03542D02*
D03*
X01463D02*
D03*
X02661Y04078D02*
D03*
X02777Y03977D02*
D03*
X02663Y03753D02*
D03*
X02775Y03853D02*
D03*
X03241Y04431D02*
D03*
X04519Y03438D02*
D03*
Y03124D02*
D03*
D96*
X02383Y02321D02*
D03*
Y02223D02*
D03*
X02249Y02321D02*
D03*
Y02223D02*
D03*
X02115D02*
D03*
Y02321D02*
D03*
X01981Y02223D02*
D03*
Y02321D02*
D03*
X01847Y02223D02*
D03*
Y02321D02*
D03*
X01713Y02223D02*
D03*
Y02321D02*
D03*
X01579Y02223D02*
D03*
Y02321D02*
D03*
X01445D02*
D03*
Y02223D02*
D03*
X04124Y0197D02*
D03*
Y01872D02*
D03*
X01605Y03441D02*
D03*
X01463D02*
D03*
X02661Y04179D02*
D03*
X02777Y04176D02*
D03*
Y04078D02*
D03*
X02663Y03854D02*
D03*
X02775Y03752D02*
D03*
X03241Y04232D02*
D03*
Y0433D02*
D03*
X04519Y03239D02*
D03*
Y03337D02*
D03*
Y03023D02*
D03*
Y02925D02*
D03*
D97*
X03055Y0337D02*
D03*
X05219Y04465D02*
D03*
X01474D02*
D03*
Y02591D02*
D03*
X05219Y01822D02*
D03*
D98*
X02189Y020539D02*
D03*
X01532D02*
D03*
X02847D02*
D03*
X03505D02*
D03*
D99*
X02339D02*
D03*
X02489D02*
D03*
X02639D02*
D03*
X01982D02*
D03*
X01832D02*
D03*
X01682D02*
D03*
X02997D02*
D03*
X03147D02*
D03*
X03297D02*
D03*
X03655D02*
D03*
X03805D02*
D03*
X03955D02*
D03*
X01664Y037314D02*
D03*
Y04093D02*
D03*
D100*
X03555Y02715D02*
D03*
X03457D02*
D03*
X03555Y02565D02*
D03*
X03457D02*
D03*
X04468Y02703D02*
D03*
X03619Y03475D02*
D03*
X03518D02*
D03*
X0342D02*
D03*
X03319D02*
D03*
X04473Y044538D02*
D03*
X04372D02*
D03*
X04274D02*
D03*
X04173D02*
D03*
X04468Y02813D02*
D03*
D101*
X03356Y02715D02*
D03*
Y02565D02*
D03*
X04569Y02703D02*
D03*
Y02813D02*
D03*
D102*
X0293Y02481D02*
D03*
X0303D02*
D03*
X0313D02*
D03*
Y02181D02*
D03*
X0303D02*
D03*
X0293D02*
D03*
X02536Y02481D02*
D03*
X02636D02*
D03*
X02736D02*
D03*
Y02181D02*
D03*
X02636D02*
D03*
X02536D02*
D03*
D103*
X03869Y02497D02*
D03*
X03969D02*
D03*
X03869Y02397D02*
D03*
X03969D02*
D03*
X03869Y02297D02*
D03*
X03969D02*
D03*
X03869Y02197D02*
D03*
X03969D02*
D03*
D104*
X03984Y03622D02*
D03*
X03784D02*
D03*
X03584D02*
D03*
X03484D02*
D03*
X03384D02*
D03*
X03684D02*
D03*
X03884D02*
D03*
X04084D02*
D03*
X04184D02*
D03*
D105*
X03284D02*
D03*
D106*
X03414Y02965D02*
D03*
Y03065D02*
D03*
Y03165D02*
D03*
Y02865D02*
D03*
D107*
Y03265D02*
D03*
D108*
X014513Y028382D02*
D03*
Y03035D02*
D03*
D109*
Y032318D02*
D03*
D110*
X01664Y038814D02*
D03*
Y04243D02*
D03*
D111*
X04487Y041945D02*
D03*
D112*
Y039158D02*
D03*
D113*
X052685Y04075D02*
D03*
X052415D02*
D03*
X052685Y037994D02*
D03*
X052415D02*
D03*
D114*
X051487Y040356D02*
D03*
Y038387D02*
D03*
D118*
X019989Y038362D02*
D03*
X020364Y039068D02*
D03*
X019614D02*
D03*
X049526Y034278D02*
D03*
X048776D02*
D03*
X049151Y034984D02*
D03*
D119*
X046311Y035234D02*
D03*
X047611D02*
D03*
D120*
X050381Y03366D02*
D03*
Y03441D02*
D03*
X051086Y034035D02*
D03*
X051088Y03274D02*
D03*
X050383Y033115D02*
D03*
Y032365D02*
D03*
X051076Y031415D02*
D03*
X050371Y03179D02*
D03*
Y03104D02*
D03*
X043964Y041135D02*
D03*
X043258Y04151D02*
D03*
Y04076D02*
D03*
D121*
X04225Y02545D02*
D03*
X04275D02*
D03*
X04325D02*
D03*
X04375D02*
D03*
X04425D02*
D03*
X04475D02*
D03*
X04525D02*
D03*
X04575D02*
D03*
X04625D02*
D03*
X04675D02*
D03*
Y02169D02*
D03*
X04625D02*
D03*
X04575D02*
D03*
X04525D02*
D03*
X04475D02*
D03*
X04425D02*
D03*
X04375D02*
D03*
X04325D02*
D03*
X04275D02*
D03*
X04225D02*
D03*
D122*
X03635Y023695D02*
D03*
X03585D02*
D03*
X03535D02*
D03*
X03485D02*
D03*
X03435D02*
D03*
X03385D02*
D03*
X03335D02*
D03*
Y021645D02*
D03*
X03385D02*
D03*
X03435D02*
D03*
X03485D02*
D03*
X03535D02*
D03*
X03585D02*
D03*
X03635D02*
D03*
D123*
X019442Y036872D02*
D03*
Y037246D02*
D03*
Y03762D02*
D03*
X020537Y036872D02*
D03*
Y03762D02*
D03*
D124*
X022398Y03657D02*
D03*
Y03972D02*
D03*
Y04282D02*
D03*
D125*
X024682Y035664D02*
D03*
Y03657D02*
D03*
Y037475D02*
D03*
Y038814D02*
D03*
Y03972D02*
D03*
Y040625D02*
D03*
Y041914D02*
D03*
Y04282D02*
D03*
Y043725D02*
D03*
D126*
X04116Y043218D02*
D03*
Y042824D02*
D03*
Y04243D02*
D03*
Y042037D02*
D03*
Y041643D02*
D03*
Y041249D02*
D03*
Y040855D02*
D03*
Y040462D02*
D03*
Y040068D02*
D03*
Y039674D02*
D03*
Y039281D02*
D03*
Y038887D02*
D03*
Y038493D02*
D03*
Y0381D02*
D03*
Y037706D02*
D03*
Y037312D02*
D03*
Y036918D02*
D03*
X033743D02*
D03*
Y037312D02*
D03*
Y037706D02*
D03*
Y0381D02*
D03*
Y038493D02*
D03*
Y038887D02*
D03*
Y039281D02*
D03*
Y039674D02*
D03*
Y040068D02*
D03*
Y040462D02*
D03*
Y040855D02*
D03*
Y041249D02*
D03*
Y041643D02*
D03*
Y042037D02*
D03*
Y04243D02*
D03*
Y042824D02*
D03*
Y043218D02*
D03*
M02*
