G04*
G04 #@! TF.GenerationSoftware,Altium Limited,Altium Designer,18.1.6 (161)*
G04*
G04 Layer_Color=32768*
%FSTAX24Y24*%
%MOIN*%
G70*
G01*
G75*
%ADD134C,0.0039*%
%ADD135C,0.0020*%
D134*
X02354Y036373D02*
Y036767D01*
X023343Y03657D02*
X023737D01*
X021827Y035152D02*
X025253D01*
X021827Y037987D02*
X025253D01*
X021827Y035152D02*
Y037987D01*
X025253Y035152D02*
Y037987D01*
X02354Y039523D02*
Y039917D01*
X023343Y03972D02*
X023737D01*
X021827Y038302D02*
X025253D01*
X021827Y041137D02*
X025253D01*
X021827Y038302D02*
Y041137D01*
X025253Y038302D02*
Y041137D01*
X02354Y042623D02*
Y043017D01*
X023343Y04282D02*
X023737D01*
X021827Y041402D02*
X025253D01*
X021827Y044237D02*
X025253D01*
X021827Y041402D02*
Y044237D01*
X025253Y041402D02*
Y044237D01*
X0419Y02757D02*
Y02827D01*
X04345Y02757D02*
Y02827D01*
X0419D02*
X04345D01*
X0419Y02757D02*
X04345D01*
X042453Y02792D02*
X042847D01*
X04265Y027723D02*
Y028117D01*
X019543Y035859D02*
X019937D01*
X01974Y035662D02*
Y036055D01*
X018323Y034146D02*
Y037571D01*
X021157Y034146D02*
Y037571D01*
X018323Y034146D02*
X021157D01*
X018323Y037571D02*
X021157D01*
X03405Y043011D02*
Y043405D01*
X033853Y043208D02*
X034247D01*
X03325Y043558D02*
X0348D01*
X03325Y042858D02*
X0348D01*
X03325D02*
Y043558D01*
X0348Y042858D02*
Y043558D01*
X036621Y03974D02*
X037015D01*
X036818Y039543D02*
Y039937D01*
X037168Y03899D02*
Y04054D01*
X036468Y03899D02*
Y04054D01*
X037168D01*
X036468Y03899D02*
X037168D01*
X03967Y041961D02*
Y042355D01*
X039473Y042158D02*
X039867D01*
X03887Y042508D02*
X04042D01*
X03887Y041808D02*
X04042D01*
X03887D02*
Y042508D01*
X04042Y041808D02*
Y042508D01*
X03967Y042761D02*
Y043155D01*
X039473Y042958D02*
X039867D01*
X03887Y043308D02*
X04042D01*
X03887Y042608D02*
X04042D01*
X03887D02*
Y043308D01*
X04042Y042608D02*
Y043308D01*
X03967Y043661D02*
Y044055D01*
X039473Y043858D02*
X039867D01*
X03887Y044208D02*
X04042D01*
X03887Y043508D02*
X04042D01*
X03887D02*
Y044208D01*
X04042Y043508D02*
Y044208D01*
X038223Y043408D02*
X038617D01*
X03842Y043211D02*
Y043605D01*
X03877Y042658D02*
Y044208D01*
X03807Y042658D02*
Y044208D01*
X03877D01*
X03807Y042658D02*
X03877D01*
X037423Y043408D02*
X037817D01*
X03762Y043211D02*
Y043605D01*
X03797Y042658D02*
Y044208D01*
X03727Y042658D02*
Y044208D01*
X03797D01*
X03727Y042658D02*
X03797D01*
X036623Y043408D02*
X037017D01*
X03682Y043211D02*
Y043605D01*
X03717Y042658D02*
Y044208D01*
X03647Y042658D02*
Y044208D01*
X03717D01*
X03647Y042658D02*
X03717D01*
X035823Y043408D02*
X036217D01*
X03602Y043211D02*
Y043605D01*
X03637Y042658D02*
Y044208D01*
X03567Y042658D02*
Y044208D01*
X03637D01*
X03567Y042658D02*
X03637D01*
X048003Y042718D02*
X048397D01*
X0482Y042521D02*
Y042915D01*
X04785Y041918D02*
Y043468D01*
X04855Y041918D02*
Y043468D01*
X04785Y041918D02*
X04855D01*
X04785Y043468D02*
X04855D01*
D135*
X020827Y01731D02*
Y02109D01*
Y01731D02*
X027453D01*
Y02109D01*
X020827D02*
X027453D01*
X023943Y0192D02*
X024337D01*
X02414Y019003D02*
Y019397D01*
X028426Y025357D02*
X032174D01*
Y021262D02*
Y025357D01*
X028426Y021262D02*
X032174D01*
X028426D02*
Y025357D01*
X030103Y02331D02*
X030497D01*
X0303Y023113D02*
Y023507D01*
X024486Y025357D02*
X028234D01*
Y021262D02*
Y025357D01*
X024486Y021262D02*
X028234D01*
X024486D02*
Y025357D01*
X026163Y02331D02*
X026557D01*
X02636Y023113D02*
Y023507D01*
X01757Y019003D02*
Y019397D01*
X017373Y0192D02*
X017767D01*
X014257Y02109D02*
X020883D01*
Y01731D02*
Y02109D01*
X014257Y01731D02*
X020883D01*
X014257D02*
Y02109D01*
X027407Y01731D02*
Y02109D01*
Y01731D02*
X034033D01*
Y02109D01*
X027407D02*
X034033D01*
X030523Y0192D02*
X030917D01*
X03072Y019003D02*
Y019397D01*
X033987Y01731D02*
Y02109D01*
Y01731D02*
X040613D01*
Y02109D01*
X033987D02*
X040613D01*
X037103Y0192D02*
X037497D01*
X0373Y019003D02*
Y019397D01*
X014493Y03035D02*
X014887D01*
X01469Y030153D02*
Y030547D01*
X013135Y033618D02*
X016245D01*
X013135Y027082D02*
Y033618D01*
Y027082D02*
X016245D01*
Y033618D01*
X013412Y039877D02*
X017191D01*
X013412Y036251D02*
Y039877D01*
Y036251D02*
X017191D01*
Y039877D01*
X015301Y037867D02*
Y038261D01*
X015105Y038064D02*
X015498D01*
X013412Y043493D02*
X017191D01*
X013412Y039867D02*
Y043493D01*
Y039867D02*
X017191D01*
Y043493D01*
X015301Y041483D02*
Y041877D01*
X015105Y04168D02*
X015498D01*
X02914Y036123D02*
Y036517D01*
X028943Y03632D02*
X029337D01*
X028372Y034784D02*
Y037855D01*
X029908D01*
Y034784D02*
Y037855D01*
X028372Y034784D02*
X029908D01*
X02924Y039453D02*
Y039847D01*
X029043Y03965D02*
X029437D01*
X028472Y038115D02*
Y041185D01*
X030008D01*
Y038115D02*
Y041185D01*
X028472Y038115D02*
X030008D01*
X03081Y039453D02*
Y039847D01*
X030613Y03965D02*
X031007D01*
X030042Y038115D02*
Y041185D01*
X031578D01*
Y038115D02*
Y041185D01*
X030042Y038115D02*
X031578D01*
X02921Y04315D02*
Y043543D01*
X029013Y043346D02*
X029407D01*
X028442Y041811D02*
Y044882D01*
X029978D01*
Y041811D02*
Y044882D01*
X028442Y041811D02*
X029978D01*
X03081Y043147D02*
Y043541D01*
X030613Y043344D02*
X031007D01*
X030042Y041808D02*
Y044879D01*
X031578D01*
Y041808D02*
Y044879D01*
X030042Y041808D02*
X031578D01*
M02*
