M48
;Layer_Color=9474304
;FILE_FORMAT=2:4
INCH,LZ
;TYPE=PLATED
T1F00S00C0.0010
T2F00S00C0.0157
T3F00S00C0.0240
T4F00S00C0.0315
T5F00S00C0.0330
T6F00S00C0.0360
T7F00S00C0.0420
T8F00S00C0.0512
T9F00S00C0.0551
T10F00S00C0.1181
%
T01
X05255Y037994
Y04075
T02
X0482Y021192
X0488Y021205
X048806Y0206
X050008
X0506
Y021192
X05Y021205
X04958Y02425
X0493Y02518
X04945Y02652
X05105Y0253
X05085Y02393
X0476Y02402
X04732Y02445
X04772Y02939
X047674Y030639
X048451Y030649
X049251Y030649
X05155Y02941
X05219
X05246Y02896
X05186
X05126
X04644Y03046
X04431Y03024
X04398Y02887
X04363Y02796
X04123Y028
X04124Y02718
X04165Y0267
X041595Y0248
X040998
Y0242
Y0236
X041602
Y0242
X04225Y02367
X04293Y02317
X043693
X04426Y023161
X044276Y02254
X04396Y02282
X044633Y02284
X04502Y02254
X0462Y0228
X0468
X046816Y0234
X0462Y023415
X045007Y024027
X044496
X04396
X04363Y02497
X04528Y0244
X04542Y02081
X04463Y019104
X04403Y01911
X043424Y019104
X040486Y018804
X03993Y01888
X04031Y02095
X04151Y021192
X03724Y02029
X03538Y01973
X03627Y02246
X03629Y02306
X03784Y02342
X0375Y024158
X0372Y025182
Y02665
X03702Y02739
X0379Y02725
X03917Y02732
X03941Y02683
X04017Y02806
X04116Y02882
X04151Y02952
X04179Y02986
X04207Y03022
X04243Y03056
X04272Y03003
X04171Y03069
X041354Y030892
X04024Y03071
X038465Y03077
X03915Y02942
X03965
X03631Y02907
X03608Y02975
X03629Y03047
X03663Y03024
X03579Y03054
X03542Y03074
X035Y03104
X03332Y02912
X03619Y02802
X03805Y02597
X03346Y02436
X033Y02373
X03134Y02346
X03228Y02217
X03Y0232
Y0238
X0294Y023796
Y0232
X02835Y02402
X02639Y0238
X0258
Y0232
X02639Y0232
X02555Y02756
X02821Y02933
X02876Y03068
X02031Y03071
X0178Y0298
Y0292
X017196
Y0298
X0174Y0276
X01799
X0186
X0192
X01889Y02845
X01912Y02448
X02043Y0251
X01603Y02632
X01576Y02683
X01519Y0297
X020016Y03383
X02127Y034583
X0242Y033987
X024204Y033404
X024807Y033388
Y034
X02683Y03306
X025898Y038432
X025346Y038814
X0228Y0386
Y038
X0222Y037996
Y0386
X01998Y03772
X018313Y036872
X0176Y0404
Y0412
Y042
Y042794
X027983Y044407
X03081Y04412
X030797Y04262
X03013Y04282
X02882Y04154
X02948Y03983
X02961Y03919
X03167Y03867
X03266Y03883
X032564Y039674
X03184Y04061
X03305Y041748
X03452Y042568
X0354Y042728
X0364Y043441
X0372Y043418
X038023
X03888
X040642Y043558
X04171
X0426Y043148
X0429Y04281
X04372Y043534
X04474Y043508
X04468Y043908
X044164Y042215
X04399Y041748
X044708Y041198
X045112Y040798
X04432Y040398
X04391Y040058
X044008Y039558
X0443Y038458
X04368Y038368
X04515Y038518
X04513Y038058
X045378Y03689
X04553Y03607
X0466Y038028
X04611Y039218
X04635Y043028
X03631Y04073
X03502Y04075
X03479Y044798
X03493Y04527
X0355Y044798
X03411Y044798
X03351Y044792
X03302Y0376
X034288Y036918
X0338Y03516
X03228Y03489
X03257Y0332
X03471Y03327
X03529Y032916
X03712Y03193
X0381Y0329
X0386Y032904
X03933Y03282
X0394Y03327
X04008Y03346
X04019Y033013
X0412Y0332
X04112Y033795
X04071Y03411
X04031Y03414
X039515Y034314
X04202Y03407
X04237Y03224
X04305Y03157
X0394Y0314
X03877Y03145
X03631Y03761
X04891Y037627
X048431Y03603
X046941Y03525
X049081Y03427
X049791Y03239
X049841Y0317
X051036Y032365
X050925Y03338
X050481Y03636
X05203Y03587
X05028Y039238
X05Y039898
X04957Y040668
X05135Y041548
X05166Y042078
X051882Y042498
X05142Y04303
X04859Y043558
X047487Y043652
X04751Y042598
X04763Y044728
X04706Y044518
X04722Y03961
T03
X052415Y037994
X052685
Y04075
X052415
T04
X0313Y02181
Y02481
X0303
X0293
X02736Y02481
X02636
X02536
Y02181
X02636
X02736
X0293Y02181
X0303
T05
X051487Y038387
Y040356
T06
X04753Y01802
X04729Y02787
X04829
X04929
X05029
X05129
X05229
X04569Y02813
X04468
Y02703
X04569
X04519Y02925
Y03023
Y03124
X03414Y03065
Y02965
Y02865
X03457Y02715
X03555
Y02565
X03457
X03356
Y02715
X03204Y02658
X03869Y02497
X03969
Y02397
X03869
Y02297
X03969
Y02197
X03869
X04124Y0197
Y01872
Y01771
X04253Y01802
X04353
X04453
X04553
X04653
X03104Y02658
X03004
X02904
X02804
X02704
X02604
X02504
X02387
X02287
X02187
X02087
X01987
X01887
X01787
X01687
X01713Y02422
Y02321
Y02223
X01847
Y02321
Y02422
X01981
Y02321
Y02223
X02115
Y02321
Y02422
X02249
Y02321
Y02223
X02383
Y02321
Y02422
X01579
Y02321
Y02223
X01445
Y02321
Y02422
X01463Y03441
Y03542
X01605
Y03441
X01687Y03158
X01787
X01887
X01987
X02087
X02187
X02287
X02387
X02504
X02604
X02704
X02804
X02904
X03004
X03104
X02775Y03752
Y03853
X02663Y03854
Y03753
X02661Y04078
Y04179
X02777Y04176
Y04078
Y03977
X03241Y04232
Y0433
Y04431
X04173Y044538
X04274
X04372
X04473
X04487Y041945
Y039158
X04374Y03628
Y03528
Y03428
Y03328
Y03228
Y03128
X04519Y03239
Y03337
Y03438
X03619Y03475
X03518
X0342
X03319
X03414Y03265
Y03165
X03204Y03158
T07
X03284Y03622
X03384
X03484
X03584
X03684
X03784
X03884
X03984
X04084
X04184
T08
X014513Y028382
Y03035
Y032318
T09
X03147Y020539
X03297
X03505
X03655
X03805
X03955
X02997
X02847
X02639
X02489
X02339
X02189
X01982
X01832
X01682
X01532
X01664Y037314
Y038814
Y04093
Y04243
T10
X05219Y01822
X01474Y02591
Y04465
X03055Y0337
X05219Y04465
M30
