G04*
G04 #@! TF.GenerationSoftware,Altium Limited,Altium Designer,18.1.6 (161)*
G04*
G04 Layer_Physical_Order=2*
G04 Layer_Color=16711680*
%FSTAX24Y24*%
%MOIN*%
G70*
G01*
G75*
%ADD11C,0.0080*%
%ADD12C,0.0200*%
%ADD21C,0.0100*%
%ADD22R,0.0500X0.0550*%
%ADD24R,0.0550X0.0500*%
%ADD35O,0.0800X0.0600*%
%ADD37O,0.0400X0.0600*%
%ADD38O,0.0600X0.0400*%
%ADD44R,0.0150X0.0150*%
%ADD84O,0.0750X0.0480*%
%ADD87C,0.0150*%
%ADD88C,0.0110*%
%ADD89R,0.0750X0.0650*%
%ADD90O,0.0750X0.0650*%
%ADD91C,0.1380*%
%ADD92R,0.0650X0.0850*%
%ADD93O,0.0650X0.0850*%
%ADD94R,0.0827X0.0827*%
%ADD95C,0.0827*%
%ADD96O,0.0650X0.0750*%
%ADD97R,0.0650X0.0750*%
%ADD98C,0.0512*%
%ADD99O,0.0860X0.0600*%
%ADD100O,0.0650X0.0900*%
%ADD101R,0.0650X0.0900*%
%ADD102O,0.0900X0.0650*%
%ADD103R,0.0900X0.0650*%
%ADD104C,0.0768*%
%ADD105R,0.0768X0.0768*%
%ADD106R,0.0827X0.0827*%
%ADD107C,0.0800*%
%ADD108R,0.0800X0.0800*%
%ADD109C,0.0240*%
%ADD110C,0.0570*%
%ADD111C,0.0315*%
%ADD112C,0.0315*%
%ADD113C,0.0240*%
%ADD114R,0.0220X0.0520*%
%ADD115R,0.0520X0.0220*%
%ADD116R,0.0500X0.0870*%
%ADD117R,0.0210X0.0710*%
%ADD118R,0.0210X0.0670*%
%ADD119R,0.0600X0.0210*%
%ADD120R,0.0945X0.1299*%
%ADD121R,0.0945X0.0394*%
%ADD122R,0.1000X0.0256*%
G36*
X055852Y037415D02*
X055125D01*
Y036505D01*
X055852D01*
X055852Y017308D01*
X041695D01*
Y018115D01*
X040785D01*
Y017308D01*
X012498D01*
Y018586D01*
X012547Y018598D01*
X012567Y01856D01*
X012663Y018443D01*
X01278Y018347D01*
X012914Y018275D01*
X013059Y018231D01*
X01321Y018216D01*
X013361Y018231D01*
X013506Y018275D01*
X01364Y018347D01*
X013757Y018443D01*
X013853Y01856D01*
X013925Y018694D01*
X013969Y018839D01*
X013984Y01899D01*
X013969Y019141D01*
X013925Y019286D01*
X013853Y01942D01*
X013757Y019537D01*
X01364Y019633D01*
X013506Y019705D01*
X013361Y019749D01*
X01321Y019764D01*
X013059Y019749D01*
X012914Y019705D01*
X01278Y019633D01*
X012663Y019537D01*
X012567Y01942D01*
X012547Y019382D01*
X012498Y019394D01*
X012498Y043696D01*
X012547Y043708D01*
X012567Y04367D01*
X012663Y043553D01*
X01278Y043457D01*
X012914Y043385D01*
X013059Y043341D01*
X01321Y043326D01*
X013361Y043341D01*
X013506Y043385D01*
X01364Y043457D01*
X013757Y043553D01*
X013853Y04367D01*
X013925Y043804D01*
X013969Y043949D01*
X013984Y0441D01*
X013969Y044251D01*
X013925Y044396D01*
X013853Y04453D01*
X013757Y044647D01*
X01364Y044743D01*
X013506Y044815D01*
X013361Y044859D01*
X01321Y044874D01*
X013059Y044859D01*
X012914Y044815D01*
X01278Y044743D01*
X012663Y044647D01*
X012567Y04453D01*
X012547Y044492D01*
X012498Y044504D01*
Y045754D01*
X026759D01*
X026772Y045733D01*
X026778Y045704D01*
X024623Y043549D01*
X023564D01*
Y04209D01*
X024669D01*
Y042662D01*
X025848D01*
Y042543D01*
X026952D01*
Y042662D01*
X027195D01*
Y04249D01*
X027363D01*
X027372Y04244D01*
X027286Y042404D01*
X027201Y042339D01*
X027136Y042254D01*
X027095Y042156D01*
X027084Y042072D01*
X026952D01*
Y042191D01*
X025848D01*
Y041637D01*
X026952D01*
Y041756D01*
X027186D01*
X027203Y04176D01*
X027286Y041696D01*
X027384Y041655D01*
X02749Y041642D01*
X02759D01*
X027696Y041655D01*
X027707Y04166D01*
X027875Y041491D01*
X027856Y041445D01*
X027085D01*
Y040635D01*
X027995D01*
Y041161D01*
X028045Y041182D01*
X028438Y040788D01*
X02849Y040754D01*
X02855Y040742D01*
X028893D01*
X028901Y040729D01*
X02898Y040676D01*
X029073Y040658D01*
X029165Y040676D01*
X029244Y040729D01*
X029296Y040807D01*
X029315Y0409D01*
X029296Y040993D01*
X029244Y041071D01*
X029165Y041124D01*
X029073Y041142D01*
X02898Y041124D01*
X028901Y041071D01*
X028893Y041058D01*
X028615D01*
X028415Y041258D01*
X028434Y041305D01*
X029091D01*
X030711Y039685D01*
X030708Y03967D01*
X030726Y039577D01*
X030779Y039498D01*
X030857Y039446D01*
X03095Y039428D01*
X031043Y039446D01*
X031121Y039498D01*
X031174Y039577D01*
X031192Y03967D01*
X031174Y039762D01*
X031121Y039841D01*
X031043Y039893D01*
X03095Y039912D01*
X030934Y039909D01*
X029155Y041688D01*
Y042115D01*
X028245D01*
Y041634D01*
X028199Y041615D01*
X027951Y041863D01*
X027985Y041944D01*
X027998Y04205D01*
X027985Y042156D01*
X027944Y042254D01*
X027879Y042339D01*
X027794Y042404D01*
X027708Y04244D01*
X027717Y04249D01*
X027905D01*
Y04315D01*
X027195D01*
Y042978D01*
X026952D01*
Y043097D01*
X025848D01*
Y042978D01*
X024669D01*
Y043149D01*
X026962Y045442D01*
X03069D01*
X030693Y045438D01*
X030708Y045392D01*
X030496Y04518D01*
X03045Y045189D01*
X030357Y04517D01*
X030279Y045118D01*
X030226Y045039D01*
X030208Y044946D01*
X030226Y044854D01*
X030279Y044775D01*
X030317Y044749D01*
Y043746D01*
X03032Y043734D01*
Y043191D01*
X030967D01*
Y04152D01*
X030978Y041469D01*
X031006Y041426D01*
X031617Y040815D01*
Y039509D01*
X031567Y039485D01*
X031558Y039493D01*
Y040392D01*
X031546Y040453D01*
X031512Y040504D01*
X029184Y042831D01*
X029133Y042866D01*
X029127Y042867D01*
X029104Y042924D01*
X029039Y043009D01*
X028954Y043073D01*
X028856Y043114D01*
X02875Y043128D01*
X02865D01*
X028544Y043114D01*
X028446Y043073D01*
X028361Y043009D01*
X028296Y042924D01*
X028255Y042825D01*
X028242Y04272D01*
X028255Y042614D01*
X028296Y042515D01*
X028361Y042431D01*
X028446Y042366D01*
X028544Y042325D01*
X02865Y042311D01*
X02875D01*
X028856Y042325D01*
X028954Y042366D01*
X029039Y042431D01*
X029059Y042457D01*
X029109Y04246D01*
X031242Y040327D01*
Y03945D01*
X031229Y039441D01*
X031176Y039362D01*
X031158Y03927D01*
X031176Y039177D01*
X031229Y039098D01*
X031307Y039046D01*
X0314Y039028D01*
X031462Y03904D01*
X031487Y038994D01*
X031245Y038752D01*
X030105D01*
Y039025D01*
X029195D01*
Y038215D01*
X030105D01*
Y038487D01*
X0313D01*
X031351Y038497D01*
X031394Y038526D01*
X031844Y038976D01*
X031872Y039019D01*
X031883Y03907D01*
Y04087D01*
X031872Y04092D01*
X031844Y040963D01*
X031233Y041575D01*
Y043191D01*
X031417D01*
Y042096D01*
X031428Y042046D01*
X031456Y042003D01*
X031684Y041775D01*
X031676Y041762D01*
X031658Y04167D01*
X031676Y041577D01*
X031729Y041498D01*
X031807Y041446D01*
X0319Y041428D01*
X031928Y041433D01*
X031969Y041397D01*
Y034575D01*
X03198Y034524D01*
X032008Y034481D01*
X032105Y034385D01*
Y034055D01*
X032061Y034031D01*
X032043Y034043D01*
X03195Y034062D01*
X031904Y034053D01*
X031003Y034954D01*
X03096Y034982D01*
X03091Y034993D01*
X02314D01*
X021472Y03666D01*
Y037816D01*
X021694D01*
Y038476D01*
X020984D01*
Y037816D01*
X021207D01*
Y036605D01*
X021217Y036555D01*
X021246Y036512D01*
X022991Y034766D01*
X023034Y034738D01*
X023085Y034727D01*
X030855D01*
X031717Y033865D01*
X031708Y03382D01*
X031726Y033727D01*
X031779Y033648D01*
X031857Y033596D01*
X03195Y033578D01*
X032043Y033596D01*
X032061Y033608D01*
X032105Y033585D01*
Y032448D01*
X032059Y032429D01*
X031736Y032752D01*
X031685Y032786D01*
X031624Y032798D01*
X02386D01*
X020619Y036039D01*
Y036501D01*
X02057D01*
X020551Y036547D01*
X02063Y036626D01*
X020659Y036669D01*
X020663Y036687D01*
X020917D01*
Y037057D01*
X020157D01*
Y036687D01*
X020251D01*
X02027Y03664D01*
X020196Y036566D01*
X020167Y036523D01*
X020162Y036501D01*
X019959D01*
Y035791D01*
X020421D01*
X021351Y03486D01*
X021327Y034814D01*
X02127Y034825D01*
X021177Y034807D01*
X021099Y034754D01*
X021046Y034676D01*
X021028Y034583D01*
X021046Y034491D01*
X021099Y034412D01*
X021112Y034403D01*
Y034155D01*
X019359Y032402D01*
X018979Y032022D01*
X018964Y032033D01*
X018866Y032074D01*
X01876Y032088D01*
X018654Y032074D01*
X018556Y032033D01*
X018471Y031969D01*
X018406Y031884D01*
X0184Y031869D01*
X018382Y031869D01*
X018343Y031915D01*
Y03273D01*
X019234Y033622D01*
X01928Y033613D01*
X019373Y033631D01*
X019451Y033683D01*
X019504Y033762D01*
X019522Y033855D01*
X019504Y033947D01*
X019451Y034026D01*
X019373Y034078D01*
X01928Y034097D01*
X019187Y034078D01*
X019109Y034026D01*
X019056Y033947D01*
X019038Y033855D01*
X019047Y033809D01*
X018116Y032878D01*
X018088Y032835D01*
X018077Y032785D01*
Y03201D01*
X018027Y031985D01*
X017964Y032033D01*
X017866Y032074D01*
X01776Y032088D01*
X017654Y032074D01*
X017556Y032033D01*
X017471Y031969D01*
X017406Y031884D01*
X017365Y031785D01*
X017351Y03168D01*
Y03148D01*
X017365Y031374D01*
X017406Y031275D01*
X017471Y031191D01*
X017556Y031126D01*
X017654Y031085D01*
X01776Y031071D01*
X017866Y031085D01*
X017964Y031126D01*
X018027Y031174D01*
X018077Y03115D01*
Y02993D01*
X018088Y029879D01*
X018116Y029836D01*
X020077Y027875D01*
Y02701D01*
X020027Y026985D01*
X019964Y027033D01*
X019866Y027074D01*
X01976Y027088D01*
X019654Y027074D01*
X019556Y027033D01*
X019471Y026969D01*
X019406Y026884D01*
X019365Y026785D01*
X019352Y02668D01*
Y02648D01*
X019365Y026374D01*
X019406Y026275D01*
X019471Y026191D01*
X019556Y026126D01*
X019654Y026085D01*
X01976Y026071D01*
X019866Y026085D01*
X019964Y026126D01*
X020032Y026178D01*
X020082Y026157D01*
Y0261D01*
X020093Y026049D01*
X020121Y026006D01*
X020329Y025798D01*
X02032Y025752D01*
X020339Y02566D01*
X020391Y025581D01*
X02047Y025529D01*
X020563Y02551D01*
X020655Y025529D01*
X020734Y025581D01*
X020786Y02566D01*
X020805Y025752D01*
X020786Y025845D01*
X020734Y025924D01*
X020655Y025976D01*
X020563Y025995D01*
X020517Y025986D01*
X020348Y026155D01*
Y026286D01*
X020398Y026296D01*
X020406Y026275D01*
X020471Y026191D01*
X020556Y026126D01*
X020654Y026085D01*
X02076Y026071D01*
X020866Y026085D01*
X020964Y026126D01*
X021049Y026191D01*
X021114Y026275D01*
X021155Y026374D01*
X021168Y02648D01*
Y02668D01*
X021155Y026785D01*
X021114Y026884D01*
X021049Y026969D01*
X020964Y027033D01*
X020866Y027074D01*
X02076Y027088D01*
X020654Y027074D01*
X020556Y027033D01*
X020471Y026969D01*
X020406Y026884D01*
X020398Y026863D01*
X020348Y026873D01*
Y026968D01*
X020343Y026993D01*
Y02793D01*
X020332Y02798D01*
X020304Y028023D01*
X018343Y029985D01*
Y031244D01*
X018382Y031291D01*
X0184Y03129D01*
X018406Y031275D01*
X018471Y031191D01*
X018556Y031126D01*
X018654Y031085D01*
X01876Y031071D01*
X018866Y031085D01*
X018964Y031126D01*
X019049Y031191D01*
X019114Y031275D01*
X019155Y031374D01*
X019168Y03148D01*
Y03168D01*
X019159Y031755D01*
X019536Y032132D01*
X01971D01*
X019713Y032082D01*
X019654Y032074D01*
X019556Y032033D01*
X019471Y031969D01*
X019406Y031884D01*
X019365Y031785D01*
X019352Y03168D01*
Y03148D01*
X019365Y031374D01*
X019406Y031275D01*
X019471Y031191D01*
X019556Y031126D01*
X019654Y031085D01*
X01976Y031071D01*
X019866Y031085D01*
X019964Y031126D01*
X020049Y031191D01*
X020114Y031275D01*
X020155Y031374D01*
X020168Y03148D01*
Y03168D01*
X020155Y031785D01*
X020114Y031884D01*
X020049Y031969D01*
X019964Y032033D01*
X019866Y032074D01*
X019807Y032082D01*
X019811Y032132D01*
X02071D01*
X020713Y032082D01*
X020654Y032074D01*
X020556Y032033D01*
X020471Y031969D01*
X020406Y031884D01*
X020365Y031785D01*
X020352Y03168D01*
Y03148D01*
X020365Y031374D01*
X020406Y031275D01*
X020471Y031191D01*
X020556Y031126D01*
X020654Y031085D01*
X02076Y031071D01*
X020866Y031085D01*
X020964Y031126D01*
X021049Y031191D01*
X021114Y031275D01*
X021155Y031374D01*
X021168Y03148D01*
Y03168D01*
X021155Y031785D01*
X021114Y031884D01*
X021049Y031969D01*
X020964Y032033D01*
X020866Y032074D01*
X020807Y032082D01*
X02081Y032132D01*
X021709D01*
X021713Y032082D01*
X021654Y032074D01*
X021556Y032033D01*
X021471Y031969D01*
X021406Y031884D01*
X021365Y031785D01*
X021352Y03168D01*
Y03148D01*
X021365Y031374D01*
X021406Y031275D01*
X021471Y031191D01*
X021556Y031126D01*
X021654Y031085D01*
X02176Y031071D01*
X021866Y031085D01*
X021964Y031126D01*
X021999Y031153D01*
X023377Y029775D01*
Y0262D01*
X023388Y026149D01*
X023416Y026106D01*
X024807Y024716D01*
X02485Y024687D01*
X0249Y024677D01*
X025051D01*
X025067Y02464D01*
X02512Y02457D01*
X025191Y024516D01*
X025248Y024493D01*
X025238Y024443D01*
X024995D01*
X024214Y025224D01*
X024171Y025252D01*
X02412Y025263D01*
X023235D01*
X022393Y026105D01*
Y026211D01*
X022443Y026228D01*
X022471Y026191D01*
X022556Y026126D01*
X022654Y026085D01*
X02276Y026071D01*
X022866Y026085D01*
X022964Y026126D01*
X023049Y026191D01*
X023114Y026275D01*
X023155Y026374D01*
X023168Y02648D01*
Y02668D01*
X023155Y026785D01*
X023114Y026884D01*
X023049Y026969D01*
X022964Y027033D01*
X022866Y027074D01*
X02276Y027088D01*
X022654Y027074D01*
X022556Y027033D01*
X022471Y026969D01*
X022443Y026931D01*
X022393Y026948D01*
Y02868D01*
X022382Y02873D01*
X022354Y028773D01*
X020443Y030684D01*
X020452Y03073D01*
X020434Y030822D01*
X020381Y030901D01*
X020303Y030953D01*
X02021Y030972D01*
X020117Y030953D01*
X020039Y030901D01*
X019986Y030822D01*
X019968Y03073D01*
X019986Y030637D01*
X020039Y030558D01*
X020117Y030506D01*
X02021Y030488D01*
X020256Y030497D01*
X022127Y028625D01*
Y02605D01*
X022138Y025999D01*
X022166Y025956D01*
X023086Y025036D01*
X023129Y025008D01*
X02318Y024997D01*
X024065D01*
X024846Y024216D01*
X024889Y024188D01*
X02494Y024177D01*
X02665D01*
X026701Y024188D01*
X026744Y024216D01*
X027099Y024571D01*
X02712Y02457D01*
X027191Y024516D01*
X027272Y024482D01*
X02736Y024471D01*
X027448Y024482D01*
X027529Y024516D01*
X0276Y02457D01*
X027653Y02464D01*
X027687Y024722D01*
X027699Y02481D01*
X027687Y024897D01*
X027653Y024979D01*
X0276Y025049D01*
X027529Y025103D01*
X027448Y025137D01*
X02736Y025148D01*
X027272Y025137D01*
X027191Y025103D01*
X02712Y025049D01*
X027067Y024979D01*
X027033Y024897D01*
X02703Y024877D01*
X026595Y024443D01*
X026482D01*
X026472Y024493D01*
X026529Y024516D01*
X0266Y02457D01*
X026653Y02464D01*
X026687Y024722D01*
X026699Y02481D01*
X026687Y024897D01*
X026653Y024979D01*
X0266Y025049D01*
X026529Y025103D01*
X026448Y025137D01*
X02636Y025148D01*
X026272Y025137D01*
X026191Y025103D01*
X026142Y025066D01*
X025973Y025235D01*
Y026176D01*
X026004Y026187D01*
X026023Y02619D01*
X026106Y026126D01*
X026204Y026085D01*
X02631Y026071D01*
X026416Y026085D01*
X026514Y026126D01*
X026599Y026191D01*
X026664Y026275D01*
X026705Y026374D01*
X026718Y02648D01*
Y02668D01*
X026705Y026785D01*
X026664Y026884D01*
X026599Y026969D01*
X026514Y027033D01*
X026416Y027074D01*
X02631Y027088D01*
X026204Y027074D01*
X026106Y027033D01*
X026023Y02697D01*
X026004Y026972D01*
X025973Y026983D01*
Y027253D01*
X026011Y027279D01*
X026064Y027357D01*
X026082Y02745D01*
X026064Y027543D01*
X026011Y027621D01*
X025933Y027674D01*
X02584Y027692D01*
X025747Y027674D01*
X025669Y027621D01*
X025616Y027543D01*
X025598Y02745D01*
X025616Y027357D01*
X025669Y027279D01*
X025707Y027253D01*
Y026906D01*
X02569Y026897D01*
X025657Y026892D01*
X025599Y026969D01*
X025514Y027033D01*
X025416Y027074D01*
X02531Y027088D01*
X025204Y027074D01*
X025106Y027033D01*
X025021Y026969D01*
X024956Y026884D01*
X024915Y026785D01*
X024902Y02668D01*
Y02648D01*
X024915Y026374D01*
X024956Y026275D01*
X025021Y026191D01*
X025106Y026126D01*
X025204Y026085D01*
X02531Y026071D01*
X025416Y026085D01*
X025514Y026126D01*
X025599Y026191D01*
X025657Y026267D01*
X02569Y026263D01*
X025707Y026254D01*
Y02518D01*
X025718Y025129D01*
X025746Y025086D01*
X026021Y024811D01*
X026021Y02481D01*
X026033Y024722D01*
X026067Y02464D01*
X02612Y02457D01*
X026191Y024516D01*
X026248Y024493D01*
X026238Y024443D01*
X025482D01*
X025472Y024493D01*
X025529Y024516D01*
X0256Y02457D01*
X025653Y02464D01*
X025687Y024722D01*
X025699Y02481D01*
X025687Y024897D01*
X025653Y024979D01*
X0256Y025049D01*
X025529Y025103D01*
X025448Y025137D01*
X02536Y025148D01*
X025272Y025137D01*
X025191Y025103D01*
X02512Y025049D01*
X025067Y024979D01*
X025051Y024942D01*
X024955D01*
X023643Y026255D01*
Y02983D01*
X023632Y02988D01*
X023604Y029923D01*
X022154Y031373D01*
X022155Y031374D01*
X022168Y03148D01*
Y03168D01*
X022155Y031785D01*
X022114Y031884D01*
X022049Y031969D01*
X021964Y032033D01*
X021866Y032074D01*
X021807Y032082D01*
X021811Y032132D01*
X02271D01*
X022713Y032082D01*
X022654Y032074D01*
X022556Y032033D01*
X022471Y031969D01*
X022406Y031884D01*
X022365Y031785D01*
X022352Y03168D01*
Y03148D01*
X022365Y031374D01*
X022406Y031275D01*
X022471Y031191D01*
X022556Y031126D01*
X022654Y031085D01*
X02276Y031071D01*
X022866Y031085D01*
X022964Y031126D01*
X022999Y031153D01*
X025266Y028886D01*
X025309Y028857D01*
X02536Y028847D01*
X027441D01*
X028632Y027656D01*
Y027003D01*
X028582Y026981D01*
X028514Y027033D01*
X028416Y027074D01*
X02831Y027088D01*
X028204Y027074D01*
X028106Y027033D01*
X028021Y026969D01*
X027956Y026884D01*
X027915Y026785D01*
X027902Y02668D01*
Y02648D01*
X027915Y026374D01*
X027956Y026275D01*
X028021Y026191D01*
X028106Y026126D01*
X028204Y026085D01*
X02831Y026071D01*
X028416Y026085D01*
X028514Y026126D01*
X028582Y026178D01*
X028632Y026157D01*
Y02449D01*
X028396Y024253D01*
X02835Y024262D01*
X028257Y024244D01*
X028179Y024191D01*
X028126Y024113D01*
X028108Y02402D01*
X028126Y023927D01*
X028179Y023849D01*
X028257Y023796D01*
X02835Y023778D01*
X028443Y023796D01*
X028521Y023849D01*
X028574Y023927D01*
X028592Y02402D01*
X028583Y024066D01*
X028859Y024341D01*
X028887Y024384D01*
X028898Y024435D01*
Y026286D01*
X028948Y026296D01*
X028956Y026275D01*
X029021Y026191D01*
X029106Y026126D01*
X029204Y026085D01*
X02931Y026071D01*
X029416Y026085D01*
X029514Y026126D01*
X029599Y026191D01*
X029627Y026228D01*
X029677Y026211D01*
Y02516D01*
X029688Y025109D01*
X029716Y025066D01*
X029963Y02482D01*
X029961Y02481D01*
X029973Y024722D01*
X030007Y02464D01*
X03006Y02457D01*
X030131Y024516D01*
X030212Y024482D01*
X0303Y024471D01*
X030388Y024482D01*
X030469Y024516D01*
X03054Y02457D01*
X030593Y02464D01*
X030627Y024722D01*
X030639Y02481D01*
X030627Y024897D01*
X030593Y024979D01*
X03054Y025049D01*
X030469Y025103D01*
X030388Y025137D01*
X0303Y025148D01*
X030212Y025137D01*
X030131Y025103D01*
X030087Y02507D01*
X029943Y025215D01*
Y02773D01*
X029932Y02778D01*
X029904Y027823D01*
X028443Y029284D01*
X028452Y02933D01*
X028434Y029422D01*
X028381Y029501D01*
X028303Y029553D01*
X02821Y029572D01*
X028117Y029553D01*
X028039Y029501D01*
X027986Y029422D01*
X027968Y02933D01*
X027986Y029237D01*
X028039Y029158D01*
X028117Y029106D01*
X02821Y029088D01*
X028256Y029097D01*
X029677Y027675D01*
Y026948D01*
X029627Y026931D01*
X029599Y026969D01*
X029514Y027033D01*
X029416Y027074D01*
X02931Y027088D01*
X029204Y027074D01*
X029106Y027033D01*
X029021Y026969D01*
X028956Y026884D01*
X028948Y026863D01*
X028898Y026873D01*
Y027711D01*
X028887Y027762D01*
X028859Y027805D01*
X02759Y029073D01*
X027547Y029102D01*
X027496Y029112D01*
X026395D01*
X026365Y02915D01*
X026365Y029162D01*
Y02981D01*
X026168D01*
Y030264D01*
X026422Y030518D01*
X026456Y030569D01*
X026468Y03063D01*
Y031107D01*
X026514Y031126D01*
X026599Y031191D01*
X026664Y031275D01*
X026705Y031374D01*
X026718Y03148D01*
Y03168D01*
X026705Y031785D01*
X026664Y031884D01*
X026599Y031969D01*
X026514Y032033D01*
X026416Y032074D01*
X026391Y032077D01*
X026395Y032127D01*
X027225D01*
X027229Y032077D01*
X027204Y032074D01*
X027106Y032033D01*
X027021Y031969D01*
X026956Y031884D01*
X026915Y031785D01*
X026902Y03168D01*
Y03148D01*
X026915Y031374D01*
X026956Y031275D01*
X027021Y031191D01*
X027106Y031126D01*
X027204Y031085D01*
X02731Y031071D01*
X027416Y031085D01*
X027514Y031126D01*
X027599Y031191D01*
X027664Y031275D01*
X027705Y031374D01*
X027718Y03148D01*
Y03168D01*
X027705Y031785D01*
X027664Y031884D01*
X027599Y031969D01*
X027514Y032033D01*
X027416Y032074D01*
X027391Y032077D01*
X027395Y032127D01*
X028225D01*
X028229Y032077D01*
X028204Y032074D01*
X028106Y032033D01*
X028021Y031969D01*
X027956Y031884D01*
X027915Y031785D01*
X027902Y03168D01*
Y03148D01*
X027915Y031374D01*
X027956Y031275D01*
X028021Y031191D01*
X028106Y031126D01*
X028204Y031085D01*
X02831Y031071D01*
X028416Y031085D01*
X028514Y031126D01*
X028599Y031191D01*
X028664Y031275D01*
X028705Y031374D01*
X028718Y03148D01*
Y03168D01*
X028705Y031785D01*
X028664Y031884D01*
X028599Y031969D01*
X028514Y032033D01*
X028416Y032074D01*
X028391Y032077D01*
X028395Y032127D01*
X029225D01*
X029229Y032077D01*
X029204Y032074D01*
X029106Y032033D01*
X029021Y031969D01*
X028956Y031884D01*
X028915Y031785D01*
X028902Y03168D01*
Y03148D01*
X028915Y031374D01*
X028956Y031275D01*
X029021Y031191D01*
X029106Y031126D01*
X029204Y031085D01*
X02931Y031071D01*
X029416Y031085D01*
X029514Y031126D01*
X029599Y031191D01*
X029664Y031275D01*
X029705Y031374D01*
X029718Y03148D01*
Y03168D01*
X029705Y031785D01*
X029664Y031884D01*
X029599Y031969D01*
X029514Y032033D01*
X029416Y032074D01*
X029391Y032077D01*
X029395Y032127D01*
X030225D01*
X030229Y032077D01*
X030204Y032074D01*
X030106Y032033D01*
X030021Y031969D01*
X029956Y031884D01*
X029915Y031785D01*
X029902Y03168D01*
Y03148D01*
X029915Y031374D01*
X029956Y031275D01*
X030021Y031191D01*
X030106Y031126D01*
X030204Y031085D01*
X03031Y031071D01*
X030416Y031085D01*
X030514Y031126D01*
X030599Y031191D01*
X030664Y031275D01*
X030705Y031374D01*
X030718Y03148D01*
Y03168D01*
X030705Y031785D01*
X030664Y031884D01*
X030599Y031969D01*
X030514Y032033D01*
X030416Y032074D01*
X030391Y032077D01*
X030395Y032127D01*
X031225D01*
X031229Y032077D01*
X031204Y032074D01*
X031106Y032033D01*
X031021Y031969D01*
X030956Y031884D01*
X030915Y031785D01*
X030902Y03168D01*
Y03148D01*
X030915Y031374D01*
X030956Y031275D01*
X031021Y031191D01*
X031106Y031126D01*
X031204Y031085D01*
X03131Y031071D01*
X031416Y031085D01*
X031514Y031126D01*
X031599Y031191D01*
X031664Y031275D01*
X031705Y031374D01*
X031718Y03148D01*
Y03168D01*
X031705Y031785D01*
X031664Y031884D01*
X031599Y031969D01*
X031514Y032033D01*
X031416Y032074D01*
X031391Y032077D01*
X031395Y032127D01*
X031555D01*
X032147Y031535D01*
Y022367D01*
X032109Y022341D01*
X032056Y022263D01*
X032038Y02217D01*
X032056Y022077D01*
X032109Y021999D01*
X032187Y021946D01*
X03228Y021928D01*
X032373Y021946D01*
X032451Y021999D01*
X032504Y022077D01*
X032522Y02217D01*
X032504Y022263D01*
X032451Y022341D01*
X032413Y022367D01*
Y024041D01*
X032463Y024057D01*
X032488Y024019D01*
X032761Y023746D01*
X032758Y02373D01*
X032776Y023637D01*
X032829Y023559D01*
X032907Y023506D01*
X033Y023488D01*
X033093Y023506D01*
X033121Y023525D01*
X033165Y023502D01*
Y02328D01*
X033535D01*
Y023848D01*
X033619Y023931D01*
X033665Y023912D01*
Y02328D01*
X033717D01*
Y023025D01*
X032656Y021963D01*
X032628Y02192D01*
X032617Y02187D01*
Y021183D01*
X032105Y020671D01*
X031949D01*
X031901Y020787D01*
X031822Y02089D01*
X031719Y02097D01*
X031599Y021019D01*
X03147Y021036D01*
X031341Y021019D01*
X031221Y02097D01*
X031118Y02089D01*
X031039Y020787D01*
X030989Y020667D01*
X030972Y020539D01*
X030989Y02041D01*
X031039Y02029D01*
X031118Y020187D01*
X031133Y020175D01*
X031117Y020128D01*
X030568D01*
X030403Y020294D01*
X030451Y02041D01*
X030468Y020539D01*
X030451Y020667D01*
X030401Y020787D01*
X030322Y02089D01*
X030219Y02097D01*
X030099Y021019D01*
X02997Y021036D01*
X029841Y021019D01*
X029721Y02097D01*
X029618Y02089D01*
X029539Y020787D01*
X029489Y020667D01*
X029472Y020539D01*
X029489Y02041D01*
X029539Y02029D01*
X029618Y020187D01*
X029721Y020108D01*
X029841Y020058D01*
X02997Y020041D01*
X030099Y020058D01*
X030215Y020106D01*
X030327Y019994D01*
X030308Y019948D01*
X029284D01*
X028963Y020269D01*
Y021032D01*
X027977D01*
Y020045D01*
X02874D01*
X029021Y019764D01*
X029002Y019718D01*
X024788D01*
X024263Y020243D01*
Y02067D01*
X024252Y020721D01*
X024224Y020764D01*
X023584Y021404D01*
X023541Y021432D01*
X02349Y021443D01*
X021915D01*
X021329Y022029D01*
X021334Y022035D01*
X021375Y022134D01*
X021388Y02224D01*
X021375Y022345D01*
X021334Y022444D01*
X021269Y022529D01*
X021184Y022593D01*
X021086Y022634D01*
X02098Y022648D01*
X02088D01*
X020774Y022634D01*
X020676Y022593D01*
X020591Y022529D01*
X020526Y022444D01*
X020485Y022345D01*
X020471Y02224D01*
X020485Y022134D01*
X020526Y022035D01*
X020591Y021951D01*
X020676Y021886D01*
X020774Y021845D01*
X02088Y021831D01*
X02098D01*
X021086Y021845D01*
X021122Y02186D01*
X021766Y021216D01*
X021809Y021188D01*
X02186Y021177D01*
X023435D01*
X023554Y021059D01*
X023525Y021017D01*
X023519Y021019D01*
X02339Y021036D01*
X023261Y021019D01*
X023141Y02097D01*
X023038Y02089D01*
X022959Y020787D01*
X022909Y020667D01*
X022892Y020539D01*
X022909Y02041D01*
X022959Y02029D01*
X023038Y020187D01*
X023141Y020108D01*
X023261Y020058D01*
X02339Y020041D01*
X023519Y020058D01*
X023639Y020108D01*
X023742Y020187D01*
X023821Y02029D01*
X023871Y02041D01*
X023888Y020539D01*
X023871Y020667D01*
X023868Y020674D01*
X02391Y020702D01*
X023997Y020615D01*
Y020188D01*
X024008Y020138D01*
X024036Y020095D01*
X024547Y019584D01*
X024528Y019538D01*
X022068D01*
X021606Y019999D01*
X021626Y020045D01*
X022383D01*
Y021032D01*
X021397D01*
Y020274D01*
X02135Y020255D01*
X019764Y021841D01*
X019767Y021891D01*
X019819Y021931D01*
X019884Y022015D01*
X019925Y022114D01*
X019938Y02222D01*
X019925Y022325D01*
X019884Y022424D01*
X019819Y022509D01*
X019734Y022573D01*
X019636Y022614D01*
X01953Y022628D01*
X01943D01*
X019324Y022614D01*
X019288Y022599D01*
X018883Y023005D01*
Y024335D01*
X018979Y024431D01*
X019025Y024412D01*
Y023805D01*
X019935D01*
Y024615D01*
X019469D01*
X019442Y024665D01*
X019464Y024697D01*
X019482Y02479D01*
X019464Y024883D01*
X019411Y024961D01*
X019333Y025014D01*
X01924Y025032D01*
X019147Y025014D01*
X019069Y024961D01*
X019016Y024883D01*
X019007Y024834D01*
X018656Y024484D01*
X018628Y024441D01*
X018617Y02439D01*
Y02295D01*
X018628Y022899D01*
X018656Y022856D01*
X019081Y022431D01*
X019076Y022424D01*
X019035Y022325D01*
X019022Y02222D01*
X019035Y022114D01*
X019076Y022015D01*
X019141Y021931D01*
X019226Y021866D01*
X019324Y021825D01*
X019418Y021813D01*
X021812Y019419D01*
X021793Y019373D01*
X017085D01*
X016213Y020245D01*
Y0209D01*
X016202Y020951D01*
X016174Y020994D01*
X015351Y021817D01*
X01536Y021866D01*
X015384Y021876D01*
X015469Y021941D01*
X015534Y022025D01*
X015575Y022124D01*
X015589Y02223D01*
X015575Y022335D01*
X015534Y022434D01*
X015469Y022519D01*
X015384Y022583D01*
X015286Y022624D01*
X01518Y022638D01*
X01508D01*
X014974Y022624D01*
X014938Y022609D01*
X014493Y023055D01*
Y026245D01*
X014555Y026307D01*
X0146Y026298D01*
X014693Y026316D01*
X014772Y026369D01*
X014824Y026447D01*
X014842Y02654D01*
X014824Y026633D01*
X014772Y026711D01*
X014693Y026764D01*
X0146Y026782D01*
X014508Y026764D01*
X014429Y026711D01*
X014377Y026633D01*
X014358Y02654D01*
X014367Y026494D01*
X014266Y026393D01*
X014238Y02635D01*
X014227Y0263D01*
Y023D01*
X014238Y022949D01*
X014266Y022906D01*
X014731Y022441D01*
X014726Y022434D01*
X014685Y022335D01*
X014671Y02223D01*
X014685Y022124D01*
X014726Y022025D01*
X014791Y021941D01*
X014876Y021876D01*
X014974Y021835D01*
X015001Y021832D01*
X015008Y021799D01*
X015036Y021756D01*
X015714Y021078D01*
X015695Y021032D01*
X014827D01*
Y020045D01*
X015813D01*
Y020914D01*
X01586Y020933D01*
X015947Y020845D01*
Y02019D01*
X015958Y020139D01*
X015986Y020096D01*
X016844Y019239D01*
X016825Y019193D01*
X015065D01*
X013813Y020445D01*
Y021832D01*
X013836Y021835D01*
X013934Y021876D01*
X014019Y021941D01*
X014084Y022025D01*
X014125Y022124D01*
X014138Y02223D01*
X014125Y022335D01*
X014084Y022434D01*
X014019Y022519D01*
X013934Y022583D01*
X013836Y022624D01*
X01373Y022638D01*
X01363D01*
X013524Y022624D01*
X013426Y022583D01*
X013341Y022519D01*
X013276Y022434D01*
X013235Y022335D01*
X013221Y02223D01*
X013235Y022124D01*
X013276Y022025D01*
X013341Y021941D01*
X013426Y021876D01*
X013524Y021835D01*
X013547Y021832D01*
Y02039D01*
X013558Y020339D01*
X013586Y020296D01*
X014916Y018966D01*
X014959Y018938D01*
X01501Y018927D01*
X021806D01*
X021813Y018923D01*
X021864Y018913D01*
X021864Y018913D01*
X039589D01*
X039639Y018923D01*
X039646Y018927D01*
X039691Y018897D01*
X039688Y01888D01*
X039706Y018787D01*
X039759Y018709D01*
X039837Y018656D01*
X03993Y018638D01*
X040023Y018656D01*
X040101Y018709D01*
X040154Y018787D01*
X040172Y01888D01*
X040154Y018973D01*
X040101Y019051D01*
X0401Y019068D01*
X041059Y020027D01*
X042008D01*
X042027Y019981D01*
X041389Y019343D01*
X040893D01*
X040842Y019332D01*
X040799Y019304D01*
X040532Y019037D01*
X040486Y019046D01*
X040394Y019027D01*
X040315Y018975D01*
X040263Y018896D01*
X040244Y018804D01*
X040263Y018711D01*
X040315Y018632D01*
X040394Y01858D01*
X040486Y018561D01*
X040579Y01858D01*
X040658Y018632D01*
X04071Y018711D01*
X040729Y018804D01*
X04072Y018849D01*
X040773Y018903D01*
X040816Y018875D01*
X040795Y018826D01*
X040782Y01872D01*
X040795Y018614D01*
X040836Y018516D01*
X040901Y018431D01*
X040986Y018366D01*
X041084Y018325D01*
X04119Y018312D01*
X04129D01*
X041396Y018325D01*
X041494Y018366D01*
X041579Y018431D01*
X041644Y018516D01*
X041673Y018587D01*
X041975D01*
Y017815D01*
X042885D01*
Y018587D01*
X043835D01*
X043961Y018461D01*
X043942Y018415D01*
X043295D01*
Y017405D01*
X044105D01*
Y018252D01*
X044151Y018271D01*
X044306Y018117D01*
X044305Y018116D01*
X044292Y01801D01*
Y01781D01*
X044305Y017704D01*
X044346Y017606D01*
X044411Y017521D01*
X044496Y017456D01*
X044594Y017415D01*
X0447Y017401D01*
X044806Y017415D01*
X044904Y017456D01*
X044989Y017521D01*
X045054Y017606D01*
X045095Y017704D01*
X045108Y01781D01*
Y01801D01*
X045095Y018116D01*
X045054Y018214D01*
X044989Y018299D01*
X044904Y018364D01*
X044806Y018405D01*
X0447Y018419D01*
X044594Y018405D01*
X044496Y018364D01*
X044461Y018337D01*
X043984Y018814D01*
X043941Y018842D01*
X04389Y018853D01*
X042736D01*
X042719Y018903D01*
X042769Y018941D01*
X042834Y019026D01*
X042875Y019124D01*
X042888Y01923D01*
X042875Y019336D01*
X042834Y019434D01*
X042769Y019519D01*
X042684Y019584D01*
X042586Y019625D01*
X04248Y019639D01*
X04238D01*
X042274Y019625D01*
X042176Y019584D01*
X042091Y019519D01*
X042026Y019434D01*
X041985Y019336D01*
X041972Y01923D01*
X041985Y019124D01*
X042026Y019026D01*
X042091Y018941D01*
X042141Y018903D01*
X042124Y018853D01*
X041673D01*
X041644Y018924D01*
X041579Y019009D01*
X041527Y019049D01*
X041529Y01911D01*
X041537Y019116D01*
X04226Y019839D01*
X04417D01*
X044221Y019849D01*
X044264Y019878D01*
X045143Y020757D01*
X045191Y020743D01*
X045196Y020717D01*
X045249Y020639D01*
X045327Y020586D01*
X04542Y020568D01*
X045436Y020571D01*
X047542Y018465D01*
Y018383D01*
X047496Y018364D01*
X047411Y018299D01*
X047346Y018214D01*
X047305Y018116D01*
X047291Y01801D01*
Y01781D01*
X047305Y017704D01*
X047346Y017606D01*
X047411Y017521D01*
X047496Y017456D01*
X047594Y017415D01*
X0477Y017401D01*
X047806Y017415D01*
X047904Y017456D01*
X047989Y017521D01*
X048054Y017606D01*
X048095Y017704D01*
X048109Y01781D01*
Y01801D01*
X048095Y018116D01*
X048054Y018214D01*
X047989Y018299D01*
X047904Y018364D01*
X047858Y018383D01*
Y01853D01*
X047846Y01859D01*
X047812Y018642D01*
X045659Y020794D01*
X045662Y02081D01*
X045644Y020903D01*
X045591Y020981D01*
X045513Y021034D01*
X045487Y021039D01*
X045473Y021087D01*
X045485Y021099D01*
X045503Y021111D01*
X045579Y021187D01*
X04559Y021204D01*
X045641Y021255D01*
X045852D01*
Y021025D01*
X045863Y020974D01*
X045891Y020931D01*
X048448Y018375D01*
X048445Y018325D01*
X048411Y018299D01*
X048346Y018214D01*
X048305Y018116D01*
X048292Y01801D01*
Y01781D01*
X048305Y017704D01*
X048346Y017606D01*
X048411Y017521D01*
X048496Y017456D01*
X048594Y017415D01*
X0487Y017401D01*
X048806Y017415D01*
X048904Y017456D01*
X048989Y017521D01*
X049054Y017606D01*
X049095Y017704D01*
X049109Y01781D01*
Y01801D01*
X049095Y018116D01*
X049054Y018214D01*
X048989Y018299D01*
X048904Y018364D01*
X048806Y018405D01*
X048791Y018407D01*
X046118Y02108D01*
Y021255D01*
X046435D01*
Y022125D01*
X046113D01*
X046107Y022154D01*
X046079Y022197D01*
X044734Y023541D01*
X044754Y023587D01*
X0473D01*
X047351Y023598D01*
X047394Y023626D01*
X047554Y023787D01*
X0476Y023778D01*
X047693Y023796D01*
X047771Y023848D01*
X047824Y023927D01*
X047842Y02402D01*
X047824Y024112D01*
X047771Y024191D01*
X047731Y024217D01*
X047747Y024267D01*
X049085D01*
X049327Y024026D01*
X049318Y02398D01*
X049336Y023887D01*
X049389Y023809D01*
X049427Y023783D01*
Y02364D01*
X049438Y023589D01*
X049466Y023546D01*
X049756Y023256D01*
X049799Y023228D01*
X04985Y023217D01*
X051005D01*
X052947Y021275D01*
Y020253D01*
X052876Y020224D01*
X052791Y020159D01*
X052726Y020074D01*
X052685Y019976D01*
X052671Y01987D01*
Y01967D01*
X052685Y019564D01*
X052726Y019466D01*
X052791Y019381D01*
X052876Y019316D01*
X052974Y019275D01*
X05308Y019261D01*
X053186Y019275D01*
X053284Y019316D01*
X053369Y019381D01*
X053434Y019466D01*
X053475Y019564D01*
X053488Y01967D01*
Y01987D01*
X053475Y019976D01*
X053434Y020074D01*
X053369Y020159D01*
X053284Y020224D01*
X053213Y020253D01*
Y02133D01*
X053202Y021381D01*
X053174Y021424D01*
X051154Y023444D01*
X051111Y023472D01*
X05106Y023483D01*
X050589D01*
X050579Y023533D01*
X050592Y023538D01*
X050671Y023599D01*
X050721Y023664D01*
X0508Y023648D01*
X050893Y023666D01*
X050971Y023719D01*
X050983Y023737D01*
X051819D01*
X053947Y021608D01*
Y020253D01*
X053876Y020224D01*
X053791Y020159D01*
X053726Y020074D01*
X053685Y019976D01*
X053671Y01987D01*
Y01967D01*
X053685Y019564D01*
X053726Y019466D01*
X053791Y019381D01*
X053876Y019316D01*
X053974Y019275D01*
X05408Y019261D01*
X054186Y019275D01*
X054284Y019316D01*
X054369Y019381D01*
X054434Y019466D01*
X054475Y019564D01*
X054489Y01967D01*
Y01987D01*
X054475Y019976D01*
X054434Y020074D01*
X054369Y020159D01*
X054284Y020224D01*
X054213Y020253D01*
Y021663D01*
X054202Y021714D01*
X054174Y021757D01*
X051967Y023963D01*
X051924Y023992D01*
X051874Y024002D01*
X051011D01*
X050971Y024061D01*
X050893Y024114D01*
X0508Y024132D01*
X050707Y024114D01*
X050697Y024107D01*
X050671Y024141D01*
X050592Y024202D01*
X050499Y02424D01*
X0504Y024253D01*
X0502D01*
X050101Y02424D01*
X050008Y024202D01*
X049929Y024141D01*
X049868Y024061D01*
X049847Y024011D01*
X049795Y024016D01*
X049784Y024073D01*
X049731Y024151D01*
X049693Y024177D01*
Y024355D01*
X049933Y024596D01*
X050008Y024538D01*
X050101Y024499D01*
X0502Y024486D01*
X0504D01*
X050499Y024499D01*
X050592Y024538D01*
X050671Y024599D01*
X050732Y024678D01*
X05077Y02477D01*
X050783Y02487D01*
X05077Y024969D01*
X050732Y025061D01*
X050671Y025141D01*
X050592Y025202D01*
X050499Y02524D01*
X0504Y025253D01*
X0502D01*
X050101Y02524D01*
X050008Y025202D01*
X049929Y025141D01*
X049868Y025061D01*
X04983Y024969D01*
X049817Y02487D01*
X049819Y024856D01*
X049466Y024504D01*
X049438Y024461D01*
X049427Y02441D01*
Y024365D01*
X049381Y024346D01*
X049234Y024494D01*
X049191Y024522D01*
X04914Y024533D01*
X045477D01*
X045451Y024571D01*
X045373Y024624D01*
X045357Y024627D01*
X045342Y024675D01*
X045579Y024911D01*
X045607Y024954D01*
X045618Y025005D01*
Y025015D01*
X045935D01*
Y025885D01*
X045618D01*
Y026135D01*
X045607Y026185D01*
X045579Y026228D01*
X04343Y028377D01*
Y028695D01*
X04348Y02871D01*
X043496Y028686D01*
X044876Y027306D01*
X044919Y027278D01*
X04497Y027267D01*
X045256D01*
X045272Y027217D01*
X045216Y027144D01*
X045175Y027046D01*
X045161Y02694D01*
X045175Y026834D01*
X045216Y026736D01*
X045281Y026651D01*
X045366Y026586D01*
X045464Y026545D01*
X04557Y026532D01*
X04567D01*
X045776Y026545D01*
X045874Y026586D01*
X045959Y026651D01*
X046024Y026736D01*
X046065Y026834D01*
X046079Y02694D01*
X046065Y027046D01*
X046024Y027144D01*
X045968Y027217D01*
X045984Y027267D01*
X046605D01*
X048784Y025088D01*
X048827Y025059D01*
X048878Y025049D01*
X048882Y02505D01*
X048896Y025047D01*
X049103D01*
X049129Y025009D01*
X049207Y024956D01*
X0493Y024938D01*
X049393Y024956D01*
X049471Y025009D01*
X049524Y025087D01*
X049542Y02518D01*
X049524Y025273D01*
X049471Y025351D01*
X049393Y025404D01*
X0493Y025422D01*
X049207Y025404D01*
X049129Y025351D01*
X049103Y025313D01*
X048937D01*
X048935Y025313D01*
X048574Y025674D01*
X048593Y02572D01*
X049125D01*
Y025971D01*
X049434Y026281D01*
X04945Y026278D01*
X049543Y026296D01*
X049621Y026348D01*
X04963Y026362D01*
X050865D01*
X054922Y022305D01*
Y020243D01*
X054876Y020224D01*
X054791Y020159D01*
X054726Y020074D01*
X054685Y019976D01*
X054672Y01987D01*
Y01967D01*
X054685Y019564D01*
X054726Y019466D01*
X054791Y019381D01*
X054876Y019316D01*
X054974Y019275D01*
X05508Y019261D01*
X055186Y019275D01*
X055284Y019316D01*
X055369Y019381D01*
X055434Y019466D01*
X055475Y019564D01*
X055489Y01967D01*
Y01987D01*
X055475Y019976D01*
X055434Y020074D01*
X055369Y020159D01*
X055284Y020224D01*
X055238Y020243D01*
Y02237D01*
X055226Y02243D01*
X055192Y022482D01*
X051042Y026631D01*
X050991Y026666D01*
X05093Y026678D01*
X04963D01*
X049621Y026691D01*
X049543Y026743D01*
X04945Y026762D01*
X049357Y026743D01*
X049279Y026691D01*
X049226Y026612D01*
X049208Y02652D01*
X049211Y026504D01*
X049087Y02638D01*
X048633D01*
X046952Y028062D01*
X0469Y028096D01*
X04684Y028108D01*
X046075D01*
Y028355D01*
X045165D01*
Y027545D01*
X04512Y027533D01*
X045025D01*
X043723Y028835D01*
Y030115D01*
X043724Y030115D01*
X043773Y030126D01*
X043847Y030076D01*
X04394Y030058D01*
X044033Y030076D01*
X044111Y030129D01*
X044164Y030207D01*
X044182Y0303D01*
X044181Y030307D01*
X044559Y030685D01*
X045195D01*
Y031495D01*
X044908D01*
Y031996D01*
X045004Y032036D01*
X045089Y032101D01*
X045154Y032186D01*
X045195Y032284D01*
X045209Y03239D01*
X045195Y032496D01*
X045154Y032594D01*
X045089Y032679D01*
X045004Y032744D01*
X044906Y032785D01*
X0448Y032798D01*
X0447D01*
X044594Y032785D01*
X044496Y032744D01*
X044411Y032679D01*
X044346Y032594D01*
X044305Y032496D01*
X044292Y03239D01*
X044305Y032284D01*
X044346Y032186D01*
X044411Y032101D01*
X044496Y032036D01*
X044592Y031996D01*
Y031495D01*
X044285D01*
Y030859D01*
X043964Y030537D01*
X04394Y030542D01*
X043847Y030524D01*
X043773Y030474D01*
X043724Y030485D01*
X043723Y030485D01*
Y03184D01*
X043712Y031891D01*
X043711Y031893D01*
X043722Y03195D01*
X043704Y032043D01*
X043651Y032121D01*
X043573Y032174D01*
X04348Y032192D01*
X043468Y03219D01*
X043443Y032236D01*
X044004Y032796D01*
X044032Y032839D01*
X044043Y03289D01*
Y034665D01*
X045204Y035826D01*
X045232Y035869D01*
X045243Y03592D01*
Y036533D01*
X045281Y036559D01*
X045334Y036637D01*
X045352Y03673D01*
X045334Y036823D01*
X045281Y036901D01*
X045203Y036954D01*
X04511Y036972D01*
X045017Y036954D01*
X044939Y036901D01*
X044886Y036823D01*
X044868Y03673D01*
X044886Y036637D01*
X044939Y036559D01*
X044977Y036533D01*
Y035975D01*
X043816Y034814D01*
X043788Y034771D01*
X043777Y03472D01*
Y032945D01*
X042626Y031794D01*
X042598Y031751D01*
X042587Y0317D01*
Y030793D01*
X042543Y03077D01*
X042523Y030784D01*
X04243Y030802D01*
X042337Y030784D01*
X042259Y030731D01*
X042206Y030653D01*
X042188Y03056D01*
X042205Y030476D01*
X042185Y030455D01*
X042164Y030443D01*
X042163Y030444D01*
X04207Y030462D01*
X041977Y030444D01*
X041899Y030391D01*
X041846Y030313D01*
X041828Y03022D01*
X041843Y030143D01*
X04181Y030098D01*
X04179Y030102D01*
X041697Y030084D01*
X041619Y030031D01*
X041566Y029953D01*
X041548Y02986D01*
X041559Y029803D01*
X041517Y029761D01*
X04151Y029762D01*
X041417Y029744D01*
X041339Y029691D01*
X041286Y029613D01*
X041268Y02952D01*
X041286Y029427D01*
X041339Y029349D01*
X041377Y029323D01*
Y029005D01*
X041376Y029005D01*
X041327Y028994D01*
X041253Y029044D01*
X04116Y029062D01*
X041098Y02905D01*
X041048Y029087D01*
Y029199D01*
X040468D01*
X040447Y029249D01*
X040804Y029606D01*
X040832Y029649D01*
X040843Y0297D01*
Y033716D01*
X040893Y033721D01*
X040896Y033702D01*
X040949Y033623D01*
X041027Y033571D01*
X04112Y033553D01*
X041166Y033562D01*
X041497Y03323D01*
Y03108D01*
X041439Y031041D01*
X041386Y030963D01*
X041368Y03087D01*
X041386Y030777D01*
X041439Y030699D01*
X041517Y030646D01*
X04161Y030628D01*
X041703Y030646D01*
X041781Y030699D01*
X041834Y030777D01*
X041852Y03087D01*
X041834Y030963D01*
X041781Y031041D01*
X041763Y031054D01*
Y033285D01*
X041752Y033335D01*
X041724Y033378D01*
X041353Y033749D01*
X041362Y033795D01*
X041358Y033813D01*
X041404Y033838D01*
X042687Y032556D01*
X042678Y03251D01*
X042696Y032417D01*
X042749Y032339D01*
X042827Y032286D01*
X04292Y032268D01*
X043013Y032286D01*
X043091Y032339D01*
X043144Y032417D01*
X043162Y03251D01*
X043144Y032603D01*
X043091Y032681D01*
X043013Y032734D01*
X04292Y032752D01*
X042874Y032743D01*
X041094Y034524D01*
X041051Y034552D01*
X041Y034563D01*
X040126D01*
X040075Y034552D01*
X040032Y034524D01*
X038646Y033137D01*
X0386Y033146D01*
X038507Y033128D01*
X038429Y033075D01*
X038376Y032997D01*
X038358Y032904D01*
X038376Y032811D01*
X038391Y032789D01*
X038368Y032745D01*
X038203D01*
X038152Y032735D01*
X038109Y032706D01*
X036824Y031421D01*
X036812Y031404D01*
X036762Y031419D01*
Y031832D01*
X040005Y035075D01*
X043887D01*
X043934Y035084D01*
X043973Y03511D01*
X044587Y035723D01*
X044613Y035763D01*
X044622Y03581D01*
Y041459D01*
X046485Y043322D01*
X046537Y043286D01*
X04663Y043268D01*
X046723Y043286D01*
X046801Y043339D01*
X046854Y043417D01*
X046872Y04351D01*
X046854Y043603D01*
X046801Y043681D01*
X046741Y043721D01*
Y043739D01*
X046794Y043817D01*
X046812Y04391D01*
X046794Y044003D01*
X046759Y044055D01*
X046773Y044115D01*
X046774Y044115D01*
X046824Y044136D01*
X046909Y044201D01*
X046974Y044286D01*
X047015Y044384D01*
X047028Y04449D01*
Y04459D01*
X047015Y044696D01*
X046974Y044794D01*
X046909Y044879D01*
X046824Y044944D01*
X046726Y044985D01*
X04662Y044998D01*
X046514Y044985D01*
X046433Y044951D01*
X046252Y045131D01*
X046271Y045177D01*
X047474D01*
X047478Y045127D01*
X047409Y045118D01*
X047341Y04509D01*
X047282Y045045D01*
X047237Y044987D01*
X047209Y044919D01*
X047199Y044846D01*
X047209Y044772D01*
X047237Y044704D01*
X047282Y044646D01*
X047341Y044601D01*
X0474Y044576D01*
X047405Y04455D01*
X0474Y044524D01*
X047341Y0445D01*
X047282Y044455D01*
X047237Y044396D01*
X047209Y044328D01*
X047199Y044255D01*
X047209Y044182D01*
X047237Y044114D01*
X047282Y044055D01*
X047341Y04401D01*
X0474Y043986D01*
X047405Y04396D01*
X0474Y043934D01*
X047341Y043909D01*
X047282Y043864D01*
X047237Y043806D01*
X047209Y043738D01*
X047199Y043664D01*
X047209Y043591D01*
X047237Y043523D01*
X047255Y043501D01*
X0461Y042346D01*
X04607Y042352D01*
X045977Y042333D01*
X045899Y042281D01*
X045846Y042202D01*
X045828Y04211D01*
X045846Y042017D01*
X045899Y041939D01*
X045977Y041886D01*
X04607Y041868D01*
X046162Y041886D01*
X046228Y04193D01*
X046271Y041917D01*
X046281Y04191D01*
X046292Y041822D01*
X046327Y041738D01*
X045917Y041327D01*
X045514D01*
Y040997D01*
X045514Y040992D01*
X045488Y040952D01*
X045457Y040952D01*
X044808D01*
Y040572D01*
X045006D01*
Y04023D01*
X044809D01*
Y03957D01*
X045519D01*
Y04023D01*
X045322D01*
Y040572D01*
X045488D01*
Y040902D01*
X045488Y040908D01*
X045514Y040947D01*
X045544Y040947D01*
X046194D01*
Y041157D01*
X046551Y041515D01*
X046635Y04148D01*
X04676Y041463D01*
X046885Y04148D01*
X047002Y041528D01*
X047102Y041605D01*
X047179Y041705D01*
X047193Y041738D01*
X047247Y041739D01*
X047282Y041693D01*
X047341Y041648D01*
X0474Y041624D01*
X047405Y041598D01*
X0474Y041572D01*
X047341Y041547D01*
X047282Y041502D01*
X047237Y041443D01*
X047209Y041375D01*
X047199Y041302D01*
X047209Y041229D01*
X047237Y041161D01*
X047282Y041103D01*
X047341Y041058D01*
X0474Y041033D01*
X047405Y041007D01*
X0474Y040981D01*
X047341Y040956D01*
X047282Y040911D01*
X047237Y040853D01*
X047209Y040785D01*
X047199Y040712D01*
X047209Y040639D01*
X047237Y040571D01*
X047282Y040512D01*
X047341Y040467D01*
X0474Y040442D01*
X047405Y040416D01*
X0474Y04039D01*
X047341Y040366D01*
X047282Y040321D01*
X047237Y040262D01*
X047209Y040194D01*
X047199Y040121D01*
X047209Y040048D01*
X047237Y03998D01*
X047282Y039921D01*
X047341Y039877D01*
X0474Y039852D01*
X047405Y039826D01*
X0474Y0398D01*
X047341Y039775D01*
X047282Y03973D01*
X047237Y039672D01*
X047224Y03964D01*
X04628D01*
Y038724D01*
X046241Y038692D01*
X04619Y038702D01*
X046097Y038684D01*
X046019Y038631D01*
X045966Y038553D01*
X045948Y03846D01*
X045966Y038367D01*
X046019Y038289D01*
X04605Y038268D01*
X046035Y038218D01*
X045945D01*
X045809Y038354D01*
X045812Y03837D01*
X045794Y038463D01*
X045741Y038541D01*
X045663Y038594D01*
X04557Y038612D01*
X045477Y038594D01*
X045399Y038541D01*
X045346Y038463D01*
X045328Y03837D01*
X045346Y038277D01*
X045399Y038199D01*
X045477Y038146D01*
X04557Y038128D01*
X045586Y038131D01*
X045768Y037948D01*
X04582Y037914D01*
X04588Y037902D01*
X04684D01*
X046849Y037889D01*
X046927Y037836D01*
X04702Y037818D01*
X047113Y037836D01*
X047191Y037889D01*
X047244Y037967D01*
X047262Y03806D01*
X047252Y03811D01*
X047298Y038138D01*
X047341Y038105D01*
X047409Y038077D01*
X047482Y038067D01*
X047682D01*
X047755Y038077D01*
X047823Y038105D01*
X047882Y03815D01*
X047888Y038158D01*
X047938Y038141D01*
Y037735D01*
X047325Y037122D01*
X046534D01*
X046501Y037171D01*
X046423Y037224D01*
X04633Y037242D01*
X046237Y037224D01*
X046159Y037171D01*
X046106Y037093D01*
X046088Y037D01*
X046106Y036907D01*
X046159Y036829D01*
X046237Y036776D01*
X04633Y036758D01*
X046423Y036776D01*
X046501Y036829D01*
X046534Y036878D01*
X047375D01*
X047422Y036887D01*
X047462Y036913D01*
X048147Y037598D01*
X048173Y037638D01*
X048182Y037685D01*
Y037966D01*
X048232Y037993D01*
X048287Y037956D01*
X04838Y037938D01*
X048473Y037956D01*
X048551Y038009D01*
X04856Y038022D01*
X048858D01*
X04887Y038014D01*
X04893Y038002D01*
X048944Y038005D01*
X048948Y038002D01*
X048982Y037961D01*
X048968Y03789D01*
X048986Y037797D01*
X048998Y037779D01*
X048975Y037735D01*
X048805D01*
X048761Y037801D01*
X048683Y037854D01*
X04859Y037872D01*
X048497Y037854D01*
X048419Y037801D01*
X048366Y037723D01*
X048348Y03763D01*
X048366Y037537D01*
X048419Y037459D01*
X048462Y03743D01*
X048465Y03737D01*
X048464Y037368D01*
X04842Y037311D01*
X048392Y037243D01*
X048382Y03717D01*
Y03697D01*
X048392Y036897D01*
X04842Y036829D01*
X048465Y03677D01*
X048523Y036725D01*
X048591Y036697D01*
X048665Y036688D01*
X048738Y036697D01*
X048806Y036725D01*
X048864Y03677D01*
X048909Y036829D01*
X048934Y036888D01*
X04896Y036893D01*
X048986Y036888D01*
X049011Y036829D01*
X049055Y03677D01*
X049114Y036725D01*
X049182Y036697D01*
X049255Y036688D01*
X049328Y036697D01*
X049396Y036725D01*
X049455Y03677D01*
X0495Y036829D01*
X049524Y036888D01*
X04955Y036893D01*
X049576Y036888D01*
X049601Y036829D01*
X049646Y03677D01*
X04965Y036767D01*
X049629Y03672D01*
X04957Y036732D01*
X049477Y036714D01*
X049399Y036661D01*
X049346Y036583D01*
X049328Y03649D01*
X049346Y036397D01*
X049399Y036319D01*
X049448Y036286D01*
Y035081D01*
X048693Y034327D01*
X048667Y034287D01*
X048658Y03424D01*
Y03366D01*
X048667Y033613D01*
X048693Y033573D01*
X048946Y033321D01*
X048935Y033294D01*
X048935D01*
Y032634D01*
X049132D01*
Y031834D01*
X048835D01*
Y031662D01*
X048736D01*
Y031834D01*
X048026D01*
Y031662D01*
X047916D01*
X047908Y031709D01*
Y031749D01*
X047908D01*
Y032459D01*
X047698D01*
Y034239D01*
X04787D01*
Y035269D01*
X04721D01*
Y034891D01*
X04716Y034858D01*
X04709Y034872D01*
X046997Y034854D01*
X046919Y034801D01*
X046866Y034723D01*
X046848Y03463D01*
X046866Y034537D01*
X046919Y034459D01*
X046997Y034406D01*
X04709Y034388D01*
X04716Y034402D01*
X04721Y034369D01*
Y034239D01*
X047382D01*
Y032459D01*
X047248D01*
Y031749D01*
X047248D01*
Y031709D01*
X047248D01*
Y031009D01*
X047248Y030999D01*
Y030959D01*
X047248Y030949D01*
Y030249D01*
X047339D01*
X047371Y030211D01*
X047361Y030159D01*
X047379Y030067D01*
X047432Y029988D01*
X04749Y029949D01*
X047474Y029899D01*
X046862D01*
X046033Y030729D01*
Y031233D01*
X046071Y031259D01*
X046124Y031337D01*
X046142Y03143D01*
X046124Y031523D01*
X046071Y031601D01*
X045993Y031654D01*
X0459Y031672D01*
X045807Y031654D01*
X045729Y031601D01*
X045676Y031523D01*
X045658Y03143D01*
X045676Y031337D01*
X045729Y031259D01*
X045767Y031233D01*
Y030674D01*
X045778Y030623D01*
X045806Y03058D01*
X046713Y029673D01*
X046756Y029644D01*
X046807Y029634D01*
X052503D01*
X052553Y029644D01*
X052596Y029673D01*
X052647Y029724D01*
X053145D01*
Y030384D01*
X052435D01*
Y029899D01*
X049324D01*
X049309Y029949D01*
X049349Y029976D01*
X049401Y030055D01*
X04942Y030147D01*
X049405Y030224D01*
X049434Y030274D01*
X049545D01*
Y030473D01*
X049591Y030482D01*
X049634Y030511D01*
X050494Y031371D01*
X05054Y031362D01*
X050633Y031381D01*
X050711Y031433D01*
X050764Y031512D01*
X050782Y031604D01*
X050764Y031697D01*
X050711Y031776D01*
X050633Y031828D01*
X05054Y031846D01*
X050447Y031828D01*
X050369Y031776D01*
X050316Y031697D01*
X050298Y031604D01*
X050307Y031559D01*
X049591Y030843D01*
X049545Y030862D01*
Y030934D01*
X048835D01*
Y030274D01*
X048921D01*
X048951Y030224D01*
X048936Y030147D01*
X048954Y030055D01*
X049007Y029976D01*
X049047Y029949D01*
X049032Y029899D01*
X048518D01*
X048509Y029909D01*
X048519Y029976D01*
X048552Y029998D01*
X048604Y030076D01*
X048623Y030169D01*
X048612Y030224D01*
X048651Y030274D01*
X048736D01*
Y030934D01*
X048026D01*
Y030274D01*
X04811D01*
X048149Y030224D01*
X048138Y030169D01*
X048157Y030076D01*
X048209Y029998D01*
X048242Y029976D01*
X048252Y029909D01*
X048244Y029899D01*
X047732D01*
X047716Y029949D01*
X047774Y029988D01*
X047827Y030067D01*
X047845Y030159D01*
X047835Y030211D01*
X047867Y030249D01*
X047908D01*
Y030949D01*
X047908Y030959D01*
Y030999D01*
X047908Y031009D01*
Y031346D01*
X048026D01*
Y031174D01*
X048736D01*
Y031346D01*
X048835D01*
Y031174D01*
X049545D01*
Y031834D01*
X049448D01*
Y032634D01*
X049645D01*
Y032806D01*
X049735D01*
Y032634D01*
X049932D01*
Y032514D01*
X049944Y032454D01*
X049978Y032403D01*
X050278Y032103D01*
X05033Y032068D01*
X05039Y032056D01*
X05152D01*
Y031855D01*
X052137D01*
X052158Y031805D01*
X052076Y031724D01*
X052048Y031681D01*
X052037Y03163D01*
Y031607D01*
X051999Y031581D01*
X051946Y031503D01*
X051928Y03141D01*
X051946Y031317D01*
X051999Y031239D01*
X052077Y031186D01*
X05217Y031168D01*
X052263Y031186D01*
X052341Y031239D01*
X052394Y031317D01*
X052412Y03141D01*
X052394Y031503D01*
X052341Y031581D01*
X052338Y031611D01*
X052582Y031855D01*
X052817D01*
Y031616D01*
X052828Y031565D01*
X052856Y031522D01*
X053048Y031331D01*
X053029Y031284D01*
X052435D01*
Y030624D01*
X053004D01*
X053248Y03038D01*
Y030038D01*
X053928D01*
Y030418D01*
X053585D01*
X053265Y030738D01*
X053286Y030788D01*
X053928D01*
Y031168D01*
X053585D01*
X053344Y031409D01*
X053364Y031455D01*
X053928D01*
Y031835D01*
X053755D01*
X053729Y031885D01*
X053764Y031937D01*
X053782Y03203D01*
X053764Y032123D01*
X053742Y032155D01*
X053769Y032205D01*
X053928D01*
Y032585D01*
X053248D01*
Y032528D01*
X05308D01*
Y032565D01*
X052829D01*
X05281Y032611D01*
X052858Y032659D01*
X05337D01*
Y033369D01*
X05271D01*
Y032857D01*
X052594Y032742D01*
X05252D01*
Y033369D01*
X052391D01*
X052372Y033416D01*
X052929Y033973D01*
X052975Y033954D01*
Y033502D01*
X053332D01*
X05361Y033224D01*
Y032659D01*
X05427D01*
Y033124D01*
X054272Y033136D01*
Y035725D01*
X054263Y035772D01*
X054237Y035811D01*
X053921Y036127D01*
X053882Y036153D01*
X053835Y036162D01*
X053211D01*
X052872Y036501D01*
Y03708D01*
X052863Y037127D01*
X052837Y037167D01*
X052288Y037715D01*
X052285Y037718D01*
X052285Y037778D01*
X052331Y037809D01*
X052384Y037887D01*
X052402Y03798D01*
X052384Y038073D01*
X052365Y038101D01*
X052389Y038155D01*
X052395Y038156D01*
X0524Y03815D01*
X052459Y038105D01*
X052527Y038077D01*
X0526Y038067D01*
X0528D01*
X052873Y038077D01*
X052941Y038105D01*
X053Y03815D01*
X053019Y038175D01*
X053082D01*
X053117Y038129D01*
X053193Y038071D01*
X053282Y038034D01*
X053377Y038021D01*
X053472Y038034D01*
X053561Y038071D01*
X053637Y038129D01*
X053696Y038205D01*
X053733Y038294D01*
X053745Y038389D01*
X053733Y038485D01*
X053696Y038574D01*
X053637Y03865D01*
X053561Y038708D01*
X053472Y038745D01*
X053377Y038758D01*
X053282Y038745D01*
X053193Y038708D01*
X053117Y03865D01*
X053058Y038574D01*
X05305Y038554D01*
X053015Y03855D01*
X052995Y038553D01*
X052941Y038594D01*
X052882Y038619D01*
X052877Y038645D01*
X052882Y038671D01*
X052941Y038695D01*
X053Y03874D01*
X053045Y038799D01*
X053073Y038867D01*
X053082Y03894D01*
X053073Y039013D01*
X053045Y039081D01*
X053Y03914D01*
X052941Y039185D01*
X052882Y039209D01*
X052877Y039235D01*
X052882Y039261D01*
X052941Y039286D01*
X053Y039331D01*
X053045Y039389D01*
X053073Y039458D01*
X053082Y039531D01*
X053073Y039604D01*
X053045Y039672D01*
X053Y03973D01*
X052941Y039775D01*
X052882Y0398D01*
X052877Y039826D01*
X052882Y039852D01*
X052941Y039877D01*
X053Y039921D01*
X053045Y03998D01*
X053073Y040048D01*
X053076Y040069D01*
X053089Y040078D01*
X053129Y040089D01*
X053193Y040039D01*
X053282Y040002D01*
X053377Y03999D01*
X053472Y040002D01*
X053561Y040039D01*
X053637Y040098D01*
X053696Y040174D01*
X053733Y040263D01*
X053745Y040358D01*
X053733Y040453D01*
X053696Y040542D01*
X053637Y040618D01*
X053561Y040677D01*
X053524Y040692D01*
X053505Y040754D01*
X053534Y040797D01*
X053541Y040834D01*
X053587Y040853D01*
X053597Y040846D01*
X05369Y040828D01*
X053783Y040846D01*
X053861Y040899D01*
X053914Y040977D01*
X053932Y04107D01*
X053914Y041163D01*
X053861Y041241D01*
X053783Y041294D01*
X05369Y041312D01*
X053657Y041306D01*
X053612Y041351D01*
Y042186D01*
X053661Y042219D01*
X053714Y042297D01*
X053732Y04239D01*
X053714Y042483D01*
X053661Y042561D01*
X053583Y042614D01*
X05349Y042632D01*
X053397Y042614D01*
X053319Y042561D01*
X053266Y042483D01*
X053249Y042395D01*
X053241Y04238D01*
X053213Y042352D01*
X05321Y042352D01*
X053117Y042334D01*
X053098Y042321D01*
X053049Y042342D01*
X053046Y042346D01*
X053073Y04241D01*
X053082Y042483D01*
X053073Y042556D01*
X053045Y042625D01*
X053Y042683D01*
X052941Y042728D01*
X052882Y042753D01*
X052877Y042779D01*
X052882Y042805D01*
X052941Y042829D01*
X053Y042874D01*
X053045Y042933D01*
X053073Y043001D01*
X053082Y043074D01*
X053073Y043147D01*
X053045Y043215D01*
X053Y043274D01*
X052941Y043319D01*
X052882Y043343D01*
X052877Y043369D01*
X052882Y043395D01*
X052941Y04342D01*
X053Y043465D01*
X053045Y043523D01*
X053073Y043591D01*
X053082Y043664D01*
X053073Y043738D01*
X053045Y043806D01*
X053Y043864D01*
X052941Y043909D01*
X052882Y043934D01*
X052877Y04396D01*
X052882Y043986D01*
X052941Y04401D01*
X053Y044055D01*
X053045Y044114D01*
X053073Y044182D01*
X053082Y044255D01*
X053073Y044328D01*
X053045Y044396D01*
X053Y044455D01*
X052941Y0445D01*
X052882Y044524D01*
X052877Y04455D01*
X052882Y044576D01*
X052941Y044601D01*
X053Y044646D01*
X053045Y044704D01*
X053073Y044772D01*
X053082Y044846D01*
X053073Y044919D01*
X053045Y044987D01*
X053Y045045D01*
X052941Y04509D01*
X052873Y045118D01*
X0528Y045128D01*
X0526D01*
X052592Y045127D01*
X052432Y045287D01*
X052392Y045313D01*
X052346Y045322D01*
X049598D01*
X049551Y045313D01*
X049511Y045287D01*
X049156Y044931D01*
X049156Y044931D01*
X048981Y044756D01*
X04895Y044762D01*
X048857Y044744D01*
X048779Y044691D01*
X048726Y044613D01*
X048708Y04452D01*
X048712Y044498D01*
X048667Y044468D01*
X048653Y044478D01*
Y04488D01*
X048642Y044931D01*
X048614Y044974D01*
X048184Y045404D01*
X048141Y045432D01*
X04809Y045443D01*
X043653D01*
X04363Y045487D01*
X043644Y045507D01*
X043662Y0456D01*
X043644Y045693D01*
X043632Y04571D01*
X043655Y045754D01*
X055852D01*
X055852Y037415D01*
D02*
G37*
G36*
X049292Y044659D02*
X049296Y044637D01*
X049349Y044559D01*
X049427Y044506D01*
X04952Y044488D01*
X049578Y044499D01*
X049908Y044169D01*
X049948Y044142D01*
X049995Y044133D01*
X052348D01*
X052355Y044114D01*
X0524Y044055D01*
X052459Y04401D01*
X052518Y043986D01*
X052523Y04396D01*
X052518Y043934D01*
X052459Y043909D01*
X0524Y043864D01*
X052355Y043806D01*
X052327Y043738D01*
X052318Y043664D01*
X052327Y043591D01*
X052355Y043523D01*
X0524Y043465D01*
X052459Y04342D01*
X052518Y043395D01*
X052523Y043369D01*
X052518Y043343D01*
X052459Y043319D01*
X0524Y043274D01*
X052355Y043215D01*
X052327Y043147D01*
X052318Y043074D01*
X052327Y043001D01*
X052355Y042933D01*
X0524Y042874D01*
X052459Y042829D01*
X052518Y042805D01*
X052523Y042779D01*
X052518Y042753D01*
X052459Y042728D01*
X0524Y042683D01*
X052355Y042625D01*
X052327Y042556D01*
X052318Y042483D01*
X052327Y04241D01*
X052355Y042342D01*
X0524Y042284D01*
X052459Y042239D01*
X052518Y042214D01*
X052523Y042188D01*
X052518Y042162D01*
X052459Y042137D01*
X0524Y042093D01*
X052355Y042034D01*
X052327Y041966D01*
X052318Y041893D01*
X052327Y04182D01*
X052355Y041752D01*
X0524Y041693D01*
X052459Y041648D01*
X052518Y041624D01*
X052523Y041598D01*
X052518Y041572D01*
X052459Y041547D01*
X0524Y041502D01*
X052355Y041443D01*
X052327Y041375D01*
X052318Y041302D01*
X052327Y041229D01*
X052355Y041161D01*
X0524Y041103D01*
X052459Y041058D01*
X052518Y041033D01*
X052523Y041007D01*
X052518Y040981D01*
X052459Y040956D01*
X0524Y040911D01*
X052355Y040853D01*
X052327Y040785D01*
X052318Y040712D01*
X052327Y040639D01*
X052355Y040571D01*
X0524Y040512D01*
X052459Y040467D01*
X052518Y040442D01*
X052523Y040416D01*
X052518Y04039D01*
X052459Y040366D01*
X0524Y040321D01*
X052355Y040262D01*
X052327Y040194D01*
X052318Y040121D01*
X052327Y040048D01*
X052355Y03998D01*
X0524Y039921D01*
X052459Y039877D01*
X052518Y039852D01*
X052523Y039826D01*
X052518Y0398D01*
X052459Y039775D01*
X0524Y03973D01*
X052355Y039672D01*
X052327Y039604D01*
X052318Y039531D01*
X052327Y039458D01*
X052355Y039389D01*
X0524Y039331D01*
X052459Y039286D01*
X052518Y039261D01*
X052523Y039235D01*
X052518Y039209D01*
X052459Y039185D01*
X0524Y03914D01*
X052355Y039081D01*
X052332Y039025D01*
X049375D01*
X049349Y039075D01*
X049384Y039127D01*
X049402Y03922D01*
X049384Y039313D01*
X049331Y039391D01*
X049253Y039444D01*
X04916Y039462D01*
X049123Y039455D01*
X04907Y039507D01*
Y043982D01*
X04906Y044033D01*
X049031Y044076D01*
X048863Y044244D01*
X048888Y04429D01*
X04895Y044278D01*
X049043Y044296D01*
X049121Y044349D01*
X049174Y044427D01*
X049192Y04452D01*
X049175Y044605D01*
X049244Y044674D01*
X049292Y044659D01*
D02*
G37*
G36*
X044349Y044885D02*
X044341Y044879D01*
X044276Y044794D01*
X044235Y044696D01*
X044222Y04459D01*
Y04449D01*
X044235Y044384D01*
X044276Y044286D01*
X044341Y044201D01*
X044426Y044136D01*
X044497Y044107D01*
Y043805D01*
X04368Y042987D01*
X04363Y043008D01*
Y043034D01*
X04247D01*
Y042618D01*
Y042224D01*
Y041831D01*
Y041437D01*
Y04099D01*
X042367D01*
X040903Y042455D01*
Y043223D01*
X040941Y043249D01*
X040994Y043327D01*
X041012Y04342D01*
X040994Y043513D01*
X040941Y043591D01*
X040863Y043644D01*
X04077Y043662D01*
X040677Y043644D01*
X040599Y043591D01*
X040546Y043513D01*
X040528Y04342D01*
X040546Y043327D01*
X040599Y043249D01*
X040637Y043223D01*
Y0424D01*
X040648Y042349D01*
X040676Y042306D01*
X042219Y040764D01*
X042262Y040735D01*
X042313Y040725D01*
X04247D01*
Y040596D01*
X041911D01*
X040053Y042455D01*
Y043228D01*
X040084Y043249D01*
X040137Y043327D01*
X040155Y04342D01*
X040137Y043513D01*
X040084Y043591D01*
X040006Y043644D01*
X039913Y043662D01*
X039821Y043644D01*
X039742Y043591D01*
X039689Y043513D01*
X039671Y04342D01*
X039689Y043327D01*
X039742Y043249D01*
X039787Y043218D01*
Y0424D01*
X039798Y042349D01*
X039826Y042306D01*
X041762Y04037D01*
X041806Y040341D01*
X041856Y040331D01*
X04247D01*
Y040203D01*
X041475D01*
X039223Y042455D01*
Y043223D01*
X039261Y043249D01*
X039314Y043327D01*
X039332Y04342D01*
X039314Y043513D01*
X039261Y043591D01*
X039183Y043644D01*
X03909Y043662D01*
X038997Y043644D01*
X038919Y043591D01*
X038866Y043513D01*
X038848Y04342D01*
X038866Y043327D01*
X038919Y043249D01*
X038957Y043223D01*
Y0424D01*
X038968Y042349D01*
X038996Y042306D01*
X041326Y039976D01*
X041369Y039948D01*
X04142Y039938D01*
X04247D01*
Y039809D01*
X041069D01*
X038423Y042455D01*
Y043246D01*
X038461Y043272D01*
X038514Y043351D01*
X038532Y043443D01*
X038514Y043536D01*
X038461Y043614D01*
X038383Y043667D01*
X03829Y043685D01*
X038252Y043678D01*
X038227Y043724D01*
X039435Y044932D01*
X043323D01*
X043339Y044885D01*
X043331Y044879D01*
X043266Y044794D01*
X043225Y044696D01*
X043211Y04459D01*
Y04449D01*
X043225Y044384D01*
X043266Y044286D01*
X043331Y044201D01*
X043416Y044136D01*
X043514Y044095D01*
X04362Y044082D01*
X043726Y044095D01*
X043824Y044136D01*
X043909Y044201D01*
X043974Y044286D01*
X044015Y044384D01*
X044029Y04449D01*
Y04459D01*
X044015Y044696D01*
X043974Y044794D01*
X043909Y044879D01*
X043901Y044885D01*
X043917Y044932D01*
X044333D01*
X044349Y044885D01*
D02*
G37*
G36*
X039188Y045131D02*
X037668Y043612D01*
X037634Y04356D01*
X037622Y0435D01*
Y04095D01*
X037609Y040941D01*
X037556Y040863D01*
X037538Y04077D01*
X037556Y040677D01*
X037609Y040599D01*
X037622Y04059D01*
Y03783D01*
X037609Y037821D01*
X037556Y037743D01*
X037538Y03765D01*
X037556Y037557D01*
X037609Y037479D01*
X037687Y037426D01*
X03778Y037408D01*
X037873Y037426D01*
X037951Y037479D01*
X037961Y037493D01*
X040301Y037502D01*
X040331Y037508D01*
X04036Y037514D01*
X040361Y037514D01*
X040361Y037514D01*
X040386Y037531D01*
X040412Y037548D01*
X041594Y038731D01*
X04247D01*
Y038287D01*
Y037894D01*
Y0375D01*
Y037106D01*
Y036713D01*
X042532D01*
X042549Y036663D01*
X042511Y036634D01*
X042446Y036549D01*
X042405Y03645D01*
X042392Y036345D01*
Y036095D01*
X042405Y035989D01*
X042446Y03589D01*
X042499Y035822D01*
X042477Y035772D01*
X042123D01*
X042101Y035822D01*
X042154Y03589D01*
X042195Y035989D01*
X042208Y036095D01*
Y036345D01*
X042195Y03645D01*
X042154Y036549D01*
X042089Y036634D01*
X042004Y036698D01*
X041906Y036739D01*
X0418Y036753D01*
X041694Y036739D01*
X041596Y036698D01*
X041511Y036634D01*
X041446Y036549D01*
X041405Y03645D01*
X041392Y036345D01*
Y036095D01*
X041405Y035989D01*
X041446Y03589D01*
X041499Y035822D01*
X041477Y035772D01*
X041123D01*
X041101Y035822D01*
X041154Y03589D01*
X041195Y035989D01*
X041209Y036095D01*
Y036345D01*
X041195Y03645D01*
X041154Y036549D01*
X041089Y036634D01*
X041004Y036698D01*
X040906Y036739D01*
X0408Y036753D01*
X040694Y036739D01*
X040596Y036698D01*
X040511Y036634D01*
X040446Y036549D01*
X040405Y03645D01*
X040392Y036345D01*
Y036095D01*
X040405Y035989D01*
X040446Y03589D01*
X040499Y035822D01*
X040477Y035772D01*
X04014D01*
X04012Y035768D01*
X040107Y035784D01*
X040095Y035814D01*
X040154Y03589D01*
X040195Y035989D01*
X040208Y036095D01*
Y036345D01*
X040195Y03645D01*
X040154Y036549D01*
X040089Y036634D01*
X040004Y036698D01*
X039906Y036739D01*
X0398Y036753D01*
X039694Y036739D01*
X039596Y036698D01*
X039511Y036634D01*
X039446Y036549D01*
X039405Y03645D01*
X039392Y036345D01*
Y036095D01*
X039405Y035989D01*
X039446Y03589D01*
X039511Y035806D01*
X039596Y035741D01*
X039694Y0357D01*
X0398Y035686D01*
X039906Y0357D01*
X039975Y035729D01*
X040003Y035686D01*
X037464Y033147D01*
X037418Y033166D01*
Y035846D01*
X037468Y035863D01*
X037511Y035806D01*
X037596Y035741D01*
X037694Y0357D01*
X0378Y035686D01*
X037906Y0357D01*
X038004Y035741D01*
X038089Y035806D01*
X038154Y03589D01*
X038195Y035989D01*
X038208Y036095D01*
Y036345D01*
X038195Y03645D01*
X038154Y036549D01*
X038089Y036634D01*
X038004Y036698D01*
X037906Y036739D01*
X0378Y036753D01*
X037694Y036739D01*
X037596Y036698D01*
X037511Y036634D01*
X037468Y036577D01*
X037418Y036594D01*
Y039315D01*
X037407Y039366D01*
X037379Y039409D01*
X03623Y040557D01*
X036213Y040569D01*
Y041043D01*
Y041437D01*
Y041705D01*
X036259Y041724D01*
X036777Y041205D01*
Y040949D01*
X036739Y040923D01*
X036686Y040844D01*
X036668Y040752D01*
X036686Y040659D01*
X036739Y04058D01*
X036817Y040528D01*
X03691Y04051D01*
X037003Y040528D01*
X037081Y04058D01*
X037134Y040659D01*
X037152Y040752D01*
X037134Y040844D01*
X037081Y040923D01*
X037043Y040949D01*
Y04126D01*
X037032Y041311D01*
X037004Y041354D01*
X036225Y042132D01*
X036213Y042141D01*
Y0423D01*
X036272D01*
X036323Y04231D01*
X036364Y042337D01*
X03641Y042328D01*
X036503Y042346D01*
X036581Y042399D01*
X036634Y042477D01*
X036652Y04257D01*
X036634Y042663D01*
X036597Y042717D01*
X036624Y042767D01*
X037017D01*
X037048Y04273D01*
X037066Y042637D01*
X037119Y042559D01*
X037197Y042506D01*
X03729Y042488D01*
X037383Y042506D01*
X037461Y042559D01*
X037514Y042637D01*
X037532Y04273D01*
X037514Y042823D01*
X037461Y042901D01*
X037383Y042954D01*
X03729Y042972D01*
X037244Y042963D01*
X037214Y042994D01*
X037171Y043022D01*
X03712Y043033D01*
X036213D01*
Y043034D01*
X035053D01*
Y042959D01*
X034799D01*
X034144Y043613D01*
X034101Y043642D01*
X03405Y043652D01*
X032341D01*
X031879Y044113D01*
X031836Y044142D01*
X031786Y044152D01*
X0313D01*
X031249Y044142D01*
X031206Y044113D01*
X03102Y043927D01*
X03098Y043901D01*
X030583D01*
Y044749D01*
X030621Y044775D01*
X030674Y044854D01*
X030692Y044946D01*
X030683Y044992D01*
X030868Y045177D01*
X039169Y045177D01*
X039188Y045131D01*
D02*
G37*
G36*
X032192Y043426D02*
X032235Y043397D01*
X032286Y043387D01*
X032299D01*
X032345Y043376D01*
Y042716D01*
X032455D01*
X032463Y042677D01*
X032516Y042598D01*
X032594Y042546D01*
X032687Y042528D01*
X03278Y042546D01*
X032858Y042598D01*
X032884Y042637D01*
X03437D01*
X034629Y042378D01*
X034672Y042349D01*
X034723Y042339D01*
X035053D01*
Y041767D01*
X034675D01*
X034431Y042012D01*
X034442Y04207D01*
X034424Y042162D01*
X034371Y042241D01*
X034293Y042293D01*
X0342Y042312D01*
X034107Y042293D01*
X034029Y042241D01*
X033976Y042162D01*
X033958Y04207D01*
X033976Y041977D01*
X034029Y041898D01*
X034107Y041846D01*
X0342Y041828D01*
X034258Y041839D01*
X034538Y041558D01*
X034578Y041532D01*
X034625Y041523D01*
X035053D01*
Y041384D01*
X034004D01*
X033953Y041374D01*
X03391Y041345D01*
X033126Y040561D01*
X033098Y040518D01*
X033087Y040468D01*
Y039699D01*
X032891Y039502D01*
X032428D01*
X032377Y039492D01*
X032334Y039463D01*
X032281Y03941D01*
X032235Y039429D01*
Y041468D01*
X032224Y041518D01*
X032196Y041561D01*
X032133Y041624D01*
X032142Y04167D01*
X032124Y041762D01*
X032071Y041841D01*
X031993Y041893D01*
X031928Y041906D01*
X031683Y042151D01*
Y043191D01*
X03188D01*
Y043673D01*
X031926Y043692D01*
X032192Y043426D01*
D02*
G37*
G36*
X035053Y040256D02*
Y039834D01*
X034634D01*
X034626Y039848D01*
X034547Y0399D01*
X034454Y039919D01*
X034362Y0399D01*
X034283Y039848D01*
X034231Y039769D01*
X034212Y039676D01*
X034231Y039584D01*
X034283Y039505D01*
X034362Y039453D01*
X034454Y039434D01*
X034547Y039453D01*
X034626Y039505D01*
X034634Y039518D01*
X035053D01*
Y039468D01*
X036213D01*
Y039745D01*
X036259Y039764D01*
X036475Y039548D01*
Y037979D01*
X036425Y037952D01*
X036393Y037974D01*
X0363Y037992D01*
X036251Y037982D01*
X036213Y038014D01*
Y038287D01*
Y038681D01*
Y039097D01*
X035053D01*
Y039047D01*
X034659D01*
X034626Y039097D01*
X034547Y03915D01*
X034454Y039168D01*
X034362Y03915D01*
X034283Y039097D01*
X034231Y039019D01*
X034212Y038926D01*
X034231Y038833D01*
X034283Y038755D01*
X034362Y038702D01*
X034454Y038684D01*
X034547Y038702D01*
X03459Y038731D01*
X035053D01*
Y038287D01*
Y037894D01*
Y037447D01*
X034936D01*
X034885Y037437D01*
X034842Y037408D01*
X034106Y036672D01*
X034095Y036655D01*
X034045Y036671D01*
Y037353D01*
X034063Y037356D01*
X034141Y037409D01*
X034194Y037487D01*
X034212Y03758D01*
X034194Y037673D01*
X034141Y037751D01*
X034063Y037804D01*
X03397Y037822D01*
X033877Y037804D01*
X033799Y037751D01*
X033746Y037673D01*
X033728Y03758D01*
X033746Y037487D01*
X03378Y037437D01*
Y035447D01*
X03379Y035396D01*
X033819Y035353D01*
X03446Y034712D01*
X034445Y034675D01*
X034432Y03457D01*
Y03447D01*
X034445Y034364D01*
X034486Y034265D01*
X034551Y034181D01*
X034636Y034116D01*
X034734Y034075D01*
X03484Y034061D01*
X034946Y034075D01*
X035044Y034116D01*
X035112Y034168D01*
X035162Y034146D01*
Y032994D01*
X035157Y032993D01*
X035079Y032941D01*
X035026Y032862D01*
X035008Y03277D01*
X035026Y032677D01*
X035079Y032598D01*
X035157Y032546D01*
X03525Y032528D01*
X035343Y032546D01*
X035421Y032598D01*
X035474Y032677D01*
X035492Y03277D01*
X035478Y032841D01*
Y034207D01*
X035528Y034224D01*
X035561Y034181D01*
X035646Y034116D01*
X035744Y034075D01*
X03585Y034061D01*
X035956Y034075D01*
X036054Y034116D01*
X036139Y034181D01*
X036145Y034189D01*
X036192Y034173D01*
Y032674D01*
X034646Y031128D01*
X0346Y031137D01*
X034507Y031118D01*
X034429Y031066D01*
X034376Y030987D01*
X034358Y030894D01*
X034376Y030802D01*
X034429Y030723D01*
X034507Y030671D01*
X0346Y030652D01*
X034693Y030671D01*
X034771Y030723D01*
X034824Y030802D01*
X034842Y030894D01*
X034833Y03094D01*
X036419Y032526D01*
X036447Y032569D01*
X036457Y032619D01*
Y034208D01*
X036507Y034225D01*
X036541Y034181D01*
X036626Y034116D01*
X036724Y034075D01*
X03683Y034061D01*
X036936Y034075D01*
X037034Y034116D01*
X037102Y034168D01*
X037152Y034147D01*
Y03315D01*
X035006Y031004D01*
X034978Y030961D01*
X034967Y03091D01*
Y030795D01*
X034957Y030793D01*
X034879Y030741D01*
X034826Y030662D01*
X034808Y03057D01*
X034826Y030477D01*
X034879Y030398D01*
X034957Y030346D01*
X03505Y030328D01*
X035143Y030346D01*
X035221Y030398D01*
X035274Y030477D01*
X035292Y03057D01*
X035274Y030662D01*
X035233Y030724D01*
Y030855D01*
X036121Y031744D01*
X036168Y031725D01*
Y030674D01*
X036119Y030641D01*
X036076Y030577D01*
X036023Y030584D01*
X036014Y030633D01*
X035961Y030711D01*
X035883Y030764D01*
X03579Y030782D01*
X035697Y030764D01*
X035619Y030711D01*
X035566Y030633D01*
X035548Y03054D01*
X035566Y030447D01*
X035619Y030369D01*
X035657Y030343D01*
Y02963D01*
X035668Y029579D01*
X035696Y029536D01*
X036856Y028376D01*
X036899Y028348D01*
X03695Y028337D01*
X038945D01*
X039247Y028035D01*
X039236Y028013D01*
X039218Y027994D01*
X039175Y028002D01*
X036516D01*
X036514Y028012D01*
X036461Y028091D01*
X036383Y028143D01*
X03629Y028162D01*
X036244Y028153D01*
X034593Y029804D01*
X03455Y029832D01*
X0345Y029843D01*
X033981D01*
X033972Y02986D01*
X033967Y029893D01*
X034044Y029951D01*
X034109Y030036D01*
X03415Y030134D01*
X034163Y03024D01*
X03415Y030346D01*
X034109Y030444D01*
X034044Y030529D01*
X033959Y030594D01*
X033861Y030635D01*
X033755Y030648D01*
X033505D01*
X033399Y030635D01*
X033301Y030594D01*
X033216Y030529D01*
X033151Y030444D01*
X03311Y030346D01*
X033099Y03026D01*
X033049Y03024D01*
X032973Y030316D01*
Y03174D01*
X032962Y03179D01*
X032934Y031833D01*
X03237Y032397D01*
Y03253D01*
X03242Y032549D01*
X032823Y032146D01*
X032866Y032118D01*
X032917Y032107D01*
X033122D01*
X033151Y032036D01*
X033216Y031951D01*
X033301Y031886D01*
X033399Y031845D01*
X033505Y031832D01*
X033755D01*
X033861Y031845D01*
X033959Y031886D01*
X034044Y031951D01*
X034109Y032036D01*
X03415Y032134D01*
X034163Y03224D01*
X03415Y032346D01*
X034109Y032444D01*
X034044Y032529D01*
X033959Y032594D01*
X033861Y032635D01*
X033755Y032648D01*
X033505D01*
X033399Y032635D01*
X033301Y032594D01*
X033216Y032529D01*
X033151Y032444D01*
X033122Y032373D01*
X032972D01*
X032633Y032712D01*
Y034301D01*
X032679Y03432D01*
X033223Y033776D01*
X033266Y033747D01*
X033316Y033737D01*
X033995D01*
X034469Y033264D01*
X034486Y033177D01*
X034538Y033098D01*
X034617Y033046D01*
X03471Y033028D01*
X034802Y033046D01*
X034881Y033098D01*
X034933Y033177D01*
X034952Y03327D01*
X034933Y033362D01*
X034881Y033441D01*
X034802Y033493D01*
X03471Y033512D01*
X034617Y033493D01*
X034615Y033492D01*
X034144Y033963D01*
X034101Y033992D01*
X03405Y034002D01*
X033371D01*
X033039Y034334D01*
X033056Y034389D01*
X033093Y034396D01*
X033171Y034448D01*
X033224Y034527D01*
X033242Y03462D01*
X033224Y034712D01*
X033171Y034791D01*
X033133Y034817D01*
Y038469D01*
X033744Y03908D01*
X033772Y039123D01*
X033783Y039174D01*
Y040165D01*
X034343Y040725D01*
X035053D01*
Y040256D01*
D02*
G37*
G36*
X04623Y044707D02*
X046225Y044696D01*
X046212Y04459D01*
Y04449D01*
X046225Y044384D01*
X046266Y044286D01*
X046331Y044201D01*
X046404Y044145D01*
X046411Y04409D01*
X046399Y044081D01*
X046346Y044003D01*
X046343Y043986D01*
X044158Y041802D01*
X044132Y041762D01*
X044123Y041715D01*
Y036667D01*
X044073Y036646D01*
X044004Y036698D01*
X043906Y036739D01*
X0438Y036753D01*
X043694Y036739D01*
X043672Y03673D01*
X04363Y036758D01*
Y037106D01*
Y0375D01*
Y037894D01*
Y038287D01*
Y038681D01*
Y039097D01*
X04247D01*
Y039047D01*
X041529D01*
X041469Y039035D01*
X041417Y039001D01*
X040234Y037818D01*
X037979Y037809D01*
X037938Y03785D01*
Y04059D01*
X037951Y040599D01*
X038004Y040677D01*
X038022Y04077D01*
X038004Y040863D01*
X037951Y040941D01*
X037938Y04095D01*
Y043435D01*
X038009Y043506D01*
X038055Y043481D01*
X038048Y043443D01*
X038066Y043351D01*
X038119Y043272D01*
X038157Y043246D01*
Y0424D01*
X038168Y042349D01*
X038196Y042306D01*
X04092Y039583D01*
X040963Y039554D01*
X041014Y039544D01*
X04247D01*
Y039468D01*
X04363D01*
Y039862D01*
Y040256D01*
Y04065D01*
Y041043D01*
Y041437D01*
Y041831D01*
Y0423D01*
X043852D01*
X043903Y04231D01*
X043946Y042339D01*
X044522Y042914D01*
X044583Y042926D01*
X044661Y042979D01*
X044714Y043057D01*
X044732Y04315D01*
X044714Y043243D01*
X044661Y043321D01*
X044583Y043374D01*
X044524Y043385D01*
X044507Y04344D01*
X044724Y043656D01*
X044752Y043699D01*
X044763Y04375D01*
Y044107D01*
X044834Y044136D01*
X044919Y044201D01*
X044984Y044286D01*
X045025Y044384D01*
X045038Y04449D01*
Y04459D01*
X045025Y044696D01*
X044984Y044794D01*
X044919Y044879D01*
X044911Y044885D01*
X044927Y044932D01*
X046005D01*
X04623Y044707D01*
D02*
G37*
G36*
X052628Y03703D02*
Y03645D01*
X052637Y036403D01*
X052663Y036363D01*
X053073Y035953D01*
X053113Y035927D01*
X05316Y035918D01*
X053784D01*
X054028Y035674D01*
Y034182D01*
X053769D01*
X05373Y034208D01*
Y034888D01*
X05335D01*
Y034697D01*
X052254D01*
X052204Y034687D01*
X052161Y034658D01*
X052142Y034639D01*
X052094Y034646D01*
X052071Y034689D01*
X052282Y0349D01*
X052327Y03489D01*
X05242Y034909D01*
X052499Y034961D01*
X052551Y03504D01*
X052558Y035075D01*
X05318D01*
Y035785D01*
X05252D01*
Y035513D01*
X052373Y035366D01*
X052327Y035375D01*
X052235Y035356D01*
X052156Y035304D01*
X052104Y035225D01*
X052085Y035133D01*
X052094Y035087D01*
X051972Y034964D01*
X05193Y034943D01*
Y034943D01*
X05193Y034943D01*
X05155D01*
Y034736D01*
X050729D01*
X050678Y034726D01*
X050635Y034697D01*
X050133Y034194D01*
X049873D01*
X049854Y034241D01*
X04999Y034377D01*
X05007Y034361D01*
X050163Y03438D01*
X050241Y034432D01*
X050294Y034511D01*
X050312Y034603D01*
X050294Y034696D01*
X050241Y034774D01*
X050163Y034827D01*
X05007Y034845D01*
X049977Y034827D01*
X049899Y034774D01*
X049846Y034696D01*
X049828Y034603D01*
X04983Y034592D01*
X049433Y034194D01*
X048978D01*
X048957Y034244D01*
X049657Y034943D01*
X049683Y034983D01*
X049692Y03503D01*
Y036286D01*
X049741Y036319D01*
X049794Y036397D01*
X049812Y03649D01*
X049794Y036583D01*
X049746Y036654D01*
X049759Y036681D01*
X049773Y036697D01*
X049846Y036688D01*
X049919Y036697D01*
X049987Y036725D01*
X050045Y03677D01*
X05009Y036829D01*
X050115Y036888D01*
X050141Y036893D01*
X050167Y036888D01*
X050192Y036829D01*
X050237Y03677D01*
X050295Y036725D01*
X050363Y036697D01*
X050436Y036688D01*
X050509Y036697D01*
X050577Y036725D01*
X050636Y03677D01*
X050681Y036829D01*
X050706Y036888D01*
X050732Y036893D01*
X050757Y036888D01*
X050782Y036829D01*
X050827Y03677D01*
X050886Y036725D01*
X050954Y036697D01*
X051027Y036688D01*
X0511Y036697D01*
X051168Y036725D01*
X051226Y03677D01*
X051271Y036829D01*
X051296Y036888D01*
X051322Y036893D01*
X051348Y036888D01*
X051373Y036829D01*
X051418Y03677D01*
X051476Y036725D01*
X051544Y036697D01*
X051617Y036688D01*
X05169Y036697D01*
X051759Y036725D01*
X051817Y03677D01*
X051862Y036829D01*
X051887Y036888D01*
X051913Y036893D01*
X051939Y036888D01*
X051963Y036829D01*
X052008Y03677D01*
X052067Y036725D01*
X052135Y036697D01*
X052208Y036688D01*
X052281Y036697D01*
X052349Y036725D01*
X052408Y03677D01*
X052452Y036829D01*
X052481Y036897D01*
X05249Y03697D01*
Y037102D01*
X052536Y037121D01*
X052628Y03703D01*
D02*
G37*
G36*
X036206Y036663D02*
X036202Y036658D01*
X036192Y036607D01*
Y034867D01*
X036145Y034851D01*
X036139Y034859D01*
X036054Y034923D01*
X035956Y034964D01*
X03585Y034978D01*
X035744Y034964D01*
X035646Y034923D01*
X035561Y034859D01*
X035528Y034815D01*
X035478Y034832D01*
Y035608D01*
X035466Y035668D01*
X035432Y03572D01*
X035205Y035946D01*
Y036713D01*
X036179D01*
X036206Y036663D01*
D02*
G37*
G36*
X040072Y034118D02*
X040086Y034047D01*
X040139Y033969D01*
X040186Y033937D01*
X040188Y033929D01*
X040216Y033886D01*
X040397Y033705D01*
Y030297D01*
X040353Y030273D01*
X040323Y030294D01*
X04023Y030312D01*
X04022Y03032D01*
Y030619D01*
X03951D01*
Y030427D01*
X039385D01*
X039385Y030427D01*
X039332Y030416D01*
X039287Y030387D01*
X039287Y030387D01*
X039225Y030324D01*
X038955D01*
X038837Y030442D01*
X038793Y030472D01*
X03874Y030482D01*
X038605D01*
Y030674D01*
X037895D01*
Y030014D01*
X038112D01*
Y029568D01*
X038076Y029514D01*
X038058Y029422D01*
X038076Y029329D01*
X038129Y029251D01*
X038207Y029198D01*
X0383Y02918D01*
X038393Y029198D01*
X038431Y029164D01*
X038456Y029126D01*
X038934Y028649D01*
X038915Y028603D01*
X037005D01*
X036632Y028975D01*
X036649Y02903D01*
X036683Y029036D01*
X036761Y029089D01*
X036814Y029167D01*
X036832Y02926D01*
X036815Y029347D01*
X037294Y029826D01*
X037322Y029869D01*
X037333Y02992D01*
Y031175D01*
X0384Y032242D01*
X038517D01*
Y031615D01*
X03862D01*
X038643Y031571D01*
X038623Y03154D01*
X038605Y031448D01*
X038623Y031355D01*
X038676Y031276D01*
X038754Y031224D01*
X038847Y031205D01*
X03894Y031224D01*
X039018Y031276D01*
X039071Y031355D01*
X039073Y031367D01*
X039124D01*
X039126Y031355D01*
X039179Y031276D01*
X039257Y031224D01*
X03935Y031205D01*
X039443Y031224D01*
X039521Y031276D01*
X039574Y031355D01*
X039592Y031448D01*
X039581Y031505D01*
X03969Y031615D01*
X040077D01*
Y032325D01*
X039417D01*
Y031727D01*
X039367Y031686D01*
X03935Y03169D01*
X039257Y031671D01*
X039227Y031651D01*
X039177Y031678D01*
Y032325D01*
X039108D01*
X039089Y032371D01*
X039302Y032584D01*
X03933Y032578D01*
X039423Y032596D01*
X039501Y032649D01*
X039554Y032727D01*
X039572Y03282D01*
X039554Y032913D01*
X039501Y032991D01*
X03949Y032998D01*
X039501Y033052D01*
X039571Y033098D01*
X039624Y033177D01*
X039642Y03327D01*
X039624Y033362D01*
X039571Y033441D01*
X039493Y033493D01*
X039455Y033501D01*
X039439Y033555D01*
X04002Y034137D01*
X040072Y034118D01*
D02*
G37*
G36*
X036057Y027965D02*
X036048Y02792D01*
X036066Y027827D01*
X036119Y027748D01*
X036197Y027696D01*
X03629Y027678D01*
X036383Y027696D01*
X036444Y027737D01*
X03698D01*
X037007Y027687D01*
X036976Y027641D01*
X036958Y027548D01*
X036967Y027503D01*
X036777Y027313D01*
X0342D01*
X034149Y027302D01*
X034106Y027274D01*
X033701Y026869D01*
X033655Y026888D01*
Y026945D01*
X032845D01*
Y026035D01*
X033655D01*
Y026448D01*
X033809Y026602D01*
X033857Y026578D01*
X033852Y02654D01*
Y02644D01*
X033865Y026334D01*
X033906Y026236D01*
X033971Y026151D01*
X034056Y026086D01*
X034154Y026045D01*
X03426Y026032D01*
X034366Y026045D01*
X034464Y026086D01*
X034549Y026151D01*
X034614Y026236D01*
X034655Y026334D01*
X034668Y02644D01*
Y02654D01*
X034655Y026646D01*
X03464Y026682D01*
X034825Y026867D01*
X0371D01*
X037151Y026878D01*
X037194Y026906D01*
X037594Y027306D01*
X037753D01*
X037779Y027268D01*
X037857Y027215D01*
X03795Y027197D01*
X038043Y027215D01*
X038086Y027244D01*
X038117Y027205D01*
X035815Y024902D01*
X03427D01*
X034219Y024892D01*
X034176Y024863D01*
X033422Y02411D01*
X033165D01*
Y023958D01*
X033121Y023935D01*
X033093Y023954D01*
X033Y023972D01*
X032984Y023969D01*
X032758Y024196D01*
Y028368D01*
X032746Y028429D01*
X032711Y02848D01*
X032676Y028516D01*
Y028965D01*
X03272Y028988D01*
X032737Y028976D01*
X03283Y028958D01*
X032846Y028961D01*
X033318Y028488D01*
X03337Y028454D01*
X03343Y028442D01*
X034495D01*
X03484Y028097D01*
X034835Y028086D01*
X034822Y02798D01*
Y02788D01*
X034835Y027774D01*
X034876Y027676D01*
X034941Y027591D01*
X035026Y027526D01*
X035124Y027485D01*
X03523Y027472D01*
X035336Y027485D01*
X035434Y027526D01*
X035519Y027591D01*
X035584Y027676D01*
X035625Y027774D01*
X035638Y02788D01*
Y02798D01*
X035625Y028086D01*
X035584Y028184D01*
X035519Y028269D01*
X035434Y028334D01*
X035336Y028375D01*
X03523Y028388D01*
X035124Y028375D01*
X035043Y028341D01*
X034672Y028712D01*
X03462Y028746D01*
X03456Y028758D01*
X033499D01*
X033476Y028786D01*
X033499Y028832D01*
X033505Y028832D01*
X033755D01*
X033861Y028845D01*
X033959Y028886D01*
X034044Y028951D01*
X034109Y029036D01*
X03415Y029134D01*
X034163Y02924D01*
X03415Y029346D01*
X034109Y029444D01*
X034045Y029527D01*
X034048Y029546D01*
X034058Y029577D01*
X034445D01*
X036057Y027965D01*
D02*
G37*
G36*
X041376Y028635D02*
X041377Y028635D01*
Y027758D01*
X041388Y027707D01*
X041416Y027664D01*
X043117Y025963D01*
Y025885D01*
X043065D01*
Y025015D01*
X043435D01*
Y025885D01*
X043383D01*
Y026018D01*
X043372Y026069D01*
X043344Y026112D01*
X041643Y027813D01*
Y027967D01*
X041661Y027973D01*
X041693Y027975D01*
X041716Y02794D01*
X043725Y025931D01*
X043706Y025885D01*
X043565D01*
Y025015D01*
X043617D01*
Y02497D01*
X043628Y024919D01*
X043656Y024876D01*
X043906Y024626D01*
X043949Y024597D01*
X044Y024587D01*
X045059D01*
X045086Y024537D01*
X045056Y024493D01*
X045038Y0244D01*
X045056Y024307D01*
X045109Y024229D01*
X045187Y024176D01*
X04528Y024158D01*
X045373Y024176D01*
X045451Y024229D01*
X045477Y024267D01*
X047453D01*
X047469Y024217D01*
X047429Y024191D01*
X047376Y024112D01*
X047358Y02402D01*
X047367Y023974D01*
X047245Y023853D01*
X043805D01*
X042883Y024775D01*
Y025015D01*
X042935D01*
Y025885D01*
X042618D01*
X042607Y025935D01*
X042579Y025978D01*
X042044Y026513D01*
X042001Y026542D01*
X04195Y026552D01*
X04189D01*
X041866Y026596D01*
X041874Y026607D01*
X041892Y0267D01*
X041874Y026793D01*
X041821Y026871D01*
X041743Y026924D01*
X04165Y026942D01*
X041557Y026924D01*
X041479Y026871D01*
X041453Y026833D01*
X040825D01*
X040176Y027481D01*
X040195Y027527D01*
X040705D01*
X041007Y027226D01*
X040998Y02718D01*
X041016Y027087D01*
X041069Y027009D01*
X041147Y026956D01*
X04124Y026938D01*
X041333Y026956D01*
X041411Y027009D01*
X041464Y027087D01*
X041482Y02718D01*
X041464Y027273D01*
X041411Y027351D01*
X041333Y027404D01*
X04124Y027422D01*
X041194Y027413D01*
X040854Y027754D01*
X040811Y027782D01*
X04076Y027793D01*
X04028D01*
X040279Y027796D01*
X040272Y027843D01*
X040341Y027889D01*
X040394Y027967D01*
X040412Y02806D01*
X040401Y028117D01*
X040402Y028119D01*
X040413Y02817D01*
Y028489D01*
X041048D01*
Y028553D01*
X041098Y02859D01*
X04116Y028578D01*
X041253Y028596D01*
X041327Y028646D01*
X041376Y028635D01*
D02*
G37*
G36*
X040538Y026319D02*
X040581Y02629D01*
X040632Y02628D01*
X041769D01*
X041805Y026287D01*
X041895D01*
X042251Y025931D01*
X042232Y025885D01*
X042065D01*
Y025015D01*
X042117D01*
Y023867D01*
X042079Y023841D01*
X042026Y023762D01*
X042008Y02367D01*
X042026Y023577D01*
X042079Y023498D01*
X042117Y023473D01*
Y022125D01*
X042065D01*
Y021822D01*
X041146D01*
X041096Y021812D01*
X041053Y021783D01*
X040427Y021158D01*
X040403Y021174D01*
X04031Y021192D01*
X040217Y021174D01*
X040139Y021121D01*
X040086Y021043D01*
X040068Y02095D01*
X040086Y020857D01*
X040139Y020779D01*
X040217Y020726D01*
X04025Y02072D01*
X040264Y020672D01*
X039455Y019863D01*
X037571D01*
X03755Y019913D01*
X037769Y020132D01*
X037801Y020108D01*
X037921Y020058D01*
X03805Y020041D01*
X038179Y020058D01*
X038299Y020108D01*
X038402Y020187D01*
X038481Y02029D01*
X038531Y02041D01*
X038548Y020539D01*
X038531Y020667D01*
X038481Y020787D01*
X038402Y02089D01*
X038299Y02097D01*
X038179Y021019D01*
X03805Y021036D01*
X037921Y021019D01*
X037801Y02097D01*
X037707Y020897D01*
X03767Y020932D01*
X037674Y020937D01*
X037686Y020998D01*
Y023184D01*
X03773Y023208D01*
X037747Y023196D01*
X03784Y023178D01*
X037886Y023187D01*
X038188Y022884D01*
X03819Y02287D01*
X038228Y022778D01*
X038289Y022699D01*
X038368Y022638D01*
X038461Y022599D01*
X03856Y022586D01*
X03882D01*
X038919Y022599D01*
X039012Y022638D01*
X039091Y022699D01*
X039152Y022778D01*
X039165Y02281D01*
X039215D01*
X039228Y022778D01*
X039289Y022699D01*
X039368Y022638D01*
X039461Y022599D01*
X03956Y022586D01*
X03982D01*
X039919Y022599D01*
X040012Y022638D01*
X040091Y022699D01*
X040152Y022778D01*
X04019Y02287D01*
X040203Y02297D01*
X04019Y023069D01*
X040152Y023161D01*
X040091Y023241D01*
X040012Y023302D01*
X039919Y02334D01*
X03982Y023353D01*
X03956D01*
X039461Y02334D01*
X039368Y023302D01*
X039289Y023241D01*
X039228Y023161D01*
X039215Y02313D01*
X039165D01*
X039152Y023161D01*
X039091Y023241D01*
X039012Y023302D01*
X038919Y02334D01*
X03882Y023353D01*
X03856D01*
X038461Y02334D01*
X038368Y023302D01*
X038289Y023241D01*
X038276Y023224D01*
X038226Y023221D01*
X038073Y023374D01*
X038082Y02342D01*
X038064Y023512D01*
X038011Y023591D01*
X037933Y023643D01*
X03784Y023662D01*
X037835Y023661D01*
X037811Y023707D01*
X038134Y02403D01*
X038182Y024007D01*
X038177Y02397D01*
X03819Y02387D01*
X038228Y023778D01*
X038289Y023699D01*
X038368Y023638D01*
X038461Y023599D01*
X03856Y023586D01*
X03882D01*
X038919Y023599D01*
X039012Y023638D01*
X039091Y023699D01*
X039152Y023778D01*
X039165Y02381D01*
X039215D01*
X039228Y023778D01*
X039289Y023699D01*
X039368Y023638D01*
X039461Y023599D01*
X03956Y023586D01*
X03982D01*
X039919Y023599D01*
X040012Y023638D01*
X040091Y023699D01*
X040152Y023778D01*
X04019Y02387D01*
X040203Y02397D01*
X04019Y024069D01*
X040152Y024161D01*
X040116Y024208D01*
X040344Y024436D01*
X040372Y024479D01*
X040383Y02453D01*
Y026078D01*
X040372Y026129D01*
X040344Y026172D01*
X040048Y026468D01*
X040005Y026497D01*
X039954Y026507D01*
X038446D01*
X038395Y026497D01*
X038352Y026468D01*
X038089Y026204D01*
X03805Y026212D01*
X037988Y026199D01*
X037963Y026246D01*
X038455Y026737D01*
X039553D01*
X039579Y026698D01*
X039657Y026646D01*
X03975Y026628D01*
X039843Y026646D01*
X039921Y026698D01*
X039974Y026777D01*
X039981Y026814D01*
X040029Y026828D01*
X040538Y026319D01*
D02*
G37*
G36*
X03932Y025614D02*
X039492D01*
Y025344D01*
X039461Y02534D01*
X039368Y025302D01*
X039289Y025241D01*
X039228Y025161D01*
X03919Y025069D01*
X039177Y02497D01*
X03919Y02487D01*
X039228Y024778D01*
X039248Y024752D01*
X03911Y024613D01*
X038335D01*
X038275Y024601D01*
X038223Y024566D01*
X037785Y024128D01*
X037741Y024152D01*
X037742Y024158D01*
X037724Y024251D01*
X037671Y024329D01*
X037593Y024382D01*
X0375Y0244D01*
X037407Y024382D01*
X037329Y024329D01*
X037276Y024251D01*
X037258Y024158D01*
X037266Y024119D01*
X037147Y024D01*
X036645D01*
Y023828D01*
X036535D01*
Y02411D01*
X036218D01*
Y0245D01*
X037774Y026056D01*
X03782Y026032D01*
X037808Y02597D01*
X037826Y025877D01*
X037879Y025798D01*
X037957Y025746D01*
X03805Y025728D01*
X038143Y025746D01*
X038221Y025798D01*
X038274Y025877D01*
X038292Y02597D01*
X038282Y026022D01*
X038501Y026242D01*
X03932D01*
Y025614D01*
D02*
G37*
G36*
X043306Y023426D02*
X043349Y023397D01*
X0434Y023387D01*
X044514D01*
X04573Y022171D01*
X045711Y022125D01*
X045565D01*
Y021554D01*
X045481Y02147D01*
X045435Y021489D01*
Y022125D01*
X045065D01*
Y021548D01*
X044981Y021464D01*
X044935Y021484D01*
Y022125D01*
X044565D01*
Y021442D01*
X044481Y021359D01*
X044435Y021378D01*
Y022125D01*
X044065D01*
Y021462D01*
X043981Y021379D01*
X043935Y021398D01*
Y022125D01*
X043565D01*
Y021462D01*
X043481Y021379D01*
X043435Y021398D01*
Y022125D01*
X043065D01*
Y021547D01*
X042531Y021013D01*
X040727D01*
X040707Y021063D01*
X041201Y021557D01*
X042065D01*
Y021255D01*
X042435D01*
Y022125D01*
X042383D01*
Y023473D01*
X042421Y023498D01*
X042474Y023577D01*
X042492Y02367D01*
X042474Y023762D01*
X042421Y023841D01*
X042383Y023867D01*
Y024279D01*
X042433Y0243D01*
X043306Y023426D01*
D02*
G37*
G36*
X035974Y024623D02*
X035963Y024605D01*
X035952Y024555D01*
Y02411D01*
X035665D01*
Y02328D01*
X035806D01*
X035825Y023233D01*
X035544Y022952D01*
X03428D01*
X034229Y022942D01*
X034186Y022913D01*
X033756Y022483D01*
X033728Y02244D01*
X033717Y02239D01*
Y02206D01*
X033665D01*
Y02123D01*
X034035D01*
Y02206D01*
X033983D01*
Y022335D01*
X034335Y022687D01*
X035599D01*
X035651Y022647D01*
X035653Y022635D01*
X03547Y022453D01*
X03523D01*
X035179Y022442D01*
X035136Y022414D01*
X034782Y02206D01*
X034665D01*
Y02123D01*
X035035D01*
Y021938D01*
X035115Y022018D01*
X035165Y021997D01*
Y02123D01*
X035433D01*
X035677Y020985D01*
Y02042D01*
X035688Y020369D01*
X035716Y020326D01*
X03613Y019913D01*
X036109Y019863D01*
X035577D01*
X035551Y019901D01*
X035473Y019954D01*
X03538Y019972D01*
X035287Y019954D01*
X035209Y019901D01*
X035183Y019863D01*
X03505D01*
X034999Y019852D01*
X034956Y019824D01*
X03485Y019718D01*
X034518D01*
X034499Y019764D01*
X03478Y020045D01*
X035543D01*
Y021032D01*
X034557D01*
Y020269D01*
X034236Y019948D01*
X033701D01*
X033682Y019994D01*
X034444Y020756D01*
X034472Y020799D01*
X034483Y02085D01*
Y02123D01*
X034535D01*
Y02206D01*
X034165D01*
Y02123D01*
X034217D01*
Y020905D01*
X03344Y020128D01*
X031823D01*
X031807Y020175D01*
X031822Y020187D01*
X031901Y02029D01*
X031949Y020406D01*
X03216D01*
X032211Y020416D01*
X032254Y020445D01*
X032844Y021035D01*
X032872Y021078D01*
X032883Y021128D01*
X032883Y021128D01*
Y021815D01*
X033944Y022876D01*
X033972Y022919D01*
X033983Y02297D01*
Y02328D01*
X034035D01*
Y02411D01*
X033862D01*
X033843Y024156D01*
X034325Y024637D01*
X03587D01*
X03592Y024647D01*
X035938Y024659D01*
X035974Y024623D01*
D02*
G37*
%LPC*%
G36*
X0544Y044874D02*
X054249Y044859D01*
X054104Y044815D01*
X05397Y044743D01*
X053853Y044647D01*
X053757Y04453D01*
X053685Y044396D01*
X053641Y044251D01*
X053626Y0441D01*
X053641Y043949D01*
X053685Y043804D01*
X053757Y04367D01*
X053853Y043553D01*
X05397Y043457D01*
X054104Y043385D01*
X054249Y043341D01*
X0544Y043326D01*
X054551Y043341D01*
X054696Y043385D01*
X05483Y043457D01*
X054947Y043553D01*
X055043Y04367D01*
X055115Y043804D01*
X055159Y043949D01*
X055174Y0441D01*
X055159Y044251D01*
X055115Y044396D01*
X055043Y04453D01*
X054947Y044647D01*
X05483Y044743D01*
X054696Y044815D01*
X054551Y044859D01*
X0544Y044874D01*
D02*
G37*
G36*
X017133Y042443D02*
X016147D01*
Y041456D01*
X017133D01*
Y042443D01*
D02*
G37*
G36*
X054575Y041074D02*
X054305D01*
X054221Y041063D01*
X054144Y041031D01*
X054077Y04098D01*
X054025Y040913D01*
X053993Y040835D01*
X053982Y040752D01*
X053993Y040668D01*
X054025Y04059D01*
X054077Y040523D01*
X054144Y040472D01*
X054221Y04044D01*
X054305Y040429D01*
X054575D01*
X054659Y04044D01*
X054736Y040472D01*
X054803Y040523D01*
X054855Y04059D01*
X054887Y040668D01*
X054898Y040752D01*
X054887Y040835D01*
X054855Y040913D01*
X054803Y04098D01*
X054736Y041031D01*
X054659Y041063D01*
X054575Y041074D01*
D02*
G37*
G36*
X024661Y040449D02*
X023556D01*
Y03899D01*
X024661D01*
Y039562D01*
X025839D01*
Y039443D01*
X026445D01*
X02671Y039178D01*
X026761Y039144D01*
X026776Y039141D01*
X026771Y039091D01*
X025839D01*
Y038537D01*
X025839D01*
X025855Y0385D01*
X025388Y038034D01*
X025354Y037983D01*
X025342Y037922D01*
Y03642D01*
X025354Y036359D01*
X025388Y036308D01*
X025889Y035807D01*
Y035387D01*
X025843Y035378D01*
X025574D01*
X024711Y036241D01*
Y037299D01*
X023606D01*
Y03584D01*
X024664D01*
X025397Y035108D01*
X025448Y035074D01*
X025508Y035062D01*
X026936D01*
X026997Y035074D01*
X027048Y035108D01*
X027762Y035822D01*
X027796Y035873D01*
X027808Y035933D01*
Y03624D01*
X028005D01*
Y0369D01*
X027295D01*
Y036728D01*
X026994D01*
Y036847D01*
X026388D01*
X025958Y037277D01*
Y037707D01*
X026163Y037912D01*
X02719D01*
X02725Y037924D01*
X027301Y037958D01*
X027664Y038321D01*
X02768Y038318D01*
X027773Y038336D01*
X027851Y038389D01*
X027904Y038467D01*
X027922Y03856D01*
X027904Y038653D01*
X027851Y038731D01*
X027773Y038784D01*
X02768Y038802D01*
X027587Y038784D01*
X027509Y038731D01*
X027457Y038653D01*
X027455Y038653D01*
X027405Y038653D01*
X027394Y038713D01*
X027341Y038791D01*
X027263Y038844D01*
X02717Y038862D01*
X027154Y038859D01*
X027088Y038926D01*
X027036Y03896D01*
X026976Y038972D01*
X026944D01*
Y039082D01*
X026944Y039091D01*
X026966Y039132D01*
X027125D01*
Y03896D01*
X027835D01*
Y039132D01*
X02816D01*
X028221Y039144D01*
X028272Y039178D01*
X028333Y03924D01*
X028344Y039235D01*
X02845Y039221D01*
X02855D01*
X028656Y039235D01*
X028754Y039276D01*
X028839Y039341D01*
X028904Y039425D01*
X028945Y039524D01*
X028958Y03963D01*
X028945Y039735D01*
X028904Y039834D01*
X028839Y039919D01*
X028754Y039983D01*
X028656Y040024D01*
X02855Y040038D01*
X02845D01*
X028344Y040024D01*
X028246Y039983D01*
X028161Y039919D01*
X028096Y039834D01*
X028055Y039735D01*
X028042Y03963D01*
X028055Y039524D01*
X02807Y03949D01*
X028042Y039448D01*
X027835D01*
Y03962D01*
X027125D01*
Y039448D01*
X026944D01*
Y039997D01*
X025839D01*
Y039878D01*
X024661D01*
Y040449D01*
D02*
G37*
G36*
X028955Y039025D02*
X028045D01*
Y038215D01*
X028955D01*
Y039025D01*
D02*
G37*
G36*
X017133Y038827D02*
X016147D01*
Y037841D01*
X017133D01*
Y038827D01*
D02*
G37*
G36*
X02075Y039602D02*
X020016D01*
X019965Y039592D01*
X019922Y039563D01*
X019767Y039408D01*
X019424D01*
Y038728D01*
X019754D01*
X01976Y038728D01*
X019799Y038702D01*
X019799Y038671D01*
Y038165D01*
X01946Y037825D01*
X018797Y038488D01*
Y038691D01*
X018969D01*
Y039401D01*
X018309D01*
Y038691D01*
X018481D01*
Y038422D01*
X018493Y038362D01*
X018527Y03831D01*
X019062Y037776D01*
Y037435D01*
X019822D01*
Y037487D01*
X019866Y037511D01*
X019887Y037496D01*
X01998Y037478D01*
X020073Y037496D01*
X020107Y037519D01*
X020157Y037492D01*
Y037435D01*
X020917D01*
Y037805D01*
X020205D01*
X020204Y037813D01*
X020151Y037891D01*
X020073Y037944D01*
X020065Y037945D01*
X020045Y038D01*
X020062Y038022D01*
X020179D01*
Y038702D01*
X019849D01*
X019844Y038702D01*
X019804Y038728D01*
X019804Y038759D01*
Y03907D01*
X020071Y039337D01*
X020695D01*
X020984Y039048D01*
Y038716D01*
X021694D01*
Y039376D01*
X021031D01*
X020844Y039563D01*
X020801Y039592D01*
X02075Y039602D01*
D02*
G37*
G36*
X054575Y038319D02*
X054305D01*
X054221Y038308D01*
X054144Y038275D01*
X054077Y038224D01*
X054025Y038157D01*
X053993Y038079D01*
X053982Y037996D01*
X053993Y037912D01*
X054025Y037834D01*
X054077Y037768D01*
X054144Y037716D01*
X054221Y037684D01*
X054305Y037673D01*
X054575D01*
X054659Y037684D01*
X054736Y037716D01*
X054803Y037768D01*
X054855Y037834D01*
X054887Y037912D01*
X054898Y037996D01*
X054887Y038079D01*
X054855Y038157D01*
X054803Y038224D01*
X054736Y038275D01*
X054659Y038308D01*
X054575Y038319D01*
D02*
G37*
G36*
X045519Y03933D02*
X044809D01*
Y03867D01*
X044967D01*
Y037847D01*
X044929Y037821D01*
X044876Y037743D01*
X044858Y03765D01*
X044876Y037557D01*
X044929Y037479D01*
X045007Y037426D01*
X0451Y037408D01*
X045193Y037426D01*
X045271Y037479D01*
X045324Y037557D01*
X045342Y03765D01*
X045324Y037743D01*
X045271Y037821D01*
X045233Y037847D01*
Y03867D01*
X045519D01*
Y03933D01*
D02*
G37*
G36*
X018069Y039401D02*
X017409D01*
Y038691D01*
X017581D01*
Y037776D01*
X017384D01*
Y037314D01*
X017128Y037058D01*
X017094Y037007D01*
X017082Y036946D01*
Y033535D01*
X016255Y032708D01*
X014945D01*
X014884Y032696D01*
X014833Y032662D01*
X013734Y031562D01*
X012966D01*
Y030635D01*
X013894D01*
Y031276D01*
X01501Y032392D01*
X01632D01*
X01638Y032404D01*
X016432Y032438D01*
X017352Y033358D01*
X017386Y03341D01*
X017398Y03347D01*
Y036881D01*
X017633Y037116D01*
X017846D01*
X018074Y036887D01*
X018071Y036872D01*
X01809Y036779D01*
X018142Y0367D01*
X018221Y036648D01*
X018313Y03663D01*
X018406Y036648D01*
X018484Y0367D01*
X018493Y036714D01*
X019062D01*
Y036687D01*
X019822D01*
Y037057D01*
X019062D01*
Y03703D01*
X018493D01*
X018484Y037043D01*
X018406Y037095D01*
X018313Y037114D01*
X018298Y037111D01*
X018094Y037314D01*
Y037776D01*
X017897D01*
Y038691D01*
X018069D01*
Y039401D01*
D02*
G37*
G36*
X05452Y037418D02*
X054414Y037405D01*
X054316Y037364D01*
X054231Y037299D01*
X054166Y037214D01*
X054125Y037116D01*
X054111Y03701D01*
Y03691D01*
X054125Y036804D01*
X054166Y036706D01*
X054231Y036621D01*
X054316Y036556D01*
X054414Y036515D01*
X05452Y036502D01*
X054626Y036515D01*
X054724Y036556D01*
X054809Y036621D01*
X054874Y036706D01*
X054915Y036804D01*
X054928Y03691D01*
Y03701D01*
X054915Y037116D01*
X054874Y037214D01*
X054809Y037299D01*
X054724Y037364D01*
X054626Y037405D01*
X05452Y037418D01*
D02*
G37*
G36*
X05354D02*
X053434Y037405D01*
X053336Y037364D01*
X053251Y037299D01*
X053186Y037214D01*
X053145Y037116D01*
X053131Y03701D01*
Y03691D01*
X053145Y036804D01*
X053186Y036706D01*
X053251Y036621D01*
X053336Y036556D01*
X053434Y036515D01*
X05354Y036502D01*
X053646Y036515D01*
X053744Y036556D01*
X053829Y036621D01*
X053894Y036706D01*
X053935Y036804D01*
X053948Y03691D01*
Y03701D01*
X053935Y037116D01*
X053894Y037214D01*
X053829Y037299D01*
X053744Y037364D01*
X053646Y037405D01*
X05354Y037418D01*
D02*
G37*
G36*
X04534Y035792D02*
X045247Y035774D01*
X045169Y035721D01*
X045116Y035643D01*
X045098Y03555D01*
X045116Y035457D01*
X045169Y035379D01*
X045247Y035326D01*
X04534Y035308D01*
X045433Y035326D01*
X045511Y035379D01*
X045544Y035428D01*
X048249D01*
X048564Y035113D01*
X048558Y03508D01*
X048576Y034987D01*
X048629Y034909D01*
X048707Y034856D01*
X0488Y034838D01*
X048893Y034856D01*
X048971Y034909D01*
X049024Y034987D01*
X049042Y03508D01*
X049024Y035173D01*
X048971Y035251D01*
X048893Y035304D01*
X0488Y035322D01*
X048717Y035306D01*
X048387Y035637D01*
X048347Y035663D01*
X0483Y035672D01*
X045544D01*
X045511Y035721D01*
X045433Y035774D01*
X04534Y035792D01*
D02*
G37*
G36*
X016365Y034795D02*
X015455D01*
Y033985D01*
X016365D01*
Y034795D01*
D02*
G37*
G36*
X014865D02*
X013955D01*
Y033985D01*
X014865D01*
Y034795D01*
D02*
G37*
G36*
X01596Y033788D02*
X01586D01*
X015754Y033774D01*
X015656Y033733D01*
X015571Y033669D01*
X015506Y033584D01*
X015465Y033485D01*
X015452Y03338D01*
X015465Y033274D01*
X015506Y033175D01*
X015571Y033091D01*
X015656Y033026D01*
X015754Y032985D01*
X01586Y032971D01*
X01596D01*
X016066Y032985D01*
X016164Y033026D01*
X016249Y033091D01*
X016314Y033175D01*
X016355Y033274D01*
X016368Y03338D01*
X016355Y033485D01*
X016314Y033584D01*
X016249Y033669D01*
X016164Y033733D01*
X016066Y033774D01*
X01596Y033788D01*
D02*
G37*
G36*
X01446D02*
X01436D01*
X014254Y033774D01*
X014156Y033733D01*
X014071Y033669D01*
X014006Y033584D01*
X013965Y033485D01*
X013951Y03338D01*
X013965Y033274D01*
X014006Y033175D01*
X014071Y033091D01*
X014156Y033026D01*
X014254Y032985D01*
X01436Y032971D01*
X01446D01*
X014566Y032985D01*
X014664Y033026D01*
X014749Y033091D01*
X014814Y033175D01*
X014855Y033274D01*
X014869Y03338D01*
X014855Y033485D01*
X014814Y033584D01*
X014749Y033669D01*
X014664Y033733D01*
X014566Y033774D01*
X01446Y033788D01*
D02*
G37*
G36*
X0448Y033778D02*
X0447D01*
X044594Y033765D01*
X044496Y033724D01*
X044411Y033659D01*
X044346Y033574D01*
X044305Y033476D01*
X044292Y03337D01*
X044305Y033264D01*
X044346Y033166D01*
X044411Y033081D01*
X044496Y033016D01*
X044594Y032975D01*
X0447Y032962D01*
X0448D01*
X044906Y032975D01*
X045004Y033016D01*
X045089Y033081D01*
X045154Y033166D01*
X045195Y033264D01*
X045209Y03337D01*
X045195Y033476D01*
X045154Y033574D01*
X045089Y033659D01*
X045004Y033724D01*
X044906Y033765D01*
X0448Y033778D01*
D02*
G37*
G36*
X03055Y034474D02*
X030399Y034459D01*
X030254Y034415D01*
X03012Y034343D01*
X030003Y034247D01*
X029907Y03413D01*
X029835Y033996D01*
X029791Y033851D01*
X029776Y0337D01*
X029791Y033549D01*
X029835Y033404D01*
X029907Y03327D01*
X030003Y033153D01*
X03012Y033057D01*
X030254Y032985D01*
X030399Y032941D01*
X03055Y032926D01*
X030701Y032941D01*
X030846Y032985D01*
X03098Y033057D01*
X031097Y033153D01*
X031193Y03327D01*
X031265Y033404D01*
X031309Y033549D01*
X031324Y0337D01*
X031309Y033851D01*
X031265Y033996D01*
X031193Y03413D01*
X031097Y034247D01*
X03098Y034343D01*
X030846Y034415D01*
X030701Y034459D01*
X03055Y034474D01*
D02*
G37*
G36*
X01676Y032088D02*
X016654Y032074D01*
X016556Y032033D01*
X016471Y031969D01*
X016406Y031884D01*
X016365Y031785D01*
X016351Y03168D01*
Y03148D01*
X016365Y031374D01*
X016406Y031275D01*
X016471Y031191D01*
X016556Y031126D01*
X016654Y031085D01*
X01676Y031071D01*
X016866Y031085D01*
X016964Y031126D01*
X017049Y031191D01*
X017114Y031275D01*
X017155Y031374D01*
X017169Y03148D01*
Y03168D01*
X017155Y031785D01*
X017114Y031884D01*
X017049Y031969D01*
X016964Y032033D01*
X016866Y032074D01*
X01676Y032088D01*
D02*
G37*
G36*
X01576D02*
X015654Y032074D01*
X015556Y032033D01*
X015471Y031969D01*
X015406Y031884D01*
X015365Y031785D01*
X015352Y03168D01*
Y03148D01*
X015365Y031374D01*
X015406Y031275D01*
X015471Y031191D01*
X015556Y031126D01*
X015654Y031085D01*
X01576Y031071D01*
X015866Y031085D01*
X015964Y031126D01*
X016049Y031191D01*
X016114Y031275D01*
X016155Y031374D01*
X016169Y03148D01*
Y03168D01*
X016155Y031785D01*
X016114Y031884D01*
X016049Y031969D01*
X015964Y032033D01*
X015866Y032074D01*
X01576Y032088D01*
D02*
G37*
G36*
X04479Y030488D02*
X04469D01*
X044584Y030475D01*
X044486Y030434D01*
X044401Y030369D01*
X044336Y030284D01*
X044295Y030186D01*
X044282Y03008D01*
X044295Y029974D01*
X044336Y029876D01*
X044401Y029791D01*
X044486Y029726D01*
X044584Y029685D01*
X04469Y029672D01*
X04479D01*
X044896Y029685D01*
X044994Y029726D01*
X045079Y029791D01*
X045144Y029876D01*
X045185Y029974D01*
X045198Y03008D01*
X045185Y030186D01*
X045144Y030284D01*
X045079Y030369D01*
X044994Y030434D01*
X044896Y030475D01*
X04479Y030488D01*
D02*
G37*
G36*
X01441Y030592D02*
X014317Y030574D01*
X014239Y030521D01*
X014186Y030443D01*
X014168Y03035D01*
X014186Y030257D01*
X014239Y030179D01*
X014317Y030126D01*
X014388Y030112D01*
X01618Y02832D01*
X01624Y02828D01*
X01631Y028266D01*
X018737D01*
X018797Y028226D01*
X01889Y028208D01*
X018983Y028226D01*
X019061Y028279D01*
X019114Y028357D01*
X019132Y02845D01*
X019114Y028543D01*
X019061Y028621D01*
X018983Y028674D01*
X01889Y028692D01*
X018797Y028674D01*
X018737Y028634D01*
X016386D01*
X014648Y030372D01*
X014634Y030443D01*
X014581Y030521D01*
X014503Y030574D01*
X01441Y030592D01*
D02*
G37*
G36*
X04904Y029295D02*
X04838D01*
Y028585D01*
X04838D01*
X048385Y028575D01*
Y027565D01*
X049195D01*
Y028575D01*
X049086D01*
X04904Y028585D01*
Y029295D01*
D02*
G37*
G36*
X05279Y028578D02*
X052684Y028565D01*
X052586Y028524D01*
X052501Y028459D01*
X052436Y028374D01*
X052395Y028276D01*
X052382Y02817D01*
Y02797D01*
X052395Y027864D01*
X052436Y027766D01*
X052501Y027681D01*
X052586Y027616D01*
X052684Y027575D01*
X05279Y027562D01*
X052896Y027575D01*
X052994Y027616D01*
X053079Y027681D01*
X053144Y027766D01*
X053185Y027864D01*
X053198Y02797D01*
Y02817D01*
X053185Y028276D01*
X053144Y028374D01*
X053079Y028459D01*
X052994Y028524D01*
X052896Y028565D01*
X05279Y028578D01*
D02*
G37*
G36*
X05179D02*
X051684Y028565D01*
X051586Y028524D01*
X051501Y028459D01*
X051436Y028374D01*
X051395Y028276D01*
X051382Y02817D01*
Y02797D01*
X051395Y027864D01*
X051436Y027766D01*
X051501Y027681D01*
X051586Y027616D01*
X051684Y027575D01*
X05179Y027562D01*
X051896Y027575D01*
X051994Y027616D01*
X052079Y027681D01*
X052144Y027766D01*
X052185Y027864D01*
X052199Y02797D01*
Y02817D01*
X052185Y028276D01*
X052144Y028374D01*
X052079Y028459D01*
X051994Y028524D01*
X051896Y028565D01*
X05179Y028578D01*
D02*
G37*
G36*
X05079D02*
X050684Y028565D01*
X050586Y028524D01*
X050501Y028459D01*
X050436Y028374D01*
X050395Y028276D01*
X050381Y02817D01*
Y02797D01*
X050395Y027864D01*
X050396Y027863D01*
X049835Y027302D01*
X049607D01*
X049581Y027341D01*
X049502Y027393D01*
X04941Y027412D01*
X049317Y027393D01*
X049238Y027341D01*
X049186Y027262D01*
X049168Y02717D01*
X049186Y027077D01*
X049238Y026998D01*
X049317Y026946D01*
X04941Y026928D01*
X049502Y026946D01*
X049581Y026998D01*
X049607Y027037D01*
X04989D01*
X04994Y027047D01*
X049983Y027076D01*
X050551Y027643D01*
X050586Y027616D01*
X050684Y027575D01*
X05079Y027562D01*
X050896Y027575D01*
X050994Y027616D01*
X051079Y027681D01*
X051144Y027766D01*
X051185Y027864D01*
X051199Y02797D01*
Y02817D01*
X051185Y028276D01*
X051144Y028374D01*
X051079Y028459D01*
X050994Y028524D01*
X050896Y028565D01*
X05079Y028578D01*
D02*
G37*
G36*
X04979D02*
X049684Y028565D01*
X049586Y028524D01*
X049501Y028459D01*
X049436Y028374D01*
X049395Y028276D01*
X049381Y02817D01*
Y02797D01*
X049395Y027864D01*
X049436Y027766D01*
X049501Y027681D01*
X049586Y027616D01*
X049684Y027575D01*
X04979Y027562D01*
X049896Y027575D01*
X049994Y027616D01*
X050079Y027681D01*
X050144Y027766D01*
X050185Y027864D01*
X050198Y02797D01*
Y02817D01*
X050185Y028276D01*
X050144Y028374D01*
X050079Y028459D01*
X049994Y028524D01*
X049896Y028565D01*
X04979Y028578D01*
D02*
G37*
G36*
X02876Y030922D02*
X028667Y030903D01*
X028589Y030851D01*
X028536Y030772D01*
X028518Y03068D01*
X028536Y030587D01*
X028589Y030508D01*
X028667Y030456D01*
X02876Y030438D01*
X028806Y030447D01*
X030677Y028575D01*
Y02535D01*
X030688Y025299D01*
X030716Y025256D01*
X031003Y02497D01*
X030973Y024897D01*
X030961Y02481D01*
X030973Y024722D01*
X031007Y02464D01*
X03106Y02457D01*
X031131Y024516D01*
X031212Y024482D01*
X0313Y024471D01*
X031388Y024482D01*
X031469Y024516D01*
X03154Y02457D01*
X031593Y02464D01*
X031627Y024722D01*
X031639Y02481D01*
X031627Y024897D01*
X031593Y024979D01*
X03154Y025049D01*
X031469Y025103D01*
X031388Y025137D01*
X0313Y025148D01*
X031212Y025137D01*
X031211Y025136D01*
X030943Y025405D01*
Y026211D01*
X030993Y026228D01*
X031021Y026191D01*
X031106Y026126D01*
X031204Y026085D01*
X03131Y026071D01*
X031416Y026085D01*
X031514Y026126D01*
X031599Y026191D01*
X031664Y026275D01*
X031705Y026374D01*
X031718Y02648D01*
Y02668D01*
X031705Y026785D01*
X031664Y026884D01*
X031599Y026969D01*
X031514Y027033D01*
X031416Y027074D01*
X03131Y027088D01*
X031204Y027074D01*
X031106Y027033D01*
X031021Y026969D01*
X030993Y026931D01*
X030943Y026948D01*
Y02863D01*
X030932Y02868D01*
X030904Y028723D01*
X028993Y030634D01*
X029002Y03068D01*
X028984Y030772D01*
X028931Y030851D01*
X028853Y030903D01*
X02876Y030922D01*
D02*
G37*
G36*
X02731Y027088D02*
X027204Y027074D01*
X027106Y027033D01*
X027021Y026969D01*
X026956Y026884D01*
X026915Y026785D01*
X026902Y02668D01*
Y02648D01*
X026915Y026374D01*
X026956Y026275D01*
X027021Y026191D01*
X027106Y026126D01*
X027204Y026085D01*
X02731Y026071D01*
X027416Y026085D01*
X027514Y026126D01*
X027599Y026191D01*
X027664Y026275D01*
X027705Y026374D01*
X027718Y02648D01*
Y02668D01*
X027705Y026785D01*
X027664Y026884D01*
X027599Y026969D01*
X027514Y027033D01*
X027416Y027074D01*
X02731Y027088D01*
D02*
G37*
G36*
X01876D02*
X018654Y027074D01*
X018556Y027033D01*
X018471Y026969D01*
X018406Y026884D01*
X018365Y026785D01*
X018352Y02668D01*
Y02648D01*
X018365Y026374D01*
X018406Y026275D01*
X018471Y026191D01*
X018556Y026126D01*
X018654Y026085D01*
X01876Y026071D01*
X018866Y026085D01*
X018964Y026126D01*
X019049Y026191D01*
X019114Y026275D01*
X019155Y026374D01*
X019168Y02648D01*
Y02668D01*
X019155Y026785D01*
X019114Y026884D01*
X019049Y026969D01*
X018964Y027033D01*
X018866Y027074D01*
X01876Y027088D01*
D02*
G37*
G36*
X01776D02*
X017654Y027074D01*
X017556Y027033D01*
X017471Y026969D01*
X017406Y026884D01*
X017365Y026785D01*
X017351Y02668D01*
Y02648D01*
X017365Y026374D01*
X017406Y026275D01*
X017471Y026191D01*
X017556Y026126D01*
X017654Y026085D01*
X01776Y026071D01*
X017866Y026085D01*
X017964Y026126D01*
X018049Y026191D01*
X018114Y026275D01*
X018155Y026374D01*
X018168Y02648D01*
Y02668D01*
X018155Y026785D01*
X018114Y026884D01*
X018049Y026969D01*
X017964Y027033D01*
X017866Y027074D01*
X01776Y027088D01*
D02*
G37*
G36*
X01343Y029598D02*
X013309Y029582D01*
X013196Y029535D01*
X013099Y029461D01*
X013025Y029364D01*
X012978Y029251D01*
X012962Y02913D01*
X012978Y029009D01*
X013025Y028896D01*
X013099Y028799D01*
X013196Y028725D01*
X013309Y028678D01*
X01343Y028662D01*
X013551Y028678D01*
X013664Y028725D01*
X013761Y028799D01*
X013835Y028896D01*
X013877Y028997D01*
X013999D01*
X015855Y027141D01*
X015855Y027141D01*
X016127Y026868D01*
Y02612D01*
X016138Y026069D01*
X016166Y026026D01*
X016826Y025366D01*
X016869Y025338D01*
X01692Y025327D01*
X019375D01*
X020047Y024655D01*
Y024096D01*
X020058Y024045D01*
X020086Y024002D01*
X020472Y023616D01*
X020515Y023588D01*
X020566Y023577D01*
X020599D01*
X020616Y023527D01*
X020591Y023509D01*
X020526Y023424D01*
X020485Y023325D01*
X020471Y02322D01*
X020485Y023114D01*
X020526Y023015D01*
X020591Y022931D01*
X020676Y022866D01*
X020774Y022825D01*
X02088Y022811D01*
X02098D01*
X021086Y022825D01*
X021184Y022866D01*
X021269Y022931D01*
X021334Y023015D01*
X021375Y023114D01*
X021388Y02322D01*
X021382Y023266D01*
X02143Y023289D01*
X022082Y022636D01*
X022125Y022608D01*
X022176Y022597D01*
X03061D01*
X030661Y022608D01*
X030704Y022636D01*
X031574Y023507D01*
X03162Y023498D01*
X031713Y023516D01*
X031791Y023569D01*
X031844Y023647D01*
X031862Y02374D01*
X031844Y023833D01*
X031791Y023911D01*
X031713Y023964D01*
X03162Y023982D01*
X031527Y023964D01*
X031449Y023911D01*
X031396Y023833D01*
X031378Y02374D01*
X031387Y023694D01*
X030555Y022863D01*
X02417D01*
X024154Y02291D01*
X024169Y022921D01*
X024234Y023006D01*
X024275Y023104D01*
X024288Y02321D01*
X024275Y023316D01*
X024234Y023414D01*
X024169Y023499D01*
X024084Y023564D01*
X023986Y023605D01*
X02388Y023618D01*
X02378D01*
X023674Y023605D01*
X023576Y023564D01*
X023491Y023499D01*
X023426Y023414D01*
X023385Y023316D01*
X023372Y02321D01*
X023385Y023104D01*
X023426Y023006D01*
X023491Y022921D01*
X023506Y02291D01*
X02349Y022863D01*
X022712D01*
X022695Y022913D01*
X022719Y022931D01*
X022784Y023015D01*
X022825Y023114D01*
X022838Y02322D01*
X022825Y023325D01*
X022784Y023424D01*
X022719Y023509D01*
X022634Y023573D01*
X022536Y023614D01*
X02243Y023628D01*
X02233D01*
X022224Y023614D01*
X022126Y023573D01*
X022041Y023509D01*
X021976Y023424D01*
X021935Y023325D01*
X021924Y02324D01*
X021874Y02322D01*
X021319Y023775D01*
X02134Y023825D01*
X021385D01*
Y024635D01*
X020475D01*
Y024054D01*
X020429Y024034D01*
X020313Y024151D01*
Y02471D01*
X020302Y024761D01*
X020274Y024804D01*
X019524Y025554D01*
X019481Y025582D01*
X01943Y025593D01*
X016975D01*
X016403Y026164D01*
X016407Y026192D01*
X016459Y026206D01*
X016471Y026191D01*
X016556Y026126D01*
X016654Y026085D01*
X01676Y026071D01*
X016866Y026085D01*
X016964Y026126D01*
X017049Y026191D01*
X017114Y026275D01*
X017155Y026374D01*
X017169Y02648D01*
Y02668D01*
X017155Y026785D01*
X017114Y026884D01*
X017049Y026969D01*
X016964Y027033D01*
X016866Y027074D01*
X01676Y027088D01*
X016654Y027074D01*
X016556Y027033D01*
X016471Y026969D01*
X016441Y026929D01*
X016389Y026943D01*
X016382Y026974D01*
X016354Y027017D01*
X016042Y027328D01*
X016042Y027328D01*
X014147Y029223D01*
X014104Y029252D01*
X014053Y029262D01*
X013877D01*
X013835Y029364D01*
X013761Y029461D01*
X013664Y029535D01*
X013551Y029582D01*
X01343Y029598D01*
D02*
G37*
G36*
X0504Y026253D02*
X0502D01*
X050101Y02624D01*
X050008Y026202D01*
X049929Y026141D01*
X049868Y026061D01*
X04983Y025969D01*
X049817Y02587D01*
X04983Y02577D01*
X049868Y025678D01*
X049929Y025599D01*
X050008Y025538D01*
X050101Y025499D01*
X0502Y025486D01*
X0504D01*
X050499Y025499D01*
X050587Y025536D01*
X05081Y025312D01*
X050808Y0253D01*
X050826Y025207D01*
X050879Y025129D01*
X050957Y025076D01*
X05105Y025058D01*
X051143Y025076D01*
X051221Y025129D01*
X051274Y025207D01*
X051292Y0253D01*
X051274Y025393D01*
X051221Y025471D01*
X051143Y025524D01*
X05105Y025542D01*
X050971Y025526D01*
X050757Y02574D01*
X05077Y02577D01*
X050783Y02587D01*
X05077Y025969D01*
X050732Y026061D01*
X050671Y026141D01*
X050592Y026202D01*
X050499Y02624D01*
X0504Y026253D01*
D02*
G37*
G36*
X046435Y025885D02*
X046065D01*
Y025015D01*
X046435D01*
Y025885D01*
D02*
G37*
G36*
X0293Y025148D02*
X029212Y025137D01*
X029131Y025103D01*
X02906Y025049D01*
X029007Y024979D01*
X028973Y024897D01*
X028961Y02481D01*
X028973Y024722D01*
X029007Y02464D01*
X02906Y02457D01*
X029131Y024516D01*
X029212Y024482D01*
X0293Y024471D01*
X029388Y024482D01*
X029469Y024516D01*
X02954Y02457D01*
X029593Y02464D01*
X029627Y024722D01*
X029639Y02481D01*
X029627Y024897D01*
X029593Y024979D01*
X02954Y025049D01*
X029469Y025103D01*
X029388Y025137D01*
X0293Y025148D01*
D02*
G37*
G36*
X022835Y024635D02*
X021925D01*
Y023825D01*
X022835D01*
Y024635D01*
D02*
G37*
G36*
X018485D02*
X017575D01*
Y023825D01*
X018485D01*
Y024635D01*
D02*
G37*
G36*
X024285Y024625D02*
X023375D01*
Y023815D01*
X024285D01*
Y024625D01*
D02*
G37*
G36*
X017045D02*
X016135D01*
Y023815D01*
X017045D01*
Y024625D01*
D02*
G37*
G36*
X015585Y024625D02*
X014675D01*
Y023815D01*
X015585D01*
Y024625D01*
D02*
G37*
G36*
X014135D02*
X013225D01*
Y023815D01*
X014135D01*
Y024625D01*
D02*
G37*
G36*
X01808Y023628D02*
X01798D01*
X017874Y023614D01*
X017776Y023573D01*
X017691Y023509D01*
X017626Y023424D01*
X017585Y023325D01*
X017572Y02322D01*
X017585Y023114D01*
X017626Y023015D01*
X017691Y022931D01*
X017776Y022866D01*
X017874Y022825D01*
X01798Y022811D01*
X01808D01*
X018186Y022825D01*
X018284Y022866D01*
X018369Y022931D01*
X018434Y023015D01*
X018475Y023114D01*
X018489Y02322D01*
X018475Y023325D01*
X018434Y023424D01*
X018369Y023509D01*
X018284Y023573D01*
X018186Y023614D01*
X01808Y023628D01*
D02*
G37*
G36*
X01664Y023618D02*
X01654D01*
X016434Y023605D01*
X016336Y023564D01*
X016251Y023499D01*
X016186Y023414D01*
X016145Y023316D01*
X016132Y02321D01*
X016145Y023104D01*
X016186Y023006D01*
X016251Y022921D01*
X016336Y022856D01*
X016434Y022815D01*
X01654Y022802D01*
X01664D01*
X016746Y022815D01*
X016844Y022856D01*
X016929Y022921D01*
X016994Y023006D01*
X017035Y023104D01*
X017048Y02321D01*
X017035Y023316D01*
X016994Y023414D01*
X016929Y023499D01*
X016844Y023564D01*
X016746Y023605D01*
X01664Y023618D01*
D02*
G37*
G36*
X01518Y023618D02*
X01508D01*
X014974Y023604D01*
X014876Y023563D01*
X014791Y023499D01*
X014726Y023414D01*
X014685Y023315D01*
X014671Y02321D01*
X014685Y023104D01*
X014726Y023005D01*
X014791Y022921D01*
X014876Y022856D01*
X014974Y022815D01*
X01508Y022801D01*
X01518D01*
X015286Y022815D01*
X015384Y022856D01*
X015469Y022921D01*
X015534Y023005D01*
X015575Y023104D01*
X015589Y02321D01*
X015575Y023315D01*
X015534Y023414D01*
X015469Y023499D01*
X015384Y023563D01*
X015286Y023604D01*
X01518Y023618D01*
D02*
G37*
G36*
X01373D02*
X01363D01*
X013524Y023604D01*
X013426Y023563D01*
X013341Y023499D01*
X013276Y023414D01*
X013235Y023315D01*
X013221Y02321D01*
X013235Y023104D01*
X013276Y023005D01*
X013341Y022921D01*
X013426Y022856D01*
X013524Y022815D01*
X01363Y022801D01*
X01373D01*
X013836Y022815D01*
X013934Y022856D01*
X014019Y022921D01*
X014084Y023005D01*
X014125Y023104D01*
X014138Y02321D01*
X014125Y023315D01*
X014084Y023414D01*
X014019Y023499D01*
X013934Y023563D01*
X013836Y023604D01*
X01373Y023618D01*
D02*
G37*
G36*
X01953Y023608D02*
X01943D01*
X019324Y023594D01*
X019226Y023553D01*
X019141Y023489D01*
X019076Y023404D01*
X019035Y023305D01*
X019022Y0232D01*
X019035Y023094D01*
X019076Y022995D01*
X019141Y022911D01*
X019226Y022846D01*
X019324Y022805D01*
X01943Y022791D01*
X01953D01*
X019636Y022805D01*
X019734Y022846D01*
X019819Y022911D01*
X019884Y022995D01*
X019925Y023094D01*
X019938Y0232D01*
X019925Y023305D01*
X019884Y023404D01*
X019819Y023489D01*
X019734Y023553D01*
X019636Y023594D01*
X01953Y023608D01*
D02*
G37*
G36*
X0504Y022253D02*
X0502D01*
X050101Y02224D01*
X050008Y022202D01*
X049929Y022141D01*
X049868Y022061D01*
X049854Y022028D01*
X04967D01*
Y022225D01*
X04901D01*
Y021515D01*
X049182D01*
Y020495D01*
X048455Y019768D01*
X04834D01*
X048331Y019781D01*
X048253Y019834D01*
X04816Y019852D01*
X048067Y019834D01*
X047989Y019781D01*
X047936Y019703D01*
X047918Y01961D01*
X047936Y019517D01*
X047989Y019439D01*
X048067Y019386D01*
X04816Y019368D01*
X048253Y019386D01*
X048331Y019439D01*
X04834Y019452D01*
X04852D01*
X04858Y019464D01*
X048632Y019498D01*
X049452Y020318D01*
X049486Y02037D01*
X049498Y02043D01*
Y021515D01*
X04967D01*
Y021712D01*
X049854D01*
X049868Y021678D01*
X049929Y021599D01*
X050008Y021538D01*
X050101Y021499D01*
X0502Y021486D01*
X0504D01*
X050499Y021499D01*
X050592Y021538D01*
X050671Y021599D01*
X050732Y021678D01*
X05077Y02177D01*
X050783Y02187D01*
X05077Y021969D01*
X050732Y022061D01*
X050671Y022141D01*
X050592Y022202D01*
X050499Y02224D01*
X0504Y022253D01*
D02*
G37*
G36*
X046935Y022125D02*
X046565D01*
Y021255D01*
X046935D01*
Y022125D01*
D02*
G37*
G36*
X02639Y021036D02*
X026261Y021019D01*
X026141Y02097D01*
X026038Y02089D01*
X025959Y020787D01*
X025909Y020667D01*
X025892Y020539D01*
X025909Y02041D01*
X025959Y02029D01*
X026038Y020187D01*
X026141Y020108D01*
X026261Y020058D01*
X02639Y020041D01*
X026519Y020058D01*
X026639Y020108D01*
X026742Y020187D01*
X026821Y02029D01*
X026871Y02041D01*
X026888Y020539D01*
X026871Y020667D01*
X026821Y020787D01*
X026742Y02089D01*
X026639Y02097D01*
X026519Y021019D01*
X02639Y021036D01*
D02*
G37*
G36*
X02489D02*
X024761Y021019D01*
X024641Y02097D01*
X024538Y02089D01*
X024459Y020787D01*
X024409Y020667D01*
X024392Y020539D01*
X024409Y02041D01*
X024459Y02029D01*
X024538Y020187D01*
X024641Y020108D01*
X024761Y020058D01*
X02489Y020041D01*
X025019Y020058D01*
X025139Y020108D01*
X025242Y020187D01*
X025321Y02029D01*
X025371Y02041D01*
X025388Y020539D01*
X025371Y020667D01*
X025321Y020787D01*
X025242Y02089D01*
X025139Y02097D01*
X025019Y021019D01*
X02489Y021036D01*
D02*
G37*
G36*
X01982D02*
X019691Y021019D01*
X019571Y02097D01*
X019468Y02089D01*
X019389Y020787D01*
X019339Y020667D01*
X019322Y020539D01*
X019339Y02041D01*
X019389Y02029D01*
X019468Y020187D01*
X019571Y020108D01*
X019691Y020058D01*
X01982Y020041D01*
X019949Y020058D01*
X020069Y020108D01*
X020172Y020187D01*
X020251Y02029D01*
X020301Y02041D01*
X020318Y020539D01*
X020301Y020667D01*
X020251Y020787D01*
X020172Y02089D01*
X020069Y02097D01*
X019949Y021019D01*
X01982Y021036D01*
D02*
G37*
G36*
X01832D02*
X018191Y021019D01*
X018071Y02097D01*
X017968Y02089D01*
X017889Y020787D01*
X017839Y020667D01*
X017822Y020539D01*
X017839Y02041D01*
X017889Y02029D01*
X017968Y020187D01*
X018071Y020108D01*
X018191Y020058D01*
X01832Y020041D01*
X018449Y020058D01*
X018569Y020108D01*
X018672Y020187D01*
X018751Y02029D01*
X018801Y02041D01*
X018818Y020539D01*
X018801Y020667D01*
X018751Y020787D01*
X018672Y02089D01*
X018569Y02097D01*
X018449Y021019D01*
X01832Y021036D01*
D02*
G37*
G36*
X01682D02*
X016691Y021019D01*
X016571Y02097D01*
X016468Y02089D01*
X016389Y020787D01*
X016339Y020667D01*
X016322Y020539D01*
X016339Y02041D01*
X016389Y02029D01*
X016468Y020187D01*
X016571Y020108D01*
X016691Y020058D01*
X01682Y020041D01*
X016949Y020058D01*
X017069Y020108D01*
X017172Y020187D01*
X017251Y02029D01*
X017301Y02041D01*
X017318Y020539D01*
X017301Y020667D01*
X017251Y020787D01*
X017172Y02089D01*
X017069Y02097D01*
X016949Y021019D01*
X01682Y021036D01*
D02*
G37*
G36*
X05208Y020278D02*
X051974Y020265D01*
X051876Y020224D01*
X051791Y020159D01*
X051726Y020074D01*
X051685Y019976D01*
X051672Y01987D01*
Y01967D01*
X051685Y019564D01*
X051726Y019466D01*
X051791Y019381D01*
X051876Y019316D01*
X051974Y019275D01*
X05208Y019261D01*
X052186Y019275D01*
X052284Y019316D01*
X052369Y019381D01*
X052434Y019466D01*
X052475Y019564D01*
X052488Y01967D01*
Y01987D01*
X052475Y019976D01*
X052434Y020074D01*
X052369Y020159D01*
X052284Y020224D01*
X052186Y020265D01*
X05208Y020278D01*
D02*
G37*
G36*
X05108D02*
X050974Y020265D01*
X050876Y020224D01*
X050791Y020159D01*
X050726Y020074D01*
X050685Y019976D01*
X050672Y01987D01*
Y01967D01*
X050685Y019564D01*
X050726Y019466D01*
X050791Y019381D01*
X050876Y019316D01*
X050974Y019275D01*
X05108Y019261D01*
X051186Y019275D01*
X051284Y019316D01*
X051369Y019381D01*
X051434Y019466D01*
X051475Y019564D01*
X051488Y01967D01*
Y01987D01*
X051475Y019976D01*
X051434Y020074D01*
X051369Y020159D01*
X051284Y020224D01*
X051186Y020265D01*
X05108Y020278D01*
D02*
G37*
G36*
X0544Y018994D02*
X054249Y018979D01*
X054104Y018935D01*
X05397Y018863D01*
X053853Y018767D01*
X053757Y01865D01*
X053685Y018516D01*
X053641Y018371D01*
X053626Y01822D01*
X053641Y018069D01*
X053685Y017924D01*
X053757Y01779D01*
X053853Y017673D01*
X05397Y017577D01*
X054104Y017505D01*
X054249Y017461D01*
X0544Y017446D01*
X054551Y017461D01*
X054696Y017505D01*
X05483Y017577D01*
X054947Y017673D01*
X055043Y01779D01*
X055115Y017924D01*
X055159Y018069D01*
X055174Y01822D01*
X055159Y018371D01*
X055115Y018516D01*
X055043Y01865D01*
X054947Y018767D01*
X05483Y018863D01*
X054696Y018935D01*
X054551Y018979D01*
X0544Y018994D01*
D02*
G37*
G36*
X0457Y018419D02*
X045594Y018405D01*
X045496Y018364D01*
X045411Y018299D01*
X045346Y018214D01*
X045305Y018116D01*
X045292Y01801D01*
Y01781D01*
X045305Y017704D01*
X045346Y017606D01*
X045411Y017521D01*
X045496Y017456D01*
X045594Y017415D01*
X0457Y017401D01*
X045806Y017415D01*
X045904Y017456D01*
X045989Y017521D01*
X046054Y017606D01*
X046095Y017704D01*
X046108Y01781D01*
Y01801D01*
X046095Y018116D01*
X046054Y018214D01*
X045989Y018299D01*
X045904Y018364D01*
X045806Y018405D01*
X0457Y018419D01*
D02*
G37*
G36*
X05048Y043802D02*
X050387Y043784D01*
X050309Y043731D01*
X050256Y043653D01*
X050238Y04356D01*
X050256Y043467D01*
X050309Y043389D01*
X050387Y043336D01*
X05048Y043318D01*
X050496Y043321D01*
X051732Y042085D01*
Y040786D01*
X051686Y040765D01*
X051682Y040765D01*
X051631Y040841D01*
X051553Y040894D01*
X05146Y040912D01*
X051367Y040894D01*
X051289Y040841D01*
X051236Y040763D01*
X051218Y04067D01*
X051229Y040612D01*
X050679Y040062D01*
X049694D01*
X049661Y040111D01*
X049583Y040164D01*
X04949Y040182D01*
X049397Y040164D01*
X049319Y040111D01*
X049266Y040033D01*
X049248Y03994D01*
X049266Y039847D01*
X049319Y039769D01*
X049397Y039716D01*
X04949Y039698D01*
X049583Y039716D01*
X049661Y039769D01*
X049694Y039818D01*
X05073D01*
X050777Y039827D01*
X050817Y039853D01*
X051402Y040439D01*
X05146Y040428D01*
X051553Y040446D01*
X051631Y040499D01*
X051682Y040575D01*
X051686Y040575D01*
X051732Y040554D01*
Y04008D01*
X051719Y040071D01*
X051666Y039993D01*
X051648Y0399D01*
X051666Y039807D01*
X051719Y039729D01*
X051797Y039676D01*
X05189Y039658D01*
X051983Y039676D01*
X052061Y039729D01*
X052114Y039807D01*
X052132Y0399D01*
X052114Y039993D01*
X052061Y040071D01*
X052048Y04008D01*
Y04215D01*
X052036Y04221D01*
X052002Y042262D01*
X050719Y043544D01*
X050722Y04356D01*
X050704Y043653D01*
X050651Y043731D01*
X050573Y043784D01*
X05048Y043802D01*
D02*
G37*
G36*
X0388Y036753D02*
X038694Y036739D01*
X038596Y036698D01*
X038511Y036634D01*
X038446Y036549D01*
X038405Y03645D01*
X038392Y036345D01*
Y036095D01*
X038405Y035989D01*
X038446Y03589D01*
X038511Y035806D01*
X038596Y035741D01*
X038694Y0357D01*
X0388Y035686D01*
X038906Y0357D01*
X039004Y035741D01*
X039089Y035806D01*
X039154Y03589D01*
X039195Y035989D01*
X039208Y036095D01*
Y036345D01*
X039195Y03645D01*
X039154Y036549D01*
X039089Y036634D01*
X039004Y036698D01*
X038906Y036739D01*
X0388Y036753D01*
D02*
G37*
G36*
X033755Y031648D02*
X033505D01*
X033399Y031635D01*
X033301Y031594D01*
X033216Y031529D01*
X033151Y031444D01*
X03311Y031346D01*
X033097Y03124D01*
X03311Y031134D01*
X033151Y031036D01*
X033216Y030951D01*
X033301Y030886D01*
X033399Y030845D01*
X033505Y030832D01*
X033755D01*
X033861Y030845D01*
X033959Y030886D01*
X034044Y030951D01*
X034109Y031036D01*
X03415Y031134D01*
X034163Y03124D01*
X03415Y031346D01*
X034109Y031444D01*
X034044Y031529D01*
X033959Y031594D01*
X033861Y031635D01*
X033755Y031648D01*
D02*
G37*
G36*
X033645Y028385D02*
X032835D01*
Y027475D01*
X033645D01*
Y028385D01*
D02*
G37*
G36*
X03425Y028388D02*
X034144Y028375D01*
X034046Y028334D01*
X033961Y028269D01*
X033896Y028184D01*
X033855Y028086D01*
X033842Y02798D01*
Y02788D01*
X033855Y027774D01*
X033896Y027676D01*
X033961Y027591D01*
X034046Y027526D01*
X034144Y027485D01*
X03425Y027472D01*
X034356Y027485D01*
X034454Y027526D01*
X034539Y027591D01*
X034604Y027676D01*
X034645Y027774D01*
X034658Y02788D01*
Y02798D01*
X034645Y028086D01*
X034604Y028184D01*
X034539Y028269D01*
X034454Y028334D01*
X034356Y028375D01*
X03425Y028388D01*
D02*
G37*
G36*
X03982Y022353D02*
X03956D01*
X039461Y02234D01*
X039368Y022302D01*
X039289Y022241D01*
X039228Y022161D01*
X039215Y02213D01*
X039165D01*
X039152Y022161D01*
X039091Y022241D01*
X039012Y022302D01*
X038919Y02234D01*
X03882Y022353D01*
X03856D01*
X038461Y02234D01*
X038368Y022302D01*
X038289Y022241D01*
X038228Y022161D01*
X03819Y022069D01*
X038177Y02197D01*
X03819Y02187D01*
X038228Y021778D01*
X038289Y021699D01*
X038368Y021638D01*
X038461Y021599D01*
X03856Y021586D01*
X03882D01*
X038919Y021599D01*
X039012Y021638D01*
X039091Y021699D01*
X039152Y021778D01*
X039165Y02181D01*
X039215D01*
X039228Y021778D01*
X039289Y021699D01*
X039368Y021638D01*
X039461Y021599D01*
X03956Y021586D01*
X03982D01*
X039919Y021599D01*
X040012Y021638D01*
X040091Y021699D01*
X040152Y021778D01*
X04019Y02187D01*
X040203Y02197D01*
X04019Y022069D01*
X040152Y022161D01*
X040091Y022241D01*
X040012Y022302D01*
X039919Y02234D01*
X03982Y022353D01*
D02*
G37*
G36*
X035535Y02411D02*
X035165D01*
Y02328D01*
X035535D01*
Y02411D01*
D02*
G37*
G36*
X035035D02*
X034665D01*
Y02328D01*
X035035D01*
Y02411D01*
D02*
G37*
G36*
X034535D02*
X034165D01*
Y02328D01*
X034535D01*
Y02411D01*
D02*
G37*
%LPD*%
D11*
X036558Y03024D02*
X03664Y030322D01*
X052346Y0452D02*
X0527Y044846D01*
X049598Y0452D02*
X052346D01*
X049243Y044845D02*
X049598Y0452D01*
X049995Y044255D02*
X0527D01*
X04952Y04473D02*
X049995Y044255D01*
X05321Y04211D02*
X05331Y04201D01*
Y04089D02*
Y04201D01*
X04806Y037685D02*
Y03832D01*
X048643Y038903D01*
X052662D01*
X047375Y037D02*
X04806Y037685D01*
X052202Y037629D02*
X05275Y03708D01*
X0508Y037629D02*
X052202D01*
X052662Y038903D02*
X0527Y03894D01*
X053835Y03604D02*
X05415Y035725D01*
X05316Y03604D02*
X053835D01*
X05275Y03645D02*
X05316Y03604D01*
X05275Y03645D02*
Y03708D01*
X05415Y033136D02*
Y035725D01*
X04895Y04452D02*
Y044552D01*
X049243Y044845D02*
Y044845D01*
X04895Y044552D02*
X049243Y044845D01*
X05349Y0413D02*
Y04239D01*
X0445Y04151D02*
X0465Y04351D01*
X04663D01*
X044245Y041715D02*
X04644Y04391D01*
X04657D01*
X05185Y03221D02*
X05226D01*
X0445Y03581D02*
Y04151D01*
X04957Y03503D02*
Y03649D01*
X04633Y037D02*
X047375D01*
X04949Y03994D02*
X05073D01*
X05146Y04067D01*
X050934Y03337D02*
X05129Y033014D01*
X04907Y03337D02*
X050934D01*
X04878Y03366D02*
X04907Y03337D01*
X054028Y033014D02*
X05415Y033136D01*
X05369Y04107D02*
Y0411D01*
X05349Y0413D02*
X05369Y0411D01*
X044245Y03591D02*
Y041715D01*
X04877Y03508D02*
X0488D01*
X0483Y03555D02*
X04877Y03508D01*
X04878Y03424D02*
X04957Y03503D01*
X04878Y03366D02*
Y03424D01*
X05174Y033467D02*
X052115Y033842D01*
X05174Y03277D02*
Y033467D01*
X051365Y033089D02*
Y033898D01*
X05129Y033014D02*
X051365Y033089D01*
X04534Y03555D02*
X0483D01*
X053326Y034222D02*
X05338Y034168D01*
X053005Y034222D02*
X053326D01*
X05219Y033407D02*
X053005Y034222D01*
X03629Y03047D02*
Y0318D01*
X04014Y03565D01*
X03664Y031882D02*
X039954Y035197D01*
X03664Y030322D02*
Y031882D01*
X036558Y03024D02*
X03663D01*
X043887Y035197D02*
X0445Y03581D01*
X039954Y035197D02*
X043887D01*
X04014Y03565D02*
X043984D01*
X05338Y034168D02*
X053589D01*
X053915Y033842D01*
X0342Y04207D02*
X034625Y041645D01*
X035633D01*
X05394Y033014D02*
X054028D01*
X053165Y033842D02*
X05394Y033067D01*
Y033014D02*
Y033067D01*
X05174Y03277D02*
X05189Y032619D01*
X052645D02*
X05304Y033014D01*
X05189Y032619D02*
X052645D01*
X05219Y033014D02*
Y033407D01*
X03935Y031448D02*
X039747Y031844D01*
Y03197D01*
X043984Y03565D02*
X044245Y03591D01*
D12*
X01631Y02845D02*
X01889D01*
X01441Y03035D02*
X01631Y02845D01*
D21*
X0351Y03091D02*
X037285Y033095D01*
X0351Y03062D02*
Y03091D01*
X037285Y033095D02*
Y039315D01*
X0503Y02387D02*
X051874D01*
X041Y03443D02*
X04292Y03251D01*
X040126Y03443D02*
X041D01*
X0386Y032904D02*
X040126Y03443D01*
X04031Y03398D02*
Y03414D01*
Y03398D02*
X04053Y03376D01*
Y029935D02*
Y03376D01*
X01343Y02913D02*
X014053D01*
X03579Y02963D02*
Y03054D01*
Y02963D02*
X03695Y02847D01*
X039D01*
X03659Y02926D02*
Y02929D01*
X03658Y0293D02*
X03659Y02929D01*
X03658Y0293D02*
X0372Y02992D01*
X03628Y02977D02*
X036566D01*
X0372Y02992D02*
Y03123D01*
X036566Y02977D02*
X036917Y030121D01*
X039316Y032785D02*
X0394D01*
X03629Y02792D02*
X03634Y02787D01*
X0345Y02971D02*
X03629Y02792D01*
X039243Y02942D02*
X039818Y028844D01*
X03915Y02942D02*
X039243D01*
X04479Y042812D02*
X044886D01*
X04561Y043536D01*
X04449Y04307D02*
Y04315D01*
X04463Y04375D02*
Y04454D01*
X043706Y042826D02*
X04463Y04375D01*
X043852Y042432D02*
X04449Y04307D01*
X04151Y021192D02*
X042502D01*
X04275Y02144D01*
Y02169D01*
X04389Y01872D02*
X0447Y01791D01*
X04124Y01872D02*
X04389D01*
X044662Y017635D02*
X044747Y01765D01*
X030814Y04531D02*
X04295Y04531D01*
X03045Y044946D02*
X030814Y04531D01*
X048937Y039453D02*
X04917Y03922D01*
X048937Y039453D02*
Y043982D01*
X04852Y0444D02*
X048937Y043982D01*
X04852Y0444D02*
Y04488D01*
X04809Y04531D02*
X04852Y04488D01*
X048547Y037603D02*
X050343D01*
X048575Y03763D02*
X04859D01*
X048547Y037603D02*
X048575Y03763D01*
X047803Y03894D02*
X048Y039137D01*
Y03922D01*
X047582Y040121D02*
X048213Y03949D01*
X04863D01*
X04921Y03789D02*
Y03793D01*
X049217Y037937D01*
X050343Y037603D02*
X05035Y03761D01*
X049217Y037937D02*
X052117D01*
X047582Y044846D02*
X048126D01*
X052117Y037937D02*
X05216Y03798D01*
X04916Y03922D02*
X04917D01*
X04295Y04531D02*
X04809D01*
X02615Y03226D02*
X03161D01*
X03228Y03159D01*
Y02217D02*
Y03159D01*
X03091Y03486D02*
X03195Y03382D01*
X023085Y03486D02*
X03091D01*
X021339Y036605D02*
X023085Y03486D01*
X01821Y032785D02*
X01928Y033855D01*
X01821Y031873D02*
Y032785D01*
X02584Y02518D02*
X0263Y02472D01*
X02584Y02518D02*
Y02745D01*
X02412Y02513D02*
X02494Y02431D01*
X02318Y02513D02*
X02412D01*
X02226Y02605D02*
X02318Y02513D01*
X02226Y02605D02*
Y02868D01*
X02665Y02431D02*
X02715Y02481D01*
X02494Y02431D02*
X02665D01*
X0249Y02481D02*
X02515D01*
X02351Y0262D02*
X0249Y02481D01*
X02351Y0262D02*
Y02983D01*
X03061Y02273D02*
X03162Y02374D01*
X022176Y02273D02*
X03061D01*
X021196Y02371D02*
X022176Y02273D01*
X01943Y02546D02*
X02018Y02471D01*
Y024096D02*
Y02471D01*
Y024096D02*
X020566Y02371D01*
X021196D01*
X04066Y02088D02*
X042585D01*
X03951Y01973D02*
X04066Y02088D01*
X040734Y0207D02*
X04299D01*
X03944Y019405D02*
X040734Y0207D01*
X039589Y019045D02*
X040884Y02034D01*
X021864Y019045D02*
X039589D01*
X021849Y01906D02*
X021864Y019045D01*
X039514Y019225D02*
X040809Y02052D01*
X021938Y019225D02*
X039514D01*
X021923Y01924D02*
X021938Y019225D01*
X022013Y019405D02*
X03944D01*
X01948Y021938D02*
X022013Y019405D01*
X02413Y020188D02*
X024733Y019585D01*
X03505Y01973D02*
X03538D01*
X034905Y019585D02*
X03505Y01973D01*
X024733Y019585D02*
X034905D01*
X030513Y019995D02*
X033495D01*
X04181Y028034D02*
Y02986D01*
X044515Y02491D02*
X04475Y025145D01*
X044146Y02491D02*
X044515D01*
X043985Y025071D02*
X044146Y02491D01*
X04181Y028034D02*
X043985Y025859D01*
Y025071D02*
Y025859D01*
X044Y02472D02*
X0452D01*
X04375Y02497D02*
X044Y02472D01*
X04375Y02497D02*
Y02545D01*
X03155Y042096D02*
X032Y041646D01*
X045985Y021025D02*
X0487Y01831D01*
Y01791D02*
Y01831D01*
X045985Y021025D02*
Y022103D01*
X0473Y02372D02*
X0476Y02402D01*
X04375Y02372D02*
X0473D01*
X04275Y02472D02*
X04375Y02372D01*
X032237Y032342D02*
X03284Y03174D01*
Y030262D02*
Y03174D01*
Y030262D02*
X033392Y02971D01*
X0345D01*
X01501Y01906D02*
X021849D01*
X01368Y02039D02*
X01501Y01906D01*
X01703Y01924D02*
X021923D01*
X01608Y02019D02*
X01703Y01924D01*
X03538Y01973D02*
X03951D01*
X032237Y032342D02*
Y034439D01*
X01692Y02546D02*
X01943D01*
X01626Y02612D02*
X01692Y02546D01*
X015948Y027235D02*
X01626Y026923D01*
Y02612D02*
Y026923D01*
X01436Y0263D02*
X0146Y02654D01*
X01436Y023D02*
Y0263D01*
X01915Y02479D02*
X01924D01*
X01875Y02439D02*
X01915Y02479D01*
X01875Y02295D02*
Y02439D01*
Y02295D02*
X01948Y02222D01*
X020215Y0261D02*
X020563Y025752D01*
X020215Y0261D02*
Y026968D01*
X028765Y024435D02*
Y027711D01*
X02835Y02402D02*
X028765Y024435D01*
X03011Y02486D02*
X0303D01*
X027496Y02898D02*
X028765Y027711D01*
X01436Y023D02*
X01513Y02223D01*
X047582Y03894D02*
X047803D01*
X05217Y03163D02*
X05275Y03221D01*
X04305Y042826D02*
X043706D01*
X047582Y043641D02*
Y043664D01*
X04607Y042129D02*
X047582Y043641D01*
X04607Y04211D02*
Y042129D01*
X047582Y043074D02*
X048196D01*
X04824Y04303D01*
X0451Y03765D02*
Y038935D01*
X045164Y039D01*
X033913Y035447D02*
Y037523D01*
X03397Y03758D01*
X03992Y0424D02*
Y04342D01*
X03993D01*
X039913D02*
X03992D01*
X03829Y0424D02*
Y043443D01*
X042313Y040857D02*
X04305D01*
X04077Y0424D02*
X042313Y040857D01*
X04077Y0424D02*
Y04342D01*
X041856Y040464D02*
X04305D01*
X03992Y0424D02*
X041856Y040464D01*
X04142Y04007D02*
X04305D01*
X03909Y0424D02*
X04142Y04007D01*
X03909Y0424D02*
Y04342D01*
X041014Y039676D02*
X04305D01*
X03829Y0424D02*
X041014Y039676D01*
X03691Y040752D02*
Y04126D01*
X035633Y037708D02*
X035675Y03775D01*
X0363D01*
X053607Y030997D02*
X053615Y030989D01*
X05275Y03221D02*
X05295Y03201D01*
Y031616D02*
Y03201D01*
Y031616D02*
X053588Y030978D01*
X05275Y03221D02*
X052935Y032395D01*
X05275Y03221D02*
X05275Y03221D01*
X05217Y03141D02*
Y03163D01*
X052935Y032395D02*
X053588D01*
X05279Y030954D02*
X052861D01*
X053588Y030228D01*
X051798Y034603D02*
X052327Y035133D01*
X05174Y034603D02*
X051798D01*
X052625Y03543D02*
X05285D01*
X052327Y035133D02*
X052625Y03543D01*
X05209Y0344D02*
X052254Y034564D01*
X03615Y03702D02*
X03631D01*
X0361Y03697D02*
X03615Y03702D01*
X036607Y03689D02*
Y039603D01*
X036325Y036607D02*
X036607Y03689D01*
X03614Y04007D02*
X036607Y039603D01*
X036131Y042039D02*
X03691Y04126D01*
X035633Y042039D02*
X036131D01*
X04305Y042432D02*
X043852D01*
X047578Y030184D02*
X047603Y030159D01*
X053474Y034564D02*
X05354Y034498D01*
X052254Y034564D02*
X053474D01*
X05354Y031693D02*
Y03203D01*
Y031693D02*
X053588Y031645D01*
X04914Y0244D02*
X04956Y02398D01*
X04528Y0244D02*
X04914D01*
X04956Y02398D02*
Y02441D01*
X04076Y02766D02*
X04124Y02718D01*
X04011Y02766D02*
X04076D01*
X03855Y02922D02*
X04011Y02766D01*
X03855Y02922D02*
Y029265D01*
X038587Y029303D01*
Y029791D01*
X03855Y029828D02*
X038587Y029791D01*
X0459Y030674D02*
Y03143D01*
Y030674D02*
X046807Y029767D01*
X052503D01*
X04989Y02717D02*
X05079Y02807D01*
X04941Y02717D02*
X04989D01*
X04985Y02335D02*
X05106D01*
X04956Y02364D02*
X04985Y02335D01*
X04956Y02364D02*
Y02398D01*
X05002Y02487D02*
X0503D01*
X04956Y02441D02*
X05002Y02487D01*
X048896Y02518D02*
X0493D01*
X048886Y02519D02*
X048896Y02518D01*
X048878Y025182D02*
X048886Y02519D01*
X05308Y01977D02*
Y02133D01*
X05106Y02335D02*
X05308Y02133D01*
X05408Y01977D02*
Y021663D01*
X051874Y02387D02*
X05408Y021663D01*
X05033Y02584D02*
X0504Y02591D01*
X05101Y0253D02*
X05105D01*
X0504Y02591D02*
X05101Y0253D01*
X0503Y02587D02*
X05033Y02584D01*
X04163Y03089D02*
Y033285D01*
X04112Y033795D02*
X04163Y033285D01*
X04272Y03003D02*
Y0317D01*
X04391Y03289D01*
Y03472D01*
X04359Y02878D02*
Y03184D01*
X04348Y03195D02*
X04359Y03184D01*
Y02878D02*
X04497Y0274D01*
X043297Y028322D02*
Y031303D01*
Y028322D02*
X045485Y026135D01*
X04327Y03133D02*
X043297Y031303D01*
X041443Y01921D02*
X042205Y019972D01*
X040893Y01921D02*
X041443D01*
X040486Y018804D02*
X040893Y01921D01*
X04417Y019972D02*
X045403Y021205D01*
X042205Y019972D02*
X04417D01*
X041004Y02016D02*
X043864D01*
X040884Y02034D02*
X04365D01*
X040809Y02052D02*
X04331D01*
X03993Y019086D02*
X041004Y02016D01*
X03626Y01997D02*
X03742D01*
X03581Y02042D02*
X03626Y01997D01*
X03742D02*
X037989Y020539D01*
X03581Y02042D02*
Y02104D01*
X040407Y02095D02*
X041146Y02169D01*
X04031Y02095D02*
X040407D01*
X02349Y02131D02*
X02413Y02067D01*
Y020188D02*
Y02067D01*
X02186Y02131D02*
X02349D01*
X01608Y02019D02*
Y0209D01*
X043864Y02016D02*
X04525Y021546D01*
X045403Y021205D02*
X045409D01*
X03993Y01888D02*
Y019086D01*
X033495Y019995D02*
X03435Y02085D01*
X02997Y020539D02*
X030513Y019995D01*
X045409Y021205D02*
X045485Y021281D01*
Y021287D02*
X04575Y021552D01*
X045485Y021281D02*
Y021287D01*
X04575Y021552D02*
Y02169D01*
X04525Y021546D02*
Y02169D01*
X04475Y02144D02*
Y02169D01*
X04365Y02034D02*
X04475Y02144D01*
X041146Y02169D02*
X04225D01*
X01513Y02185D02*
X01608Y0209D01*
X01513Y02185D02*
Y02223D01*
X03435Y02085D02*
Y021645D01*
X01368Y02039D02*
Y02223D01*
X03216Y020539D02*
X03275Y021128D01*
X03147Y020539D02*
X03216D01*
X02093Y02224D02*
X02186Y02131D01*
X01948Y021938D02*
Y02222D01*
X03535Y0215D02*
X03581Y02104D01*
X03535Y0215D02*
Y021645D01*
X037989Y020539D02*
X03805D01*
X03635Y02096D02*
Y021645D01*
Y02096D02*
X03655Y02076D01*
Y020539D02*
Y02076D01*
X04225Y02169D02*
Y02367D01*
X02981Y02516D02*
X03011Y02486D01*
X03081Y02535D02*
X0313Y02486D01*
X03081Y02535D02*
Y02863D01*
X02876Y03068D02*
X03081Y02863D01*
X03275Y021128D02*
Y02187D01*
X03385Y02297D01*
X04325Y021545D02*
Y02169D01*
X042585Y02088D02*
X04325Y021545D01*
X04375Y02146D02*
Y02169D01*
X04299Y0207D02*
X04375Y02146D01*
X04425D02*
Y02169D01*
X04331Y02052D02*
X04425Y02146D01*
X04391Y03472D02*
X04511Y03592D01*
Y03673D01*
X04161Y03087D02*
X04163Y03089D01*
X042433Y030543D02*
X04245Y03056D01*
X04071Y0297D02*
Y03411D01*
X04028Y02927D02*
X04071Y0297D01*
X04028Y02817D02*
Y02927D01*
X04017Y02806D02*
X04028Y02817D01*
X040015Y02942D02*
X04053Y029935D01*
X03965Y02942D02*
X040015D01*
X03712Y0429D02*
X03729Y04273D01*
X035707Y0429D02*
X03712D01*
X035633Y042826D02*
X035707Y0429D01*
X034723Y042471D02*
X035672D01*
X036272Y042432D02*
X03641Y04257D01*
X035633Y042432D02*
X036272D01*
X035633D02*
X035672Y042471D01*
X04666Y0274D02*
X048878Y025182D01*
X04497Y0274D02*
X04666D01*
X042433Y028587D02*
X04525Y02577D01*
X042433Y028587D02*
Y030543D01*
X04213Y02829D02*
Y03022D01*
Y02829D02*
X04425Y02617D01*
X04151Y027758D02*
Y02952D01*
Y027758D02*
X04325Y026018D01*
X040768Y028794D02*
X040794Y02882D01*
X04116D01*
X052503Y029767D02*
X05279Y030054D01*
X04929Y033864D02*
X05007Y034644D01*
Y034603D02*
Y034644D01*
X035525Y02232D02*
X036265Y02306D01*
X03523Y02232D02*
X035525D01*
X03485Y02194D02*
X03523Y02232D01*
X03485Y021645D02*
Y02194D01*
X036265Y02306D02*
X03629D01*
X03426Y02649D02*
X03477Y027D01*
X0371D02*
X037539Y027439D01*
X03477Y027D02*
X0371D01*
X036832Y02718D02*
X0372Y027548D01*
X0342Y02718D02*
X036832D01*
X03351Y02649D02*
X0342Y02718D01*
X03325Y02649D02*
X03351D01*
X03351Y03224D02*
X03363Y03212D01*
X032917Y03224D02*
X03351D01*
X0325Y032657D02*
X032917Y03224D01*
X039Y02847D02*
X04077Y0267D01*
X03634Y02787D02*
X039175D01*
X036917Y030121D02*
Y031327D01*
X038203Y032613D01*
X035633Y04007D02*
X03614D01*
X036136Y040464D02*
X037285Y039315D01*
X035633Y040464D02*
X036136D01*
X038203Y032613D02*
X038716D01*
X038345Y032375D02*
X038905D01*
X0372Y03123D02*
X038345Y032375D01*
X038716Y032613D02*
X039373Y03327D01*
X0394D01*
X03933Y03282D02*
X039365D01*
X0394Y032785D01*
X03585Y021969D02*
X03627Y022389D01*
Y02246D01*
X02021Y026973D02*
Y02793D01*
X01821Y02993D02*
X02021Y02793D01*
X039514Y034314D02*
X039515D01*
X0381Y0329D02*
X039514Y034314D01*
X040632Y026413D02*
X041769D01*
X040063Y026982D02*
X040632Y026413D01*
X041769D02*
X041776Y02642D01*
X04195D01*
X04077Y0267D02*
X04165D01*
X040718Y028844D02*
X040768Y028794D01*
X04325Y02545D02*
Y026018D01*
X037323Y032173D02*
Y032177D01*
X038045Y0329D01*
X0381D01*
X0384Y02687D02*
X03975D01*
X036085Y024555D02*
X0384Y02687D01*
X036085Y023306D02*
Y024555D01*
X03587Y02477D02*
X03837Y02727D01*
X03427Y02477D02*
X03587D01*
X03335Y02385D02*
X03427Y02477D01*
X03837Y02727D02*
X039252D01*
X037539Y027439D02*
X03795D01*
X03335Y023695D02*
Y02385D01*
X036325Y032619D02*
Y036607D01*
X0346Y030894D02*
X036325Y032619D01*
X021174Y039046D02*
X021339D01*
X02075Y03947D02*
X021174Y039046D01*
X020016Y03947D02*
X02075D01*
X019614Y039068D02*
X020016Y03947D01*
X020537Y03672D02*
Y036872D01*
X020289Y036472D02*
X020537Y03672D01*
X020289Y036146D02*
Y036472D01*
X03405Y04352D02*
X034744Y042826D01*
X032286Y04352D02*
X03405D01*
X031786Y04402D02*
X032286Y04352D01*
X034744Y042826D02*
X035633D01*
X03265Y042917D02*
X03274Y043007D01*
X032687Y04277D02*
X034425D01*
X034723Y042471D01*
X0313Y04402D02*
X031786D01*
X0311Y04382D02*
X0313Y04402D01*
X032282Y038616D02*
X0324Y038498D01*
Y03462D02*
Y038498D01*
Y03462D02*
X0325Y03452D01*
X032102Y034575D02*
X032237Y034439D01*
X044569Y02352D02*
X045985Y022103D01*
X0434Y02352D02*
X044569D01*
X042485Y024435D02*
X0434Y02352D01*
X045485Y025005D02*
Y026135D01*
X0452Y02472D02*
X045485Y025005D01*
X042485Y024435D02*
Y025885D01*
X04025Y02453D02*
Y026078D01*
X02176Y03158D02*
X02351Y02983D01*
X035599Y02282D02*
X036085Y023306D01*
X03428Y02282D02*
X035599D01*
X03385Y02239D02*
X03428Y02282D01*
X03385Y02297D02*
Y023695D01*
Y021645D02*
Y02239D01*
X04525Y02545D02*
Y02577D01*
X032282Y039224D02*
X032428Y03937D01*
X032282Y038616D02*
Y039224D01*
X0325Y032657D02*
Y03452D01*
X021339Y036605D02*
Y038146D01*
X050729Y034603D02*
X05174D01*
X05009Y033964D02*
X050729Y034603D01*
X047578Y030184D02*
Y030604D01*
X04919Y03016D02*
Y030604D01*
X049178Y030147D02*
X04919Y03016D01*
X039175Y02787D02*
X040063Y026982D01*
Y026982D02*
Y026982D01*
X04195Y02642D02*
X042485Y025885D01*
X04425Y02545D02*
Y02617D01*
X03505Y03057D02*
X0351Y03062D01*
X03585Y021645D02*
Y021969D01*
X038905Y032375D02*
X039316Y032785D01*
X03405Y03387D02*
X03465Y03327D01*
X03471D01*
X01821Y031873D02*
X018215Y031868D01*
Y031291D02*
Y031868D01*
X01821Y031286D02*
X018215Y031291D01*
X01821Y02993D02*
Y031286D01*
X02021Y026973D02*
X020215Y026968D01*
X02981Y02516D02*
Y02773D01*
X033913Y035447D02*
X03484Y03452D01*
X034936Y037314D02*
X035633D01*
X0342Y036579D02*
X034936Y037314D01*
X0342Y03597D02*
Y036579D01*
X02965Y03862D02*
X0313D01*
X03175Y03907D01*
Y04087D01*
X0311Y04152D02*
X03175Y04087D01*
X0311Y04152D02*
Y04382D01*
X0319Y04167D02*
X032102Y041468D01*
X0327Y034486D02*
Y03862D01*
X03365Y04022D02*
X034288Y040857D01*
X03365Y039174D02*
Y04022D01*
X033Y038524D02*
X03365Y039174D01*
X0327Y034486D02*
X033316Y03387D01*
X032102Y034575D02*
Y041468D01*
X033Y03462D02*
Y038524D01*
X032687Y04277D02*
Y04288D01*
X03265Y042917D02*
X032687Y04288D01*
X0327Y043046D02*
X03274Y043007D01*
X033316Y03387D02*
X03405D01*
X035589Y04042D02*
X035633Y040464D01*
X032428Y03937D02*
X032946D01*
X03322Y039644D01*
Y040468D02*
X034004Y041251D01*
X03322Y039644D02*
Y040468D01*
X034004Y041251D02*
X035633D01*
X034288Y040857D02*
X035633D01*
X04919Y030604D02*
X04954D01*
X05054Y031604D01*
X03155Y042096D02*
Y043546D01*
X04475Y025145D02*
Y02545D01*
X04275Y02472D02*
Y02545D01*
X04225Y02367D02*
Y02545D01*
X03829Y02297D02*
X03869D01*
X03784Y02342D02*
X03829Y02297D01*
X019442Y03762D02*
X019989Y038167D01*
Y038362D01*
X03045Y043746D02*
X03065Y043546D01*
X03045Y043746D02*
Y044946D01*
X02536Y02898D02*
X027496D01*
X02821Y02933D02*
X02981Y02773D01*
X02276Y03158D02*
X02536Y02898D01*
X014053Y02913D02*
X015948Y027235D01*
Y027235D02*
Y027235D01*
X03969Y02397D02*
X04025Y02453D01*
X039954Y026374D02*
X04025Y026078D01*
X038446Y026374D02*
X039954D01*
X03805Y025978D02*
X038446Y026374D01*
X03805Y02597D02*
Y025978D01*
Y02596D02*
Y02597D01*
X02021Y03073D02*
X02226Y02868D01*
X019614Y039068D02*
Y039171D01*
X05009Y033864D02*
Y033964D01*
D22*
X05285Y03543D02*
D03*
X05375D02*
D03*
X05394Y033014D02*
D03*
X05304D02*
D03*
X05185Y03221D02*
D03*
X05275D02*
D03*
X047578Y032104D02*
D03*
X046678D02*
D03*
X047578Y031354D02*
D03*
X046678D02*
D03*
X04871Y02894D02*
D03*
X04961D02*
D03*
X04934Y02187D02*
D03*
X04844D02*
D03*
X039747Y03197D02*
D03*
X038847D02*
D03*
X03965Y025969D02*
D03*
X03875D02*
D03*
X020289Y036146D02*
D03*
X019389D02*
D03*
X03155Y043546D02*
D03*
X03065D02*
D03*
X039818Y028844D02*
D03*
X040718D02*
D03*
X018639Y039046D02*
D03*
X017739D02*
D03*
X047578Y030604D02*
D03*
X046678D02*
D03*
X05129Y033014D02*
D03*
X05219D02*
D03*
D24*
X05279Y030954D02*
D03*
Y030054D02*
D03*
X04929Y033864D02*
D03*
Y032964D02*
D03*
X05009Y033864D02*
D03*
Y032964D02*
D03*
X04877Y02695D02*
D03*
Y02605D02*
D03*
X03825Y031244D02*
D03*
Y030344D02*
D03*
X03909Y029994D02*
D03*
Y030894D02*
D03*
X039865Y030289D02*
D03*
Y031189D02*
D03*
X037Y02367D02*
D03*
Y02457D02*
D03*
X02601Y02858D02*
D03*
Y02948D02*
D03*
X017739Y037446D02*
D03*
Y036546D02*
D03*
X02748Y03929D02*
D03*
Y04019D02*
D03*
X02765Y03657D02*
D03*
Y03747D02*
D03*
X02755Y04372D02*
D03*
Y04282D02*
D03*
X0327Y043946D02*
D03*
Y043046D02*
D03*
X032687Y03892D02*
D03*
Y03982D02*
D03*
X045164Y039D02*
D03*
Y0399D02*
D03*
X021339Y038146D02*
D03*
Y039046D02*
D03*
X048381Y031504D02*
D03*
Y030604D02*
D03*
X04919Y031504D02*
D03*
Y030604D02*
D03*
D35*
X0503Y02187D02*
D03*
Y02287D02*
D03*
Y02387D02*
D03*
Y02487D02*
D03*
Y02587D02*
D03*
D37*
X052208Y03707D02*
D03*
X051617D02*
D03*
X051027D02*
D03*
X050436D02*
D03*
X049846D02*
D03*
X049255D02*
D03*
X048665D02*
D03*
X048074D02*
D03*
D38*
X0527Y044846D02*
D03*
Y044255D02*
D03*
Y043664D02*
D03*
Y043074D02*
D03*
Y042483D02*
D03*
Y041893D02*
D03*
Y041302D02*
D03*
Y040712D02*
D03*
Y040121D02*
D03*
Y039531D02*
D03*
Y03894D02*
D03*
Y03835D02*
D03*
Y037759D02*
D03*
X047582D02*
D03*
Y03835D02*
D03*
Y03894D02*
D03*
Y039531D02*
D03*
Y040121D02*
D03*
Y040712D02*
D03*
Y041302D02*
D03*
Y041893D02*
D03*
Y042483D02*
D03*
Y043074D02*
D03*
Y043664D02*
D03*
Y044255D02*
D03*
Y044846D02*
D03*
D44*
X02771Y02778D02*
D03*
D84*
X05444Y040752D02*
D03*
Y037996D02*
D03*
D87*
X0358Y02525D02*
X0372Y02665D01*
X05039Y032214D02*
X05187D01*
X04754Y034654D02*
X04759Y034704D01*
X049377Y043654D02*
X0494Y04363D01*
Y0426D02*
Y04363D01*
X02755Y04372D02*
X02878D01*
X0293Y02186D02*
X0313D01*
X01343Y027161D02*
X015279D01*
X02925Y02181D02*
X0293Y02186D01*
X02151Y02643D02*
X02176Y02668D01*
X01571Y02663D02*
X01576Y02668D01*
X026897Y0456D02*
X04342D01*
X024117Y04282D02*
X026897Y0456D01*
X03937Y04509D02*
X04607D01*
X03778Y0435D02*
X03937Y04509D01*
X04607D02*
X04662Y04454D01*
X04838Y03818D02*
X04891D01*
X04893Y03816D01*
X04912Y03835D01*
X0527D01*
X04625Y03852D02*
X04704D01*
X04619Y03846D02*
X04625Y03852D01*
X031624Y03264D02*
X03252Y031744D01*
X023795Y03264D02*
X031624D01*
X020289Y036146D02*
X023795Y03264D01*
X01947Y03229D02*
X02127Y03409D01*
X01876Y03158D02*
X01947Y03229D01*
X0256D02*
X02631Y03158D01*
X01947Y03229D02*
X0256D01*
X02127Y03409D02*
Y034583D01*
X029218Y01979D02*
X034302D01*
X03505Y020539D01*
X02847D02*
X029218Y01979D01*
X01724Y03347D02*
Y036946D01*
X01632Y03255D02*
X01724Y03347D01*
X014945Y03255D02*
X01632D01*
X01724Y036946D02*
X017739Y037446D01*
X013477Y031082D02*
X014945Y03255D01*
X03343Y0286D02*
X03456D01*
X03283Y0292D02*
X03343Y0286D01*
X03252Y029332D02*
Y031744D01*
X0326Y02413D02*
Y028368D01*
Y02413D02*
X033Y02373D01*
X032518Y028451D02*
X0326Y028368D01*
X032518Y028451D02*
Y029329D01*
X03252Y029332D01*
X03456Y0286D02*
X03523Y02793D01*
X015279Y027161D02*
X01576Y02668D01*
X05048Y04356D02*
X05189Y04215D01*
Y0399D02*
Y04215D01*
X04557Y03837D02*
X04588Y03806D01*
X04702D01*
X02816Y03929D02*
X0285Y03963D01*
X02748Y03929D02*
X02816D01*
X0243Y04282D02*
X0264D01*
X03778Y04077D02*
Y0435D01*
Y03765D02*
Y04077D01*
X041529Y038889D02*
X04305D01*
X0403Y03766D02*
X041529Y038889D01*
X03778Y03765D02*
X0403Y03766D01*
X045148Y040762D02*
X045164Y040746D01*
Y0399D02*
Y040746D01*
X04595Y041137D02*
X04676Y041947D01*
X045854Y041137D02*
X04595D01*
X04709Y03463D02*
X047516D01*
X04754Y034654D02*
Y034754D01*
Y032143D02*
Y034654D01*
X047516Y03463D02*
X04754Y034654D01*
X05508Y01977D02*
Y02237D01*
X05093Y02652D02*
X05508Y02237D01*
X04945Y02652D02*
X05093D01*
X04877Y02605D02*
X04898D01*
X04874D02*
X04877D01*
X04898D02*
X04945Y02652D01*
X04684Y02795D02*
X04874Y02605D01*
X04852Y01961D02*
X04934Y02043D01*
X04816Y01961D02*
X04852D01*
X04934Y02043D02*
Y02187D01*
X04562Y02795D02*
X04684D01*
X04395Y0303D02*
X04474Y03109D01*
X04394Y0303D02*
X04395D01*
X04474Y03109D02*
X04475Y0311D01*
Y03239D01*
X04871Y02894D02*
X04879Y02886D01*
Y02807D02*
Y02886D01*
X04542Y02081D02*
X0477Y01853D01*
Y01791D02*
Y01853D01*
X03724Y02029D02*
Y02071D01*
X037528Y020998D01*
Y023647D01*
X038335Y024455D01*
X019724Y037246D02*
X019897Y037073D01*
X019389Y036146D02*
X019897Y036653D01*
Y037073D01*
X026821Y03929D02*
X02748D01*
X026392Y03972D02*
X026821Y03929D01*
X02736Y02181D02*
X02925D01*
X02636D02*
X02736D01*
X02536D02*
X02636D01*
X02515D02*
X02536D01*
X03335Y020919D02*
Y021645D01*
X03297Y020539D02*
X03335Y020919D01*
X04919Y031504D02*
X04929Y031604D01*
Y032964D01*
X03403Y02525D02*
X0358D01*
X03399Y02521D02*
X03403Y02525D01*
X02855Y0409D02*
X029073D01*
X02814Y04131D02*
X02855Y0409D01*
X02814Y04131D02*
Y04145D01*
X02891Y04171D02*
X03095Y03967D01*
X0287Y04171D02*
X02891D01*
X02754Y04205D02*
X02814Y04145D01*
X026976Y038814D02*
X02717Y03862D01*
X026392Y038814D02*
X026976D01*
X02719Y03807D02*
X02768Y03856D01*
X026097Y03807D02*
X02719D01*
X039865Y031166D02*
X040237Y030794D01*
X037Y02457D02*
X0372Y02477D01*
Y025182D01*
X039175Y024455D02*
X03969Y02497D01*
X038335Y024455D02*
X039175D01*
X0258Y037772D02*
X026097Y03807D01*
X0258Y037211D02*
Y037772D01*
X048381Y030169D02*
Y030604D01*
X03532Y03284D02*
Y035608D01*
X03525Y03277D02*
X03532Y03284D01*
X0386Y030894D02*
X03909D01*
X03825Y031244D02*
X0386Y030894D01*
X019442Y037246D02*
X019724D01*
X0348Y036128D02*
X03532Y035608D01*
X0348Y036128D02*
Y03622D01*
X029073Y04272D02*
X0314Y040392D01*
Y03927D02*
Y040392D01*
X034454Y039676D02*
X035633D01*
X034492Y038889D02*
X035633D01*
X034454Y038926D02*
X034492Y038889D01*
X0287Y04272D02*
X029073D01*
X032687Y038633D02*
X0327Y03862D01*
X032687Y038633D02*
Y03892D01*
X0327Y039833D02*
Y04007D01*
Y043946D02*
Y04427D01*
X032687Y03982D02*
X0327Y039833D01*
X02836Y03977D02*
X0285Y03963D01*
X032587Y03982D02*
X032687D01*
X026442Y03657D02*
X02765D01*
Y035933D02*
Y03657D01*
X026936Y03522D02*
X02765Y035933D01*
X04754Y032143D02*
X047578Y032104D01*
X047835Y031504D02*
X048381D01*
X047685Y031354D02*
X047835Y031504D01*
X047578Y031354D02*
X047685D01*
X048381Y031504D02*
X04919D01*
X039865Y031166D02*
Y031189D01*
X039571Y030894D02*
X039865Y031189D01*
X03909Y030894D02*
X039571D01*
X017739Y037446D02*
Y039046D01*
X0264Y041914D02*
X027186D01*
X04934Y02187D02*
X0503D01*
X03965Y02501D02*
Y025969D01*
X03635Y023695D02*
X036375Y02367D01*
X037D01*
X0255Y037922D02*
X026392Y038814D01*
X0258Y037211D02*
X026442Y03657D01*
X018639Y038422D02*
X019442Y03762D01*
X018639Y038422D02*
Y039046D01*
X025508Y03522D02*
X026936D01*
X02631Y03063D02*
Y03158D01*
X02601Y03033D02*
X02631Y03063D01*
X02601Y02948D02*
Y03033D01*
X024108Y03972D02*
X026392D01*
X024158Y03657D02*
X025508Y03522D01*
X0264Y04282D02*
X02755D01*
X0264Y043725D02*
X026406Y04372D01*
X02755D01*
X026392Y040625D02*
X026436Y04067D01*
X026442Y037475D02*
X026447Y03747D01*
X02755D01*
X026256Y035664D02*
X026442D01*
X0255Y03642D02*
X026256Y035664D01*
X0255Y03642D02*
Y037922D01*
X018313Y036872D02*
X019442D01*
X017739Y037446D02*
X018313Y036872D01*
X018139Y036146D02*
X019389D01*
X017739Y036546D02*
X018139Y036146D01*
X04754Y034754D02*
X04759Y034704D01*
X05009Y032514D02*
X05039Y032214D01*
X05009Y032514D02*
Y032964D01*
X04929D02*
X05009D01*
X047578Y031354D02*
Y032104D01*
D88*
X040124Y03007D02*
X04023D01*
X039905Y030289D02*
X040124Y03007D01*
X03825Y029472D02*
Y030344D01*
Y029472D02*
X0383Y029422D01*
X037012Y02367D02*
X0375Y024158D01*
X037Y02367D02*
X037012D01*
X038847Y031448D02*
Y03197D01*
X03874Y030344D02*
X03909Y029994D01*
X03825Y030344D02*
X03874D01*
X039865Y030289D02*
X039905D01*
X039385D02*
X039865D01*
X03909Y029994D02*
X039385Y030289D01*
X02431Y02688D02*
X02601Y02858D01*
X02431Y02668D02*
Y02688D01*
D89*
X02383Y02422D02*
D03*
X02238Y02423D02*
D03*
X02093D02*
D03*
X01948Y02421D02*
D03*
X01803Y02423D02*
D03*
X01659Y02422D02*
D03*
X01513Y02422D02*
D03*
X01368D02*
D03*
X04243Y01822D02*
D03*
X04124Y01771D02*
D03*
X01591Y03439D02*
D03*
X01441D02*
D03*
X02754Y04104D02*
D03*
X0287Y04171D02*
D03*
X0285Y03862D02*
D03*
X02965D02*
D03*
X04475Y03438D02*
D03*
X04474Y03109D02*
D03*
X04562Y02795D02*
D03*
D90*
X02383Y02321D02*
D03*
Y02223D02*
D03*
X02238Y02322D02*
D03*
Y02224D02*
D03*
X02093D02*
D03*
Y02322D02*
D03*
X01948Y02222D02*
D03*
Y0232D02*
D03*
X01803Y02224D02*
D03*
Y02322D02*
D03*
X01659Y02223D02*
D03*
Y02321D02*
D03*
X01513Y02223D02*
D03*
Y02321D02*
D03*
X01368D02*
D03*
Y02223D02*
D03*
X04243Y01923D02*
D03*
X04124Y0197D02*
D03*
Y01872D02*
D03*
X01591Y03338D02*
D03*
X01441D02*
D03*
X02754Y04205D02*
D03*
X0287Y0437D02*
D03*
Y04272D02*
D03*
X0285Y03963D02*
D03*
X02965Y03761D02*
D03*
X04475Y03239D02*
D03*
Y03337D02*
D03*
X04474Y03008D02*
D03*
Y0291D02*
D03*
X04562Y02694D02*
D03*
D91*
X03055Y0337D02*
D03*
X0544Y0441D02*
D03*
X01321D02*
D03*
Y01899D02*
D03*
X0544Y01822D02*
D03*
D92*
X0437Y01791D02*
D03*
X04879Y02807D02*
D03*
X05008Y01977D02*
D03*
D93*
X0447Y01791D02*
D03*
X0457D02*
D03*
X0467D02*
D03*
X0477D02*
D03*
X0487D02*
D03*
X05379Y02807D02*
D03*
X05279D02*
D03*
X05179D02*
D03*
X05079D02*
D03*
X04979D02*
D03*
X05508Y01977D02*
D03*
X05308D02*
D03*
X05208D02*
D03*
X05108D02*
D03*
X05408D02*
D03*
X02431Y02658D02*
D03*
X02531D02*
D03*
X02631D02*
D03*
X02731D02*
D03*
X02831D02*
D03*
X02931D02*
D03*
X03031D02*
D03*
X03131D02*
D03*
Y03158D02*
D03*
X03031D02*
D03*
X02931D02*
D03*
X02831D02*
D03*
X02731D02*
D03*
X02631D02*
D03*
X02531D02*
D03*
X02431D02*
D03*
X01576Y02658D02*
D03*
X01676D02*
D03*
X01776D02*
D03*
X01876D02*
D03*
X01976D02*
D03*
X02076D02*
D03*
X02176D02*
D03*
X02276D02*
D03*
Y03158D02*
D03*
X02176D02*
D03*
X02076D02*
D03*
X01976D02*
D03*
X01876D02*
D03*
X01776D02*
D03*
X01676D02*
D03*
X01576D02*
D03*
D94*
X02189Y020539D02*
D03*
X01532D02*
D03*
X02847D02*
D03*
X03505D02*
D03*
D95*
X02339D02*
D03*
X02489D02*
D03*
X02639D02*
D03*
X01982D02*
D03*
X01832D02*
D03*
X01682D02*
D03*
X02997D02*
D03*
X03147D02*
D03*
X03297D02*
D03*
X03655D02*
D03*
X03805D02*
D03*
X03955D02*
D03*
X01664Y036834D02*
D03*
Y04045D02*
D03*
D96*
X03523Y02793D02*
D03*
X03425D02*
D03*
X03524Y02649D02*
D03*
X03426D02*
D03*
X03784Y03452D02*
D03*
X03683D02*
D03*
X03585D02*
D03*
X03484D02*
D03*
X04662Y04454D02*
D03*
X04561D02*
D03*
X04463D02*
D03*
X04362D02*
D03*
X05354Y03696D02*
D03*
X05452D02*
D03*
D97*
X03324Y02793D02*
D03*
X03325Y02649D02*
D03*
X05553Y03696D02*
D03*
D98*
X0293Y02481D02*
D03*
X0303D02*
D03*
X0313D02*
D03*
Y02181D02*
D03*
X0303D02*
D03*
X0293D02*
D03*
X02536Y02481D02*
D03*
X02636D02*
D03*
X02736D02*
D03*
Y02181D02*
D03*
X02636D02*
D03*
X02536D02*
D03*
D99*
X03869Y02497D02*
D03*
X03969D02*
D03*
X03869Y02397D02*
D03*
X03969D02*
D03*
X03869Y02297D02*
D03*
X03969D02*
D03*
X03869Y02197D02*
D03*
X03969D02*
D03*
D100*
X0418Y03622D02*
D03*
X0398D02*
D03*
X0378D02*
D03*
X0368D02*
D03*
X0358D02*
D03*
X0388D02*
D03*
X0408D02*
D03*
X0428D02*
D03*
X0438D02*
D03*
D101*
X0348D02*
D03*
D102*
X03363Y03024D02*
D03*
Y03124D02*
D03*
Y03224D02*
D03*
Y02924D02*
D03*
D103*
Y03324D02*
D03*
D104*
X01343Y027162D02*
D03*
Y02913D02*
D03*
D105*
Y031098D02*
D03*
D106*
X01664Y038334D02*
D03*
Y04195D02*
D03*
D107*
X04676Y041947D02*
D03*
D108*
Y03916D02*
D03*
D109*
X054575Y040752D02*
D03*
X054305D02*
D03*
X054575Y037996D02*
D03*
X054305D02*
D03*
D110*
X053377Y040358D02*
D03*
Y038389D02*
D03*
D111*
X047382Y0256D02*
D03*
X047394Y026199D02*
D03*
X046658Y0262D02*
D03*
X046079D02*
D03*
X044594Y018994D02*
D03*
X0452Y019D02*
D03*
X0458Y018994D02*
D03*
X03Y0238D02*
D03*
Y0232D02*
D03*
X0294D02*
D03*
Y023796D02*
D03*
X02639Y0232D02*
D03*
Y0238D02*
D03*
X0258Y0232D02*
D03*
Y0238D02*
D03*
X0178Y0298D02*
D03*
Y0292D02*
D03*
X017196D02*
D03*
Y0298D02*
D03*
X0168Y0276D02*
D03*
X0174D02*
D03*
X01799D02*
D03*
X0186D02*
D03*
X0192D02*
D03*
X036Y0448D02*
D03*
X0354Y044794D02*
D03*
X0348Y0448D02*
D03*
X034194D02*
D03*
X0336D02*
D03*
X0482Y021192D02*
D03*
X048806Y0206D02*
D03*
X0488Y021205D02*
D03*
X0506Y0206D02*
D03*
Y021192D02*
D03*
X050008Y0206D02*
D03*
X05Y021205D02*
D03*
X041602Y0236D02*
D03*
Y0242D02*
D03*
X041595Y0248D02*
D03*
X040998Y023598D02*
D03*
Y024191D02*
D03*
Y0248D02*
D03*
X025Y040788D02*
D03*
X0256D02*
D03*
Y0414D02*
D03*
X025Y041397D02*
D03*
X0256Y042012D02*
D03*
X025Y042D02*
D03*
X0314Y0362D02*
D03*
X0308D02*
D03*
X030195D02*
D03*
X04275Y033388D02*
D03*
X042474Y032134D02*
D03*
X04339Y032916D02*
D03*
X043204Y0338D02*
D03*
X042065Y032706D02*
D03*
X0412Y0332D02*
D03*
X04017D02*
D03*
X0176Y0404D02*
D03*
Y0412D02*
D03*
Y042D02*
D03*
Y042794D02*
D03*
X013Y0428D02*
D03*
Y0396D02*
D03*
Y0404D02*
D03*
Y0412D02*
D03*
Y042D02*
D03*
X0494Y0426D02*
D03*
X049377Y043654D02*
D03*
X047002Y0408D02*
D03*
X05331Y043032D02*
D03*
X0542Y0414D02*
D03*
X0538Y0418D02*
D03*
X0552Y0422D02*
D03*
X0548Y042603D02*
D03*
X046406Y0402D02*
D03*
X0458D02*
D03*
X046598Y0412D02*
D03*
X024807Y033388D02*
D03*
X024204Y033404D02*
D03*
X024807Y034D02*
D03*
X0242Y033987D02*
D03*
X0228Y038D02*
D03*
X0222Y037996D02*
D03*
X0228Y0386D02*
D03*
X0222D02*
D03*
X0536Y029D02*
D03*
X053D02*
D03*
X0524D02*
D03*
X0518D02*
D03*
X051403Y0316D02*
D03*
X0514Y031206D02*
D03*
X051Y0312D02*
D03*
Y0316D02*
D03*
X045007Y024027D02*
D03*
X044496D02*
D03*
X04396D02*
D03*
X0468Y0228D02*
D03*
X0462D02*
D03*
X046816Y0234D02*
D03*
X0462Y023415D02*
D03*
X04561Y043536D02*
D03*
X04479Y042812D02*
D03*
X0436Y04356D02*
D03*
X042532D02*
D03*
X049977Y035113D02*
D03*
X05113Y03512D02*
D03*
X04426Y023161D02*
D03*
X044633Y02284D02*
D03*
X04502Y02254D02*
D03*
X04396Y02282D02*
D03*
X044276Y02254D02*
D03*
X043693Y02317D02*
D03*
X04293D02*
D03*
X03435Y03785D02*
D03*
X03347Y03782D02*
D03*
D112*
X03659Y02926D02*
D03*
X03628Y02977D02*
D03*
X03629Y02792D02*
D03*
X0372Y02665D02*
D03*
X04449Y04315D02*
D03*
X04151Y021192D02*
D03*
X04859Y03763D02*
D03*
X04838Y03818D02*
D03*
X048Y03922D02*
D03*
X04863Y03949D02*
D03*
X04921Y03789D02*
D03*
X05035Y03761D02*
D03*
X0508Y037629D02*
D03*
X048126Y044846D02*
D03*
X05216Y03798D02*
D03*
X04916Y03922D02*
D03*
X04704Y03852D02*
D03*
X04619Y03846D02*
D03*
X02615Y03226D02*
D03*
X01928Y033855D02*
D03*
X02127Y034583D02*
D03*
X02584Y02745D02*
D03*
X018313Y036872D02*
D03*
X01998Y03772D02*
D03*
X03538Y01973D02*
D03*
X03228Y02217D02*
D03*
X03283Y0292D02*
D03*
X0146Y02654D02*
D03*
X01924Y02479D02*
D03*
X020563Y025752D02*
D03*
X03162Y02374D02*
D03*
X04952Y04473D02*
D03*
X05048Y04356D02*
D03*
X05349Y04239D02*
D03*
X04663Y04351D02*
D03*
X04657Y04391D02*
D03*
X05226Y03221D02*
D03*
X04607Y04211D02*
D03*
X04824Y04303D02*
D03*
X04702Y03806D02*
D03*
X04557Y03837D02*
D03*
X04957Y03649D02*
D03*
X04633Y037D02*
D03*
X03397Y03758D02*
D03*
X04342Y0456D02*
D03*
X04077Y04342D02*
D03*
X039913D02*
D03*
X03909D02*
D03*
X03829Y043443D02*
D03*
X03691Y040752D02*
D03*
X03778Y04077D02*
D03*
X0363Y03775D02*
D03*
X03778Y03765D02*
D03*
X04949Y03994D02*
D03*
X05146Y04067D02*
D03*
X05189Y0399D02*
D03*
X05331Y04089D02*
D03*
X05369Y04107D02*
D03*
X05321Y04211D02*
D03*
X04895Y04452D02*
D03*
X0488Y03508D02*
D03*
X052327Y035133D02*
D03*
X05209Y0344D02*
D03*
X03631Y03702D02*
D03*
X04709Y03463D02*
D03*
X047603Y030159D02*
D03*
X04124Y02718D02*
D03*
X04528Y0244D02*
D03*
X0459Y03143D02*
D03*
X04941Y02717D02*
D03*
X04956Y02398D02*
D03*
X0493Y02518D02*
D03*
X0508Y02389D02*
D03*
X05105Y0253D02*
D03*
X04816Y01961D02*
D03*
X04112Y033795D02*
D03*
X04348Y03195D02*
D03*
X04292Y03251D02*
D03*
X04394Y0303D02*
D03*
X040486Y018804D02*
D03*
X03724Y02029D02*
D03*
X033Y02373D02*
D03*
X04031Y02095D02*
D03*
X03993Y01888D02*
D03*
X04542Y02081D02*
D03*
X05354Y03203D02*
D03*
X04534Y03555D02*
D03*
X02835Y02402D02*
D03*
X04327Y03133D02*
D03*
X04511Y03673D02*
D03*
X04031Y03414D02*
D03*
X04161Y03087D02*
D03*
X04017Y02806D02*
D03*
X04023Y03007D02*
D03*
X04071Y03411D02*
D03*
X0451Y03765D02*
D03*
X03729Y04273D02*
D03*
X03641Y04257D02*
D03*
X04272Y03003D02*
D03*
X04243Y03056D02*
D03*
X04207Y03022D02*
D03*
X04179Y02986D02*
D03*
X04116Y02882D02*
D03*
X04151Y02952D02*
D03*
X05007Y034603D02*
D03*
X03399Y02521D02*
D03*
X03629Y02306D02*
D03*
X03579Y03054D02*
D03*
X03629Y03047D02*
D03*
X03663Y03024D02*
D03*
X029073Y0409D02*
D03*
X02717Y03862D02*
D03*
X02768Y03856D02*
D03*
X03933Y03282D02*
D03*
X03627Y02246D02*
D03*
X01889Y02845D02*
D03*
X01441Y03035D02*
D03*
X039515Y034314D02*
D03*
X04165Y0267D02*
D03*
X037323Y032173D02*
D03*
X0381Y0329D02*
D03*
X03855Y029828D02*
D03*
X0383Y029422D02*
D03*
X03915Y02942D02*
D03*
X040237Y030794D02*
D03*
X03965Y02942D02*
D03*
X0372Y025182D02*
D03*
X0375Y024158D02*
D03*
X0372Y027548D02*
D03*
X0476Y02402D02*
D03*
X0342Y04207D02*
D03*
X048381Y030169D02*
D03*
X049178Y030147D02*
D03*
X039252Y02727D02*
D03*
X03975Y02687D02*
D03*
X03525Y03277D02*
D03*
X03505Y03057D02*
D03*
X0346Y030894D02*
D03*
X0394Y03327D02*
D03*
X038847Y031448D02*
D03*
X03935D02*
D03*
X0386Y032904D02*
D03*
X03471Y03327D02*
D03*
X0342Y03597D02*
D03*
X03095Y03967D02*
D03*
X0314Y03927D02*
D03*
X034454Y039676D02*
D03*
Y038926D02*
D03*
X0327Y04007D02*
D03*
Y03862D02*
D03*
X033Y03462D02*
D03*
X0327Y04427D02*
D03*
X032687Y04277D02*
D03*
X03195Y03382D02*
D03*
X03795Y027439D02*
D03*
X03784Y02342D02*
D03*
X0319Y04167D02*
D03*
X03045Y044946D02*
D03*
X04945Y02652D02*
D03*
X03805Y02597D02*
D03*
X04225Y02367D02*
D03*
X02876Y03068D02*
D03*
X02821Y02933D02*
D03*
X02021Y03073D02*
D03*
X05054Y031604D02*
D03*
X05217Y03141D02*
D03*
D113*
X054305Y040752D02*
X054575D01*
X054305Y037996D02*
X054575D01*
D114*
X053915Y033842D02*
D03*
X053165D02*
D03*
X05354Y034548D02*
D03*
X052115Y033898D02*
D03*
X051365D02*
D03*
X05174Y034603D02*
D03*
X019614Y039068D02*
D03*
X020364D02*
D03*
X019989Y038362D02*
D03*
D115*
X054294Y03202D02*
D03*
X053588Y032395D02*
D03*
Y031645D02*
D03*
X054294Y030603D02*
D03*
X053588Y030978D02*
D03*
Y030228D02*
D03*
X045854Y041137D02*
D03*
X045148Y041512D02*
D03*
Y040762D02*
D03*
D116*
X04754Y034754D02*
D03*
X04624D02*
D03*
D117*
X04225Y02545D02*
D03*
X04275D02*
D03*
X04325D02*
D03*
X04375D02*
D03*
X04425D02*
D03*
X04475D02*
D03*
X04525D02*
D03*
X04575D02*
D03*
X04625D02*
D03*
X04675D02*
D03*
Y02169D02*
D03*
X04625D02*
D03*
X04575D02*
D03*
X04525D02*
D03*
X04475D02*
D03*
X04425D02*
D03*
X04375D02*
D03*
X04325D02*
D03*
X04275D02*
D03*
X04225D02*
D03*
D118*
X03635Y023695D02*
D03*
X03585D02*
D03*
X03535D02*
D03*
X03485D02*
D03*
X03435D02*
D03*
X03385D02*
D03*
X03335D02*
D03*
Y021645D02*
D03*
X03385D02*
D03*
X03435D02*
D03*
X03485D02*
D03*
X03535D02*
D03*
X03585D02*
D03*
X03635D02*
D03*
D119*
X019442Y036872D02*
D03*
Y037246D02*
D03*
Y03762D02*
D03*
X020537Y036872D02*
D03*
Y03762D02*
D03*
D120*
X024158Y03657D02*
D03*
X024108Y03972D02*
D03*
X024117Y04282D02*
D03*
D121*
X026442Y035664D02*
D03*
Y03657D02*
D03*
Y037475D02*
D03*
X026392Y038814D02*
D03*
Y03972D02*
D03*
Y040625D02*
D03*
X0264Y041914D02*
D03*
Y04282D02*
D03*
Y043725D02*
D03*
D122*
X04305Y04322D02*
D03*
Y042826D02*
D03*
Y042432D02*
D03*
Y042039D02*
D03*
Y041645D02*
D03*
Y041251D02*
D03*
Y040857D02*
D03*
Y040464D02*
D03*
Y04007D02*
D03*
Y039676D02*
D03*
Y039283D02*
D03*
Y038889D02*
D03*
Y038495D02*
D03*
Y038102D02*
D03*
Y037708D02*
D03*
Y037314D02*
D03*
Y03692D02*
D03*
X035633D02*
D03*
Y037314D02*
D03*
Y037708D02*
D03*
Y038102D02*
D03*
Y038495D02*
D03*
Y038889D02*
D03*
Y039283D02*
D03*
Y039676D02*
D03*
Y04007D02*
D03*
Y040464D02*
D03*
Y040857D02*
D03*
Y041251D02*
D03*
Y041645D02*
D03*
Y042039D02*
D03*
Y042432D02*
D03*
Y042826D02*
D03*
Y04322D02*
D03*
M02*
