G04*
G04 #@! TF.GenerationSoftware,Altium Limited,Altium Designer,18.1.6 (161)*
G04*
G04 Layer_Color=65535*
%FSTAX24Y24*%
%MOIN*%
G70*
G01*
G75*
%ADD10C,0.0098*%
%ADD11C,0.0080*%
%ADD12C,0.0200*%
%ADD13C,0.0050*%
%ADD14C,0.0040*%
%ADD15C,0.0010*%
%ADD16C,0.0060*%
%ADD17C,0.0079*%
%ADD18C,0.0140*%
%ADD19C,0.0070*%
%ADD20C,0.0158*%
%ADD21C,0.0100*%
G36*
X04387Y04373D02*
X04337D01*
X04362Y04398D01*
X04387Y04373D01*
D02*
G37*
G36*
X052002Y043445D02*
X051852D01*
Y043545D01*
X052002D01*
Y043445D01*
D02*
G37*
G36*
X050525Y041771D02*
X050425D01*
Y041921D01*
X050525D01*
Y041771D01*
D02*
G37*
G36*
X02951Y04146D02*
X02926Y04171D01*
X02951Y04196D01*
Y04146D01*
D02*
G37*
G36*
X02835Y04079D02*
X0281Y04104D01*
X02835Y04129D01*
Y04079D01*
D02*
G37*
G36*
X02931Y03837D02*
X029075Y038605D01*
X02884Y03837D01*
Y03887D01*
X029075Y038635D01*
X02931Y03887D01*
Y03837D01*
D02*
G37*
G36*
X05553Y03752D02*
X05528Y03777D01*
X05578D01*
X05553Y03752D01*
D02*
G37*
G36*
X022639Y035281D02*
X022641Y03528D01*
X022674Y035264D01*
X022736Y035239D01*
X022736Y035239D01*
X022736Y035239D01*
X022811Y035201D01*
X022811Y035201D01*
X022811Y035201D01*
X022903Y035155D01*
X022903Y035155D01*
X022904Y035155D01*
X022967Y035105D01*
X022967Y035105D01*
X022967Y035105D01*
X023025Y035055D01*
X023026Y035054D01*
X023026Y035053D01*
X023084Y034974D01*
X023085Y034974D01*
X023085Y034974D01*
X02316Y034857D01*
X02316Y034857D01*
X02316Y034856D01*
X023198Y034756D01*
X023198Y034756D01*
X023198Y034756D01*
X023214Y034702D01*
X023214Y034701D01*
X023215Y0347D01*
X023223Y034596D01*
X023223Y034596D01*
X023223Y034595D01*
X023202Y034399D01*
X023202Y034399D01*
X023202Y034399D01*
X02319Y034311D01*
X023189Y034311D01*
X02319Y034311D01*
X023173Y034248D01*
X023173Y034248D01*
X023173Y034248D01*
X023156Y034198D01*
X023156Y034197D01*
X023156Y034196D01*
X023114Y034126D01*
X023113Y034125D01*
X023113Y034124D01*
X023112Y034124D01*
X023112Y034124D01*
X023111Y034124D01*
X02311Y034123D01*
X023109Y034123D01*
X023108Y034123D01*
X023108Y034123D01*
X023107Y034123D01*
X022978Y034143D01*
X022977Y034144D01*
X022976Y034144D01*
X022839Y034215D01*
X022838Y034215D01*
X022838Y034215D01*
X022763Y034265D01*
X022763Y034266D01*
X022762Y034266D01*
X022692Y034336D01*
X022692Y034336D01*
X022692Y034337D01*
X02262Y034425D01*
X02262Y034425D01*
X02262Y034425D01*
X022613Y034435D01*
X022613Y034435D01*
X022613Y034436D01*
X0226Y034456D01*
X0226Y034456D01*
X0226Y034456D01*
X022589Y034477D01*
X022589Y034477D01*
X022589Y034477D01*
X022578Y034499D01*
X022578Y034499D01*
X022578Y034499D01*
X022574Y03451D01*
X02254Y03458D01*
X02254Y03458D01*
X02254Y034581D01*
X022502Y034672D01*
X022502Y034673D01*
X022502Y034673D01*
X022485Y034753D01*
X022485Y034753D01*
X022485Y034754D01*
X022477Y034866D01*
X022477Y034867D01*
X022477Y034867D01*
X022494Y034967D01*
X022494Y034968D01*
X022494Y034968D01*
X022515Y035059D01*
X022515Y03506D01*
X022515Y035061D01*
X022544Y035127D01*
X022544Y035127D01*
Y035127D01*
X022573Y035194D01*
X022574Y035194D01*
X022574Y035195D01*
X022632Y035278D01*
X022634Y035279D01*
X022636Y035281D01*
X022636Y035281D01*
X022637Y035281D01*
X022639Y035281D01*
D02*
G37*
G36*
X03505Y03522D02*
X03455D01*
X0348Y03547D01*
X03505Y03522D01*
D02*
G37*
G36*
X022029Y034345D02*
X022029Y034345D01*
X022158Y034336D01*
X022158Y034336D01*
X022158Y034336D01*
X022266Y034328D01*
X022267Y034328D01*
X022267Y034328D01*
X022317Y03432D01*
X022317Y03432D01*
X022317Y03432D01*
X022405Y034303D01*
X022405Y034303D01*
X022405Y034303D01*
X02244Y034292D01*
X02244Y034292D01*
X02244Y034292D01*
X022504Y034264D01*
X022505Y034264D01*
X022505Y034264D01*
X022557Y034228D01*
X022558Y034227D01*
X022558Y034227D01*
X022622Y034171D01*
X022622Y034171D01*
X022623Y03417D01*
X022633Y034157D01*
X022666Y034157D01*
X022667Y034157D01*
X022668Y034157D01*
X022669Y034156D01*
X02267Y034156D01*
X022671Y034155D01*
X022672Y034154D01*
X022672Y034153D01*
X022672Y034151D01*
X022672Y03415D01*
X022672Y034149D01*
X022643Y034045D01*
X022642Y034044D01*
X022642Y034043D01*
X022609Y033989D01*
X022608Y033989D01*
X022608Y033989D01*
X022533Y033893D01*
X022533Y033892D01*
X022532Y033892D01*
X022424Y033808D01*
X022423Y033808D01*
X022423Y033808D01*
X022356Y03377D01*
X022356Y03377D01*
X022356Y03377D01*
X022256Y033732D01*
X022181Y033703D01*
X02218Y033703D01*
X02218Y033703D01*
X022097Y033682D01*
X022097Y033682D01*
X022097Y033682D01*
X022013Y033661D01*
X022013Y033662D01*
X022012Y033661D01*
X021937Y033657D01*
X021937Y033657D01*
X021937Y033657D01*
X021778D01*
X021778Y033657D01*
X021778Y033657D01*
X021682Y033665D01*
X021682Y033665D01*
X021682Y033665D01*
X021569Y033678D01*
X021569Y033678D01*
X021568Y033678D01*
X021489Y033707D01*
X021489Y033707D01*
X021489Y033707D01*
X021414Y033737D01*
X021413Y033737D01*
X021413Y033737D01*
X021317Y033796D01*
X021317Y033796D01*
X021316Y033796D01*
X02125Y033841D01*
X021209Y033862D01*
X021207Y033864D01*
X021206Y033865D01*
X021206Y033866D01*
X021206Y033866D01*
X021206Y033868D01*
X021206Y03387D01*
X021239Y033941D01*
X02124Y033941D01*
X02124Y033942D01*
X021277Y034D01*
X021278Y034D01*
X021278Y034001D01*
X021349Y03408D01*
X021349Y03408D01*
X021349Y03408D01*
X021407Y034143D01*
X021408Y034143D01*
X021408Y034143D01*
X021491Y034206D01*
X021491Y034206D01*
X021491Y034206D01*
X021537Y03424D01*
X021538Y03424D01*
X021538Y03424D01*
X021605Y034269D01*
X021605Y034269D01*
X021605Y034269D01*
X021655Y03429D01*
X021656Y03429D01*
X021656Y034291D01*
X021769Y034316D01*
X021769Y034316D01*
X021769Y034316D01*
X021848Y034332D01*
X021848Y034332D01*
X021848Y034332D01*
X021936Y034345D01*
X021936Y034345D01*
X021937Y034345D01*
X022028D01*
X022029Y034345D01*
D02*
G37*
G36*
X01535Y03439D02*
X0151Y03414D01*
Y03464D01*
X01535Y03439D01*
D02*
G37*
G36*
X01385D02*
X0136Y03414D01*
Y03464D01*
X01385Y03439D01*
D02*
G37*
G36*
X04419Y03438D02*
X04394Y03413D01*
Y03463D01*
X04419Y03438D01*
D02*
G37*
G36*
X023704Y035258D02*
X023706Y035258D01*
X023781Y035229D01*
X023781Y035228D01*
X023782Y035228D01*
X023869Y035182D01*
X023869Y035182D01*
X023869Y035182D01*
X023932Y035149D01*
X023932Y035149D01*
X023932Y035149D01*
X024057Y035061D01*
X024058Y035061D01*
X024058Y035061D01*
X024117Y035002D01*
X024117Y035002D01*
X024117Y035001D01*
X024163Y034935D01*
X024163Y034934D01*
X024164Y034934D01*
X024197Y034867D01*
X024197Y034867D01*
X024197Y034867D01*
X024243Y034771D01*
X024243Y034771D01*
X024243Y034771D01*
X024268Y034713D01*
X024268Y034712D01*
X024268Y034711D01*
X024285Y034611D01*
X024285Y034611D01*
X024285Y03461D01*
X024289Y03446D01*
X024289Y03446D01*
X024289Y03446D01*
X024281Y034301D01*
X024281Y034301D01*
X024281Y0343D01*
X024256Y03418D01*
X024256Y034179D01*
X024256Y034179D01*
X024226Y034079D01*
X024226Y034079D01*
X024226Y034078D01*
X02418Y033978D01*
X02418Y033978D01*
X02418Y033978D01*
X024134Y033903D01*
X024134Y033902D01*
X024134Y033902D01*
X024092Y033848D01*
X024092Y033848D01*
X024092Y033847D01*
X024091Y033847D01*
X02409Y033846D01*
X024089Y033846D01*
X024088Y033845D01*
X024087Y033845D01*
X024087Y033845D01*
X024086Y033846D01*
X024085Y033846D01*
X023835Y033925D01*
X023833Y033926D01*
X023832Y033927D01*
X023816Y033952D01*
X023708Y034043D01*
X023658Y034084D01*
X023658Y034085D01*
X023657Y034085D01*
X023603Y034147D01*
X023603Y034148D01*
X023603Y034148D01*
X023536Y034253D01*
X023536Y034253D01*
X023536Y034253D01*
X023494Y034341D01*
X023494Y034341D01*
X023493Y034342D01*
X023464Y034492D01*
X023464Y034492D01*
X023464Y034493D01*
X023452Y034643D01*
X023452Y034643D01*
X023452Y034644D01*
X02346Y034723D01*
X02346Y034724D01*
X02346Y034724D01*
X023481Y034799D01*
X023518Y034949D01*
X023519Y03495D01*
Y03495D01*
X023539Y035D01*
X02354Y035D01*
X02354Y035001D01*
X023598Y035113D01*
X023598Y035113D01*
X023598Y035114D01*
X023665Y035214D01*
X023665Y035214D01*
X023665Y035214D01*
X023699Y035256D01*
X0237Y035256D01*
X023701Y035258D01*
X023702Y035258D01*
X023703Y035258D01*
X023704Y035258D01*
D02*
G37*
G36*
X03509Y03371D02*
X03459D01*
X03484Y03396D01*
X03509Y03371D01*
D02*
G37*
G36*
X03287Y03324D02*
X03262Y03299D01*
Y03349D01*
X03287Y03324D01*
D02*
G37*
G36*
X023098Y034039D02*
X023099Y034038D01*
X023099Y034038D01*
X0231Y034037D01*
X023102Y034037D01*
X023102Y034036D01*
X023102Y034036D01*
X023102Y034036D01*
X023103Y034035D01*
X023182Y033868D01*
X023182Y033868D01*
X023182Y033867D01*
X023224Y033679D01*
X023224Y033679D01*
X023224Y033678D01*
X023228Y033533D01*
X023228Y033532D01*
X023228Y033531D01*
X023203Y033356D01*
X023203Y033356D01*
X023203Y033356D01*
X02317Y033243D01*
X02317Y033243D01*
Y033242D01*
X02314Y033172D01*
X02314Y033171D01*
X023139Y03317D01*
X023102Y03312D01*
X023102Y03312D01*
X023102Y03312D01*
X023039Y033041D01*
X023039Y03304D01*
X023039Y03304D01*
X022972Y032978D01*
X022971Y032977D01*
X022971Y032977D01*
X022792Y032872D01*
X022792Y032872D01*
X022791Y032872D01*
X022687Y032822D01*
X022687Y032822D01*
X022687Y032822D01*
X022616Y032793D01*
X022614Y032793D01*
X022612Y032793D01*
X022612Y032793D01*
X022611Y032793D01*
X02261Y032794D01*
X022608Y032795D01*
X022537Y032904D01*
X022537Y032904D01*
X022537Y032904D01*
X022475Y033025D01*
X022475Y033026D01*
X022474Y033026D01*
X022449Y033101D01*
X022449Y033101D01*
X022449Y033101D01*
X022433Y03316D01*
X022433Y03316D01*
X022432Y033161D01*
X022424Y033236D01*
X022424Y033236D01*
X022424Y033237D01*
X022436Y03342D01*
X022437Y033421D01*
X022436Y033421D01*
X022461Y033513D01*
X022462Y033513D01*
X022462Y033513D01*
X022483Y03358D01*
X022483Y03358D01*
X022483Y033581D01*
X02252Y033652D01*
X022521Y033653D01*
X022554Y033714D01*
X022554Y033715D01*
X022554Y033715D01*
X022633Y033836D01*
X022634Y033836D01*
X022635Y033837D01*
X022785Y033954D01*
X022785Y033954D01*
X022785Y033954D01*
X022914Y034033D01*
X022914Y034033D01*
X022914Y034033D01*
X022956Y034058D01*
X022958Y034059D01*
X02296Y034059D01*
X023098Y034039D01*
D02*
G37*
G36*
X038922Y032554D02*
X038772D01*
Y032654D01*
X038922D01*
Y032554D01*
D02*
G37*
G36*
X023918Y033759D02*
X023919Y033759D01*
X024043Y03371D01*
X024043Y03371D01*
X024044Y03371D01*
X024044Y033709D01*
X024045Y033709D01*
X024045Y033708D01*
X024046Y033707D01*
X024046Y033706D01*
X024047Y033706D01*
X024065Y03363D01*
X024081Y033576D01*
X024081Y033576D01*
X024082Y033575D01*
X024098Y033496D01*
X024098Y033496D01*
X024098Y033496D01*
X024119Y033388D01*
X024119Y033388D01*
X024119Y033388D01*
X024136Y033292D01*
X024136Y033291D01*
X024136Y033291D01*
Y033199D01*
X024136Y033199D01*
X024136Y033198D01*
X024128Y033107D01*
X024127Y033106D01*
X024128Y033106D01*
X024111Y033035D01*
X024111Y033035D01*
X024111Y033035D01*
X024081Y032935D01*
X024081Y032934D01*
X024081Y032934D01*
X024019Y032821D01*
X024018Y032821D01*
X024018Y032821D01*
X023981Y032762D01*
X02398Y032762D01*
X02398Y032761D01*
X023859Y032644D01*
X023859Y032644D01*
X023859Y032644D01*
X023784Y032574D01*
X023784Y032574D01*
X023784Y032573D01*
X023729Y032527D01*
X023729Y032527D01*
X023728Y032527D01*
X023666Y032493D01*
X02355Y032427D01*
X023549Y032427D01*
X023549Y032427D01*
X023487Y032393D01*
X023485Y032393D01*
X023482Y032393D01*
X023482Y032393D01*
X023482Y032393D01*
X02348Y032394D01*
X023478Y032395D01*
X023399Y032512D01*
X023399Y032513D01*
X023399Y032513D01*
X023365Y032588D01*
X023365Y032588D01*
X023365Y032589D01*
X023336Y032685D01*
X023336Y032685D01*
X023336Y032685D01*
X023311Y032772D01*
X023311Y032773D01*
X023311Y032774D01*
X023302Y032903D01*
X023302Y032903D01*
X023302Y032904D01*
X023315Y033074D01*
X023315Y033075D01*
X023315Y033076D01*
X023352Y033209D01*
X023353Y033209D01*
X023353Y03321D01*
X023428Y033389D01*
X023428Y033389D01*
X023428Y03339D01*
X023478Y033477D01*
X023479Y033478D01*
X023479Y033478D01*
X023525Y033528D01*
X023526Y033529D01*
X023526Y033529D01*
X023584Y033571D01*
X023584Y033571D01*
X023584Y033571D01*
X023659Y033621D01*
X02366Y033621D01*
X02366Y033621D01*
X023789Y033704D01*
X023789Y033704D01*
X023789Y033705D01*
X023839Y03373D01*
X023897Y033759D01*
X023899Y033759D01*
X0239Y03376D01*
X023917D01*
X023918Y033759D01*
D02*
G37*
G36*
X041292Y031118D02*
X041192D01*
Y031268D01*
X041292D01*
Y031118D01*
D02*
G37*
G36*
X04418Y03109D02*
X04393Y03084D01*
Y03134D01*
X04418Y03109D01*
D02*
G37*
G36*
X037092Y030528D02*
X036992D01*
Y030678D01*
X037092D01*
Y030528D01*
D02*
G37*
G36*
X038725Y028354D02*
X038575D01*
Y028454D01*
X038725D01*
Y028354D01*
D02*
G37*
G36*
X04506Y02795D02*
X04481Y0277D01*
Y0282D01*
X04506Y02795D01*
D02*
G37*
G36*
X03349Y02712D02*
X03299D01*
X03324Y02737D01*
X03349Y02712D01*
D02*
G37*
G36*
X04904Y02647D02*
X04854D01*
X04879Y02672D01*
X04904Y02647D01*
D02*
G37*
G36*
X04799Y025969D02*
X04774Y025719D01*
Y026219D01*
X04799Y025969D01*
D02*
G37*
G36*
X0335Y02568D02*
X033D01*
X03325Y02593D01*
X0335Y02568D01*
D02*
G37*
G36*
X03789Y02497D02*
X03764Y02472D01*
Y02522D01*
X03789Y02497D01*
D02*
G37*
G36*
X02182Y02423D02*
X02157Y02398D01*
Y02448D01*
X02182Y02423D01*
D02*
G37*
G36*
X02037D02*
X02012Y02398D01*
Y02448D01*
X02037Y02423D01*
D02*
G37*
G36*
X01747D02*
X01722Y02398D01*
Y02448D01*
X01747Y02423D01*
D02*
G37*
G36*
X02327Y02422D02*
X02302Y02397D01*
Y02447D01*
X02327Y02422D01*
D02*
G37*
G36*
X01603D02*
X01578Y02397D01*
Y02447D01*
X01603Y02422D01*
D02*
G37*
G36*
X01457Y02422D02*
X01432Y02397D01*
Y02447D01*
X01457Y02422D01*
D02*
G37*
G36*
X01312D02*
X01287Y02397D01*
Y02447D01*
X01312Y02422D01*
D02*
G37*
G36*
X01892Y02421D02*
X01867Y02396D01*
Y02446D01*
X01892Y02421D01*
D02*
G37*
G36*
X05034Y01878D02*
X04984D01*
X05009Y01903D01*
X05034Y01878D01*
D02*
G37*
G36*
X04324Y01797D02*
X04299Y01822D01*
X04324Y01847D01*
Y01797D01*
D02*
G37*
G36*
X04205Y01746D02*
X0418Y01771D01*
X04205Y01796D01*
Y01746D01*
D02*
G37*
G36*
X04395Y01676D02*
X04345D01*
X0437Y01701D01*
X04395Y01676D01*
D02*
G37*
D10*
X022321Y0305D02*
G03*
X022321Y0305I-000049J0D01*
G01*
X030871D02*
G03*
X030871Y0305I-000049J0D01*
G01*
X021108Y037D02*
G03*
X021108Y037I-000049J0D01*
G01*
X026771Y045566D02*
G03*
X026771Y045566I-000049J0D01*
G01*
X051959Y04058D02*
G03*
X051959Y04058I-000049J0D01*
G01*
D11*
X049334Y040697D02*
G03*
X049334Y040697I-002574J0D01*
G01*
X04584Y04316D02*
X04579Y04321D01*
Y04331D01*
X04584Y04336D01*
X04589D01*
X04594Y04331D01*
Y04326D01*
Y04331D01*
X04599Y04336D01*
X04604D01*
X04609Y04331D01*
Y04321D01*
X04604Y04316D01*
X04579Y04346D02*
X04599D01*
X04609Y04356D01*
X04599Y04366D01*
X04579D01*
X04584Y04376D02*
X04579Y04381D01*
Y04391D01*
X04584Y04396D01*
X04589D01*
X04594Y04391D01*
Y04386D01*
Y04391D01*
X04599Y04396D01*
X04604D01*
X04609Y04391D01*
Y04381D01*
X04604Y04376D01*
X04522Y04331D02*
X04517Y04326D01*
Y04316D01*
X04522Y04311D01*
X04542D01*
X04547Y04316D01*
Y04326D01*
X04542Y04331D01*
X04532D01*
Y04321D01*
X04547Y04341D02*
X04517D01*
X04547Y04361D01*
X04517D01*
Y04371D02*
X04547D01*
Y04386D01*
X04542Y04391D01*
X04522D01*
X04517Y04386D01*
Y04371D01*
X04403Y04273D02*
X04398Y04268D01*
Y04258D01*
X04403Y04253D01*
X04408D01*
X04413Y04258D01*
Y04268D01*
X04418Y04273D01*
X04423D01*
X04428Y04268D01*
Y04258D01*
X04423Y04253D01*
X04398Y04283D02*
X04428D01*
X04418Y04293D01*
X04428Y04303D01*
X04398D01*
Y04313D02*
X04428D01*
Y04328D01*
X04423Y04333D01*
X04403D01*
X04398Y04328D01*
Y04313D01*
Y04343D02*
Y04353D01*
Y04348D01*
X04428D01*
Y04343D01*
Y04353D01*
X04398Y04383D02*
Y04373D01*
X04403Y04368D01*
X04423D01*
X04428Y04373D01*
Y04383D01*
X04423Y04388D01*
X04403D01*
X04398Y04383D01*
X04461Y04276D02*
X04456Y04271D01*
Y04261D01*
X04461Y04256D01*
X04466D01*
X04471Y04261D01*
Y04271D01*
X04476Y04276D01*
X04481D01*
X04486Y04271D01*
Y04261D01*
X04481Y04256D01*
X04456Y04286D02*
X04486D01*
X04476Y04296D01*
X04486Y04306D01*
X04456D01*
X04461Y04336D02*
X04456Y04331D01*
Y04321D01*
X04461Y04316D01*
X04481D01*
X04486Y04321D01*
Y04331D01*
X04481Y04336D01*
X04456Y04346D02*
X04486D01*
Y04366D01*
X04456Y04376D02*
X04486D01*
X04476D01*
X04456Y04396D01*
X04471Y04381D01*
X04486Y04396D01*
X02978Y0418D02*
X02973Y04185D01*
X02963D01*
X02958Y0418D01*
Y04175D01*
X02963Y0417D01*
X02973D01*
X02978Y04165D01*
Y0416D01*
X02973Y04155D01*
X02963D01*
X02958Y0416D01*
X03008Y0418D02*
X03003Y04185D01*
X02993D01*
X02988Y0418D01*
Y0416D01*
X02993Y04155D01*
X03003D01*
X03008Y0416D01*
X03018Y04185D02*
Y04155D01*
X03038D01*
X02961Y04279D02*
X02956Y04284D01*
X02946D01*
X02941Y04279D01*
Y04274D01*
X02946Y04269D01*
X02956D01*
X02961Y04264D01*
Y04259D01*
X02956Y04254D01*
X02946D01*
X02941Y04259D01*
X02971Y04284D02*
Y04254D01*
X02986D01*
X02991Y04259D01*
Y04279D01*
X02986Y04284D01*
X02971D01*
X03001Y04254D02*
Y04274D01*
X03011Y04284D01*
X03021Y04274D01*
Y04254D01*
Y04269D01*
X03001D01*
X05261Y03633D02*
X05291D01*
X05276D01*
Y03653D01*
X05261D01*
X05291D01*
X05266Y03683D02*
X05261Y03678D01*
Y03668D01*
X05266Y03663D01*
X05286D01*
X05291Y03668D01*
Y03678D01*
X05286Y03683D01*
X05276Y03693D02*
Y03713D01*
X05266Y03723D02*
X05261Y03728D01*
Y03738D01*
X05266Y03743D01*
X05286D01*
X05291Y03738D01*
Y03728D01*
X05286Y03723D01*
X05266D01*
X05261Y03773D02*
X05266Y03763D01*
X05276Y03753D01*
X05286D01*
X05291Y03758D01*
Y03768D01*
X05286Y03773D01*
X05281D01*
X05276Y03768D01*
Y03753D01*
X04542Y03129D02*
X04537Y03134D01*
Y03144D01*
X04542Y03149D01*
X04547D01*
X04552Y03144D01*
Y03139D01*
Y03144D01*
X04557Y03149D01*
X04562D01*
X04567Y03144D01*
Y03134D01*
X04562Y03129D01*
X04537Y03159D02*
X04557D01*
X04567Y03169D01*
X04557Y03179D01*
X04537D01*
X04542Y03189D02*
X04537Y03194D01*
Y03204D01*
X04542Y03209D01*
X04547D01*
X04552Y03204D01*
Y03199D01*
Y03204D01*
X04557Y03209D01*
X04562D01*
X04567Y03204D01*
Y03194D01*
X04562Y03189D01*
X04538Y03268D02*
X04568D01*
Y03283D01*
X04563Y03288D01*
X04558D01*
X04553Y03283D01*
Y03268D01*
Y03283D01*
X04548Y03288D01*
X04543D01*
X04538Y03283D01*
Y03268D01*
Y03313D02*
Y03303D01*
X04543Y03298D01*
X04563D01*
X04568Y03303D01*
Y03313D01*
X04563Y03318D01*
X04543D01*
X04538Y03313D01*
Y03343D02*
Y03333D01*
X04543Y03328D01*
X04563D01*
X04568Y03333D01*
Y03343D01*
X04563Y03348D01*
X04543D01*
X04538Y03343D01*
Y03358D02*
Y03378D01*
Y03368D01*
X04568D01*
Y03388D02*
Y03398D01*
Y03393D01*
X04538D01*
X04543Y03388D01*
X04537Y02931D02*
X04567D01*
Y02946D01*
X04562Y02951D01*
X04557D01*
X04552Y02946D01*
Y02931D01*
Y02946D01*
X04547Y02951D01*
X04542D01*
X04537Y02946D01*
Y02931D01*
Y02976D02*
Y02966D01*
X04542Y02961D01*
X04562D01*
X04567Y02966D01*
Y02976D01*
X04562Y02981D01*
X04542D01*
X04537Y02976D01*
Y03006D02*
Y02996D01*
X04542Y02991D01*
X04562D01*
X04567Y02996D01*
Y03006D01*
X04562Y03011D01*
X04542D01*
X04537Y03006D01*
Y03021D02*
Y03041D01*
Y03031D01*
X04567D01*
X04542Y03051D02*
X04537Y03056D01*
Y03066D01*
X04542Y03071D01*
X04562D01*
X04567Y03066D01*
Y03056D01*
X04562Y03051D01*
X04542D01*
X03515Y02515D02*
X0351Y0251D01*
Y025D01*
X03515Y02495D01*
X03535D01*
X0354Y025D01*
Y0251D01*
X03535Y02515D01*
X03525D01*
Y02505D01*
X0354Y02525D02*
X0351D01*
X0354Y02545D01*
X0351D01*
Y02555D02*
X0354D01*
Y0257D01*
X03535Y02575D01*
X03515D01*
X0351Y0257D01*
Y02555D01*
X03415Y02455D02*
X0341Y0245D01*
Y0244D01*
X03415Y02435D01*
X0342D01*
X03425Y0244D01*
Y0245D01*
X0343Y02455D01*
X03435D01*
X0344Y0245D01*
Y0244D01*
X03435Y02435D01*
X0341Y02465D02*
X0344D01*
X0343Y02475D01*
X0344Y02485D01*
X0341D01*
X03415Y02515D02*
X0341Y0251D01*
Y025D01*
X03415Y02495D01*
X03435D01*
X0344Y025D01*
Y0251D01*
X03435Y02515D01*
X0341Y02525D02*
X0344D01*
Y02545D01*
X0341Y02555D02*
X0344D01*
X0343D01*
X0341Y02575D01*
X03425Y0256D01*
X0344Y02575D01*
X033125Y02441D02*
X033075Y02436D01*
Y02426D01*
X033125Y02421D01*
X033175D01*
X033225Y02426D01*
Y02436D01*
X033275Y02441D01*
X033325D01*
X033375Y02436D01*
Y02426D01*
X033325Y02421D01*
X033075Y02451D02*
X033375D01*
X033275Y02461D01*
X033375Y02471D01*
X033075D01*
Y024809D02*
X033375D01*
Y024959D01*
X033325Y025009D01*
X033125D01*
X033075Y024959D01*
Y024809D01*
Y025109D02*
Y025209D01*
Y025159D01*
X033375D01*
Y025109D01*
Y025209D01*
X033075Y025509D02*
Y025409D01*
X033125Y025359D01*
X033325D01*
X033375Y025409D01*
Y025509D01*
X033325Y025559D01*
X033125D01*
X033075Y025509D01*
X02055Y02125D02*
Y02155D01*
X0207D01*
X02075Y0215D01*
Y0214D01*
X0207Y02135D01*
X02055D01*
X02085Y02155D02*
Y02125D01*
X02095Y02135D01*
X02105Y02125D01*
Y02155D01*
X02115Y02125D02*
Y02155D01*
X02125Y02145D01*
X02135Y02155D01*
Y02125D01*
X01908Y02155D02*
Y02125D01*
X01923D01*
X01928Y0213D01*
Y0215D01*
X01923Y02155D01*
X01908D01*
X01938D02*
X01948D01*
X01943D01*
Y02125D01*
X01938D01*
X01948D01*
X01963D02*
Y02155D01*
X01978D01*
X01983Y0215D01*
Y0214D01*
X01978Y02135D01*
X01963D01*
X01973D02*
X01983Y02125D01*
X01475D02*
Y02155D01*
X0149D01*
X01495Y0215D01*
Y0214D01*
X0149Y02135D01*
X01475D01*
X01505Y02155D02*
Y02125D01*
X01515Y02135D01*
X01525Y02125D01*
Y02155D01*
X01535Y02125D02*
Y02155D01*
X01545Y02145D01*
X01555Y02155D01*
Y02125D01*
X01328Y02155D02*
Y02125D01*
X01343D01*
X01348Y0213D01*
Y0215D01*
X01343Y02155D01*
X01328D01*
X01358D02*
X01368D01*
X01363D01*
Y02125D01*
X01358D01*
X01368D01*
X01383D02*
Y02155D01*
X01398D01*
X01403Y0215D01*
Y0214D01*
X01398Y02135D01*
X01383D01*
X01393D02*
X01403Y02125D01*
X03767Y03541D02*
X03762Y03546D01*
X03752D01*
X03747Y03541D01*
Y03521D01*
X03752Y03516D01*
X03762D01*
X03767Y03521D01*
Y03531D01*
X03757D01*
X03777Y03516D02*
Y03546D01*
X03797Y03516D01*
Y03546D01*
X03807D02*
Y03516D01*
X03822D01*
X03827Y03521D01*
Y03541D01*
X03822Y03546D01*
X03807D01*
X01264Y04257D02*
Y042437D01*
Y042503D01*
X01304D01*
X012973Y04257D01*
X01264Y04197D02*
Y042237D01*
X012907Y04197D01*
X012973D01*
X01304Y042037D01*
Y04217D01*
X012973Y042237D01*
X01304Y041837D02*
X012773D01*
X01264Y041704D01*
X012773Y04157D01*
X01304D01*
Y038533D02*
Y0388D01*
X01284D01*
X012907Y038667D01*
Y0386D01*
X01284Y038533D01*
X012707D01*
X01264Y0386D01*
Y038733D01*
X012707Y0388D01*
X01304Y0384D02*
X012773D01*
X01264Y038267D01*
X012773Y038134D01*
X01304D01*
X012973Y040613D02*
X01304Y04068D01*
Y040813D01*
X012973Y04088D01*
X012707D01*
X01264Y040813D01*
Y04068D01*
X012707Y040613D01*
X01284D01*
Y040747D01*
X01264Y04048D02*
X01304D01*
X01264Y040214D01*
X01304D01*
Y04008D02*
X01264D01*
Y03988D01*
X012707Y039814D01*
X012973D01*
X01304Y03988D01*
Y04008D01*
X012973Y037033D02*
X01304Y0371D01*
Y037233D01*
X012973Y0373D01*
X012707D01*
X01264Y037233D01*
Y0371D01*
X012707Y037033D01*
X01284D01*
Y037167D01*
X01264Y0369D02*
X01304D01*
X01264Y036634D01*
X01304D01*
Y0365D02*
X01264D01*
Y0363D01*
X012707Y036234D01*
X012973D01*
X01304Y0363D01*
Y0365D01*
X03531Y03517D02*
Y03547D01*
X03546D01*
X03551Y03542D01*
Y03532D01*
X03546Y03527D01*
X03531D01*
X03541D02*
X03551Y03517D01*
X03561Y03512D02*
X03581D01*
X03591Y03547D02*
Y03517D01*
X03606D01*
X03611Y03522D01*
Y03542D01*
X03606Y03547D01*
X03591D01*
X03621D02*
Y03542D01*
X03631Y03532D01*
X03641Y03542D01*
Y03547D01*
X03631Y03532D02*
Y03517D01*
X0341Y03546D02*
X0343D01*
X0342D01*
Y03516D01*
X0344Y03546D02*
X0346Y03516D01*
Y03546D02*
X0344Y03516D01*
X03665Y03517D02*
Y03547D01*
X0368D01*
X03685Y03542D01*
Y03532D01*
X0368Y03527D01*
X03665D01*
X03675D02*
X03685Y03517D01*
X03695Y03547D02*
X03715Y03517D01*
Y03547D02*
X03695Y03517D01*
X03219Y03232D02*
X03214Y03237D01*
X03204D01*
X03199Y03232D01*
Y03212D01*
X03204Y03207D01*
X03214D01*
X03219Y03212D01*
X03249Y03232D02*
X03244Y03237D01*
X03234D01*
X03229Y03232D01*
Y03227D01*
X03234Y03222D01*
X03244D01*
X03249Y03217D01*
Y03212D01*
X03244Y03207D01*
X03234D01*
X03229Y03212D01*
X03259Y03207D02*
Y03227D01*
X03274D01*
X03279Y03222D01*
Y03207D01*
X03221Y03134D02*
X03216Y03139D01*
X03206D01*
X03201Y03134D01*
Y03114D01*
X03206Y03109D01*
X03216D01*
X03221Y03114D01*
X03231Y03139D02*
Y03109D01*
X03251D01*
X03261Y03139D02*
Y03109D01*
Y03119D01*
X03281Y03139D01*
X03266Y03124D01*
X03281Y03109D01*
X03187Y03007D02*
Y03037D01*
X03197Y03027D01*
X03207Y03037D01*
Y03007D01*
X03232Y03037D02*
X03222D01*
X03217Y03032D01*
Y03012D01*
X03222Y03007D01*
X03232D01*
X03237Y03012D01*
Y03032D01*
X03232Y03037D01*
X03267Y03032D02*
X03262Y03037D01*
X03252D01*
X03247Y03032D01*
Y03027D01*
X03252Y03022D01*
X03262D01*
X03267Y03017D01*
Y03012D01*
X03262Y03007D01*
X03252D01*
X03247Y03012D01*
X03277Y03037D02*
X03287D01*
X03282D01*
Y03007D01*
X03277D01*
X03287D01*
X03184Y02904D02*
Y02934D01*
X03194Y02924D01*
X03204Y02934D01*
Y02904D01*
X03214Y02934D02*
X03224D01*
X03219D01*
Y02904D01*
X03214D01*
X03224D01*
X03259Y02929D02*
X03254Y02934D01*
X03244D01*
X03239Y02929D01*
Y02924D01*
X03244Y02919D01*
X03254D01*
X03259Y02914D01*
Y02909D01*
X03254Y02904D01*
X03244D01*
X03239Y02909D01*
X03284Y02934D02*
X03274D01*
X03269Y02929D01*
Y02909D01*
X03274Y02904D01*
X03284D01*
X03289Y02909D01*
Y02929D01*
X03284Y02934D01*
X03103Y02735D02*
X031297D01*
X02249Y02732D02*
X022757D01*
X01275Y03458D02*
Y03438D01*
X01285Y03448D02*
X01265D01*
X0129Y03398D02*
X0126D01*
Y033781D01*
X0129Y033481D02*
Y033681D01*
X0126D01*
Y033481D01*
X01275Y033681D02*
Y033581D01*
X0129Y033381D02*
X0126D01*
Y033231D01*
X01265Y033181D01*
X01285D01*
X0129Y033231D01*
Y033381D01*
X01275Y032781D02*
Y032581D01*
X030421Y022207D02*
X030154D01*
X030421Y022474D01*
Y022541D01*
X030354Y022607D01*
X030221D01*
X030154Y022541D01*
X029209Y022207D02*
X029343D01*
X029276D01*
Y022607D01*
X029209Y022541D01*
X029185Y024418D02*
X029052D01*
X028985Y024352D01*
Y024085D01*
X029052Y024018D01*
X029185D01*
X029252Y024085D01*
Y024352D01*
X029185Y024418D01*
X029385Y024018D02*
Y024418D01*
X029651Y024018D01*
Y024418D01*
X031154Y022541D02*
X031221Y022607D01*
X031354D01*
X031421Y022541D01*
Y022474D01*
X031354Y022407D01*
X031288D01*
X031354D01*
X031421Y022341D01*
Y022274D01*
X031354Y022207D01*
X031221D01*
X031154Y022274D01*
X026481Y022207D02*
X026214D01*
X026481Y022474D01*
Y022541D01*
X026414Y022607D01*
X026281D01*
X026214Y022541D01*
X025269Y022207D02*
X025403D01*
X025336D01*
Y022607D01*
X025269Y022541D01*
X025245Y024418D02*
X025112D01*
X025045Y024352D01*
Y024085D01*
X025112Y024018D01*
X025245D01*
X025312Y024085D01*
Y024352D01*
X025245Y024418D01*
X025445Y024018D02*
Y024418D01*
X025711Y024018D01*
Y024418D01*
X027214Y022541D02*
X027281Y022607D01*
X027414D01*
X027481Y022541D01*
Y022474D01*
X027414Y022407D01*
X027348D01*
X027414D01*
X027481Y022341D01*
Y022274D01*
X027414Y022207D01*
X027281D01*
X027214Y022274D01*
X04094Y028583D02*
X040607Y028917D01*
X04094D02*
X040607Y028583D01*
X04094Y02875D02*
X040607D01*
X040773Y028917D02*
Y028583D01*
X019028Y043843D02*
X018762Y043577D01*
Y043843D02*
X019028Y043577D01*
X018895Y043843D02*
Y043577D01*
X018762Y04371D02*
X019028D01*
X04756Y036947D02*
Y037214D01*
X047427Y037081D02*
X047693D01*
X05321Y041468D02*
X052943Y041734D01*
X05321D02*
X052943Y041468D01*
X05321Y041601D02*
X052943D01*
X053077Y041734D02*
Y041468D01*
X02527Y033607D02*
X02487D01*
Y033807D01*
X024937Y033873D01*
X02507D01*
X025137Y033807D01*
Y033607D01*
X02487Y034007D02*
Y03414D01*
Y034073D01*
X02527D01*
Y034007D01*
Y03414D01*
X02487Y034606D02*
Y03434D01*
X02507D01*
Y034473D01*
Y03434D01*
X02527D01*
X05008Y017585D02*
X04968D01*
X049813Y017718D01*
X04968Y017852D01*
X05008D01*
X04968Y018251D02*
X049747Y018118D01*
X04988Y017985D01*
X050013D01*
X05008Y018052D01*
Y018185D01*
X050013Y018251D01*
X049947D01*
X04988Y018185D01*
Y017985D01*
X02258Y02117D02*
Y02157D01*
X02278D01*
X022847Y021503D01*
Y02137D01*
X02278Y021303D01*
X02258D01*
X02298Y02117D02*
X023113D01*
X023047D01*
Y02157D01*
X02298Y021503D01*
X023313D02*
X02338Y02157D01*
X023513D01*
X02358Y021503D01*
Y021237D01*
X023513Y02117D01*
X02338D01*
X023313Y021237D01*
Y021503D01*
X04762Y02794D02*
X04722D01*
X047353Y028074D01*
X04722Y028207D01*
X04762D01*
Y02854D02*
X04722D01*
X04742Y02834D01*
Y028607D01*
X01323Y02497D02*
Y02537D01*
X01343D01*
X013497Y025303D01*
Y02517D01*
X01343Y025103D01*
X01323D01*
X01363Y02497D02*
X013763D01*
X013697D01*
Y02537D01*
X01363Y025303D01*
X013963Y02537D02*
X01423D01*
Y025303D01*
X013963Y025036D01*
Y02497D01*
X03661Y03273D02*
Y032397D01*
X036677Y03233D01*
X03681D01*
X036877Y032397D01*
Y03273D01*
X03701Y032663D02*
X037077Y03273D01*
X03721D01*
X037276Y032663D01*
Y032597D01*
X03721Y03253D01*
X037143D01*
X03721D01*
X037276Y032463D01*
Y032397D01*
X03721Y03233D01*
X037077D01*
X03701Y032397D01*
X052987Y04252D02*
X05332D01*
X053387Y042587D01*
Y04272D01*
X05332Y042787D01*
X052987D01*
X053387Y04292D02*
Y043053D01*
Y042987D01*
X052987D01*
X053054Y04292D01*
X032667Y045513D02*
X0326Y04558D01*
X032467D01*
X0324Y045513D01*
Y045447D01*
X032467Y04538D01*
X0326D01*
X032667Y045313D01*
Y045247D01*
X0326Y04518D01*
X032467D01*
X0324Y045247D01*
X0328Y04558D02*
X033066D01*
Y045513D01*
X0328Y045247D01*
Y04518D01*
X031007Y041353D02*
X03094Y04142D01*
X030807D01*
X03074Y041353D01*
Y041287D01*
X030807Y04122D01*
X03094D01*
X031007Y041153D01*
Y041087D01*
X03094Y04102D01*
X030807D01*
X03074Y041087D01*
X031406Y04142D02*
X031273Y041353D01*
X03114Y04122D01*
Y041087D01*
X031207Y04102D01*
X03134D01*
X031406Y041087D01*
Y041153D01*
X03134Y04122D01*
X03114D01*
X025347Y025793D02*
X02528Y02586D01*
X025147D01*
X02508Y025793D01*
Y025727D01*
X025147Y02566D01*
X02528D01*
X025347Y025593D01*
Y025527D01*
X02528Y02546D01*
X025147D01*
X02508Y025527D01*
X025746Y02586D02*
X02548D01*
Y02566D01*
X025613Y025727D01*
X02568D01*
X025746Y02566D01*
Y025527D01*
X02568Y02546D01*
X025547D01*
X02548Y025527D01*
X029387Y025783D02*
X02932Y02585D01*
X029187D01*
X02912Y025783D01*
Y025717D01*
X029187Y02565D01*
X02932D01*
X029387Y025583D01*
Y025517D01*
X02932Y02545D01*
X029187D01*
X02912Y025517D01*
X02972Y02545D02*
Y02585D01*
X02952Y02565D01*
X029786D01*
X031057Y045513D02*
X03099Y04558D01*
X030857D01*
X03079Y045513D01*
Y045447D01*
X030857Y04538D01*
X03099D01*
X031057Y045313D01*
Y045247D01*
X03099Y04518D01*
X030857D01*
X03079Y045247D01*
X03119Y045513D02*
X031257Y04558D01*
X03139D01*
X031456Y045513D01*
Y045447D01*
X03139Y04538D01*
X031323D01*
X03139D01*
X031456Y045313D01*
Y045247D01*
X03139Y04518D01*
X031257D01*
X03119Y045247D01*
X032647Y041353D02*
X03258Y04142D01*
X032447D01*
X03238Y041353D01*
Y041287D01*
X032447Y04122D01*
X03258D01*
X032647Y041153D01*
Y041087D01*
X03258Y04102D01*
X032447D01*
X03238Y041087D01*
X033046Y04102D02*
X03278D01*
X033046Y041287D01*
Y041353D01*
X03298Y04142D01*
X032847D01*
X03278Y041353D01*
X031507Y03463D02*
X03144Y034697D01*
X031307D01*
X03124Y03463D01*
Y034563D01*
X031307Y034497D01*
X03144D01*
X031507Y03443D01*
Y034364D01*
X03144Y034297D01*
X031307D01*
X03124Y034364D01*
X03164Y034297D02*
X031773D01*
X031707D01*
Y034697D01*
X03164Y03463D01*
X0374Y0392D02*
X037D01*
Y0394D01*
X037067Y039466D01*
X0372D01*
X037267Y0394D01*
Y0392D01*
Y039333D02*
X0374Y039466D01*
Y039799D02*
X037D01*
X0372Y0396D01*
Y039866D01*
X037067Y039999D02*
X037Y040066D01*
Y040199D01*
X037067Y040266D01*
X037333D01*
X0374Y040199D01*
Y040066D01*
X037333Y039999D01*
X037067D01*
X03397Y0439D02*
Y0443D01*
X03417D01*
X034237Y044233D01*
Y0441D01*
X03417Y044033D01*
X03397D01*
X034103D02*
X034237Y0439D01*
X03437Y044233D02*
X034437Y0443D01*
X03457D01*
X034636Y044233D01*
Y044167D01*
X03457Y0441D01*
X034503D01*
X03457D01*
X034636Y044033D01*
Y043967D01*
X03457Y0439D01*
X034437D01*
X03437Y043967D01*
X03477D02*
X034836Y0439D01*
X03497D01*
X035036Y043967D01*
Y044233D01*
X03497Y0443D01*
X034836D01*
X03477Y044233D01*
Y044167D01*
X034836Y0441D01*
X035036D01*
X03655Y03976D02*
X03615D01*
Y03996D01*
X036217Y040027D01*
X03635D01*
X036417Y03996D01*
Y03976D01*
Y039893D02*
X03655Y040027D01*
X036217Y04016D02*
X03615Y040227D01*
Y04036D01*
X036217Y040427D01*
X036283D01*
X03635Y04036D01*
Y040293D01*
Y04036D01*
X036417Y040427D01*
X036483D01*
X03655Y04036D01*
Y040227D01*
X036483Y04016D01*
X036217Y04056D02*
X03615Y040627D01*
Y04076D01*
X036217Y040826D01*
X036283D01*
X03635Y04076D01*
X036417Y040826D01*
X036483D01*
X03655Y04076D01*
Y040627D01*
X036483Y04056D01*
X036417D01*
X03635Y040627D01*
X036283Y04056D01*
X036217D01*
X03635Y040627D02*
Y04076D01*
X03738Y04265D02*
X03698D01*
Y04285D01*
X037047Y042917D01*
X03718D01*
X037247Y04285D01*
Y04265D01*
Y042783D02*
X03738Y042917D01*
X037047Y04305D02*
X03698Y043117D01*
Y04325D01*
X037047Y043316D01*
X037113D01*
X03718Y04325D01*
Y043183D01*
Y04325D01*
X037247Y043316D01*
X037313D01*
X03738Y04325D01*
Y043117D01*
X037313Y04305D01*
X03698Y04345D02*
Y043716D01*
X037047D01*
X037313Y04345D01*
X03738D01*
X05084Y04041D02*
X05054D01*
Y04056D01*
X05059Y04061D01*
X05069D01*
X05074Y04056D01*
Y04041D01*
Y04051D02*
X05084Y04061D01*
X05059Y04071D02*
X05054Y04076D01*
Y04086D01*
X05059Y04091D01*
X05064D01*
X05069Y04086D01*
Y04081D01*
Y04086D01*
X05074Y04091D01*
X05079D01*
X05084Y04086D01*
Y04076D01*
X05079Y04071D01*
X05059Y04101D02*
X05054Y04106D01*
Y04116D01*
X05059Y04121D01*
X05079D01*
X05084Y04116D01*
Y04106D01*
X05079Y04101D01*
X05059D01*
X01825Y02996D02*
X01785D01*
Y03016D01*
X017917Y030227D01*
X01805D01*
X018117Y03016D01*
Y02996D01*
Y030093D02*
X01825Y030227D01*
Y030626D02*
Y03036D01*
X017983Y030626D01*
X017917D01*
X01785Y03056D01*
Y030427D01*
X017917Y03036D01*
X018183Y03076D02*
X01825Y030826D01*
Y03096D01*
X018183Y031026D01*
X017917D01*
X01785Y03096D01*
Y030826D01*
X017917Y03076D01*
X017983D01*
X01805Y030826D01*
Y031026D01*
X049623Y038506D02*
X049223D01*
Y038706D01*
X04929Y038772D01*
X049423D01*
X04949Y038706D01*
Y038506D01*
Y038639D02*
X049623Y038772D01*
Y039172D02*
Y038905D01*
X049357Y039172D01*
X04929D01*
X049223Y039105D01*
Y038972D01*
X04929Y038905D01*
Y039305D02*
X049223Y039372D01*
Y039505D01*
X04929Y039572D01*
X049357D01*
X049423Y039505D01*
X04949Y039572D01*
X049556D01*
X049623Y039505D01*
Y039372D01*
X049556Y039305D01*
X04949D01*
X049423Y039372D01*
X049357Y039305D01*
X04929D01*
X049423Y039372D02*
Y039505D01*
X01898Y02904D02*
Y02944D01*
X01918D01*
X019247Y029373D01*
Y02924D01*
X01918Y029173D01*
X01898D01*
X019113D02*
X019247Y02904D01*
X019646D02*
X01938D01*
X019646Y029307D01*
Y029373D01*
X01958Y02944D01*
X019447D01*
X01938Y029373D01*
X01978Y02944D02*
X020046D01*
Y029373D01*
X01978Y029107D01*
Y02904D01*
X01872Y03315D02*
Y03355D01*
X01892D01*
X018987Y033483D01*
Y03335D01*
X01892Y033283D01*
X01872D01*
X018853D02*
X018987Y03315D01*
X019386D02*
X01912D01*
X019386Y033417D01*
Y033483D01*
X01932Y03355D01*
X019187D01*
X01912Y033483D01*
X019786Y03355D02*
X019653Y033483D01*
X01952Y03335D01*
Y033217D01*
X019586Y03315D01*
X01972D01*
X019786Y033217D01*
Y033283D01*
X01972Y03335D01*
X01952D01*
X02678Y03001D02*
X02638D01*
Y03021D01*
X026447Y030277D01*
X02658D01*
X026647Y03021D01*
Y03001D01*
Y030143D02*
X02678Y030277D01*
Y030676D02*
Y03041D01*
X026513Y030676D01*
X026447D01*
X02638Y03061D01*
Y030477D01*
X026447Y03041D01*
X02678Y03101D02*
X02638D01*
X02658Y03081D01*
Y031076D01*
X02693Y02905D02*
Y02945D01*
X02713D01*
X027197Y029383D01*
Y02925D01*
X02713Y029183D01*
X02693D01*
X027063D02*
X027197Y02905D01*
X027596D02*
X02733D01*
X027596Y029317D01*
Y029383D01*
X02753Y02945D01*
X027397D01*
X02733Y029383D01*
X02773D02*
X027796Y02945D01*
X02793D01*
X027996Y029383D01*
Y029317D01*
X02793Y02925D01*
X027863D01*
X02793D01*
X027996Y029183D01*
Y029117D01*
X02793Y02905D01*
X027796D01*
X02773Y029117D01*
X02727Y03315D02*
Y03355D01*
X02747D01*
X027537Y033483D01*
Y03335D01*
X02747Y033283D01*
X02727D01*
X027403D02*
X027537Y03315D01*
X027936D02*
X02767D01*
X027936Y033417D01*
Y033483D01*
X02787Y03355D01*
X027737D01*
X02767Y033483D01*
X02807Y03315D02*
X028203D01*
X028136D01*
Y03355D01*
X02807Y033483D01*
X0374Y04121D02*
X037D01*
Y04141D01*
X037067Y041477D01*
X0372D01*
X037267Y04141D01*
Y04121D01*
Y041343D02*
X0374Y041477D01*
Y041877D02*
Y04161D01*
X037133Y041877D01*
X037067D01*
X037Y04181D01*
Y041677D01*
X037067Y04161D01*
Y04201D02*
X037Y042077D01*
Y04221D01*
X037067Y042276D01*
X037333D01*
X0374Y04221D01*
Y042077D01*
X037333Y04201D01*
X037067D01*
X03835Y0406D02*
Y0409D01*
X0385D01*
X03855Y04085D01*
Y04075D01*
X0385Y0407D01*
X03835D01*
X03845D02*
X03855Y0406D01*
X03865D02*
X03875D01*
X0387D01*
Y0409D01*
X03865Y04085D01*
X0389Y04065D02*
X03895Y0406D01*
X03905D01*
X0391Y04065D01*
Y04085D01*
X03905Y0409D01*
X03895D01*
X0389Y04085D01*
Y0408D01*
X03895Y04075D01*
X0391D01*
X03969Y03978D02*
X03929D01*
Y03998D01*
X039357Y040047D01*
X03949D01*
X039557Y03998D01*
Y03978D01*
Y039913D02*
X03969Y040047D01*
Y04018D02*
Y040313D01*
Y040247D01*
X03929D01*
X039357Y04018D01*
Y040513D02*
X03929Y04058D01*
Y040713D01*
X039357Y04078D01*
X039423D01*
X03949Y040713D01*
X039557Y04078D01*
X039623D01*
X03969Y040713D01*
Y04058D01*
X039623Y040513D01*
X039557D01*
X03949Y04058D01*
X039423Y040513D01*
X039357D01*
X03949Y04058D02*
Y040713D01*
X04048Y0398D02*
X04008D01*
Y04D01*
X040147Y040067D01*
X04028D01*
X040347Y04D01*
Y0398D01*
Y039933D02*
X04048Y040067D01*
Y0402D02*
Y040333D01*
Y040267D01*
X04008D01*
X040147Y0402D01*
X04008Y040533D02*
Y0408D01*
X040147D01*
X040413Y040533D01*
X04048D01*
X02869Y04518D02*
Y04558D01*
X02889D01*
X028957Y045513D01*
Y04538D01*
X02889Y045313D01*
X02869D01*
X028823D02*
X028957Y04518D01*
X02909D02*
X029223D01*
X029157D01*
Y04558D01*
X02909Y045513D01*
X02969Y04558D02*
X029556Y045513D01*
X029423Y04538D01*
Y045247D01*
X02949Y04518D01*
X029623D01*
X02969Y045247D01*
Y045313D01*
X029623Y04538D01*
X029423D01*
X04222Y04044D02*
Y04084D01*
X04242D01*
X042487Y040773D01*
Y04064D01*
X04242Y040573D01*
X04222D01*
X042353D02*
X042487Y04044D01*
X04262D02*
X042753D01*
X042687D01*
Y04084D01*
X04262Y040773D01*
X04322Y04084D02*
X042953D01*
Y04064D01*
X043086Y040707D01*
X043153D01*
X04322Y04064D01*
Y040507D01*
X043153Y04044D01*
X04302D01*
X042953Y040507D01*
X04289Y04346D02*
X04259D01*
Y04361D01*
X04264Y04366D01*
X04274D01*
X04279Y04361D01*
Y04346D01*
Y04356D02*
X04289Y04366D01*
Y04376D02*
Y04386D01*
Y04381D01*
X04259D01*
X04264Y04376D01*
Y04401D02*
X04259Y04406D01*
Y04416D01*
X04264Y04421D01*
X04269D01*
X04274Y04416D01*
Y04411D01*
Y04416D01*
X04279Y04421D01*
X04284D01*
X04289Y04416D01*
Y04406D01*
X04284Y04401D01*
X04404Y040697D02*
X04364D01*
Y040897D01*
X043707Y040964D01*
X04384D01*
X043907Y040897D01*
Y040697D01*
Y040831D02*
X04404Y040964D01*
Y041097D02*
Y04123D01*
Y041164D01*
X04364D01*
X043707Y041097D01*
X04404Y041697D02*
Y04143D01*
X043773Y041697D01*
X043707D01*
X04364Y04163D01*
Y041497D01*
X043707Y04143D01*
X04367Y0269D02*
Y0273D01*
X04387D01*
X043937Y027233D01*
Y0271D01*
X04387Y027033D01*
X04367D01*
X043803D02*
X043937Y0269D01*
X04407D02*
X044203D01*
X044137D01*
Y0273D01*
X04407Y027233D01*
X044403D02*
X04447Y0273D01*
X044603D01*
X04467Y027233D01*
Y026967D01*
X044603Y0269D01*
X04447D01*
X044403Y026967D01*
Y027233D01*
X03218Y03647D02*
X03188D01*
Y03662D01*
X03193Y03667D01*
X03203D01*
X03208Y03662D01*
Y03647D01*
Y03657D02*
X03218Y03667D01*
X03188Y03697D02*
X03193Y03687D01*
X03203Y03677D01*
X03213D01*
X03218Y03682D01*
Y03692D01*
X03213Y03697D01*
X03208D01*
X03203Y03692D01*
Y03677D01*
X03216Y03527D02*
X03186D01*
Y03542D01*
X03191Y03547D01*
X03201D01*
X03206Y03542D01*
Y03527D01*
Y03537D02*
X03216Y03547D01*
X03186Y03577D02*
Y03557D01*
X03201D01*
X03196Y03567D01*
Y03572D01*
X03201Y03577D01*
X03211D01*
X03216Y03572D01*
Y03562D01*
X03211Y03557D01*
X0325Y021205D02*
Y021605D01*
X0327D01*
X032767Y021538D01*
Y021405D01*
X0327Y021338D01*
X0325D01*
X0329Y021538D02*
X032967Y021605D01*
X0331D01*
X033166Y021538D01*
Y021471D01*
X0331Y021405D01*
X033033D01*
X0331D01*
X033166Y021338D01*
Y021271D01*
X0331Y021205D01*
X032967D01*
X0329Y021271D01*
X0333Y021538D02*
X033366Y021605D01*
X0335D01*
X033566Y021538D01*
Y021471D01*
X0335Y021405D01*
X033433D01*
X0335D01*
X033566Y021338D01*
Y021271D01*
X0335Y021205D01*
X033366D01*
X0333Y021271D01*
X0361Y021205D02*
Y021605D01*
X0363D01*
X036367Y021538D01*
Y021405D01*
X0363Y021338D01*
X0361D01*
X0365Y021538D02*
X036567Y021605D01*
X0367D01*
X036766Y021538D01*
Y021471D01*
X0367Y021405D01*
X036633D01*
X0367D01*
X036766Y021338D01*
Y021271D01*
X0367Y021205D01*
X036567D01*
X0365Y021271D01*
X037166Y021205D02*
X0369D01*
X037166Y021471D01*
Y021538D01*
X0371Y021605D01*
X036966D01*
X0369Y021538D01*
X0426Y0199D02*
X0422D01*
Y0201D01*
X042267Y020167D01*
X0424D01*
X042467Y0201D01*
Y0199D01*
X042267Y0203D02*
X0422Y020367D01*
Y0205D01*
X042267Y020566D01*
X042333D01*
X0424Y0205D01*
Y020433D01*
Y0205D01*
X042467Y020566D01*
X042533D01*
X0426Y0205D01*
Y020367D01*
X042533Y0203D01*
X0426Y0207D02*
Y020833D01*
Y020766D01*
X0422D01*
X042267Y0207D01*
X02771Y03928D02*
X02731D01*
Y03948D01*
X027377Y039546D01*
X02751D01*
X027577Y03948D01*
Y03928D01*
X027377Y03968D02*
X02731Y039746D01*
Y039879D01*
X027377Y039946D01*
X027443D01*
X02751Y039879D01*
Y039813D01*
Y039879D01*
X027577Y039946D01*
X027643D01*
X02771Y039879D01*
Y039746D01*
X027643Y03968D01*
X027377Y040079D02*
X02731Y040146D01*
Y040279D01*
X027377Y040346D01*
X027643D01*
X02771Y040279D01*
Y040146D01*
X027643Y040079D01*
X027377D01*
X01735Y04203D02*
X01775D01*
Y04183D01*
X017683Y041763D01*
X01755D01*
X017483Y04183D01*
Y04203D01*
X01735Y041364D02*
Y04163D01*
X017617Y041364D01*
X017683D01*
X01775Y04143D01*
Y041563D01*
X017683Y04163D01*
X017417Y04123D02*
X01735Y041164D01*
Y04103D01*
X017417Y040964D01*
X017683D01*
X01775Y04103D01*
Y041164D01*
X017683Y04123D01*
X017617D01*
X01755Y041164D01*
Y040964D01*
X046658Y02694D02*
X046258D01*
Y02714D01*
X046324Y027207D01*
X046458D01*
X046524Y02714D01*
Y02694D01*
X046658Y027606D02*
Y02734D01*
X046391Y027606D01*
X046324D01*
X046258Y02754D01*
Y027407D01*
X046324Y02734D01*
Y02774D02*
X046258Y027806D01*
Y02794D01*
X046324Y028006D01*
X046391D01*
X046458Y02794D01*
X046524Y028006D01*
X046591D01*
X046658Y02794D01*
Y027806D01*
X046591Y02774D01*
X046524D01*
X046458Y027806D01*
X046391Y02774D01*
X046324D01*
X046458Y027806D02*
Y02794D01*
X05194Y01854D02*
Y01894D01*
X05214D01*
X052207Y018873D01*
Y01874D01*
X05214Y018673D01*
X05194D01*
X052606Y01854D02*
X05234D01*
X052606Y018807D01*
Y018873D01*
X05254Y01894D01*
X052407D01*
X05234Y018873D01*
X05274Y01894D02*
X053006D01*
Y018873D01*
X05274Y018607D01*
Y01854D01*
X01732Y03815D02*
X01772D01*
Y03795D01*
X017653Y037883D01*
X01752D01*
X017453Y03795D01*
Y03815D01*
X01732Y037484D02*
Y03775D01*
X017587Y037484D01*
X017653D01*
X01772Y03755D01*
Y037683D01*
X017653Y03775D01*
X01772Y037084D02*
X017653Y037217D01*
X01752Y03735D01*
X017387D01*
X01732Y037284D01*
Y03715D01*
X017387Y037084D01*
X017453D01*
X01752Y03715D01*
Y03735D01*
X03415Y03412D02*
X03385D01*
Y03427D01*
X0339Y03432D01*
X034D01*
X03405Y03427D01*
Y03412D01*
X03415Y03462D02*
Y03442D01*
X03395Y03462D01*
X0339D01*
X03385Y03457D01*
Y03447D01*
X0339Y03442D01*
X03385Y03492D02*
Y03472D01*
X034D01*
X03395Y03482D01*
Y03487D01*
X034Y03492D01*
X0341D01*
X03415Y03487D01*
Y03477D01*
X0341Y03472D01*
X02981Y04313D02*
X02941D01*
Y04333D01*
X029477Y043397D01*
X02961D01*
X029677Y04333D01*
Y04313D01*
X02981Y043796D02*
Y04353D01*
X029543Y043796D01*
X029477D01*
X02941Y04373D01*
Y043597D01*
X029477Y04353D01*
X02981Y04413D02*
X02941D01*
X02961Y04393D01*
Y044196D01*
X02163Y04373D02*
Y04413D01*
X02183D01*
X021897Y044063D01*
Y04393D01*
X02183Y043863D01*
X02163D01*
X022297Y04373D02*
X02203D01*
X022297Y043997D01*
Y044063D01*
X02223Y04413D01*
X022097D01*
X02203Y044063D01*
X02243D02*
X022497Y04413D01*
X02263D01*
X022697Y044063D01*
Y043997D01*
X02263Y04393D01*
X022563D01*
X02263D01*
X022697Y043863D01*
Y043797D01*
X02263Y04373D01*
X022497D01*
X02243Y043797D01*
X03249Y03288D02*
X03219D01*
Y03303D01*
X03224Y03308D01*
X03234D01*
X03239Y03303D01*
Y03288D01*
X03249Y03338D02*
Y03318D01*
X03229Y03338D01*
X03224D01*
X03219Y03333D01*
Y03323D01*
X03224Y03318D01*
X03249Y03368D02*
Y03348D01*
X03229Y03368D01*
X03224D01*
X03219Y03363D01*
Y03353D01*
X03224Y03348D01*
X0447Y0452D02*
Y0456D01*
X0449D01*
X044967Y045533D01*
Y0454D01*
X0449Y045333D01*
X0447D01*
X045366Y0452D02*
X0451D01*
X045366Y045467D01*
Y045533D01*
X0453Y0456D01*
X045167D01*
X0451Y045533D01*
X0455Y0452D02*
X045633D01*
X045566D01*
Y0456D01*
X0455Y045533D01*
X02908Y03663D02*
Y03703D01*
X02928D01*
X029347Y036963D01*
Y03683D01*
X02928Y036763D01*
X02908D01*
X029746Y03663D02*
X02948D01*
X029746Y036897D01*
Y036963D01*
X02968Y03703D01*
X029547D01*
X02948Y036963D01*
X02988D02*
X029946Y03703D01*
X03008D01*
X030146Y036963D01*
Y036697D01*
X03008Y03663D01*
X029946D01*
X02988Y036697D01*
Y036963D01*
X01743Y02499D02*
Y02539D01*
X01763D01*
X017697Y025323D01*
Y02519D01*
X01763Y025123D01*
X01743D01*
X01783Y02499D02*
X017963D01*
X017897D01*
Y02539D01*
X01783Y025323D01*
X018163Y025057D02*
X01823Y02499D01*
X018363D01*
X01843Y025057D01*
Y025323D01*
X018363Y02539D01*
X01823D01*
X018163Y025323D01*
Y025257D01*
X01823Y02519D01*
X01843D01*
X01608Y02499D02*
Y02539D01*
X01628D01*
X016347Y025323D01*
Y02519D01*
X01628Y025123D01*
X01608D01*
X01648Y02499D02*
X016613D01*
X016547D01*
Y02539D01*
X01648Y025323D01*
X016813D02*
X01688Y02539D01*
X017013D01*
X01708Y025323D01*
Y025257D01*
X017013Y02519D01*
X01708Y025123D01*
Y025057D01*
X017013Y02499D01*
X01688D01*
X016813Y025057D01*
Y025123D01*
X01688Y02519D01*
X016813Y025257D01*
Y025323D01*
X01688Y02519D02*
X017013D01*
X01466Y02498D02*
Y02538D01*
X01486D01*
X014927Y025313D01*
Y02518D01*
X01486Y025113D01*
X01466D01*
X01506Y02498D02*
X015193D01*
X015127D01*
Y02538D01*
X01506Y025313D01*
X01566Y02538D02*
X015526Y025313D01*
X015393Y02518D01*
Y025047D01*
X01546Y02498D01*
X015593D01*
X01566Y025047D01*
Y025113D01*
X015593Y02518D01*
X015393D01*
X023302Y02499D02*
Y02539D01*
X023502D01*
X023569Y025323D01*
Y02519D01*
X023502Y025123D01*
X023302D01*
X023702Y02499D02*
X023836D01*
X023769D01*
Y02539D01*
X023702Y025323D01*
X024302Y02539D02*
X024036D01*
Y02519D01*
X024169Y025257D01*
X024235D01*
X024302Y02519D01*
Y025057D01*
X024235Y02499D01*
X024102D01*
X024036Y025057D01*
X02187Y02498D02*
Y02538D01*
X02207D01*
X022137Y025313D01*
Y02518D01*
X02207Y025113D01*
X02187D01*
X02227Y02498D02*
X022403D01*
X022337D01*
Y02538D01*
X02227Y025313D01*
X022803Y02498D02*
Y02538D01*
X022603Y02518D01*
X02287D01*
X0189Y02499D02*
Y02539D01*
X0191D01*
X019167Y025323D01*
Y02519D01*
X0191Y025123D01*
X0189D01*
X0193Y02499D02*
X019433D01*
X019367D01*
Y02539D01*
X0193Y025323D01*
X019633D02*
X0197Y02539D01*
X019833D01*
X0199Y025323D01*
Y025257D01*
X019833Y02519D01*
X019766D01*
X019833D01*
X0199Y025123D01*
Y025057D01*
X019833Y02499D01*
X0197D01*
X019633Y025057D01*
X02042Y02499D02*
Y02539D01*
X02062D01*
X020687Y025323D01*
Y02519D01*
X02062Y025123D01*
X02042D01*
X02082Y02499D02*
X020953D01*
X020887D01*
Y02539D01*
X02082Y025323D01*
X02142Y02499D02*
X021153D01*
X02142Y025257D01*
Y025323D01*
X021353Y02539D01*
X02122D01*
X021153Y025323D01*
X01689Y02118D02*
Y02158D01*
X01709D01*
X017157Y021513D01*
Y02138D01*
X01709Y021313D01*
X01689D01*
X01729Y02118D02*
X017423D01*
X017357D01*
Y02158D01*
X01729Y021513D01*
X017623Y02118D02*
X017756D01*
X01769D01*
Y02158D01*
X017623Y021513D01*
X0326Y0276D02*
X0322D01*
Y0278D01*
X032267Y027867D01*
X0324D01*
X032467Y0278D01*
Y0276D01*
X032533Y028D02*
X0326Y028067D01*
Y0282D01*
X032533Y028266D01*
X032267D01*
X0322Y0282D01*
Y028067D01*
X032267Y028D01*
X032333D01*
X0324Y028067D01*
Y028266D01*
X01407Y03508D02*
Y03548D01*
X01427D01*
X014337Y035413D01*
Y03528D01*
X01427Y035213D01*
X01407D01*
X01447Y035413D02*
X014537Y03548D01*
X01467D01*
X014736Y035413D01*
Y035347D01*
X01467Y03528D01*
X014736Y035213D01*
Y035147D01*
X01467Y03508D01*
X014537D01*
X01447Y035147D01*
Y035213D01*
X014537Y03528D01*
X01447Y035347D01*
Y035413D01*
X014537Y03528D02*
X01467D01*
X01563Y03508D02*
Y03548D01*
X01583D01*
X015897Y035413D01*
Y03528D01*
X01583Y035213D01*
X01563D01*
X01603Y03548D02*
X016296D01*
Y035413D01*
X01603Y035147D01*
Y03508D01*
X04449D02*
Y03548D01*
X04469D01*
X044757Y035413D01*
Y03528D01*
X04469Y035213D01*
X04449D01*
X045156Y03548D02*
X045023Y035413D01*
X04489Y03528D01*
Y035147D01*
X044957Y03508D01*
X04509D01*
X045156Y035147D01*
Y035213D01*
X04509Y03528D01*
X04489D01*
X044Y029034D02*
X0436D01*
Y029234D01*
X043667Y029301D01*
X0438D01*
X043867Y029234D01*
Y029034D01*
X0436Y029701D02*
Y029434D01*
X0438D01*
X043733Y029568D01*
Y029634D01*
X0438Y029701D01*
X043933D01*
X044Y029634D01*
Y029501D01*
X043933Y029434D01*
X0326Y026199D02*
X0322D01*
Y026399D01*
X032267Y026466D01*
X0324D01*
X032467Y026399D01*
Y026199D01*
X0326Y026799D02*
X0322D01*
X0324Y026599D01*
Y026866D01*
X02876Y04027D02*
X02836D01*
Y04047D01*
X028427Y040537D01*
X02856D01*
X028627Y04047D01*
Y04027D01*
X028427Y04067D02*
X02836Y040737D01*
Y04087D01*
X028427Y040936D01*
X028493D01*
X02856Y04087D01*
Y040803D01*
Y04087D01*
X028627Y040936D01*
X028693D01*
X02876Y04087D01*
Y040737D01*
X028693Y04067D01*
X04144Y0204D02*
X04104D01*
Y0206D01*
X041107Y020667D01*
X04124D01*
X041307Y0206D01*
Y0204D01*
X04144Y021066D02*
Y0208D01*
X041173Y021066D01*
X041107D01*
X04104Y021D01*
Y020867D01*
X041107Y0208D01*
X05241Y03683D02*
X05211D01*
Y03698D01*
X05216Y03703D01*
X05226D01*
X05231Y03698D01*
Y03683D01*
X05241Y03713D02*
Y03723D01*
Y03718D01*
X05211D01*
X05216Y03713D01*
X038847Y03696D02*
Y03736D01*
X03898Y037227D01*
X039113Y03736D01*
Y03696D01*
X039247D02*
X03938D01*
X039313D01*
Y03736D01*
X039247Y037293D01*
X03958D02*
X039647Y03736D01*
X03978D01*
X039847Y037293D01*
Y037027D01*
X03978Y03696D01*
X039647D01*
X03958Y037027D01*
Y037293D01*
X01701Y03248D02*
Y03288D01*
X017144Y032747D01*
X017277Y03288D01*
Y03248D01*
X01741Y032547D02*
X017477Y03248D01*
X01761D01*
X017677Y032547D01*
Y032813D01*
X01761Y03288D01*
X017477D01*
X01741Y032813D01*
Y032747D01*
X017477Y03268D01*
X017677D01*
X030779Y03243D02*
Y03283D01*
X030912Y032697D01*
X031045Y03283D01*
Y03243D01*
X031179Y032763D02*
X031245Y03283D01*
X031379D01*
X031445Y032763D01*
Y032697D01*
X031379Y03263D01*
X031445Y032563D01*
Y032497D01*
X031379Y03243D01*
X031245D01*
X031179Y032497D01*
Y032563D01*
X031245Y03263D01*
X031179Y032697D01*
Y032763D01*
X031245Y03263D02*
X031379D01*
X0457Y0359D02*
X0453D01*
X045433Y036033D01*
X0453Y036167D01*
X0457D01*
X0453Y036566D02*
Y0363D01*
X0455D01*
X045433Y036433D01*
Y0365D01*
X0455Y036566D01*
X045633D01*
X0457Y0365D01*
Y036367D01*
X045633Y0363D01*
X04804Y02476D02*
X04764D01*
X047773Y024893D01*
X04764Y025027D01*
X04804D01*
Y025426D02*
Y02516D01*
X047773Y025426D01*
X047707D01*
X04764Y02536D01*
Y025227D01*
X047707Y02516D01*
X03796Y02222D02*
X03756D01*
X037693Y022353D01*
X03756Y022487D01*
X03796D01*
Y02262D02*
Y022753D01*
Y022687D01*
X03756D01*
X037627Y02262D01*
X054267Y041476D02*
Y041343D01*
Y041409D01*
X0546D01*
X054667Y041343D01*
Y041276D01*
X0546Y041209D01*
X054667Y041876D02*
Y041609D01*
X0544Y041876D01*
X054334D01*
X054267Y041809D01*
Y041676D01*
X054334Y041609D01*
X013474Y03298D02*
X01334D01*
X013407D01*
Y032647D01*
X01334Y03258D01*
X013274D01*
X013207Y032647D01*
X013607Y03258D02*
X01374D01*
X013674D01*
Y03298D01*
X013607Y032914D01*
X01781Y03536D02*
Y035493D01*
Y035427D01*
X01821D01*
Y03536D01*
Y035493D01*
X017877Y03596D02*
X01781Y035893D01*
Y03576D01*
X017877Y035693D01*
X018143D01*
X01821Y03576D01*
Y035893D01*
X018143Y03596D01*
X01821Y03636D02*
Y036093D01*
X017943Y03636D01*
X017877D01*
X01781Y036293D01*
Y03616D01*
X017877Y036093D01*
X04367Y02815D02*
Y02775D01*
X04387D01*
X043937Y027817D01*
Y028083D01*
X04387Y02815D01*
X04367D01*
X04407Y02775D02*
X044203D01*
X044137D01*
Y02815D01*
X04407Y028083D01*
X04467Y02775D02*
X044403D01*
X04467Y028017D01*
Y028083D01*
X044603Y02815D01*
X04447D01*
X044403Y028083D01*
X03841Y03881D02*
Y03841D01*
X03861D01*
X038677Y038477D01*
Y038743D01*
X03861Y03881D01*
X03841D01*
X03881Y03841D02*
X038943D01*
X038877D01*
Y03881D01*
X03881Y038743D01*
X039143Y03841D02*
X039276D01*
X03921D01*
Y03881D01*
X039143Y038743D01*
X034005Y0434D02*
Y043D01*
X034205D01*
X034272Y043066D01*
Y043333D01*
X034205Y0434D01*
X034005D01*
X034405Y043D02*
X034538D01*
X034472D01*
Y0434D01*
X034405Y043333D01*
X034738D02*
X034805Y0434D01*
X034938D01*
X035005Y043333D01*
Y043066D01*
X034938Y043D01*
X034805D01*
X034738Y043066D01*
Y043333D01*
X03751Y04481D02*
Y04441D01*
X03771D01*
X037777Y044477D01*
Y044743D01*
X03771Y04481D01*
X03751D01*
X03791Y044477D02*
X037977Y04441D01*
X03811D01*
X038176Y044477D01*
Y044743D01*
X03811Y04481D01*
X037977D01*
X03791Y044743D01*
Y044677D01*
X037977Y04461D01*
X038176D01*
X0384Y04481D02*
Y04441D01*
X0386D01*
X038667Y044477D01*
Y044743D01*
X0386Y04481D01*
X0384D01*
X0388Y044743D02*
X038867Y04481D01*
X039D01*
X039066Y044743D01*
Y044677D01*
X039Y04461D01*
X039066Y044543D01*
Y044477D01*
X039Y04441D01*
X038867D01*
X0388Y044477D01*
Y044543D01*
X038867Y04461D01*
X0388Y044677D01*
Y044743D01*
X038867Y04461D02*
X039D01*
X03927Y04481D02*
Y04441D01*
X03947D01*
X039537Y044477D01*
Y044743D01*
X03947Y04481D01*
X03927D01*
X03967D02*
X039936D01*
Y044743D01*
X03967Y044477D01*
Y04441D01*
X04011Y04481D02*
Y04441D01*
X04031D01*
X040377Y044477D01*
Y044743D01*
X04031Y04481D01*
X04011D01*
X040776D02*
X040643Y044743D01*
X04051Y04461D01*
Y044477D01*
X040577Y04441D01*
X04071D01*
X040776Y044477D01*
Y044543D01*
X04071Y04461D01*
X04051D01*
X04099Y0416D02*
Y0412D01*
X04119D01*
X041257Y041267D01*
Y041533D01*
X04119Y0416D01*
X04099D01*
X041656D02*
X04139D01*
Y0414D01*
X041523Y041467D01*
X04159D01*
X041656Y0414D01*
Y041267D01*
X04159Y0412D01*
X041457D01*
X04139Y041267D01*
X04127Y0448D02*
Y0444D01*
X04147D01*
X041537Y044467D01*
Y044733D01*
X04147Y0448D01*
X04127D01*
X04167Y044733D02*
X041737Y0448D01*
X04187D01*
X041936Y044733D01*
Y044667D01*
X04187Y0446D01*
X041803D01*
X04187D01*
X041936Y044533D01*
Y044467D01*
X04187Y0444D01*
X041737D01*
X04167Y044467D01*
X04912Y04248D02*
X04952D01*
Y04268D01*
X049453Y042746D01*
X049187D01*
X04912Y04268D01*
Y04248D01*
X04952Y043146D02*
Y04288D01*
X049253Y043146D01*
X049187D01*
X04912Y04308D01*
Y042946D01*
X049187Y04288D01*
X052092Y0388D02*
X052492D01*
Y039D01*
X052425Y039067D01*
X052158D01*
X052092Y039D01*
Y0388D01*
X052492Y0392D02*
Y039333D01*
Y039267D01*
X052092D01*
X052158Y0392D01*
X035377Y037257D02*
X03531Y03719D01*
Y037057D01*
X035377Y03699D01*
X035643D01*
X03571Y037057D01*
Y03719D01*
X035643Y037257D01*
X035377Y03739D02*
X03531Y037457D01*
Y03759D01*
X035377Y037656D01*
X035443D01*
X03551Y03759D01*
Y037523D01*
Y03759D01*
X035577Y037656D01*
X035643D01*
X03571Y03759D01*
Y037457D01*
X035643Y03739D01*
X03571Y03799D02*
X03531D01*
X03551Y03779D01*
Y038056D01*
X02954Y04119D02*
X02949Y04124D01*
X02939D01*
X02934Y04119D01*
Y04099D01*
X02939Y04094D01*
X02949D01*
X02954Y04099D01*
X02964Y04119D02*
X02969Y04124D01*
X02979D01*
X02984Y04119D01*
Y04114D01*
X02979Y04109D01*
X02974D01*
X02979D01*
X02984Y04104D01*
Y04099D01*
X02979Y04094D01*
X02969D01*
X02964Y04099D01*
X03014Y04094D02*
X02994D01*
X03014Y04114D01*
Y04119D01*
X03009Y04124D01*
X02999D01*
X02994Y04119D01*
X027597Y036857D02*
X02753Y03679D01*
Y036657D01*
X027597Y03659D01*
X027863D01*
X02793Y036657D01*
Y03679D01*
X027863Y036857D01*
X027597Y03699D02*
X02753Y037057D01*
Y03719D01*
X027597Y037256D01*
X027663D01*
X02773Y03719D01*
Y037123D01*
Y03719D01*
X027797Y037256D01*
X027863D01*
X02793Y03719D01*
Y037057D01*
X027863Y03699D01*
X02793Y03739D02*
Y037523D01*
Y037456D01*
X02753D01*
X027597Y03739D01*
X051967Y044873D02*
X0519Y04494D01*
X051767D01*
X0517Y044873D01*
Y044607D01*
X051767Y04454D01*
X0519D01*
X051967Y044607D01*
X0521Y044873D02*
X052167Y04494D01*
X0523D01*
X052366Y044873D01*
Y044807D01*
X0523Y04474D01*
X052233D01*
X0523D01*
X052366Y044673D01*
Y044607D01*
X0523Y04454D01*
X052167D01*
X0521Y044607D01*
X0525Y044873D02*
X052566Y04494D01*
X0527D01*
X052766Y044873D01*
Y044607D01*
X0527Y04454D01*
X052566D01*
X0525Y044607D01*
Y044873D01*
X050167Y044853D02*
X0501Y04492D01*
X049967D01*
X0499Y044853D01*
Y044587D01*
X049967Y04452D01*
X0501D01*
X050167Y044587D01*
X050566Y04452D02*
X0503D01*
X050566Y044787D01*
Y044853D01*
X0505Y04492D01*
X050367D01*
X0503Y044853D01*
X0507Y044587D02*
X050766Y04452D01*
X0509D01*
X050966Y044587D01*
Y044853D01*
X0509Y04492D01*
X050766D01*
X0507Y044853D01*
Y044787D01*
X050766Y04472D01*
X050966D01*
X03392Y03655D02*
X03387Y0365D01*
Y0364D01*
X03392Y03635D01*
X03412D01*
X03417Y0364D01*
Y0365D01*
X03412Y03655D01*
X03417Y03665D02*
Y03675D01*
Y0367D01*
X03387D01*
X03392Y03665D01*
X03417Y03705D02*
X03387D01*
X03402Y0369D01*
Y0371D01*
X028717Y035267D02*
X02865Y0352D01*
Y035067D01*
X028717Y035D01*
X028983D01*
X02905Y035067D01*
Y0352D01*
X028983Y035267D01*
X02905Y0354D02*
Y035533D01*
Y035467D01*
X02865D01*
X028717Y0354D01*
X02905Y036D02*
Y035733D01*
X028783Y036D01*
X028717D01*
X02865Y035933D01*
Y0358D01*
X028717Y035733D01*
X018417Y038147D02*
X01835Y03808D01*
Y037947D01*
X018417Y03788D01*
X018683D01*
X01875Y037947D01*
Y03808D01*
X018683Y038147D01*
X01875Y03828D02*
Y038413D01*
Y038347D01*
X01835D01*
X018417Y03828D01*
Y038613D02*
X01835Y03868D01*
Y038813D01*
X018417Y03888D01*
X018683D01*
X01875Y038813D01*
Y03868D01*
X018683Y038613D01*
X018417D01*
X020017Y044087D02*
X01995Y04402D01*
Y043887D01*
X020017Y04382D01*
X020283D01*
X02035Y043887D01*
Y04402D01*
X020283Y044087D01*
Y04422D02*
X02035Y044287D01*
Y04442D01*
X020283Y044486D01*
X020017D01*
X01995Y04442D01*
Y044287D01*
X020017Y04422D01*
X020083D01*
X02015Y044287D01*
Y044486D01*
X024137Y044147D02*
X02407Y04408D01*
Y043947D01*
X024137Y04388D01*
X024403D01*
X02447Y043947D01*
Y04408D01*
X024403Y044147D01*
X024137Y04428D02*
X02407Y044347D01*
Y04448D01*
X024137Y044546D01*
X024203D01*
X02427Y04448D01*
X024337Y044546D01*
X024403D01*
X02447Y04448D01*
Y044347D01*
X024403Y04428D01*
X024337D01*
X02427Y044347D01*
X024203Y04428D01*
X024137D01*
X02427Y044347D02*
Y04448D01*
X019937Y028147D02*
X01987Y02808D01*
Y027947D01*
X019937Y02788D01*
X020203D01*
X02027Y027947D01*
Y02808D01*
X020203Y028147D01*
X01987Y02828D02*
Y028546D01*
X019937D01*
X020203Y02828D01*
X02027D01*
X028487Y028127D02*
X02842Y02806D01*
Y027927D01*
X028487Y02786D01*
X028753D01*
X02882Y027927D01*
Y02806D01*
X028753Y028127D01*
X02842Y028526D02*
X028487Y028393D01*
X02862Y02826D01*
X028753D01*
X02882Y028327D01*
Y02846D01*
X028753Y028526D01*
X028687D01*
X02862Y02846D01*
Y02826D01*
X041567Y022733D02*
X0415Y0228D01*
X041367D01*
X0413Y022733D01*
Y022467D01*
X041367Y0224D01*
X0415D01*
X041567Y022467D01*
X041966Y0228D02*
X0417D01*
Y0226D01*
X041833Y022667D01*
X0419D01*
X041966Y0226D01*
Y022467D01*
X0419Y0224D01*
X041767D01*
X0417Y022467D01*
X047087Y019743D02*
X04702Y01981D01*
X046887D01*
X04682Y019743D01*
Y019477D01*
X046887Y01941D01*
X04702D01*
X047087Y019477D01*
X04722Y01941D02*
X047353D01*
X047287D01*
Y01981D01*
X04722Y019743D01*
X04735Y03748D02*
X04775D01*
Y03768D01*
X047683Y037747D01*
X047617D01*
X04755Y03768D01*
Y03748D01*
Y03768D01*
X047483Y037747D01*
X047417D01*
X04735Y03768D01*
Y03748D01*
X04775Y03788D02*
Y038013D01*
Y037947D01*
X04735D01*
X047417Y03788D01*
D12*
X053537Y037049D02*
G03*
X053537Y037049I-00015J0D01*
G01*
D13*
X04637Y01853D02*
Y0192D01*
X0479D01*
Y01853D02*
Y0192D01*
X04637Y01853D02*
X0479D01*
X02418Y02472D02*
X02437Y02453D01*
Y02391D02*
Y02453D01*
X02423Y02377D02*
X02437Y02391D01*
X02423Y02367D02*
Y02377D01*
Y02367D02*
X02438Y02352D01*
Y02292D02*
Y02352D01*
X02423Y02277D02*
X02438Y02292D01*
X02423Y02267D02*
Y02277D01*
Y02267D02*
X02438Y02252D01*
Y02192D02*
Y02252D01*
X02419Y02173D02*
X02438Y02192D01*
X02347Y02173D02*
X02419D01*
X02328Y02192D02*
X02347Y02173D01*
X02328Y02192D02*
Y02247D01*
X02343Y02262D01*
Y02272D01*
X02328Y02352D02*
X02343Y02367D01*
Y02377D01*
X02328Y02392D02*
X02343Y02377D01*
X02328Y02392D02*
Y02452D01*
X02348Y02472D01*
X02418D01*
X02328Y02287D02*
X02343Y02272D01*
X02328Y02287D02*
Y02352D01*
X02273Y02473D02*
X02292Y02454D01*
Y02392D02*
Y02454D01*
X02278Y02378D02*
X02292Y02392D01*
X02278Y02368D02*
Y02378D01*
Y02368D02*
X02293Y02353D01*
Y02293D02*
Y02353D01*
X02278Y02278D02*
X02293Y02293D01*
X02278Y02268D02*
Y02278D01*
Y02268D02*
X02293Y02253D01*
Y02193D02*
Y02253D01*
X02274Y02174D02*
X02293Y02193D01*
X02202Y02174D02*
X02274D01*
X02183Y02193D02*
X02202Y02174D01*
X02183Y02193D02*
Y02248D01*
X02198Y02263D01*
Y02273D01*
X02183Y02353D02*
X02198Y02368D01*
Y02378D01*
X02183Y02393D02*
X02198Y02378D01*
X02183Y02393D02*
Y02453D01*
X02203Y02473D01*
X02273D01*
X02183Y02288D02*
X02198Y02273D01*
X02183Y02288D02*
Y02353D01*
X02038Y02288D02*
Y02353D01*
Y02288D02*
X02053Y02273D01*
X02058Y02473D02*
X02128D01*
X02038Y02453D02*
X02058Y02473D01*
X02038Y02393D02*
Y02453D01*
Y02393D02*
X02053Y02378D01*
Y02368D02*
Y02378D01*
X02038Y02353D02*
X02053Y02368D01*
Y02263D02*
Y02273D01*
X02038Y02248D02*
X02053Y02263D01*
X02038Y02193D02*
Y02248D01*
Y02193D02*
X02057Y02174D01*
X02129D01*
X02148Y02193D01*
Y02253D01*
X02133Y02268D02*
X02148Y02253D01*
X02133Y02268D02*
Y02278D01*
X02148Y02293D01*
Y02353D01*
X02133Y02368D02*
X02148Y02353D01*
X02133Y02368D02*
Y02378D01*
X02147Y02392D01*
Y02454D01*
X02128Y02473D02*
X02147Y02454D01*
X01893Y02286D02*
Y02351D01*
Y02286D02*
X01908Y02271D01*
X01913Y02471D02*
X01983D01*
X01893Y02451D02*
X01913Y02471D01*
X01893Y02391D02*
Y02451D01*
Y02391D02*
X01908Y02376D01*
Y02366D02*
Y02376D01*
X01893Y02351D02*
X01908Y02366D01*
Y02261D02*
Y02271D01*
X01893Y02246D02*
X01908Y02261D01*
X01893Y02191D02*
Y02246D01*
Y02191D02*
X01912Y02172D01*
X01984D01*
X02003Y02191D01*
Y02251D01*
X01988Y02266D02*
X02003Y02251D01*
X01988Y02266D02*
Y02276D01*
X02003Y02291D01*
Y02351D01*
X01988Y02366D02*
X02003Y02351D01*
X01988Y02366D02*
Y02376D01*
X02002Y0239D01*
Y02452D01*
X01983Y02471D02*
X02002Y02452D01*
X01748Y02288D02*
Y02353D01*
Y02288D02*
X01763Y02273D01*
X01768Y02473D02*
X01838D01*
X01748Y02453D02*
X01768Y02473D01*
X01748Y02393D02*
Y02453D01*
Y02393D02*
X01763Y02378D01*
Y02368D02*
Y02378D01*
X01748Y02353D02*
X01763Y02368D01*
Y02263D02*
Y02273D01*
X01748Y02248D02*
X01763Y02263D01*
X01748Y02193D02*
Y02248D01*
Y02193D02*
X01767Y02174D01*
X01839D01*
X01858Y02193D01*
Y02253D01*
X01843Y02268D02*
X01858Y02253D01*
X01843Y02268D02*
Y02278D01*
X01858Y02293D01*
Y02353D01*
X01843Y02368D02*
X01858Y02353D01*
X01843Y02368D02*
Y02378D01*
X01857Y02392D01*
Y02454D01*
X01838Y02473D02*
X01857Y02454D01*
X01604Y02287D02*
Y02352D01*
Y02287D02*
X01619Y02272D01*
X01624Y02472D02*
X01694D01*
X01604Y02452D02*
X01624Y02472D01*
X01604Y02392D02*
Y02452D01*
Y02392D02*
X01619Y02377D01*
Y02367D02*
Y02377D01*
X01604Y02352D02*
X01619Y02367D01*
Y02262D02*
Y02272D01*
X01604Y02247D02*
X01619Y02262D01*
X01604Y02192D02*
Y02247D01*
Y02192D02*
X01623Y02173D01*
X01695D01*
X01714Y02192D01*
Y02252D01*
X01699Y02267D02*
X01714Y02252D01*
X01699Y02267D02*
Y02277D01*
X01714Y02292D01*
Y02352D01*
X01699Y02367D02*
X01714Y02352D01*
X01699Y02367D02*
Y02377D01*
X01713Y02391D01*
Y02453D01*
X01694Y02472D02*
X01713Y02453D01*
X01458Y02287D02*
Y02352D01*
Y02287D02*
X01473Y02272D01*
X01478Y02472D02*
X01548D01*
X01458Y02452D02*
X01478Y02472D01*
X01458Y02392D02*
Y02452D01*
Y02392D02*
X01473Y02377D01*
Y02367D02*
Y02377D01*
X01458Y02352D02*
X01473Y02367D01*
Y02262D02*
Y02272D01*
X01458Y02247D02*
X01473Y02262D01*
X01458Y02192D02*
Y02247D01*
Y02192D02*
X01477Y02173D01*
X01549D01*
X01568Y02192D01*
Y02252D01*
X01553Y02267D02*
X01568Y02252D01*
X01553Y02267D02*
Y02277D01*
X01568Y02292D01*
Y02352D01*
X01553Y02367D02*
X01568Y02352D01*
X01553Y02367D02*
Y02377D01*
X01567Y02391D01*
Y02453D01*
X01548Y02472D02*
X01567Y02453D01*
X01403Y02472D02*
X01422Y02453D01*
Y02391D02*
Y02453D01*
X01408Y02377D02*
X01422Y02391D01*
X01408Y02367D02*
Y02377D01*
Y02367D02*
X01423Y02352D01*
Y02292D02*
Y02352D01*
X01408Y02277D02*
X01423Y02292D01*
X01408Y02267D02*
Y02277D01*
Y02267D02*
X01423Y02252D01*
Y02192D02*
Y02252D01*
X01404Y02173D02*
X01423Y02192D01*
X01332Y02173D02*
X01404D01*
X01313Y02192D02*
X01332Y02173D01*
X01313Y02192D02*
Y02247D01*
X01328Y02262D01*
Y02272D01*
X01313Y02352D02*
X01328Y02367D01*
Y02377D01*
X01313Y02392D02*
X01328Y02377D01*
X01313Y02392D02*
Y02452D01*
X01333Y02472D01*
X01403D01*
X01313Y02287D02*
X01328Y02272D01*
X01313Y02287D02*
Y02352D01*
X0498Y03826D02*
Y03978D01*
Y03826D02*
X05048D01*
Y03978D01*
X0498D02*
X05048D01*
X01997Y03039D02*
Y03107D01*
X01845Y03039D02*
X01997D01*
X01845D02*
Y03107D01*
X01997D01*
Y02959D02*
Y03027D01*
X01845Y02959D02*
X01997D01*
X01845D02*
Y03027D01*
X01997D01*
X02853Y0304D02*
Y03107D01*
X027Y0304D02*
X02853D01*
X027D02*
Y03107D01*
X02853D01*
Y0296D02*
Y03027D01*
X027Y0296D02*
X02853D01*
X027D02*
Y03027D01*
X02853D01*
X03394Y02738D02*
X03459D01*
X03474Y02753D01*
X03274Y02758D02*
Y02828D01*
Y02758D02*
X03294Y02738D01*
X03354D01*
X03369Y02753D01*
X03379D01*
X03394Y02738D01*
X03474Y02753D02*
X03484D01*
X03499Y02738D01*
X03554D01*
X03573Y02757D01*
Y02829D01*
X03554Y02848D02*
X03573Y02829D01*
X03494Y02848D02*
X03554D01*
X03479Y02833D02*
X03494Y02848D01*
X03469Y02833D02*
X03479D01*
X03454Y02848D02*
X03469Y02833D01*
X03394Y02848D02*
X03454D01*
X03379Y02833D02*
X03394Y02848D01*
X03369Y02833D02*
X03379D01*
X03355Y02847D02*
X03369Y02833D01*
X03293Y02847D02*
X03355D01*
X03274Y02828D02*
X03293Y02847D01*
X03395Y02594D02*
X0346D01*
X03475Y02609D01*
X03275Y02614D02*
Y02684D01*
Y02614D02*
X03295Y02594D01*
X03355D01*
X0337Y02609D01*
X0338D01*
X03395Y02594D01*
X03475Y02609D02*
X03485D01*
X035Y02594D01*
X03555D01*
X03574Y02613D01*
Y02685D01*
X03555Y02704D02*
X03574Y02685D01*
X03495Y02704D02*
X03555D01*
X0348Y02689D02*
X03495Y02704D01*
X0347Y02689D02*
X0348D01*
X03455Y02704D02*
X0347Y02689D01*
X03395Y02704D02*
X03455D01*
X0338Y02689D02*
X03395Y02704D01*
X0337Y02689D02*
X0338D01*
X03356Y02703D02*
X0337Y02689D01*
X03294Y02703D02*
X03356D01*
X03275Y02684D02*
X03294Y02703D01*
X04283Y01864D02*
X04292Y01855D01*
Y01788D02*
Y01855D01*
X04283Y01888D02*
X04293Y01898D01*
X04283Y01864D02*
Y01888D01*
X04292Y01852D02*
Y01855D01*
X04195Y01899D02*
X04206Y01888D01*
Y01864D02*
Y01888D01*
X04195Y01853D02*
X04206Y01864D01*
X04208Y01773D02*
X04277D01*
X04292Y01788D01*
X04293Y01898D02*
Y01952D01*
X04275Y0197D02*
X04293Y01952D01*
X04212Y0197D02*
X04275D01*
X04195Y01953D02*
X04212Y0197D01*
X04195Y01899D02*
Y01953D01*
Y01786D02*
Y01853D01*
Y01786D02*
X04208Y01773D01*
X04179Y01841D02*
Y01906D01*
X04164Y01921D02*
X04179Y01906D01*
X04089Y01721D02*
X04159D01*
X04179Y01741D01*
Y01801D01*
X04164Y01816D02*
X04179Y01801D01*
X04164Y01816D02*
Y01826D01*
X04179Y01841D01*
X04164Y01921D02*
Y01931D01*
X04179Y01946D01*
Y02001D01*
X0416Y0202D02*
X04179Y02001D01*
X04088Y0202D02*
X0416D01*
X04069Y02001D02*
X04088Y0202D01*
X04069Y01941D02*
Y02001D01*
Y01941D02*
X04084Y01926D01*
Y01916D02*
Y01926D01*
X04069Y01901D02*
X04084Y01916D01*
X04069Y01841D02*
Y01901D01*
Y01841D02*
X04084Y01826D01*
Y01816D02*
Y01826D01*
X0407Y01802D02*
X04084Y01816D01*
X0407Y0174D02*
Y01802D01*
Y0174D02*
X04089Y01721D01*
X04371Y02224D02*
Y02291D01*
X04218Y02224D02*
X04371D01*
X04218D02*
Y02291D01*
X04371D01*
X04285Y02757D02*
X04335D01*
X0419D02*
X04245D01*
X04285Y02827D02*
X04335D01*
X0419D02*
X04245D01*
X04345Y02767D02*
Y02817D01*
X04335Y02757D02*
X04345Y02767D01*
X04335Y02827D02*
X04345Y02817D01*
X0419Y02757D02*
Y02827D01*
X041906Y02678D02*
X043426D01*
Y02746D01*
X041906D02*
X043426D01*
X041906Y02678D02*
Y02746D01*
X03446Y03824D02*
X03513D01*
Y03671D02*
Y03824D01*
X03446Y03671D02*
X03513D01*
X03446D02*
Y03824D01*
X033121Y03601D02*
Y03754D01*
Y03601D02*
X033791D01*
Y03754D01*
X033121D02*
X033791D01*
X03231Y03753D02*
X03299D01*
Y03601D02*
Y03753D01*
X03231Y03601D02*
X03299D01*
X03231D02*
Y03753D01*
X03226Y03518D02*
Y03586D01*
X03378D01*
Y03518D02*
Y03586D01*
X03226Y03518D02*
X03378D01*
X02853Y03225D02*
Y03292D01*
X027Y03225D02*
X02853D01*
X027D02*
Y03292D01*
X02853D01*
X02002Y03224D02*
Y03292D01*
X0185Y03224D02*
X02002D01*
X0185D02*
Y03292D01*
X02002D01*
X02051Y03796D02*
Y03863D01*
X01898Y03796D02*
X02051D01*
X01898D02*
Y03863D01*
X02051D01*
X01542Y03406D02*
X01551Y03397D01*
X01542Y03406D02*
Y03473D01*
X01541Y03363D02*
X01551Y03373D01*
Y03397D01*
X01542Y03406D02*
Y03409D01*
X01628Y03373D02*
X01639Y03362D01*
X01628Y03373D02*
Y03397D01*
X01639Y03408D01*
X01557Y03488D02*
X01626D01*
X01542Y03473D02*
X01557Y03488D01*
X01541Y03309D02*
Y03363D01*
Y03309D02*
X01559Y03291D01*
X01622D01*
X01639Y03308D01*
Y03362D01*
Y03408D02*
Y03475D01*
X01626Y03488D02*
X01639Y03475D01*
X01392Y03406D02*
X01401Y03397D01*
X01392Y03406D02*
Y03473D01*
X01391Y03363D02*
X01401Y03373D01*
Y03397D01*
X01392Y03406D02*
Y03409D01*
X01478Y03373D02*
X01489Y03362D01*
X01478Y03373D02*
Y03397D01*
X01489Y03408D01*
X01407Y03488D02*
X01476D01*
X01392Y03473D02*
X01407Y03488D01*
X01391Y03309D02*
Y03363D01*
Y03309D02*
X01409Y03291D01*
X01472D01*
X01489Y03308D01*
Y03362D01*
Y03408D02*
Y03475D01*
X01476Y03488D02*
X01489Y03475D01*
X01976Y04351D02*
Y04418D01*
X01823Y04351D02*
X01976D01*
X01823D02*
Y04418D01*
X01976D01*
X02794Y04146D02*
X02803Y04137D01*
Y0407D02*
Y04137D01*
X02794Y0417D02*
X02804Y0418D01*
X02794Y04146D02*
Y0417D01*
X02803Y04134D02*
Y04137D01*
X02706Y04181D02*
X02717Y0417D01*
Y04146D02*
Y0417D01*
X02706Y04135D02*
X02717Y04146D01*
X02719Y04055D02*
X02788D01*
X02803Y0407D01*
X02804Y0418D02*
Y04234D01*
X02786Y04252D02*
X02804Y04234D01*
X02723Y04252D02*
X02786D01*
X02706Y04235D02*
X02723Y04252D01*
X02706Y04181D02*
Y04235D01*
Y04068D02*
Y04135D01*
Y04068D02*
X02719Y04055D01*
X02844Y04433D02*
Y04501D01*
X02996D01*
Y04433D02*
Y04501D01*
X02844Y04433D02*
X02996D01*
X02932Y0392D02*
X02999D01*
X02932D02*
Y04073D01*
X02999D01*
Y0392D02*
Y04073D01*
X02925Y04241D02*
Y04306D01*
X0291Y04321D02*
X02925Y04306D01*
X02835Y04121D02*
X02905D01*
X02925Y04141D01*
Y04201D01*
X0291Y04216D02*
X02925Y04201D01*
X0291Y04216D02*
Y04226D01*
X02925Y04241D01*
X0291Y04321D02*
Y04331D01*
X02925Y04346D01*
Y04401D01*
X02906Y0442D02*
X02925Y04401D01*
X02834Y0442D02*
X02906D01*
X02815Y04401D02*
X02834Y0442D01*
X02815Y04341D02*
Y04401D01*
Y04341D02*
X0283Y04326D01*
Y04316D02*
Y04326D01*
X02815Y04301D02*
X0283Y04316D01*
X02815Y04241D02*
Y04301D01*
Y04241D02*
X0283Y04226D01*
Y04216D02*
Y04226D01*
X02816Y04202D02*
X0283Y04216D01*
X02816Y0414D02*
Y04202D01*
Y0414D02*
X02835Y04121D01*
X0289Y03904D02*
X02899Y03895D01*
Y03828D02*
Y03895D01*
X0289Y03928D02*
X029Y03938D01*
X0289Y03904D02*
Y03928D01*
X02899Y03892D02*
Y03895D01*
X02802Y03939D02*
X02813Y03928D01*
Y03904D02*
Y03928D01*
X02802Y03893D02*
X02813Y03904D01*
X02815Y03813D02*
X02884D01*
X02899Y03828D01*
X029Y03938D02*
Y03992D01*
X02882Y0401D02*
X029Y03992D01*
X02819Y0401D02*
X02882D01*
X02802Y03993D02*
X02819Y0401D01*
X02802Y03939D02*
Y03993D01*
Y03826D02*
Y03893D01*
Y03826D02*
X02815Y03813D01*
X02916Y03829D02*
X02925Y0382D01*
X02916Y03829D02*
Y03896D01*
X02915Y03786D02*
X02925Y03796D01*
Y0382D01*
X02916Y03829D02*
Y03832D01*
X03002Y03796D02*
X03013Y03785D01*
X03002Y03796D02*
Y0382D01*
X03013Y03831D01*
X02931Y03911D02*
X03D01*
X02916Y03896D02*
X02931Y03911D01*
X02915Y03732D02*
Y03786D01*
Y03732D02*
X02933Y03714D01*
X02996D01*
X03013Y03731D01*
Y03785D01*
Y03831D02*
Y03898D01*
X03Y03911D02*
X03013Y03898D01*
X02817Y036255D02*
X02884D01*
X02817D02*
Y037785D01*
X02884D01*
Y036255D02*
Y037785D01*
X02921Y03649D02*
X02988D01*
Y03496D02*
Y03649D01*
X02921Y03496D02*
X02988D01*
X02921D02*
Y03649D01*
X0367Y04377D02*
Y04445D01*
X03518Y04377D02*
X0367D01*
X03518D02*
Y04445D01*
X0367D01*
X03669Y04286D02*
Y04356D01*
X03514Y04296D02*
X03524Y04286D01*
X03514Y04346D02*
X03524Y04356D01*
X03514Y04296D02*
Y04346D01*
X03614Y04286D02*
X03669D01*
X03524D02*
X03574D01*
X03614Y04356D02*
X03669D01*
X03524D02*
X03574D01*
X03685Y04247D02*
X03753D01*
Y04095D02*
Y04247D01*
X03685Y04095D02*
X03753D01*
X03685D02*
Y04247D01*
X03605D02*
X03673D01*
Y04095D02*
Y04247D01*
X03605Y04095D02*
X03673D01*
X03605D02*
Y04247D01*
X038358Y038992D02*
X039058D01*
X038358Y040442D02*
X038458Y040542D01*
X038958D02*
X039058Y040442D01*
X038458Y040542D02*
X038958D01*
X038358Y038992D02*
Y039542D01*
Y039942D02*
Y040442D01*
X039058Y038992D02*
Y039542D01*
Y039942D02*
Y040442D01*
X03756Y039D02*
X03824D01*
X03756D02*
Y04052D01*
X03824D01*
Y039D02*
Y04052D01*
X03837Y04248D02*
X03904D01*
Y04095D02*
Y04248D01*
X03837Y04095D02*
X03904D01*
X03837D02*
Y04248D01*
X03757D02*
X03824D01*
Y04095D02*
Y04248D01*
X03757Y04095D02*
X03824D01*
X03757D02*
Y04248D01*
X03917D02*
X03984D01*
Y04095D02*
Y04248D01*
X03917Y04095D02*
X03984D01*
X03917D02*
Y04248D01*
X04231Y04181D02*
Y04251D01*
X04076Y04191D02*
X04086Y04181D01*
X04076Y04241D02*
X04086Y04251D01*
X04076Y04191D02*
Y04241D01*
X04176Y04181D02*
X04231D01*
X04086D02*
X04136D01*
X04176Y04251D02*
X04231D01*
X04086D02*
X04136D01*
X03997Y04248D02*
X04064D01*
Y04095D02*
Y04248D01*
X03997Y04095D02*
X04064D01*
X03997D02*
Y04248D01*
X04231Y04261D02*
Y04331D01*
X04076Y04271D02*
X04086Y04261D01*
X04076Y04321D02*
X04086Y04331D01*
X04076Y04271D02*
Y04321D01*
X04176Y04261D02*
X04231D01*
X04086D02*
X04136D01*
X04176Y04331D02*
X04231D01*
X04086D02*
X04136D01*
X04231Y04351D02*
Y04421D01*
X04076Y04361D02*
X04086Y04351D01*
X04076Y04411D02*
X04086Y04421D01*
X04076Y04361D02*
Y04411D01*
X04176Y04351D02*
X04231D01*
X04086D02*
X04136D01*
X04176Y04421D02*
X04231D01*
X04086D02*
X04136D01*
X03996Y04266D02*
X04066D01*
X03996Y04411D02*
X04006Y04421D01*
X04056D02*
X04066Y04411D01*
X04006Y04421D02*
X04056D01*
X03996Y04266D02*
Y04321D01*
Y04361D02*
Y04411D01*
X04066Y04266D02*
Y04321D01*
Y04361D02*
Y04411D01*
X03916Y04266D02*
X03986D01*
X03916Y04411D02*
X03926Y04421D01*
X03976D02*
X03986Y04411D01*
X03926Y04421D02*
X03976D01*
X03916Y04266D02*
Y04321D01*
Y04361D02*
Y04411D01*
X03986Y04266D02*
Y04321D01*
Y04361D02*
Y04411D01*
X03836Y04266D02*
X03906D01*
X03836Y04411D02*
X03846Y04421D01*
X03896D02*
X03906Y04411D01*
X03846Y04421D02*
X03896D01*
X03836Y04266D02*
Y04321D01*
Y04361D02*
Y04411D01*
X03906Y04266D02*
Y04321D01*
Y04361D02*
Y04411D01*
X03756Y04266D02*
X03826D01*
X03756Y04411D02*
X03766Y04421D01*
X03816D02*
X03826Y04411D01*
X03766Y04421D02*
X03816D01*
X03756Y04266D02*
Y04321D01*
Y04361D02*
Y04411D01*
X03826Y04266D02*
Y04321D01*
Y04361D02*
Y04411D01*
X04348Y04103D02*
Y0417D01*
X04195Y04103D02*
X04348D01*
X04195D02*
Y0417D01*
X04348D01*
X04243Y04179D02*
X0431D01*
X04243D02*
Y04332D01*
X0431D01*
Y04179D02*
Y04332D01*
X043193Y04179D02*
X043863D01*
X043193D02*
Y04332D01*
X043863D01*
Y04179D02*
Y04332D01*
X05418Y03751D02*
X05483D01*
X05403Y03736D02*
X05418Y03751D01*
X05603Y03661D02*
Y03731D01*
X05583Y03751D02*
X05603Y03731D01*
X05523Y03751D02*
X05583D01*
X05508Y03736D02*
X05523Y03751D01*
X05498Y03736D02*
X05508D01*
X05483Y03751D02*
X05498Y03736D01*
X05393D02*
X05403D01*
X05378Y03751D02*
X05393Y03736D01*
X05323Y03751D02*
X05378D01*
X05304Y03732D02*
X05323Y03751D01*
X05304Y0366D02*
Y03732D01*
Y0366D02*
X05323Y03641D01*
X05383D01*
X05398Y03656D01*
X05408D01*
X05423Y03641D01*
X05483D01*
X05498Y03656D01*
X05508D01*
X05522Y03642D01*
X05584D01*
X05603Y03661D01*
X0442Y03303D02*
Y03368D01*
Y03303D02*
X04435Y03288D01*
X0444Y03488D02*
X0451D01*
X0442Y03468D02*
X0444Y03488D01*
X0442Y03408D02*
Y03468D01*
Y03408D02*
X04435Y03393D01*
Y03383D02*
Y03393D01*
X0442Y03368D02*
X04435Y03383D01*
Y03278D02*
Y03288D01*
X0442Y03263D02*
X04435Y03278D01*
X0442Y03208D02*
Y03263D01*
Y03208D02*
X04439Y03189D01*
X04511D01*
X0453Y03208D01*
Y03268D01*
X04515Y03283D02*
X0453Y03268D01*
X04515Y03283D02*
Y03293D01*
X0453Y03308D01*
Y03368D01*
X04515Y03383D02*
X0453Y03368D01*
X04515Y03383D02*
Y03393D01*
X04529Y03407D01*
Y03469D01*
X0451Y03488D02*
X04529Y03469D01*
X04509Y03159D02*
X04528Y0314D01*
Y03078D02*
Y0314D01*
X04514Y03064D02*
X04528Y03078D01*
X04514Y03054D02*
Y03064D01*
Y03054D02*
X04529Y03039D01*
Y02979D02*
Y03039D01*
X04514Y02964D02*
X04529Y02979D01*
X04514Y02954D02*
Y02964D01*
Y02954D02*
X04529Y02939D01*
Y02879D02*
Y02939D01*
X0451Y0286D02*
X04529Y02879D01*
X04438Y0286D02*
X0451D01*
X04419Y02879D02*
X04438Y0286D01*
X04419Y02879D02*
Y02934D01*
X04434Y02949D01*
Y02959D01*
X04419Y03039D02*
X04434Y03054D01*
Y03064D01*
X04419Y03079D02*
X04434Y03064D01*
X04419Y03079D02*
Y03139D01*
X04439Y03159D01*
X04509D01*
X04419Y02974D02*
X04434Y02959D01*
X04419Y02974D02*
Y03039D01*
X04513Y02762D02*
X04522Y02753D01*
X04513Y02762D02*
Y02829D01*
X04512Y02719D02*
X04522Y02729D01*
Y02753D01*
X04513Y02762D02*
Y02765D01*
X04599Y02729D02*
X0461Y02718D01*
X04599Y02729D02*
Y02753D01*
X0461Y02764D01*
X04528Y02844D02*
X04597D01*
X04513Y02829D02*
X04528Y02844D01*
X04512Y02665D02*
Y02719D01*
Y02665D02*
X0453Y02647D01*
X04593D01*
X0461Y02664D01*
Y02718D01*
Y02764D02*
Y02831D01*
X04597Y02844D02*
X0461Y02831D01*
X04774Y025719D02*
Y026219D01*
Y025719D02*
X04794Y025919D01*
X04774Y026219D02*
X04799Y025969D01*
X04794Y025919D02*
X04799Y025969D01*
X04974Y04347D02*
X05044D01*
X05034Y04192D02*
X05044Y04202D01*
X04974D02*
X04984Y04192D01*
X05034D01*
X05044Y04292D02*
Y04347D01*
Y04202D02*
Y04252D01*
X04974Y04292D02*
Y04347D01*
Y04202D02*
Y04252D01*
X04976Y04014D02*
X05044D01*
X04976D02*
Y04166D01*
X05044D01*
Y04014D02*
Y04166D01*
X04972Y04372D02*
Y04439D01*
X05125D01*
Y04372D02*
Y04439D01*
X04972Y04372D02*
X05125D01*
X052983Y04373D02*
Y0444D01*
X051453Y04373D02*
X052983D01*
X051453D02*
Y0444D01*
X052983D01*
D14*
X04697Y01862D02*
X04731D01*
X04697Y01912D02*
X04731D01*
X05042Y03892D02*
Y03912D01*
X04987Y03892D02*
Y03912D01*
X01911Y031D02*
X01931D01*
X01911Y03045D02*
X01931D01*
X01911Y0302D02*
X01931D01*
X01911Y02965D02*
X01931D01*
X02759Y03098D02*
X02793D01*
X02759Y03048D02*
X02793D01*
X02759Y03018D02*
X02793D01*
X02759Y02968D02*
X02793D01*
X04277Y02282D02*
X04311D01*
X04277Y02232D02*
X04311D01*
X042566Y0274D02*
X042766D01*
X042566Y02685D02*
X042766D01*
X03455Y0373D02*
Y03764D01*
X03505Y0373D02*
Y03764D01*
X033711Y0366D02*
Y03694D01*
X033211Y0366D02*
Y03694D01*
X03238Y03667D02*
Y03687D01*
X03293Y03667D02*
Y03687D01*
X03292Y03525D02*
X03312D01*
X03292Y0358D02*
X03312D01*
X02759Y03283D02*
X02793D01*
X02759Y03233D02*
X02793D01*
X01916Y03285D02*
X01936D01*
X01916Y0323D02*
X01936D01*
X01957Y03854D02*
X01991D01*
X01957Y03804D02*
X01991D01*
X01882Y04409D02*
X01916D01*
X01882Y04359D02*
X01916D01*
X0291Y0444D02*
X0293D01*
X0291Y04495D02*
X0293D01*
X0299Y0398D02*
Y04014D01*
X0294Y0398D02*
Y04014D01*
X02875Y036855D02*
Y037195D01*
X02825Y036855D02*
Y037195D01*
X0293Y03555D02*
Y03589D01*
X0298Y03555D02*
Y03589D01*
X03584Y04438D02*
X03604D01*
X03584Y04383D02*
X03604D01*
X03692Y04161D02*
Y04181D01*
X03747Y04161D02*
Y04181D01*
X03612Y04161D02*
Y04181D01*
X03667Y04161D02*
Y04181D01*
X03817Y03966D02*
Y03986D01*
X03762Y03966D02*
Y03986D01*
X03846Y04154D02*
Y04188D01*
X03896Y04154D02*
Y04188D01*
X03766Y04154D02*
Y04188D01*
X03816Y04154D02*
Y04188D01*
X03926Y04154D02*
Y04188D01*
X03976Y04154D02*
Y04188D01*
X04006Y04154D02*
Y04188D01*
X04056Y04154D02*
Y04188D01*
X04254Y04161D02*
X04288D01*
X04254Y04111D02*
X04288D01*
X04301Y04239D02*
Y04273D01*
X04251Y04239D02*
Y04273D01*
X043773Y04239D02*
Y04273D01*
X043273Y04239D02*
Y04273D01*
X05037Y0408D02*
Y041D01*
X04982Y0408D02*
Y041D01*
X05032Y04381D02*
X05066D01*
X05032Y04431D02*
X05066D01*
X052043D02*
X052383D01*
X052043Y04381D02*
X052383D01*
D15*
X02156Y03705D02*
Y03716D01*
Y0373D02*
Y03741D01*
X02157Y03703D02*
Y03717D01*
Y03729D02*
Y03743D01*
X02158Y03702D02*
Y03719D01*
Y03727D02*
Y03744D01*
X02159Y03702D02*
Y0372D01*
Y03726D02*
Y03744D01*
X0216Y03701D02*
Y03721D01*
Y03725D02*
Y03745D01*
X02161Y03701D02*
Y03722D01*
Y03724D02*
Y03745D01*
X02162Y03701D02*
Y03745D01*
X02163Y03701D02*
Y03745D01*
X02164Y037D02*
Y03746D01*
X02165Y037D02*
Y03746D01*
X02166Y03701D02*
Y03745D01*
X02167Y03701D02*
Y03745D01*
X02168Y03701D02*
Y03745D01*
X02169Y03701D02*
Y03745D01*
X0217Y03702D02*
Y03744D01*
X02171Y03703D02*
Y03743D01*
X02172Y03704D02*
Y03742D01*
X02173Y03704D02*
Y03742D01*
X02174Y03705D02*
Y03741D01*
X02175Y03706D02*
Y0374D01*
X02176Y03707D02*
Y03739D01*
X02177Y03708D02*
Y03738D01*
X02178Y03709D02*
Y03737D01*
X02179Y0371D02*
Y03736D01*
X0218Y03711D02*
Y03735D01*
X02181Y03711D02*
Y03735D01*
X02182Y03711D02*
Y03735D01*
X02183Y03711D02*
Y03735D01*
X02184Y03711D02*
Y03735D01*
X02185Y03711D02*
Y03735D01*
X02186Y03711D02*
Y03735D01*
X02187Y03711D02*
Y03735D01*
X02188Y03711D02*
Y03735D01*
X02189Y03711D02*
Y03735D01*
X0219Y03711D02*
Y03735D01*
X02191Y03711D02*
Y03735D01*
X02192Y03711D02*
Y03735D01*
X02193Y03711D02*
Y03735D01*
X02194Y03711D02*
Y03735D01*
X02195Y03711D02*
Y03735D01*
X02196Y03711D02*
Y03735D01*
X02197Y03711D02*
Y03735D01*
X02198Y03711D02*
Y03735D01*
X02199Y03711D02*
Y03735D01*
X022Y03711D02*
Y03735D01*
X02201Y03711D02*
Y03735D01*
X02202Y03711D02*
Y03735D01*
X02203Y03711D02*
Y03735D01*
X02204Y03711D02*
Y03735D01*
X02205Y03711D02*
Y03735D01*
X02206Y03711D02*
Y03735D01*
X02207Y03711D02*
Y03735D01*
X02208Y03711D02*
Y03735D01*
X02209Y03711D02*
Y03735D01*
X0221Y03711D02*
Y03735D01*
X02211Y03711D02*
Y03735D01*
X02212Y03711D02*
Y03735D01*
X02213Y03711D02*
Y03735D01*
X02214Y03711D02*
Y03735D01*
X02215Y03711D02*
Y03735D01*
X02216Y03711D02*
Y03735D01*
X02217Y03711D02*
Y03735D01*
X02218Y03711D02*
Y03735D01*
X02219Y03711D02*
Y03735D01*
X0222Y03711D02*
Y03735D01*
X02221Y03711D02*
Y03735D01*
X02222Y03711D02*
Y03735D01*
X02223Y03711D02*
Y03735D01*
X02224Y03711D02*
Y03735D01*
X02225Y03711D02*
Y03735D01*
X02226Y03711D02*
Y03735D01*
X02227Y03711D02*
Y03735D01*
X02228Y03711D02*
Y03735D01*
X02229Y03711D02*
Y03735D01*
X0223Y03711D02*
Y03735D01*
X02231Y0371D02*
Y03736D01*
X02232Y03708D02*
Y03738D01*
X02233Y03703D02*
Y03743D01*
X02234Y03699D02*
Y03747D01*
X02235Y03696D02*
Y0375D01*
X02236Y03694D02*
Y03752D01*
X02237Y03692D02*
Y03754D01*
X02238Y0369D02*
Y03756D01*
X02239Y03688D02*
Y03758D01*
X0224Y03687D02*
Y0376D01*
X02241Y03685D02*
Y03761D01*
X02242Y03683D02*
Y03763D01*
X02243Y03682D02*
Y03764D01*
X02244Y03681D02*
Y03765D01*
X02245Y03679D02*
Y03767D01*
X02246Y03678D02*
Y03768D01*
X02247Y03677D02*
Y03769D01*
X02248Y03676D02*
Y0377D01*
X02249Y03675D02*
Y03771D01*
X0225Y03674D02*
Y03772D01*
X02251Y03673D02*
Y03773D01*
X02252Y03672D02*
Y03774D01*
X02253Y03671D02*
Y03775D01*
X02254Y0367D02*
Y03776D01*
X02255Y03669D02*
Y03777D01*
X02256Y03669D02*
Y03777D01*
X02257Y03668D02*
Y03778D01*
X02258Y03667D02*
Y03779D01*
X02259Y03666D02*
Y0378D01*
X0226Y03666D02*
Y0378D01*
X02261Y03665D02*
Y03781D01*
X02262Y03664D02*
Y03782D01*
X02263Y03664D02*
Y03782D01*
X02264Y03663D02*
Y03783D01*
X02265Y03663D02*
Y03783D01*
X02266Y03662D02*
Y03784D01*
X02267Y03662D02*
Y03784D01*
X02268Y03661D02*
Y03785D01*
X02269Y03661D02*
Y03785D01*
X0227Y0366D02*
Y03786D01*
X02271Y0366D02*
Y03786D01*
X02272Y03659D02*
Y03787D01*
Y03827D02*
Y03828D01*
X02273Y03618D02*
Y0362D01*
Y03659D02*
Y03787D01*
Y03826D02*
Y03828D01*
X02274Y03618D02*
Y03621D01*
Y03659D02*
Y03787D01*
Y03825D02*
Y03828D01*
X02275Y03618D02*
Y03621D01*
Y03658D02*
Y03788D01*
Y03825D02*
Y03828D01*
X02276Y03618D02*
Y03622D01*
Y03658D02*
Y03788D01*
Y03824D02*
Y03828D01*
X02277Y03619D02*
Y03622D01*
Y03658D02*
Y03788D01*
Y03824D02*
Y03828D01*
X02278Y03619D02*
Y03623D01*
Y03658D02*
Y03788D01*
Y03823D02*
Y03827D01*
X02279Y03619D02*
Y03623D01*
Y03657D02*
Y03789D01*
Y03823D02*
Y03827D01*
X0228Y03619D02*
Y03624D01*
Y03657D02*
Y03789D01*
Y03822D02*
Y03827D01*
X02281Y03619D02*
Y03624D01*
Y03657D02*
Y03789D01*
Y03822D02*
Y03827D01*
X02282Y0362D02*
Y03625D01*
Y03657D02*
Y03789D01*
Y03821D02*
Y03827D01*
X02283Y0362D02*
Y03625D01*
Y03657D02*
Y03789D01*
Y0382D02*
Y03826D01*
X02284Y0362D02*
Y03626D01*
Y03656D02*
Y0379D01*
Y0382D02*
Y03826D01*
X02285Y0362D02*
Y03627D01*
Y03656D02*
Y0379D01*
Y03819D02*
Y03826D01*
X02286Y0362D02*
Y03627D01*
Y03656D02*
Y0379D01*
Y03819D02*
Y03826D01*
X02287Y03621D02*
Y03628D01*
Y03656D02*
Y03772D01*
Y03773D02*
Y0379D01*
Y03818D02*
Y03825D01*
X02288Y03621D02*
Y03628D01*
Y03656D02*
Y03673D01*
Y03675D02*
Y03771D01*
Y03773D02*
Y0379D01*
Y03818D02*
Y03825D01*
X02289Y03621D02*
Y03629D01*
Y03656D02*
Y03673D01*
Y03676D02*
Y0377D01*
Y03773D02*
Y0379D01*
Y03817D02*
Y03825D01*
X0229Y03622D02*
Y03629D01*
Y03656D02*
Y03673D01*
Y03677D02*
Y03769D01*
Y03773D02*
Y0379D01*
Y03816D02*
Y03824D01*
X02291Y03622D02*
Y0363D01*
Y03655D02*
Y03673D01*
Y03679D02*
Y03767D01*
Y03773D02*
Y03791D01*
Y03816D02*
Y03824D01*
X02292Y03622D02*
Y03631D01*
Y03655D02*
Y03673D01*
Y0368D02*
Y03766D01*
Y03773D02*
Y03791D01*
Y03815D02*
Y03824D01*
X02293Y03622D02*
Y03631D01*
Y03655D02*
Y03674D01*
Y03681D02*
Y03765D01*
Y03773D02*
Y03791D01*
Y03814D02*
Y03824D01*
X02294Y03623D02*
Y03632D01*
Y03655D02*
Y03674D01*
Y03683D02*
Y03763D01*
Y03772D02*
Y03791D01*
Y03814D02*
Y03823D01*
X02295Y03623D02*
Y03633D01*
Y03655D02*
Y03674D01*
Y03684D02*
Y03762D01*
Y03772D02*
Y03791D01*
Y03813D02*
Y03823D01*
X02296Y03623D02*
Y03633D01*
Y03655D02*
Y03674D01*
Y03686D02*
Y03761D01*
Y03772D02*
Y03791D01*
Y03812D02*
Y03823D01*
X02297Y03624D02*
Y03634D01*
Y03655D02*
Y03674D01*
Y03687D02*
Y03759D01*
Y03772D02*
Y03791D01*
Y03812D02*
Y03822D01*
X02298Y03624D02*
Y03635D01*
Y03655D02*
Y03675D01*
Y03689D02*
Y03757D01*
Y03771D02*
Y03791D01*
Y03811D02*
Y03822D01*
X02299Y03625D02*
Y03636D01*
Y03655D02*
Y03675D01*
Y0369D02*
Y03755D01*
Y03771D02*
Y03791D01*
Y0381D02*
Y03822D01*
X023Y03625D02*
Y03636D01*
Y03655D02*
Y03676D01*
Y03692D02*
Y03754D01*
Y0377D02*
Y03791D01*
Y03809D02*
Y03821D01*
X02301Y03625D02*
Y03637D01*
Y03655D02*
Y03676D01*
Y03694D02*
Y03751D01*
Y0377D02*
Y03791D01*
Y03809D02*
Y03821D01*
X02302Y03626D02*
Y03638D01*
Y03655D02*
Y03677D01*
Y03696D02*
Y03749D01*
Y03769D02*
Y03791D01*
Y03808D02*
Y0382D01*
X02303Y03626D02*
Y03639D01*
Y03655D02*
Y03678D01*
Y03699D02*
Y03747D01*
Y03769D02*
Y03791D01*
Y03807D02*
Y0382D01*
X02304Y03627D02*
Y0364D01*
Y03655D02*
Y03678D01*
Y03701D02*
Y03745D01*
Y03768D02*
Y03791D01*
Y03806D02*
Y0382D01*
X02305Y03627D02*
Y03641D01*
Y03655D02*
Y03679D01*
Y03704D02*
Y03742D01*
Y03767D02*
Y03791D01*
Y03805D02*
Y03819D01*
X02306Y03628D02*
Y03642D01*
Y03655D02*
Y0368D01*
Y03706D02*
Y0374D01*
Y03766D02*
Y03791D01*
Y03804D02*
Y03819D01*
X02307Y03628D02*
Y03643D01*
Y03655D02*
Y03682D01*
Y03707D02*
Y03739D01*
Y03764D02*
Y03791D01*
Y03803D02*
Y03818D01*
X02308Y03629D02*
Y03644D01*
Y03655D02*
Y03683D01*
Y03706D02*
Y0374D01*
Y03763D02*
Y03792D01*
Y03803D02*
Y03818D01*
X02309Y03629D02*
Y03645D01*
Y03654D02*
Y03684D01*
Y03705D02*
Y03741D01*
Y03762D02*
Y03792D01*
Y03802D02*
Y03817D01*
X0231Y0363D02*
Y03646D01*
Y03655D02*
Y03686D01*
Y03704D02*
Y03742D01*
Y0376D02*
Y03791D01*
Y03801D02*
Y03817D01*
X02311Y0363D02*
Y03647D01*
Y03656D02*
Y03688D01*
Y03702D02*
Y03744D01*
Y03758D02*
Y0379D01*
Y038D02*
Y03816D01*
X02312Y03631D02*
Y03648D01*
Y03658D02*
Y03691D01*
Y037D02*
Y03747D01*
Y03755D02*
Y03788D01*
Y03798D02*
Y03816D01*
X02313Y03631D02*
Y03649D01*
Y03659D02*
Y03787D01*
Y03797D02*
Y03815D01*
X02314Y03632D02*
Y0365D01*
Y03661D02*
Y03785D01*
Y03796D02*
Y03814D01*
X02315Y03551D02*
Y03557D01*
Y03633D02*
Y03651D01*
Y03662D02*
Y03784D01*
Y03795D02*
Y03814D01*
Y03889D02*
Y03897D01*
X02316Y03548D02*
Y03559D01*
Y03633D02*
Y03652D01*
Y03664D02*
Y03782D01*
Y03794D02*
Y03813D01*
Y03886D02*
Y03899D01*
X02317Y03547D02*
Y03561D01*
Y03634D02*
Y03653D01*
Y03666D02*
Y0378D01*
Y03793D02*
Y03813D01*
Y03885D02*
Y039D01*
X02318Y03546D02*
Y03562D01*
Y03634D02*
Y03655D01*
Y03667D02*
Y03779D01*
Y03791D02*
Y03812D01*
Y03883D02*
Y03901D01*
X02319Y03545D02*
Y03563D01*
Y03635D02*
Y03656D01*
Y03669D02*
Y03777D01*
Y0379D02*
Y03811D01*
Y03882D02*
Y03902D01*
X0232Y03544D02*
Y03564D01*
Y03636D02*
Y03657D01*
Y03671D02*
Y03775D01*
Y03789D02*
Y03811D01*
Y03882D02*
Y03903D01*
X02321Y03544D02*
Y03566D01*
Y03636D02*
Y03659D01*
Y03673D02*
Y03722D01*
Y03724D02*
Y03773D01*
Y03787D02*
Y0381D01*
Y03881D02*
Y03903D01*
X02322Y03543D02*
Y03567D01*
Y03637D02*
Y0366D01*
Y03675D02*
Y03722D01*
Y03724D02*
Y03771D01*
Y03786D02*
Y03809D01*
Y0388D02*
Y03903D01*
X02323Y03543D02*
Y03568D01*
Y03638D02*
Y03662D01*
Y03677D02*
Y03721D01*
Y03725D02*
Y03769D01*
Y03784D02*
Y03809D01*
Y03879D02*
Y03903D01*
X02324Y03543D02*
Y03569D01*
Y03638D02*
Y03663D01*
Y0368D02*
Y0372D01*
Y03726D02*
Y03766D01*
Y03783D02*
Y03808D01*
Y03878D02*
Y03903D01*
X02325Y03543D02*
Y03571D01*
Y03639D02*
Y03665D01*
Y03682D02*
Y0372D01*
Y03726D02*
Y03764D01*
Y03781D02*
Y03807D01*
Y03873D02*
Y03903D01*
X02326Y03543D02*
Y03629D01*
Y0364D02*
Y03667D01*
Y03684D02*
Y03719D01*
Y03727D02*
Y03762D01*
Y03779D02*
Y03806D01*
Y03816D02*
Y03903D01*
X02327Y03543D02*
Y0363D01*
Y03641D02*
Y03669D01*
Y03687D02*
Y03718D01*
Y03728D02*
Y03759D01*
Y03778D02*
Y03805D01*
Y03816D02*
Y03903D01*
X02328Y03543D02*
Y03631D01*
Y03641D02*
Y03671D01*
Y0369D02*
Y03718D01*
Y03728D02*
Y03756D01*
Y03776D02*
Y03805D01*
Y03815D02*
Y03903D01*
X02329Y03543D02*
Y03632D01*
Y03642D02*
Y03673D01*
Y03693D02*
Y03717D01*
Y03729D02*
Y03753D01*
Y03774D02*
Y03804D01*
Y03814D02*
Y03903D01*
X0233Y03543D02*
Y03632D01*
Y03643D02*
Y03675D01*
Y03697D02*
Y03716D01*
Y0373D02*
Y03749D01*
Y03772D02*
Y03803D01*
Y03813D02*
Y03902D01*
X02331Y03544D02*
Y03633D01*
Y03644D02*
Y03677D01*
Y03701D02*
Y03716D01*
Y0373D02*
Y03745D01*
Y0377D02*
Y03802D01*
Y03812D02*
Y03902D01*
X02332Y03545D02*
Y03634D01*
Y03645D02*
Y03679D01*
Y03707D02*
Y03715D01*
Y03731D02*
Y03739D01*
Y03767D02*
Y03801D01*
Y03811D02*
Y03901D01*
X02333Y03545D02*
Y03635D01*
Y03646D02*
Y03681D01*
Y03765D02*
Y038D01*
Y03811D02*
Y039D01*
X02334Y03546D02*
Y03636D01*
Y03647D02*
Y03684D01*
Y03763D02*
Y03799D01*
Y0381D02*
Y03899D01*
X02335Y03547D02*
Y03637D01*
Y03648D02*
Y03687D01*
Y0376D02*
Y03798D01*
Y03809D02*
Y03898D01*
X02336Y03548D02*
Y03638D01*
Y03649D02*
Y0369D01*
Y03757D02*
Y03797D01*
Y03808D02*
Y03897D01*
X02337Y03549D02*
Y03639D01*
Y0365D02*
Y03693D01*
Y03753D02*
Y03796D01*
Y03807D02*
Y03896D01*
X02338Y0355D02*
Y0364D01*
Y03651D02*
Y03697D01*
Y03749D02*
Y03795D01*
Y03806D02*
Y03897D01*
X02339Y03548D02*
Y03641D01*
Y03652D02*
Y03702D01*
Y03745D02*
Y03794D01*
Y03805D02*
Y03898D01*
X0234Y03547D02*
Y03642D01*
Y03653D02*
Y03708D01*
Y03739D02*
Y03793D01*
Y03804D02*
Y03899D01*
X02341Y03546D02*
Y03643D01*
Y03654D02*
Y03718D01*
Y03728D02*
Y03792D01*
Y03803D02*
Y039D01*
X02342Y03545D02*
Y03644D01*
Y03655D02*
Y03791D01*
Y03802D02*
Y03901D01*
X02343Y03545D02*
Y03645D01*
Y03657D02*
Y03789D01*
Y03801D02*
Y03902D01*
X02344Y03544D02*
Y03646D01*
Y03658D02*
Y03788D01*
Y038D02*
Y03902D01*
X02345Y03543D02*
Y03647D01*
Y03659D02*
Y03787D01*
Y03798D02*
Y03903D01*
X02346Y03543D02*
Y03648D01*
Y03661D02*
Y03785D01*
Y03797D02*
Y03903D01*
X02347Y03543D02*
Y03649D01*
Y03662D02*
Y03784D01*
Y03796D02*
Y03903D01*
X02348Y03543D02*
Y03651D01*
Y03663D02*
Y03782D01*
Y03795D02*
Y03903D01*
X02349Y03543D02*
Y03651D01*
Y03665D02*
Y03781D01*
Y03795D02*
Y03804D01*
Y03876D02*
Y03903D01*
X0235Y03543D02*
Y0357D01*
Y03666D02*
Y03779D01*
Y03879D02*
Y03903D01*
X02351Y03543D02*
Y03568D01*
Y03668D02*
Y03778D01*
Y03881D02*
Y03903D01*
X02352Y03543D02*
Y03567D01*
Y0367D02*
Y03776D01*
Y03882D02*
Y03903D01*
X02353Y03543D02*
Y03566D01*
Y03671D02*
Y03774D01*
Y03883D02*
Y03903D01*
X02354Y03544D02*
Y03564D01*
Y03673D02*
Y03772D01*
Y03884D02*
Y03903D01*
X02355Y03545D02*
Y03563D01*
Y03675D02*
Y0377D01*
Y03885D02*
Y03902D01*
X02356Y03546D02*
Y03562D01*
Y03677D02*
Y03768D01*
Y03886D02*
Y03901D01*
X02357Y03547D02*
Y0356D01*
Y03679D02*
Y03766D01*
Y03887D02*
Y03901D01*
X02358Y03549D02*
Y03559D01*
Y03682D02*
Y03764D01*
Y03889D02*
Y039D01*
X02359Y03552D02*
Y03556D01*
Y03664D02*
Y03666D01*
Y03684D02*
Y03761D01*
Y0378D02*
Y03781D01*
Y03891D02*
Y03898D01*
X0236Y03664D02*
Y03668D01*
Y03687D02*
Y03759D01*
Y03778D02*
Y03781D01*
X02361Y03664D02*
Y0367D01*
Y0369D02*
Y03756D01*
Y03776D02*
Y03781D01*
X02362Y03664D02*
Y03673D01*
Y03693D02*
Y03753D01*
Y03774D02*
Y03781D01*
X02363Y03665D02*
Y03675D01*
Y03697D02*
Y03749D01*
Y03771D02*
Y03781D01*
X02364Y03665D02*
Y03677D01*
Y03701D02*
Y03744D01*
Y03769D02*
Y03781D01*
X02365Y03665D02*
Y03679D01*
Y03707D02*
Y03739D01*
Y03766D02*
Y03781D01*
X02366Y03665D02*
Y03679D01*
Y03715D02*
Y03729D01*
Y03766D02*
Y03781D01*
X02367Y03666D02*
Y03679D01*
Y03766D02*
Y0378D01*
X02368Y03666D02*
Y03679D01*
Y03684D02*
Y03689D01*
Y03757D02*
Y03761D01*
Y03766D02*
Y0378D01*
X02369Y03666D02*
Y03679D01*
Y03684D02*
Y03692D01*
Y03753D02*
Y03762D01*
Y03766D02*
Y0378D01*
X0237Y03667D02*
Y03679D01*
Y03684D02*
Y03698D01*
Y03749D02*
Y03762D01*
Y03766D02*
Y0378D01*
X02371Y03667D02*
Y03679D01*
Y03684D02*
Y03698D01*
Y03748D02*
Y03762D01*
Y03766D02*
Y03779D01*
X02372Y03667D02*
Y03679D01*
Y03684D02*
Y03698D01*
Y03703D02*
Y03713D01*
Y03735D02*
Y03743D01*
Y03748D02*
Y03762D01*
Y03767D02*
Y03779D01*
X02373Y03668D02*
Y03679D01*
Y03684D02*
Y03698D01*
Y03703D02*
Y0372D01*
Y03726D02*
Y03743D01*
Y03748D02*
Y03762D01*
Y03767D02*
Y03778D01*
X02374Y03668D02*
Y03679D01*
Y03684D02*
Y03698D01*
Y03703D02*
Y0372D01*
Y03726D02*
Y03743D01*
Y03748D02*
Y03762D01*
Y03767D02*
Y03778D01*
X02375Y03668D02*
Y03679D01*
Y03684D02*
Y03698D01*
Y03703D02*
Y0372D01*
Y03726D02*
Y03743D01*
Y03748D02*
Y03762D01*
Y03767D02*
Y03777D01*
X02376Y03669D02*
Y03679D01*
Y03684D02*
Y03698D01*
Y03703D02*
Y0372D01*
Y03726D02*
Y03743D01*
Y03748D02*
Y03762D01*
Y03767D02*
Y03777D01*
X02377Y03669D02*
Y03679D01*
Y03683D02*
Y03698D01*
Y03703D02*
Y0372D01*
Y03726D02*
Y03743D01*
Y03748D02*
Y03762D01*
Y03767D02*
Y03776D01*
X02378Y0367D02*
Y03678D01*
Y03683D02*
Y03698D01*
Y03703D02*
Y0372D01*
Y03726D02*
Y03743D01*
Y03748D02*
Y03763D01*
Y03767D02*
Y03776D01*
X02379Y0367D02*
Y03678D01*
Y03683D02*
Y03698D01*
Y03703D02*
Y0372D01*
Y03726D02*
Y03743D01*
Y03748D02*
Y03763D01*
Y03767D02*
Y03775D01*
X0238Y03671D02*
Y03678D01*
Y03683D02*
Y03698D01*
Y03702D02*
Y0372D01*
Y03726D02*
Y03743D01*
Y03748D02*
Y03763D01*
Y03768D02*
Y03775D01*
X02381Y03671D02*
Y03678D01*
Y03683D02*
Y03698D01*
Y03702D02*
Y0372D01*
Y03726D02*
Y03743D01*
Y03748D02*
Y03763D01*
Y03768D02*
Y03774D01*
X02382Y03672D02*
Y03678D01*
Y03683D02*
Y03698D01*
Y03702D02*
Y0372D01*
Y03726D02*
Y03743D01*
Y03748D02*
Y03763D01*
Y03768D02*
Y03773D01*
X02383Y03673D02*
Y03678D01*
Y03683D02*
Y03697D01*
Y03702D02*
Y0372D01*
Y03726D02*
Y03744D01*
Y03748D02*
Y03763D01*
Y03768D02*
Y03772D01*
X02384Y03674D02*
Y03678D01*
Y03683D02*
Y03697D01*
Y03702D02*
Y0372D01*
Y03726D02*
Y03744D01*
Y03748D02*
Y03763D01*
Y03768D02*
Y03771D01*
X02385Y03676D02*
Y03677D01*
Y03683D02*
Y03697D01*
Y03702D02*
Y0372D01*
Y03726D02*
Y03744D01*
Y03748D02*
Y03763D01*
Y03768D02*
Y0377D01*
X02386Y03682D02*
Y03697D01*
Y03702D02*
Y0372D01*
Y03726D02*
Y03744D01*
Y03749D02*
Y03763D01*
X02387Y03682D02*
Y03697D01*
Y03702D02*
Y0372D01*
Y03726D02*
Y03744D01*
Y03749D02*
Y03763D01*
X02388Y03683D02*
Y03697D01*
Y03702D02*
Y0372D01*
Y03726D02*
Y03744D01*
Y03749D02*
Y03763D01*
X02389Y03683D02*
Y03697D01*
Y03702D02*
Y0372D01*
Y03726D02*
Y03744D01*
Y03749D02*
Y03762D01*
X0239Y03686D02*
Y03697D01*
Y03702D02*
Y0372D01*
Y03726D02*
Y03744D01*
Y03749D02*
Y0376D01*
X02391Y03689D02*
Y03697D01*
Y03702D02*
Y0372D01*
Y03726D02*
Y03744D01*
Y03749D02*
Y03756D01*
X02392Y03693D02*
Y03697D01*
Y03702D02*
Y0372D01*
Y03726D02*
Y03744D01*
Y03749D02*
Y03753D01*
X02393Y03681D02*
Y03683D01*
Y03702D02*
Y0372D01*
Y03726D02*
Y03744D01*
Y03763D02*
Y03766D01*
X02394Y03681D02*
Y03684D01*
Y03712D02*
Y0372D01*
Y03726D02*
Y0373D01*
Y03762D02*
Y03766D01*
X02395Y03681D02*
Y03686D01*
Y0376D02*
Y03766D01*
X02396Y03681D02*
Y03688D01*
Y03757D02*
Y03766D01*
X02397Y03681D02*
Y03691D01*
Y03755D02*
Y03766D01*
X02398Y03681D02*
Y03694D01*
Y03751D02*
Y03766D01*
X02399Y03681D02*
Y03699D01*
Y03747D02*
Y03766D01*
X024Y03681D02*
Y03707D01*
Y0374D02*
Y03766D01*
X02401Y03681D02*
Y03766D01*
X02402Y03681D02*
Y03766D01*
X02403Y03681D02*
Y03766D01*
X02404Y03681D02*
Y03766D01*
X02405Y03681D02*
Y03766D01*
X02406Y03681D02*
Y03765D01*
X02407Y03681D02*
Y03765D01*
X02408Y03681D02*
Y03765D01*
X02409Y03681D02*
Y03765D01*
X0241Y03681D02*
Y03765D01*
X02411Y03681D02*
Y03765D01*
X02412Y03681D02*
Y03765D01*
X02413Y03681D02*
Y03765D01*
X02414Y03681D02*
Y03765D01*
X02415Y03681D02*
Y03765D01*
X02416Y03681D02*
Y03765D01*
X02417Y03681D02*
Y03765D01*
X02418Y03681D02*
Y03765D01*
X02419Y03681D02*
Y03765D01*
X0242Y03681D02*
Y03765D01*
X02421Y03681D02*
Y03765D01*
X02422Y03681D02*
Y03765D01*
X02423Y03681D02*
Y03765D01*
X02424Y03681D02*
Y03765D01*
X02425Y03681D02*
Y03765D01*
X02426Y03681D02*
Y03765D01*
X02427Y03681D02*
Y03765D01*
X02428Y03681D02*
Y03765D01*
X02429Y03681D02*
Y03765D01*
X0243Y03681D02*
Y03765D01*
X02431Y03681D02*
Y03765D01*
X02432Y03681D02*
Y03765D01*
X02433Y03681D02*
Y03765D01*
X02434Y03681D02*
Y03765D01*
X02435Y03681D02*
Y03765D01*
X02436Y03681D02*
Y03765D01*
X02437Y03681D02*
Y03765D01*
X02438Y03681D02*
Y03765D01*
X02439Y03681D02*
Y03765D01*
X0244Y03681D02*
Y03765D01*
X02441Y03681D02*
Y03765D01*
X02442Y03681D02*
Y03765D01*
X02443Y03681D02*
Y03765D01*
X02444Y03681D02*
Y03765D01*
X02445Y03683D02*
Y03763D01*
X02446Y03686D02*
Y0376D01*
X02447Y03689D02*
Y03757D01*
X02448Y03694D02*
Y03752D01*
X02449Y037D02*
Y03746D01*
X0245Y03711D02*
Y03736D01*
X02451Y03711D02*
Y03736D01*
X02452Y03711D02*
Y03736D01*
X02453Y03711D02*
Y03736D01*
X02454Y03711D02*
Y03736D01*
X02455Y03711D02*
Y03736D01*
X02456Y03711D02*
Y03736D01*
X02457Y03711D02*
Y03736D01*
X02458Y03711D02*
Y03736D01*
X02459Y03711D02*
Y03736D01*
X0246Y03711D02*
Y03736D01*
X02461Y03711D02*
Y03736D01*
X02462Y03711D02*
Y03736D01*
X02463Y03711D02*
Y03736D01*
X02464Y03711D02*
Y03736D01*
X02465Y03711D02*
Y03736D01*
X02466Y03711D02*
Y03736D01*
X02467Y03711D02*
Y03736D01*
X02468Y03711D02*
Y03736D01*
X02469Y03711D02*
Y03736D01*
X0247Y03711D02*
Y03736D01*
X02471Y03711D02*
Y03736D01*
X02472Y03711D02*
Y03736D01*
X02473Y03711D02*
Y03736D01*
X02474Y03711D02*
Y03736D01*
X02475Y03711D02*
Y03736D01*
X02476Y03711D02*
Y03736D01*
X02477Y03711D02*
Y03736D01*
X02478Y03711D02*
Y03736D01*
X02479Y03711D02*
Y03736D01*
X0248Y03711D02*
Y03736D01*
X02481Y03711D02*
Y03736D01*
X02482Y03711D02*
Y03736D01*
X02483Y03711D02*
Y03736D01*
X02484Y03711D02*
Y03736D01*
X02485Y03711D02*
Y03736D01*
X02486Y03711D02*
Y03736D01*
X02487Y03711D02*
Y03736D01*
X02488Y03711D02*
Y03736D01*
X02489Y03711D02*
Y03736D01*
X0249Y03711D02*
Y03736D01*
X02491Y0371D02*
Y03737D01*
X02492Y03709D02*
Y03737D01*
X02493Y03708D02*
Y03738D01*
X02494Y03707D02*
Y03739D01*
X02495Y03706D02*
Y0374D01*
X02496Y03705D02*
Y03741D01*
X02497Y03704D02*
Y03742D01*
X02498Y03703D02*
Y03742D01*
X02499Y03702D02*
Y03743D01*
X025Y03702D02*
Y03743D01*
X02501Y03701D02*
Y03744D01*
X02502Y03701D02*
Y03744D01*
X02503Y03701D02*
Y03745D01*
X02504Y03701D02*
Y03745D01*
X02505Y03701D02*
Y03745D01*
X02506Y03701D02*
Y03745D01*
X02507Y03701D02*
Y03745D01*
X02508Y03701D02*
Y03745D01*
X02509Y03701D02*
Y03745D01*
X0251Y03701D02*
Y03723D01*
Y03724D02*
Y03744D01*
X02511Y03702D02*
Y03722D01*
Y03725D02*
Y03744D01*
X02512Y03702D02*
Y03721D01*
Y03726D02*
Y03743D01*
X02513Y03703D02*
Y03721D01*
Y03727D02*
Y03743D01*
X02514Y03704D02*
Y03719D01*
Y03728D02*
Y03742D01*
X02515Y03705D02*
Y03718D01*
Y03729D02*
Y03741D01*
X02516Y03706D02*
Y03716D01*
Y03731D02*
Y03739D01*
D16*
X04345Y01676D02*
X04395D01*
X04345D02*
X0437Y01701D01*
X04395Y01676D01*
X0429Y01731D02*
X0495D01*
X0429D02*
Y018123D01*
Y02056D02*
X0495D01*
X0429Y019748D02*
Y02056D01*
X0495Y01731D02*
Y02056D01*
X0429Y018123D02*
Y019748D01*
X04784Y02707D02*
X05474D01*
X04784D02*
Y02942D01*
X05474D01*
Y02707D02*
Y02942D01*
X04879Y02672D02*
X04904Y02647D01*
X04854D02*
X04879Y02672D01*
X04854Y02647D02*
X04904D01*
X03819Y02157D02*
Y02537D01*
X04019D01*
Y02157D02*
Y02537D01*
X03819Y02157D02*
X04019D01*
X03764Y02522D02*
X03789Y02497D01*
X03764Y02472D02*
Y02522D01*
Y02472D02*
X03789Y02497D01*
X040411Y029034D02*
X040612D01*
X037672D02*
Y029236D01*
Y031974D02*
X037873D01*
X040612Y031773D02*
Y031974D01*
Y029034D02*
Y029236D01*
X037672Y029034D02*
X037873D01*
X037672Y031773D02*
Y031974D01*
X040411D02*
X040612D01*
X03201Y02598D02*
Y03228D01*
X02356Y02598D02*
X03201D01*
X02356D02*
Y03228D01*
X03201D01*
X02741Y02758D02*
Y03073D01*
X02481Y02758D02*
X02741D01*
X02481D02*
Y03073D01*
X02741D01*
X02346Y02598D02*
Y03228D01*
X01501Y02598D02*
X02346D01*
X01501D02*
Y03228D01*
X02346D01*
X01886Y02758D02*
Y03073D01*
X01626Y02758D02*
X01886D01*
X01626D02*
Y03073D01*
X01886D01*
X019855Y040165D02*
X020054D01*
X019855Y042244D02*
X020054D01*
X019855Y040535D02*
X020054D01*
X019855Y042614D02*
X020054D01*
X04824Y021169D02*
X05799D01*
Y026819D01*
X04824D02*
X05799D01*
X04824Y021169D02*
Y026819D01*
X045766Y029404D02*
Y036604D01*
X055866D01*
Y029404D02*
Y036604D01*
X045766Y029404D02*
X055866D01*
X052492Y041205D02*
X052765D01*
X052492Y043275D02*
X052765D01*
X050695Y043002D02*
Y043275D01*
Y041205D02*
X050968D01*
X052765D02*
Y041478D01*
Y043002D02*
Y043275D01*
X050695D02*
X050968D01*
X050695Y041205D02*
Y041478D01*
X053337Y040999D02*
X054047D01*
X054833Y037749D02*
X055677D01*
X053337D02*
Y037975D01*
Y037749D02*
X054047D01*
X053337Y040772D02*
Y040999D01*
X054833D02*
X055677D01*
Y037749D02*
Y040999D01*
D17*
X026622Y021011D02*
X027374D01*
X020906D02*
X021359D01*
X027374Y017389D02*
Y021011D01*
X020906Y017389D02*
X027374D01*
X020906D02*
Y021011D01*
X022422D02*
X023158D01*
X023622D02*
X024658D01*
X025122D02*
X026158D01*
X021051Y030293D02*
X021307D01*
X022213D02*
X022469D01*
X020461Y027695D02*
Y029703D01*
X023059Y027695D02*
Y029703D01*
X020461Y027695D02*
X021307D01*
X022252D02*
X023059D01*
X022469Y030293D02*
X023059Y029703D01*
X020461D02*
X021051Y030293D01*
X029601D02*
X029857D01*
X030763D02*
X031019D01*
X029011Y027695D02*
Y029703D01*
X031609Y027695D02*
Y029703D01*
X029011Y027695D02*
X029857D01*
X030802D02*
X031609D01*
X031019Y030293D02*
X031609Y029703D01*
X029011D02*
X029601Y030293D01*
X028505Y025278D02*
X032095D01*
X028505Y021341D02*
Y025278D01*
Y021341D02*
X032095D01*
Y025278D01*
X024565Y025278D02*
X028155D01*
X024565Y021341D02*
Y025278D01*
Y021341D02*
X028155D01*
Y025278D01*
X018552Y021011D02*
X019588D01*
X017052D02*
X018088D01*
X015852D02*
X016588D01*
X014336Y017389D02*
Y021011D01*
Y017389D02*
X020804D01*
Y021011D01*
X014336D02*
X014789D01*
X020052D02*
X020804D01*
X033202D02*
X033954D01*
X027486D02*
X027939D01*
X033954Y017389D02*
Y021011D01*
X027486Y017389D02*
X033954D01*
X027486D02*
Y021011D01*
X029002D02*
X029738D01*
X030202D02*
X031238D01*
X031702D02*
X032738D01*
X039782D02*
X040534D01*
X034066D02*
X034519D01*
X040534Y017389D02*
Y021011D01*
X034066Y017389D02*
X040534D01*
X034066D02*
Y021011D01*
X035582D02*
X036318D01*
X036782D02*
X037818D01*
X038282D02*
X039318D01*
X012131Y026177D02*
X014375D01*
X01471D02*
X015084D01*
X014355Y025941D02*
X014375Y026177D01*
X01471D02*
X014729Y025941D01*
X014355D02*
X014729D01*
X012131Y026177D02*
X012131Y032083D01*
X012771Y032319D02*
X013105D01*
X013076Y032083D02*
X013105Y032319D01*
X012771D02*
X0128Y032083D01*
X012131D02*
X0128D01*
X015084Y026177D02*
Y032083D01*
X013076D02*
X015084D01*
X018421Y035307D02*
Y03641D01*
X021059Y035307D02*
Y03641D01*
X018421Y035307D02*
X021059D01*
X018421Y03641D02*
X021059D01*
X017112Y03585D02*
Y036602D01*
Y038865D02*
Y039318D01*
X01349Y03585D02*
X017112D01*
X01349D02*
Y039318D01*
X017112D01*
Y037066D02*
Y037802D01*
Y039465D02*
Y040217D01*
Y042481D02*
Y042934D01*
X01349Y039465D02*
X017112D01*
X01349D02*
Y042934D01*
X017112D01*
Y040682D02*
Y041418D01*
X025501Y045359D02*
X025757D01*
X026663D02*
X026919D01*
X024911Y042761D02*
Y044769D01*
X027509Y042761D02*
Y044769D01*
X024911Y042761D02*
X025757D01*
X026702D02*
X027509D01*
X026919Y045359D02*
X027509Y044769D01*
X024911D02*
X025501Y045359D01*
X030361Y035139D02*
Y037501D01*
Y035139D02*
X030637D01*
X030361Y037501D02*
X030637D01*
X031463D02*
X031739D01*
X031463Y035139D02*
X031739D01*
Y037501D01*
X030361Y038189D02*
Y040551D01*
Y038189D02*
X030637D01*
X030361Y040551D02*
X030637D01*
X031463D02*
X031739D01*
X031463Y038189D02*
X031739D01*
Y040551D01*
X032014Y038189D02*
Y040551D01*
Y038189D02*
X032289D01*
X032014Y040551D02*
X032289D01*
X033116D02*
X033392D01*
X033116Y038189D02*
X033392D01*
Y040551D01*
X030411Y042315D02*
Y044678D01*
Y042315D02*
X030687D01*
X030411Y044678D02*
X030687D01*
X031513D02*
X031789D01*
X031513Y042315D02*
X031789D01*
Y044678D01*
X032011Y042313D02*
Y044675D01*
Y042313D02*
X032287D01*
X032011Y044675D02*
X032287D01*
X033113D02*
X033389D01*
X033113Y042313D02*
X033389D01*
Y044675D01*
X05156Y03776D02*
X05186D01*
X05155Y0403D02*
X05187D01*
X0509Y03777D02*
Y0403D01*
X05187Y03776D02*
Y0403D01*
X0509Y03777D02*
X051129D01*
X0509Y0403D02*
X051129D01*
D18*
X02671Y03257D02*
Y04227D01*
X02556Y032638D02*
X02636D01*
Y033038D01*
X026227Y033171D01*
X026093D01*
X02596Y033038D01*
Y032638D01*
Y033038D01*
X025827Y033171D01*
X025694D01*
X02556Y033038D01*
Y032638D01*
X025827Y033571D02*
Y033838D01*
X02596Y033971D01*
X02636D01*
Y033571D01*
X026227Y033438D01*
X026093Y033571D01*
Y033971D01*
X02636Y034238D02*
Y034504D01*
Y034371D01*
X02556D01*
Y034238D01*
X025827Y035037D02*
Y035304D01*
X02596Y035437D01*
X02636D01*
Y035037D01*
X026227Y034904D01*
X026093Y035037D01*
Y035437D01*
X02636Y035704D02*
X025827D01*
Y036104D01*
X02596Y036237D01*
X02636D01*
X025827Y037037D02*
Y036637D01*
X02596Y036504D01*
X026227D01*
X02636Y036637D01*
Y037037D01*
Y037703D02*
Y037437D01*
X026227Y037303D01*
X02596D01*
X025827Y037437D01*
Y037703D01*
X02596Y037837D01*
X026093D01*
Y037303D01*
X02556Y038103D02*
X02636D01*
Y038503D01*
X026227Y038636D01*
X026093D01*
X02596Y038503D01*
Y038103D01*
Y038503D01*
X025827Y038636D01*
X025694D01*
X02556Y038503D01*
Y038103D01*
X02636Y039036D02*
Y039303D01*
X026227Y039436D01*
X02596D01*
X025827Y039303D01*
Y039036D01*
X02596Y038903D01*
X026227D01*
X02636Y039036D01*
X025694Y039836D02*
X025827D01*
Y039703D01*
Y039969D01*
Y039836D01*
X026227D01*
X02636Y039969D01*
X026493Y040369D02*
Y040902D01*
X02556Y041169D02*
X026093D01*
X02636Y041435D01*
X026093Y041702D01*
X02556D01*
X02636Y041969D02*
Y042235D01*
Y042102D01*
X02556D01*
X025694Y041969D01*
D19*
X05564Y0192D02*
Y02035D01*
X04958Y0192D02*
Y02035D01*
Y0192D02*
X05564D01*
X04958Y02035D02*
X05564D01*
X05059Y0192D02*
Y02033D01*
X03424Y03562D02*
Y03679D01*
X04425Y03562D02*
Y03679D01*
X03424D02*
X04425D01*
X03424Y03562D02*
X04425D01*
X03531D02*
Y03678D01*
X03434Y03402D02*
X03834D01*
X03434D02*
Y03502D01*
X03834D01*
Y03402D02*
Y03502D01*
X03529Y03402D02*
Y03501D01*
X03303Y03275D02*
X03421D01*
X03301Y02863D02*
X03423D01*
X03301Y03381D02*
X03423D01*
X03301Y02863D02*
Y03381D01*
X03423Y02863D02*
Y03381D01*
X04312Y04404D02*
X04712D01*
X04312D02*
Y04504D01*
X04712D01*
Y04404D02*
Y04504D01*
X04407Y04404D02*
Y04503D01*
X04145Y04277D02*
X0417D01*
Y042895D01*
X041658Y042936D01*
X041492D01*
X04145Y042895D01*
Y04277D01*
X0417Y043145D02*
X04145D01*
X041575Y04302D01*
Y043186D01*
D20*
X024861Y032792D02*
X024964Y032502D01*
X024759Y033015D02*
X024861Y032792D01*
X024559Y03334D02*
X024759Y033015D01*
X024464Y033457D02*
X024559Y03334D01*
X024318Y033611D02*
X024464Y033457D01*
X024226Y033682D02*
X024318Y033611D01*
X024109Y033761D02*
X024226Y033682D01*
X023939Y033832D02*
X024109Y033761D01*
X023584Y033957D02*
X023939Y033832D01*
X02353Y033969D02*
X023584Y033957D01*
X023364Y034007D02*
X02353Y033969D01*
X023193Y034044D02*
X023364Y034007D01*
X023093Y034067D02*
X023193Y034044D01*
X022988Y034075D02*
X023093Y034067D01*
X022884Y034083D02*
X022988Y034075D01*
X022793Y034088D02*
X022884Y034083D01*
X022452Y0341D02*
X022793Y034088D01*
D21*
X04595Y0394D02*
Y039067D01*
X046117Y039233D02*
X045783D01*
M02*
