G04*
G04 #@! TF.GenerationSoftware,Altium Limited,Altium Designer,18.1.6 (161)*
G04*
G04 Layer_Color=32896*
%FSTAX24Y24*%
%MOIN*%
G70*
G01*
G75*
%ADD10C,0.0098*%
%ADD11C,0.0080*%
%ADD12C,0.0200*%
%ADD13C,0.0050*%
%ADD14C,0.0040*%
%ADD16C,0.0060*%
%ADD17C,0.0079*%
%ADD20C,0.0158*%
%ADD129C,0.0090*%
G36*
X029368Y028183D02*
X029368Y028184D01*
X029355Y028354D01*
X029355Y028355D01*
X029355Y028356D01*
X029318Y028489D01*
X029317Y028489D01*
X029317Y02849D01*
X029242Y028669D01*
X029242Y028669D01*
X029242Y02867D01*
X029192Y028757D01*
X029191Y028758D01*
X029191Y028758D01*
X029145Y028808D01*
X029144Y028809D01*
X029144Y028809D01*
X029086Y028851D01*
X029086Y028851D01*
X029086Y028851D01*
X029011Y028901D01*
X029011Y028901D01*
X02901Y028901D01*
X028881Y028984D01*
X028881Y028984D01*
X028881Y028985D01*
X028831Y02901D01*
X028773Y029039D01*
X028771Y029039D01*
X02877Y02904D01*
X028753D01*
X028752Y029039D01*
X028751Y029039D01*
X028627Y02899D01*
X028627Y02899D01*
X028626Y02899D01*
X028626Y028989D01*
X028625Y028989D01*
X028625Y028988D01*
X028624Y028987D01*
X028624Y028986D01*
X028623Y028986D01*
X028605Y02891D01*
X028589Y028856D01*
X028589Y028856D01*
X028588Y028855D01*
X028572Y028776D01*
X028572Y028776D01*
X028572Y028776D01*
X028551Y028668D01*
X028551Y028668D01*
X028551Y028668D01*
X028534Y028572D01*
X028534Y028571D01*
X028534Y028571D01*
Y028479D01*
X028534Y028479D01*
X028534Y028478D01*
X028542Y028387D01*
X028543Y028386D01*
X028542Y028386D01*
X028559Y028315D01*
X028559Y028315D01*
X028559Y028315D01*
X028589Y028215D01*
X028589Y028214D01*
X028589Y028214D01*
X028651Y028101D01*
X028652Y028101D01*
X028652Y028101D01*
X028689Y028042D01*
X02869Y028042D01*
X02869Y028041D01*
X028811Y027924D01*
X028811Y027924D01*
X028811Y027924D01*
X028886Y027854D01*
X028886Y027854D01*
X028886Y027853D01*
X028941Y027807D01*
X028941Y027807D01*
X028942Y027807D01*
X029004Y027773D01*
X02912Y027707D01*
X029121Y027707D01*
X029121Y027707D01*
X029183Y027673D01*
X029185Y027673D01*
X029188Y027673D01*
X029188Y027673D01*
X029188Y027673D01*
X02919Y027674D01*
X029192Y027675D01*
X029271Y027792D01*
X029271Y027793D01*
X029271Y027793D01*
X029305Y027868D01*
X029305Y027868D01*
X029305Y027869D01*
X029334Y027965D01*
X029334Y027965D01*
X029334Y027965D01*
X029359Y028052D01*
X029359Y028053D01*
X029359Y028054D01*
X029368Y028183D01*
X029368Y028183D01*
D02*
G37*
G36*
X029218Y029923D02*
X029218Y029924D01*
X02921Y030003D01*
X02921Y030004D01*
X02921Y030004D01*
X029189Y030079D01*
X029152Y030229D01*
X029151Y03023D01*
Y03023D01*
X029131Y03028D01*
X02913Y03028D01*
X02913Y030281D01*
X029072Y030393D01*
X029072Y030393D01*
X029072Y030394D01*
X029005Y030494D01*
X029005Y030494D01*
X029005Y030494D01*
X028971Y030536D01*
X02897Y030536D01*
X028969Y030538D01*
X028968Y030538D01*
X028967Y030538D01*
X028966Y030538D01*
X028964Y030538D01*
X028889Y030509D01*
X028889Y030508D01*
X028888Y030508D01*
X028801Y030462D01*
X028801Y030462D01*
X028801Y030462D01*
X028738Y030429D01*
X028738Y030429D01*
X028738Y030429D01*
X028613Y030341D01*
X028612Y030341D01*
X028612Y030341D01*
X028553Y030282D01*
X028553Y030282D01*
X028553Y030281D01*
X028507Y030215D01*
X028507Y030214D01*
X028506Y030214D01*
X028473Y030147D01*
X028473Y030147D01*
X028473Y030147D01*
X028427Y030051D01*
X028427Y030051D01*
X028427Y030051D01*
X028402Y029993D01*
X028402Y029992D01*
X028402Y029991D01*
X028385Y029891D01*
X028385Y029891D01*
X028385Y02989D01*
X028381Y02974D01*
X028381Y02974D01*
X028381Y02974D01*
X028389Y029581D01*
X028389Y029581D01*
X028389Y02958D01*
X028414Y02946D01*
X028414Y029459D01*
X028414Y029459D01*
X028444Y029359D01*
X028444Y029359D01*
X028444Y029358D01*
X02849Y029258D01*
X02849Y029258D01*
X02849Y029258D01*
X028536Y029183D01*
X028536Y029182D01*
X028536Y029182D01*
X028578Y029128D01*
X028578Y029128D01*
X028578Y029127D01*
X028579Y029127D01*
X02858Y029126D01*
X028581Y029126D01*
X028582Y029125D01*
X028583Y029125D01*
X028583Y029125D01*
X028584Y029126D01*
X028585Y029126D01*
X028835Y029205D01*
X028837Y029206D01*
X028838Y029207D01*
X028854Y029232D01*
X028962Y029323D01*
X029012Y029364D01*
X029012Y029365D01*
X029013Y029365D01*
X029067Y029427D01*
X029067Y029428D01*
X029067Y029428D01*
X029134Y029533D01*
X029134Y029533D01*
X029134Y029533D01*
X029176Y029621D01*
X029176Y029621D01*
X029177Y029622D01*
X029206Y029772D01*
X029206Y029772D01*
X029206Y029773D01*
X029218Y029923D01*
X029218Y029923D01*
D02*
G37*
G36*
X030734Y029625D02*
X030734Y029625D01*
X030822Y029612D01*
X030822Y029612D01*
X030822Y029612D01*
X030901Y029596D01*
X030901Y029596D01*
X030901Y029596D01*
X031014Y029571D01*
X031014Y02957D01*
X031015Y02957D01*
X031065Y029549D01*
X031065Y029549D01*
X031065Y029549D01*
X031132Y02952D01*
X031132Y02952D01*
X031133Y02952D01*
X031179Y029486D01*
X031179Y029486D01*
X031179Y029486D01*
X031262Y029423D01*
X031262Y029423D01*
X031263Y029423D01*
X031321Y02936D01*
X031321Y02936D01*
X031321Y02936D01*
X031392Y029281D01*
X031392Y02928D01*
X031393Y02928D01*
X03143Y029222D01*
X03143Y029221D01*
X031431Y029221D01*
X031464Y02915D01*
X031464Y029148D01*
X031464Y029146D01*
X031464Y029146D01*
X031464Y029146D01*
X031463Y029144D01*
X031461Y029142D01*
X03142Y029121D01*
X031354Y029076D01*
X031353Y029076D01*
X031353Y029076D01*
X031257Y029017D01*
X031257Y029017D01*
X031256Y029017D01*
X031181Y028987D01*
X031181Y028987D01*
X031181Y028987D01*
X031102Y028958D01*
X031101Y028958D01*
X031101Y028958D01*
X030988Y028945D01*
X030988Y028945D01*
X030988Y028945D01*
X030892Y028937D01*
X030892Y028937D01*
X030892Y028937D01*
X030733D01*
X030733Y028937D01*
X030733Y028937D01*
X030658Y028941D01*
X030657Y028942D01*
X030657Y028941D01*
X030573Y028962D01*
X030573Y028962D01*
X030573Y028962D01*
X03049Y028983D01*
X03049Y028983D01*
X030489Y028983D01*
X030414Y029012D01*
X030314Y02905D01*
X030314Y02905D01*
X030314Y02905D01*
X030247Y029088D01*
X030247Y029088D01*
X030246Y029088D01*
X030138Y029172D01*
X030137Y029172D01*
X030137Y029173D01*
X030062Y029269D01*
X030062Y029269D01*
X030061Y029269D01*
X030028Y029323D01*
X030028Y029324D01*
X030027Y029325D01*
X029998Y029429D01*
X029998Y02943D01*
X029998Y029431D01*
X029998Y029433D01*
X029998Y029434D01*
X029999Y029435D01*
X03Y029436D01*
X030001Y029436D01*
X030002Y029437D01*
X030003Y029437D01*
X030004Y029437D01*
X030037Y029437D01*
X030047Y02945D01*
X030048Y029451D01*
X030048Y029451D01*
X030112Y029507D01*
X030112Y029507D01*
X030113Y029508D01*
X030165Y029544D01*
X030165Y029544D01*
X030166Y029544D01*
X03023Y029572D01*
X03023Y029572D01*
X03023Y029572D01*
X030265Y029583D01*
X030265Y029583D01*
X030265Y029583D01*
X030353Y0296D01*
X030353Y0296D01*
X030353Y0296D01*
X030403Y029608D01*
X030403Y029608D01*
X030404Y029608D01*
X030512Y029616D01*
X030512Y029616D01*
X030512Y029616D01*
X030641Y029625D01*
X030641Y029625D01*
X030642Y029625D01*
X030733D01*
X030734Y029625D01*
D02*
G37*
G36*
X030034Y030561D02*
X030034Y030561D01*
X030036Y030559D01*
X030038Y030558D01*
X030096Y030475D01*
X030096Y030474D01*
X030097Y030474D01*
X030126Y030407D01*
Y030407D01*
X030126Y030407D01*
X030155Y030341D01*
X030155Y03034D01*
X030155Y030339D01*
X030176Y030248D01*
X030176Y030248D01*
X030176Y030247D01*
X030193Y030147D01*
X030193Y030147D01*
X030193Y030146D01*
X030185Y030034D01*
X030185Y030033D01*
X030185Y030033D01*
X030168Y029953D01*
X030168Y029953D01*
X030168Y029952D01*
X03013Y029861D01*
X03013Y02986D01*
X03013Y02986D01*
X030096Y02979D01*
X030092Y029779D01*
X030092Y029779D01*
X030092Y029779D01*
X030081Y029757D01*
X030081Y029757D01*
X030081Y029757D01*
X03007Y029736D01*
X03007Y029736D01*
X03007Y029736D01*
X030057Y029716D01*
X030057Y029715D01*
X030057Y029715D01*
X03005Y029705D01*
X03005Y029705D01*
X03005Y029705D01*
X029978Y029617D01*
X029978Y029616D01*
X029978Y029616D01*
X029908Y029546D01*
X029907Y029546D01*
X029907Y029545D01*
X029832Y029495D01*
X029832Y029495D01*
X029831Y029495D01*
X029694Y029424D01*
X029693Y029424D01*
X029692Y029423D01*
X029563Y029403D01*
X029562Y029403D01*
X029562Y029403D01*
X029561Y029403D01*
X02956Y029403D01*
X029559Y029404D01*
X029558Y029404D01*
X029558Y029404D01*
X029557Y029404D01*
X029557Y029405D01*
X029556Y029406D01*
X029514Y029476D01*
X029514Y029477D01*
X029514Y029478D01*
X029497Y029528D01*
X029497Y029528D01*
X029497Y029528D01*
X02948Y029591D01*
X029481Y029591D01*
X02948Y029591D01*
X029468Y029679D01*
X029468Y029679D01*
X029468Y029679D01*
X029447Y029875D01*
X029447Y029876D01*
X029447Y029876D01*
X029455Y02998D01*
X029456Y029981D01*
X029456Y029982D01*
X029472Y030036D01*
X029472Y030036D01*
X029472Y030036D01*
X02951Y030136D01*
X02951Y030137D01*
X02951Y030137D01*
X029585Y030254D01*
X029585Y030254D01*
X029586Y030254D01*
X029644Y030333D01*
X029644Y030334D01*
X029645Y030335D01*
X029703Y030385D01*
X029703Y030385D01*
X029703Y030385D01*
X029766Y030435D01*
X029767Y030435D01*
X029767Y030435D01*
X029859Y030481D01*
X029859Y030481D01*
X029859Y030481D01*
X029934Y030519D01*
X029934Y030519D01*
X029934Y030519D01*
X029996Y030544D01*
X030029Y03056D01*
X030031Y030561D01*
X030033Y030561D01*
X030034Y030561D01*
D02*
G37*
G36*
X029712Y029339D02*
X029714Y029338D01*
X029756Y029313D01*
X029756Y029313D01*
X029756Y029313D01*
X029885Y029234D01*
X029885Y029234D01*
X029885Y029234D01*
X030035Y029117D01*
X030036Y029116D01*
X030037Y029116D01*
X030116Y028995D01*
X030116Y028995D01*
X030116Y028994D01*
X030149Y028933D01*
X03015Y028932D01*
X030187Y028861D01*
X030187Y02886D01*
X030187Y02886D01*
X030208Y028793D01*
X030208Y028793D01*
X030209Y028793D01*
X030234Y028701D01*
X030233Y028701D01*
X030234Y0287D01*
X030246Y028517D01*
X030246Y028516D01*
X030246Y028516D01*
X030238Y028441D01*
X030237Y02844D01*
X030237Y02844D01*
X030221Y028381D01*
X030221Y028381D01*
X030221Y028381D01*
X030196Y028306D01*
X030195Y028306D01*
X030195Y028305D01*
X030133Y028184D01*
X030133Y028184D01*
X030133Y028184D01*
X030062Y028075D01*
X03006Y028074D01*
X030059Y028073D01*
X030058Y028073D01*
X030058Y028073D01*
X030056Y028073D01*
X030054Y028073D01*
X029983Y028102D01*
X029983Y028102D01*
X029983Y028102D01*
X029879Y028152D01*
X029878Y028152D01*
X029878Y028152D01*
X029699Y028257D01*
X029699Y028257D01*
X029698Y028258D01*
X029631Y02832D01*
X029631Y02832D01*
X029631Y028321D01*
X029568Y0284D01*
X029568Y0284D01*
X029568Y0284D01*
X029531Y02845D01*
X02953Y028451D01*
X02953Y028452D01*
X0295Y028522D01*
Y028523D01*
X0295Y028523D01*
X029467Y028636D01*
X029467Y028636D01*
X029467Y028636D01*
X029442Y028811D01*
X029442Y028812D01*
X029442Y028813D01*
X029446Y028958D01*
X029446Y028959D01*
X029446Y028959D01*
X029488Y029147D01*
X029488Y029148D01*
X029488Y029148D01*
X029567Y029315D01*
X029568Y029316D01*
X029568Y029316D01*
X029568Y029316D01*
X029568Y029317D01*
X02957Y029317D01*
X029571Y029318D01*
X029571Y029318D01*
X029572Y029319D01*
X02971Y029339D01*
X029712Y029339D01*
D02*
G37*
G36*
X042175Y021235D02*
Y021135D01*
X042325D01*
Y021235D01*
X042175D01*
D02*
G37*
G36*
X04905Y02212D02*
X0493Y02187D01*
X04905Y02162D01*
Y02212D01*
D02*
G37*
G36*
X05Y01737D02*
D01*
D02*
G37*
G36*
X034425Y02413D02*
Y02423D01*
X034275D01*
Y02413D01*
X034425D01*
D02*
G37*
G36*
X046675Y025905D02*
Y026005D01*
X046825D01*
Y025905D01*
X046675D01*
D02*
G37*
G36*
X04743Y0354D02*
X04706D01*
Y03412D01*
X04743D01*
Y0354D01*
D02*
G37*
D10*
X026491Y037889D02*
G03*
X026491Y037889I-000049J0D01*
G01*
X026441Y041039D02*
G03*
X026441Y041039I-000049J0D01*
G01*
X026449Y044139D02*
G03*
X026449Y044139I-000049J0D01*
G01*
D11*
X0274Y028887D02*
X0278D01*
Y029087D01*
X027733Y029153D01*
X0276D01*
X027533Y029087D01*
Y028887D01*
X0278Y029287D02*
Y02942D01*
Y029353D01*
X0274D01*
Y029287D01*
Y02942D01*
X0278Y029886D02*
Y02962D01*
X0276D01*
Y029753D01*
Y02962D01*
X0274D01*
X014433Y026887D02*
X0145Y02682D01*
Y026687D01*
X014433Y02662D01*
X014167D01*
X0141Y026687D01*
Y02682D01*
X014167Y026887D01*
X0143D01*
Y026753D01*
X0141Y02702D02*
X0145D01*
X0141Y027286D01*
X0145D01*
Y02742D02*
X0141D01*
Y02762D01*
X014167Y027686D01*
X014433D01*
X0145Y02762D01*
Y02742D01*
X01444Y02861D02*
X01404D01*
Y028877D01*
X01444Y029276D02*
Y02901D01*
X01404D01*
Y029276D01*
X01424Y02901D02*
Y029143D01*
X01444Y02941D02*
X01404D01*
Y02961D01*
X014107Y029676D01*
X014373D01*
X01444Y02961D01*
Y02941D01*
X01443Y031037D02*
Y03077D01*
X01423D01*
X014297Y030903D01*
Y03097D01*
X01423Y031037D01*
X014097D01*
X01403Y03097D01*
Y030837D01*
X014097Y03077D01*
X01443Y03117D02*
X014163D01*
X01403Y031303D01*
X014163Y031436D01*
X01443D01*
X01914Y036467D02*
X019407Y036733D01*
X01914D02*
X019407Y036467D01*
X01914Y0366D02*
X019407D01*
X019273Y036733D02*
Y036467D01*
X04772Y02289D02*
X047387D01*
X04732Y022957D01*
Y02309D01*
X047387Y023157D01*
X04772D01*
X04732Y02349D02*
X04772D01*
X04752Y02329D01*
Y023556D01*
X027673Y044553D02*
X02774Y04462D01*
X027873D01*
X02794Y044553D01*
Y044287D01*
X027873Y04422D01*
X02774D01*
X027673Y044287D01*
X02754Y04422D02*
X027407D01*
X027473D01*
Y04462D01*
X02754Y044553D01*
X027207Y04422D02*
X027074D01*
X02714D01*
Y04462D01*
X027207Y044553D01*
X03723Y02227D02*
X036897D01*
X03683Y022337D01*
Y02247D01*
X036897Y022537D01*
X03723D01*
Y022936D02*
X037163Y022803D01*
X03703Y02267D01*
X036897D01*
X03683Y022737D01*
Y02287D01*
X036897Y022936D01*
X036963D01*
X03703Y02287D01*
Y02267D01*
X02148Y03686D02*
X021147D01*
X02108Y036927D01*
Y03706D01*
X021147Y037127D01*
X02148D01*
Y037526D02*
Y03726D01*
X02128D01*
X021347Y037393D01*
Y03746D01*
X02128Y037526D01*
X021147D01*
X02108Y03746D01*
Y037327D01*
X021147Y03726D01*
X04431Y04046D02*
X043977D01*
X04391Y040527D01*
Y04066D01*
X043977Y040727D01*
X04431D01*
X04391Y041126D02*
Y04086D01*
X044177Y041126D01*
X044243D01*
X04431Y04106D01*
Y040927D01*
X044243Y04086D01*
X02184Y03808D02*
X02224D01*
Y03828D01*
X022173Y038347D01*
X02204D01*
X021973Y03828D01*
Y03808D01*
Y038213D02*
X02184Y038347D01*
X022173Y03848D02*
X02224Y038547D01*
Y03868D01*
X022173Y038746D01*
X022107D01*
X02204Y03868D01*
Y038613D01*
Y03868D01*
X021973Y038746D01*
X021907D01*
X02184Y03868D01*
Y038547D01*
X021907Y03848D01*
X02184Y03908D02*
X02224D01*
X02204Y03888D01*
Y039146D01*
X01875Y0396D02*
Y04D01*
X01855D01*
X018483Y039933D01*
Y0398D01*
X01855Y039733D01*
X01875D01*
X018617D02*
X018483Y0396D01*
X01835Y039933D02*
X018283Y04D01*
X01815D01*
X018084Y039933D01*
Y039867D01*
X01815Y0398D01*
X018217D01*
X01815D01*
X018084Y039733D01*
Y039667D01*
X01815Y0396D01*
X018283D01*
X01835Y039667D01*
X01795Y039933D02*
X017884Y04D01*
X01775D01*
X017684Y039933D01*
Y039867D01*
X01775Y0398D01*
X017817D01*
X01775D01*
X017684Y039733D01*
Y039667D01*
X01775Y0396D01*
X017884D01*
X01795Y039667D01*
X05057Y03262D02*
X05087D01*
Y03277D01*
X05082Y03282D01*
X05072D01*
X05067Y03277D01*
Y03262D01*
Y03272D02*
X05057Y03282D01*
X05082Y03292D02*
X05087Y03297D01*
Y03307D01*
X05082Y03312D01*
X05077D01*
X05072Y03307D01*
Y03302D01*
Y03307D01*
X05067Y03312D01*
X05062D01*
X05057Y03307D01*
Y03297D01*
X05062Y03292D01*
X05057Y03342D02*
Y03322D01*
X05077Y03342D01*
X05082D01*
X05087Y03337D01*
Y03327D01*
X05082Y03322D01*
X05299Y033464D02*
Y033764D01*
X05284D01*
X05279Y033714D01*
Y033614D01*
X05284Y033564D01*
X05299D01*
X05289D02*
X05279Y033464D01*
X05269Y033714D02*
X05264Y033764D01*
X05254D01*
X05249Y033714D01*
Y033664D01*
X05254Y033614D01*
X05259D01*
X05254D01*
X05249Y033564D01*
Y033514D01*
X05254Y033464D01*
X05264D01*
X05269Y033514D01*
X05239Y033464D02*
X05229D01*
X05234D01*
Y033764D01*
X05239Y033714D01*
X05286Y03137D02*
Y03177D01*
X05266D01*
X052593Y031703D01*
Y03157D01*
X05266Y031503D01*
X05286D01*
X052727D02*
X052593Y03137D01*
X052194D02*
X05246D01*
X052194Y031637D01*
Y031703D01*
X05226Y03177D01*
X052393D01*
X05246Y031703D01*
X051794Y03177D02*
X05206D01*
Y03157D01*
X051927Y031637D01*
X05186D01*
X051794Y03157D01*
Y031437D01*
X05186Y03137D01*
X051994D01*
X05206Y031437D01*
X04973Y03055D02*
X05013D01*
Y03075D01*
X050063Y030817D01*
X04993D01*
X049863Y03075D01*
Y03055D01*
Y030683D02*
X04973Y030817D01*
Y031216D02*
Y03095D01*
X049997Y031216D01*
X050063D01*
X05013Y03115D01*
Y031017D01*
X050063Y03095D01*
X04973Y031616D02*
Y03135D01*
X049997Y031616D01*
X050063D01*
X05013Y03155D01*
Y031416D01*
X050063Y03135D01*
X03157Y04406D02*
Y04446D01*
X03137D01*
X031303Y044393D01*
Y04426D01*
X03137Y044193D01*
X03157D01*
X031437D02*
X031303Y04406D01*
X03117D02*
X031037D01*
X031103D01*
Y04446D01*
X03117Y044393D01*
X030637Y04406D02*
Y04446D01*
X030837Y04426D01*
X03057D01*
X05187Y0301D02*
X05227D01*
Y0303D01*
X052203Y030367D01*
X05207D01*
X052003Y0303D01*
Y0301D01*
Y030233D02*
X05187Y030367D01*
Y0305D02*
Y030633D01*
Y030567D01*
X05227D01*
X052203Y0305D01*
X05187Y030833D02*
Y030966D01*
Y0309D01*
X05227D01*
X052203Y030833D01*
X03957Y03252D02*
X03997D01*
Y03272D01*
X039903Y032787D01*
X03977D01*
X039703Y03272D01*
Y03252D01*
Y032653D02*
X03957Y032787D01*
X039637Y03292D02*
X03957Y032987D01*
Y03312D01*
X039637Y033186D01*
X039903D01*
X03997Y03312D01*
Y032987D01*
X039903Y03292D01*
X039837D01*
X03977Y032987D01*
Y033186D01*
X04133Y02793D02*
Y02833D01*
X04113D01*
X041063Y028263D01*
Y02813D01*
X04113Y028063D01*
X04133D01*
X041197D02*
X041063Y02793D01*
X04093Y028263D02*
X040863Y02833D01*
X04073D01*
X040664Y028263D01*
Y028197D01*
X04073Y02813D01*
X040664Y028063D01*
Y027997D01*
X04073Y02793D01*
X040863D01*
X04093Y027997D01*
Y028063D01*
X040863Y02813D01*
X04093Y028197D01*
Y028263D01*
X040863Y02813D02*
X04073D01*
X04565Y03912D02*
X04605D01*
Y03932D01*
X045983Y039387D01*
X04585D01*
X045783Y03932D01*
Y03912D01*
Y039253D02*
X04565Y039387D01*
X04605Y03952D02*
Y039786D01*
X045983D01*
X045717Y03952D01*
X04565D01*
X04614Y030404D02*
Y030804D01*
X04594D01*
X045873Y030738D01*
Y030604D01*
X04594Y030538D01*
X04614D01*
X046007D02*
X045873Y030404D01*
X04554D02*
Y030804D01*
X04574Y030604D01*
X045474D01*
X05042Y03442D02*
Y03482D01*
X05022D01*
X050153Y034753D01*
Y03462D01*
X05022Y034553D01*
X05042D01*
X050287D02*
X050153Y03442D01*
X05002Y034753D02*
X049953Y03482D01*
X04982D01*
X049754Y034753D01*
Y034687D01*
X04982Y03462D01*
X049887D01*
X04982D01*
X049754Y034553D01*
Y034487D01*
X04982Y03442D01*
X049953D01*
X05002Y034487D01*
X04955Y03439D02*
Y03479D01*
X04935D01*
X049283Y034723D01*
Y03459D01*
X04935Y034523D01*
X04955D01*
X049417D02*
X049283Y03439D01*
X048884D02*
X04915D01*
X048884Y034657D01*
Y034723D01*
X04895Y03479D01*
X049083D01*
X04915Y034723D01*
X04862Y032D02*
Y0324D01*
X04842D01*
X048353Y032333D01*
Y0322D01*
X04842Y032133D01*
X04862D01*
X048487D02*
X048353Y032D01*
X04822D02*
X048087D01*
X048153D01*
Y0324D01*
X04822Y032333D01*
X054687Y034217D02*
X054953D01*
X05502Y03415D01*
Y034017D01*
X054953Y03395D01*
X054687D01*
X05462Y034017D01*
Y03415D01*
X054753Y034083D02*
X05462Y034217D01*
Y03415D02*
X054687Y034217D01*
X05502Y03435D02*
Y034616D01*
X054953D01*
X054687Y03435D01*
X05462D01*
X051803Y035097D02*
Y035363D01*
X05187Y03543D01*
X052003D01*
X05207Y035363D01*
Y035097D01*
X052003Y03503D01*
X05187D01*
X051937Y035163D02*
X051803Y03503D01*
X05187D02*
X051803Y035097D01*
X051404Y03543D02*
X051537Y035363D01*
X05167Y03523D01*
Y035097D01*
X051603Y03503D01*
X05147D01*
X051404Y035097D01*
Y035163D01*
X05147Y03523D01*
X05167D01*
X020313Y039717D02*
Y039983D01*
X02038Y04005D01*
X020513D01*
X02058Y039983D01*
Y039717D01*
X020513Y03965D01*
X02038D01*
X020447Y039783D02*
X020313Y03965D01*
X02038D02*
X020313Y039717D01*
X01998Y03965D02*
Y04005D01*
X02018Y03985D01*
X019914D01*
X046257Y041726D02*
X046523D01*
X04659Y04166D01*
Y041526D01*
X046523Y04146D01*
X046257D01*
X04619Y041526D01*
Y04166D01*
X046323Y041593D02*
X04619Y041726D01*
Y04166D02*
X046257Y041726D01*
X046523Y04186D02*
X04659Y041926D01*
Y042059D01*
X046523Y042126D01*
X046457D01*
X04639Y042059D01*
Y041993D01*
Y042059D01*
X046323Y042126D01*
X046257D01*
X04619Y042059D01*
Y041926D01*
X046257Y04186D01*
X054767Y031982D02*
X055033D01*
X0551Y031916D01*
Y031782D01*
X055033Y031716D01*
X054767D01*
X0547Y031782D01*
Y031916D01*
X054833Y031849D02*
X0547Y031982D01*
Y031916D02*
X054767Y031982D01*
X0547Y032382D02*
Y032115D01*
X054967Y032382D01*
X055033D01*
X0551Y032315D01*
Y032182D01*
X055033Y032115D01*
X054767Y030615D02*
X055033D01*
X0551Y030548D01*
Y030415D01*
X055033Y030349D01*
X054767D01*
X0547Y030415D01*
Y030548D01*
X054833Y030482D02*
X0547Y030615D01*
Y030548D02*
X054767Y030615D01*
X0547Y030748D02*
Y030882D01*
Y030815D01*
X0551D01*
X055033Y030748D01*
X05357Y04131D02*
X05397D01*
X053837Y041443D01*
X05397Y041577D01*
X05357D01*
X05397Y04171D02*
Y041976D01*
X053903D01*
X053637Y04171D01*
X05357D01*
X0491Y02479D02*
X0495D01*
X049367Y024923D01*
X0495Y025057D01*
X0491D01*
X049433Y02519D02*
X0495Y025257D01*
Y02539D01*
X049433Y025456D01*
X049367D01*
X0493Y02539D01*
Y025323D01*
Y02539D01*
X049233Y025456D01*
X049167D01*
X0491Y02539D01*
Y025257D01*
X049167Y02519D01*
X02332Y03615D02*
Y036283D01*
Y036217D01*
X02292D01*
Y03615D01*
Y036283D01*
X023253Y03675D02*
X02332Y036683D01*
Y03655D01*
X023253Y036483D01*
X022987D01*
X02292Y03655D01*
Y036683D01*
X022987Y03675D01*
X02292Y037083D02*
X02332D01*
X02312Y036883D01*
Y03715D01*
X02332Y03915D02*
Y039283D01*
Y039217D01*
X02292D01*
Y03915D01*
Y039283D01*
X023253Y03975D02*
X02332Y039683D01*
Y03955D01*
X023253Y039483D01*
X022987D01*
X02292Y03955D01*
Y039683D01*
X022987Y03975D01*
X023253Y039883D02*
X02332Y03995D01*
Y040083D01*
X023253Y04015D01*
X023187D01*
X02312Y040083D01*
Y040016D01*
Y040083D01*
X023053Y04015D01*
X022987D01*
X02292Y040083D01*
Y03995D01*
X022987Y039883D01*
X0234Y04255D02*
Y042683D01*
Y042617D01*
X023D01*
Y04255D01*
Y042683D01*
X023333Y04315D02*
X0234Y043083D01*
Y04295D01*
X023333Y042883D01*
X023067D01*
X023Y04295D01*
Y043083D01*
X023067Y04315D01*
X023Y043283D02*
Y043416D01*
Y04335D01*
X0234D01*
X023333Y043283D01*
X033543Y043197D02*
X03361Y04313D01*
Y042997D01*
X033543Y04293D01*
X033277D01*
X03321Y042997D01*
Y04313D01*
X033277Y043197D01*
X033543Y04333D02*
X03361Y043397D01*
Y04353D01*
X033543Y043596D01*
X033477D01*
X03341Y04353D01*
Y043463D01*
Y04353D01*
X033343Y043596D01*
X033277D01*
X03321Y04353D01*
Y043397D01*
X033277Y04333D01*
X033543Y04373D02*
X03361Y043796D01*
Y04393D01*
X033543Y043996D01*
X033477D01*
X03341Y04393D01*
Y043863D01*
Y04393D01*
X033343Y043996D01*
X033277D01*
X03321Y04393D01*
Y043796D01*
X033277Y04373D01*
X045873Y032283D02*
X04594Y03235D01*
X046073D01*
X04614Y032283D01*
Y032017D01*
X046073Y03195D01*
X04594D01*
X045873Y032017D01*
X045474Y03195D02*
X04574D01*
X045474Y032217D01*
Y032283D01*
X04554Y03235D01*
X045673D01*
X04574Y032283D01*
X04534D02*
X045274Y03235D01*
X04514D01*
X045074Y032283D01*
Y032217D01*
X04514Y03215D01*
X045074Y032083D01*
Y032017D01*
X04514Y03195D01*
X045274D01*
X04534Y032017D01*
Y032083D01*
X045274Y03215D01*
X04534Y032217D01*
Y032283D01*
X045274Y03215D02*
X04514D01*
X045873Y031513D02*
X04594Y03158D01*
X046073D01*
X04614Y031513D01*
Y031247D01*
X046073Y03118D01*
X04594D01*
X045873Y031247D01*
X045474Y03118D02*
X04574D01*
X045474Y031447D01*
Y031513D01*
X04554Y03158D01*
X045673D01*
X04574Y031513D01*
X04534Y03158D02*
X045074D01*
Y031513D01*
X04534Y031247D01*
Y03118D01*
X053573Y036253D02*
X05364Y03632D01*
X053773D01*
X05384Y036253D01*
Y035987D01*
X053773Y03592D01*
X05364D01*
X053573Y035987D01*
X053174Y03592D02*
X05344D01*
X053174Y036187D01*
Y036253D01*
X05324Y03632D01*
X053373D01*
X05344Y036253D01*
X052774Y03632D02*
X052907Y036253D01*
X05304Y03612D01*
Y035987D01*
X052974Y03592D01*
X05284D01*
X052774Y035987D01*
Y036053D01*
X05284Y03612D01*
X05304D01*
X047193Y036033D02*
X04726Y0361D01*
X047393D01*
X04746Y036033D01*
Y035767D01*
X047393Y0357D01*
X04726D01*
X047193Y035767D01*
X046794Y0357D02*
X04706D01*
X046794Y035967D01*
Y036033D01*
X04686Y0361D01*
X046993D01*
X04706Y036033D01*
X046394Y0361D02*
X04666D01*
Y0359D01*
X046527Y035967D01*
X04646D01*
X046394Y0359D01*
Y035767D01*
X04646Y0357D01*
X046594D01*
X04666Y035767D01*
X037223Y025403D02*
X03729Y02547D01*
X037423D01*
X03749Y025403D01*
Y025137D01*
X037423Y02507D01*
X03729D01*
X037223Y025137D01*
X036824Y02507D02*
X03709D01*
X036824Y025337D01*
Y025403D01*
X03689Y02547D01*
X037023D01*
X03709Y025403D01*
X03649Y02507D02*
Y02547D01*
X03669Y02527D01*
X036424D01*
X048693Y021273D02*
X04876Y02134D01*
X048893D01*
X04896Y021273D01*
Y021007D01*
X048893Y02094D01*
X04876D01*
X048693Y021007D01*
X048294Y02094D02*
X04856D01*
X048294Y021207D01*
Y021273D01*
X04836Y02134D01*
X048493D01*
X04856Y021273D01*
X04816D02*
X048094Y02134D01*
X04796D01*
X047894Y021273D01*
Y021207D01*
X04796Y02114D01*
X048027D01*
X04796D01*
X047894Y021073D01*
Y021007D01*
X04796Y02094D01*
X048094D01*
X04816Y021007D01*
X049503Y029824D02*
X04957Y02989D01*
X049703D01*
X04977Y029824D01*
Y029557D01*
X049703Y02949D01*
X04957D01*
X049503Y029557D01*
X049104Y02949D02*
X04937D01*
X049104Y029757D01*
Y029824D01*
X04917Y02989D01*
X049303D01*
X04937Y029824D01*
X048704Y02949D02*
X04897D01*
X048704Y029757D01*
Y029824D01*
X04877Y02989D01*
X048904D01*
X04897Y029824D01*
X048163Y026387D02*
X04823Y02632D01*
Y026187D01*
X048163Y02612D01*
X047897D01*
X04783Y026187D01*
Y02632D01*
X047897Y026387D01*
X04783Y026786D02*
Y02652D01*
X048097Y026786D01*
X048163D01*
X04823Y02672D01*
Y026587D01*
X048163Y02652D01*
X04783Y02692D02*
Y027053D01*
Y026986D01*
X04823D01*
X048163Y02692D01*
X039153Y026833D02*
X03922Y0269D01*
X039353D01*
X03942Y026833D01*
Y026567D01*
X039353Y0265D01*
X03922D01*
X039153Y026567D01*
X038754Y0265D02*
X03902D01*
X038754Y026767D01*
Y026833D01*
X03882Y0269D01*
X038953D01*
X03902Y026833D01*
X03862D02*
X038554Y0269D01*
X03842D01*
X038354Y026833D01*
Y026567D01*
X03842Y0265D01*
X038554D01*
X03862Y026567D01*
Y026833D01*
X028503Y036867D02*
X02857Y0368D01*
Y036667D01*
X028503Y0366D01*
X028237D01*
X02817Y036667D01*
Y0368D01*
X028237Y036867D01*
X02817Y037D02*
Y037133D01*
Y037067D01*
X02857D01*
X028503Y037D01*
X028237Y037333D02*
X02817Y0374D01*
Y037533D01*
X028237Y0376D01*
X028503D01*
X02857Y037533D01*
Y0374D01*
X028503Y037333D01*
X028437D01*
X02837Y0374D01*
Y0376D01*
X020113Y035593D02*
X02018Y03566D01*
X020313D01*
X02038Y035593D01*
Y035327D01*
X020313Y03526D01*
X02018D01*
X020113Y035327D01*
X01998Y03526D02*
X019847D01*
X019913D01*
Y03566D01*
X01998Y035593D01*
X019647D02*
X01958Y03566D01*
X019447D01*
X01938Y035593D01*
Y035527D01*
X019447Y03546D01*
X01938Y035393D01*
Y035327D01*
X019447Y03526D01*
X01958D01*
X019647Y035327D01*
Y035393D01*
X01958Y03546D01*
X019647Y035527D01*
Y035593D01*
X01958Y03546D02*
X019447D01*
X017163Y036817D02*
X01723Y03675D01*
Y036617D01*
X017163Y03655D01*
X016897D01*
X01683Y036617D01*
Y03675D01*
X016897Y036817D01*
X01683Y03695D02*
Y037083D01*
Y037017D01*
X01723D01*
X017163Y03695D01*
X01723Y037283D02*
Y03755D01*
X017163D01*
X016897Y037283D01*
X01683D01*
X027693Y041044D02*
X02776Y04111D01*
X027893D01*
X02796Y041044D01*
Y040777D01*
X027893Y04071D01*
X02776D01*
X027693Y040777D01*
X02756Y04071D02*
X027427D01*
X027493D01*
Y04111D01*
X02756Y041044D01*
X02696Y04111D02*
X027094Y041044D01*
X027227Y04091D01*
Y040777D01*
X02716Y04071D01*
X027027D01*
X02696Y040777D01*
Y040844D01*
X027027Y04091D01*
X027227D01*
X025393Y028757D02*
X02546Y02869D01*
Y028557D01*
X025393Y02849D01*
X025127D01*
X02506Y028557D01*
Y02869D01*
X025127Y028757D01*
X02506Y02889D02*
Y029023D01*
Y028957D01*
X02546D01*
X025393Y02889D01*
X02546Y02949D02*
Y029223D01*
X02526D01*
X025327Y029356D01*
Y029423D01*
X02526Y02949D01*
X025127D01*
X02506Y029423D01*
Y02929D01*
X025127Y029223D01*
X033573Y039097D02*
X03364Y03903D01*
Y038897D01*
X033573Y03883D01*
X033307D01*
X03324Y038897D01*
Y03903D01*
X033307Y039097D01*
X03324Y03923D02*
Y039363D01*
Y039297D01*
X03364D01*
X033573Y03923D01*
Y039563D02*
X03364Y03963D01*
Y039763D01*
X033573Y03983D01*
X033507D01*
X03344Y039763D01*
Y039696D01*
Y039763D01*
X033373Y03983D01*
X033307D01*
X03324Y039763D01*
Y03963D01*
X033307Y039563D01*
X037713Y030717D02*
X03778Y03065D01*
Y030517D01*
X037713Y03045D01*
X037447D01*
X03738Y030517D01*
Y03065D01*
X037447Y030717D01*
X03738Y03105D02*
X03778D01*
X03758Y03085D01*
Y031116D01*
X039213Y029037D02*
X03928Y02897D01*
Y028837D01*
X039213Y02877D01*
X038947D01*
X03888Y028837D01*
Y02897D01*
X038947Y029037D01*
X039213Y02917D02*
X03928Y029237D01*
Y02937D01*
X039213Y029436D01*
X039147D01*
X03908Y02937D01*
Y029303D01*
Y02937D01*
X039013Y029436D01*
X038947D01*
X03888Y02937D01*
Y029237D01*
X038947Y02917D01*
X040813Y030667D02*
X04088Y0306D01*
Y030467D01*
X040813Y0304D01*
X040547D01*
X04048Y030467D01*
Y0306D01*
X040547Y030667D01*
X04048Y031066D02*
Y0308D01*
X040747Y031066D01*
X040813D01*
X04088Y031D01*
Y030867D01*
X040813Y0308D01*
D12*
X053537Y037049D02*
G03*
X053537Y037049I-00015J0D01*
G01*
D13*
X05254Y03509D02*
X05407D01*
X05254D02*
Y03576D01*
X05407D01*
Y03509D02*
Y03576D01*
X05425Y032674D02*
Y033354D01*
X05273D02*
X05425D01*
X05273Y032674D02*
Y033354D01*
Y032674D02*
X05425D01*
X05245Y031264D02*
X05313D01*
X05245Y029744D02*
Y031264D01*
Y029744D02*
X05313D01*
Y031264D01*
X05154Y03187D02*
Y03255D01*
Y03187D02*
X05306D01*
Y03255D01*
X05154D02*
X05306D01*
X04895Y032654D02*
Y034174D01*
X04963D01*
Y032654D02*
Y034174D01*
X04895Y032654D02*
X04963D01*
X04975D02*
Y034174D01*
X05043D01*
Y032654D02*
Y034174D01*
X04975Y032654D02*
X05043D01*
X046358Y032444D02*
X047888D01*
Y031774D02*
Y032444D01*
X046358Y031774D02*
X047888D01*
X046358D02*
Y032444D01*
Y031694D02*
X047888D01*
Y031024D02*
Y031694D01*
X046358Y031024D02*
X047888D01*
X046358D02*
Y031694D01*
X0484Y0286D02*
X04993D01*
X0484D02*
Y02927D01*
X04993D01*
Y0286D02*
Y02927D01*
X04844Y02727D02*
X04911D01*
X04844Y02574D02*
Y02727D01*
Y02574D02*
X04911D01*
Y02727D01*
X04812Y02221D02*
X04965D01*
Y02154D02*
Y02221D01*
X04812Y02154D02*
X04965D01*
X04812D02*
Y02221D01*
X038537Y03231D02*
X040057D01*
Y03163D02*
Y03231D01*
X038537Y03163D02*
X040057D01*
X038537D02*
Y03231D01*
X03792Y031564D02*
X03859D01*
X03792Y030034D02*
Y031564D01*
Y030034D02*
X03859D01*
Y031564D01*
X03943Y029684D02*
Y031214D01*
X03876Y029684D02*
X03943D01*
X03876D02*
Y031214D01*
X03943D01*
X040205Y029979D02*
Y031509D01*
X039535Y029979D02*
X040205D01*
X039535D02*
Y031509D01*
X040205D01*
X03843Y026309D02*
X03996D01*
Y025639D02*
Y026309D01*
X03843Y025639D02*
X03996D01*
X03843D02*
Y026309D01*
X03734Y02336D02*
Y02489D01*
X03667Y02336D02*
X03734D01*
X03667D02*
Y02489D01*
X03734D01*
X02567Y02826D02*
X02634D01*
Y02979D01*
X02567D02*
X02634D01*
X02567Y02826D02*
Y02979D01*
X017399Y036226D02*
Y037756D01*
X018069D01*
Y036226D02*
Y037756D01*
X017399Y036226D02*
X018069D01*
X019069Y036486D02*
X020599D01*
Y035816D02*
Y036486D01*
X019069Y035816D02*
X020599D01*
X019069D02*
Y036486D01*
X02782Y03898D02*
Y04051D01*
X02715Y03898D02*
X02782D01*
X02715D02*
Y04051D01*
X02782D01*
X02799Y03626D02*
Y03779D01*
X02732Y03626D02*
X02799D01*
X02732D02*
Y03779D01*
X02799D01*
X02722Y04404D02*
X02789D01*
X02722Y04251D02*
Y04404D01*
Y04251D02*
X02789D01*
Y04404D01*
X03034Y043886D02*
X03186D01*
Y043206D02*
Y043886D01*
X03034Y043206D02*
X03186D01*
X03034D02*
Y043886D01*
X03236Y042726D02*
Y044256D01*
X03303D01*
Y042726D02*
Y044256D01*
X03236Y042726D02*
X03303D01*
X033027Y03861D02*
Y04014D01*
X032357Y03861D02*
X033027D01*
X032357D02*
Y04014D01*
X033027D01*
X039509Y028504D02*
Y029184D01*
Y028504D02*
X041028D01*
Y029184D01*
X039509D02*
X041028D01*
X044824Y03869D02*
X045504D01*
Y04021D01*
X044824D02*
X045504D01*
X044824Y03869D02*
Y04021D01*
X020999Y037836D02*
X021679D01*
Y039356D01*
X020999D02*
X021679D01*
X020999Y037836D02*
Y039356D01*
X018949Y038706D02*
Y039386D01*
X017429D02*
X018949D01*
X017429Y038706D02*
Y039386D01*
Y038706D02*
X018949D01*
X048041Y031814D02*
X048721D01*
X048041Y030294D02*
Y031814D01*
Y030294D02*
X048721D01*
Y031814D01*
X04885D02*
X04953D01*
X04885Y030294D02*
Y031814D01*
Y030294D02*
X04953D01*
Y031814D01*
X046368Y030944D02*
X047888D01*
Y030264D02*
Y030944D01*
X046368Y030264D02*
X047888D01*
X046368D02*
Y030944D01*
X05098Y032674D02*
X0525D01*
X05098D02*
Y033354D01*
X0525D01*
Y032674D02*
Y033354D01*
D14*
X05313Y03568D02*
X05347D01*
X05313Y03518D02*
X05347D01*
X05339Y032744D02*
X05359D01*
X05339Y033294D02*
X05359D01*
X05306Y030404D02*
Y030604D01*
X05251Y030404D02*
Y030604D01*
X0522Y03248D02*
X0524D01*
X0522Y03193D02*
X0524D01*
X04957Y033314D02*
Y033514D01*
X04902Y033314D02*
Y033514D01*
X05037Y033314D02*
Y033514D01*
X04982Y033314D02*
Y033514D01*
X046958Y031854D02*
X047298D01*
X046958Y032354D02*
X047298D01*
X046958Y031104D02*
X047298D01*
X046958Y031604D02*
X047298D01*
X04899Y02919D02*
X04933D01*
X04899Y02869D02*
X04933D01*
X04902Y02633D02*
Y02667D01*
X04852Y02633D02*
Y02667D01*
X04872Y02162D02*
X04906D01*
X04872Y02212D02*
X04906D01*
X039197Y03169D02*
X039397D01*
X039197Y03224D02*
X039397D01*
X0385Y030624D02*
Y030964D01*
X038Y030624D02*
Y030964D01*
X03884Y030274D02*
Y030614D01*
X03934Y030274D02*
Y030614D01*
X039615Y030569D02*
Y030909D01*
X040115Y030569D02*
Y030909D01*
X03903Y025719D02*
X03937D01*
X03903Y026219D02*
X03937D01*
X03675Y02395D02*
Y02429D01*
X03725Y02395D02*
Y02429D01*
X02576Y02886D02*
Y0292D01*
X02626Y02886D02*
Y0292D01*
X017989Y036826D02*
Y037166D01*
X017489Y036826D02*
Y037166D01*
X019669Y035896D02*
X020009D01*
X019669Y036396D02*
X020009D01*
X02723Y03957D02*
Y03991D01*
X02773Y03957D02*
Y03991D01*
X0274Y03685D02*
Y03719D01*
X0279Y03685D02*
Y03719D01*
X0278Y0431D02*
Y04344D01*
X0273Y0431D02*
Y04344D01*
X031Y043266D02*
X0312D01*
X031Y043816D02*
X0312D01*
X03295Y043326D02*
Y043666D01*
X03245Y043326D02*
Y043666D01*
X032437Y0392D02*
Y03954D01*
X032937Y0392D02*
Y03954D01*
X040168Y029114D02*
X040368D01*
X040168Y028564D02*
X040368D01*
X044894Y03935D02*
Y03955D01*
X045444Y03935D02*
Y03955D01*
X021069Y038496D02*
Y038696D01*
X021619Y038496D02*
Y038696D01*
X018089Y038776D02*
X018289D01*
X018089Y039326D02*
X018289D01*
X048651Y030954D02*
Y031154D01*
X048101Y030954D02*
Y031154D01*
X04946Y030954D02*
Y031154D01*
X04891Y030954D02*
Y031154D01*
X047028Y030324D02*
X047228D01*
X047028Y030874D02*
X047228D01*
X05164Y033294D02*
X05184D01*
X05164Y032744D02*
X05184D01*
D16*
X05439Y033764D02*
G03*
X05439Y033764I-00005J0D01*
G01*
X05259Y03382D02*
G03*
X05259Y03382I-00005J0D01*
G01*
X05356Y03122D02*
G03*
X05356Y03122I-00005J0D01*
G01*
Y029803D02*
G03*
X05356Y029803I-00005J0D01*
G01*
X04512Y040337D02*
G03*
X04512Y040337I-00005J0D01*
G01*
X019239Y039146D02*
G03*
X019239Y039146I-00005J0D01*
G01*
X053781Y034539D02*
X05418D01*
X053406Y033889D02*
X053674D01*
X0529D02*
Y034539D01*
X053299D01*
X05418Y033889D02*
Y034539D01*
X051981Y034595D02*
X05238D01*
X051606Y033945D02*
X051874D01*
X0511D02*
Y034595D01*
X051499D01*
X05238Y033945D02*
Y034595D01*
X053635Y03138D02*
X054285D01*
Y032261D02*
Y03266D01*
X053635D02*
X054285D01*
X053635Y031886D02*
Y032154D01*
X054285Y03138D02*
Y031779D01*
X053635Y029963D02*
X054285D01*
Y030844D02*
Y031243D01*
X053635D02*
X054285D01*
X053635Y030469D02*
Y030737D01*
X054285Y029963D02*
Y030362D01*
X04611Y035319D02*
Y035394D01*
Y034114D02*
X04767D01*
X04611D02*
Y03419D01*
Y035394D02*
X04767D01*
Y035319D02*
Y035394D01*
Y034114D02*
Y03419D01*
X0497Y02102D02*
Y02667D01*
Y02102D02*
X0613D01*
Y02667D01*
X0497D02*
X0613D01*
X04905Y02212D02*
X0493Y02187D01*
X04905Y02162D02*
X0493Y02187D01*
X04905Y02162D02*
Y02212D01*
X04189Y022025D02*
X042014D01*
X04711D02*
Y025115D01*
X046986Y022025D02*
X04711D01*
X04189D02*
Y025115D01*
X042014D01*
X046986D02*
X04711D01*
X03662Y021835D02*
Y023505D01*
X03308Y021835D02*
Y023505D01*
X019614Y037866D02*
X020364D01*
Y037088D02*
Y037404D01*
X019614Y036626D02*
X020364D01*
X0437Y03627D02*
Y04702D01*
X03495D02*
X0437D01*
X03495Y03627D02*
Y04702D01*
Y03627D02*
X0437D01*
X045195Y040497D02*
X045845D01*
Y041378D02*
Y041777D01*
X045195D02*
X045845D01*
X045195Y041003D02*
Y041271D01*
X045845Y040497D02*
Y040896D01*
X04715Y036609D02*
X0532D01*
Y048259D01*
X04705D02*
X0532D01*
X04705Y036609D02*
Y048259D01*
Y036609D02*
X04715D01*
X019349Y038371D02*
X019748D01*
X019855Y039021D02*
X020123D01*
X020629Y038371D02*
Y039021D01*
X02023Y038371D02*
X020629D01*
X019349D02*
Y039021D01*
D17*
X024749Y035251D02*
X025851D01*
X024749Y037889D02*
X025851D01*
X024749Y035251D02*
Y037889D01*
X025851Y035251D02*
Y037889D01*
X024699Y038401D02*
X025801D01*
X024699Y041039D02*
X025801D01*
X024699Y038401D02*
Y041039D01*
X025801Y038401D02*
Y041039D01*
X024707Y041501D02*
X025809D01*
X024707Y044139D02*
X025809D01*
X024707Y041501D02*
Y044139D01*
X025809Y041501D02*
Y044139D01*
D20*
X029877Y029368D02*
X030218Y02938D01*
X029786Y029363D02*
X029877Y029368D01*
X029682Y029355D02*
X029786Y029363D01*
X029577Y029347D02*
X029682Y029355D01*
X029477Y029324D02*
X029577Y029347D01*
X029306Y029287D02*
X029477Y029324D01*
X02914Y029249D02*
X029306Y029287D01*
X029086Y029237D02*
X02914Y029249D01*
X028731Y029112D02*
X029086Y029237D01*
X028561Y029041D02*
X028731Y029112D01*
X028444Y028962D02*
X028561Y029041D01*
X028352Y028891D02*
X028444Y028962D01*
X028206Y028737D02*
X028352Y028891D01*
X028111Y02862D02*
X028206Y028737D01*
X027911Y028295D02*
X028111Y02862D01*
X027809Y028072D02*
X027911Y028295D01*
X027706Y027782D02*
X027809Y028072D01*
D129*
X041413Y02564D02*
X041747Y025307D01*
Y02564D02*
X041413Y025307D01*
X04158Y02564D02*
Y025307D01*
X041747Y025473D02*
X041413D01*
X037167Y02131D02*
X036833Y021643D01*
Y02131D02*
X037167Y021643D01*
X037Y02131D02*
Y021643D01*
X036833Y021477D02*
X037167D01*
M02*
