G04*
G04 #@! TF.GenerationSoftware,Altium Limited,Altium Designer,18.1.6 (161)*
G04*
G04 Layer_Color=16711935*
%FSTAX24Y24*%
%MOIN*%
G70*
G01*
G75*
%ADD11C,0.0080*%
%ADD15C,0.0010*%
%ADD130C,0.0039*%
D11*
X030421Y022207D02*
X030154D01*
X030421Y022474D01*
Y022541D01*
X030354Y022607D01*
X030221D01*
X030154Y022541D01*
X029185Y024418D02*
X029052D01*
X028985Y024352D01*
Y024085D01*
X029052Y024018D01*
X029185D01*
X029252Y024085D01*
Y024352D01*
X029185Y024418D01*
X029385Y024018D02*
Y024418D01*
X029651Y024018D01*
Y024418D01*
X029209Y022207D02*
X029343D01*
X029276D01*
Y022607D01*
X029209Y022541D01*
X031154D02*
X031221Y022607D01*
X031354D01*
X031421Y022541D01*
Y022474D01*
X031354Y022407D01*
X031288D01*
X031354D01*
X031421Y022341D01*
Y022274D01*
X031354Y022207D01*
X031221D01*
X031154Y022274D01*
X026481Y022207D02*
X026214D01*
X026481Y022474D01*
Y022541D01*
X026414Y022607D01*
X026281D01*
X026214Y022541D01*
X025245Y024418D02*
X025112D01*
X025045Y024352D01*
Y024085D01*
X025112Y024018D01*
X025245D01*
X025312Y024085D01*
Y024352D01*
X025245Y024418D01*
X025445Y024018D02*
Y024418D01*
X025711Y024018D01*
Y024418D01*
X025269Y022207D02*
X025403D01*
X025336D01*
Y022607D01*
X025269Y022541D01*
X027214D02*
X027281Y022607D01*
X027414D01*
X027481Y022541D01*
Y022474D01*
X027414Y022407D01*
X027348D01*
X027414D01*
X027481Y022341D01*
Y022274D01*
X027414Y022207D01*
X027281D01*
X027214Y022274D01*
X040537Y02924D02*
X040271Y029507D01*
X040537D02*
X040271Y02924D01*
X040537Y029373D02*
X040271D01*
X040404Y029507D02*
Y02924D01*
D15*
X040562Y029084D02*
Y031924D01*
X037722Y029084D02*
X040562D01*
X037722D02*
Y031924D01*
X040562D01*
X040062Y029084D02*
X040562Y029584D01*
X037332Y029367D02*
X037722D01*
X037332D02*
Y029477D01*
X037722D01*
Y029367D02*
Y029477D01*
X037332Y029564D02*
X037722D01*
X037332D02*
Y029674D01*
X037722D01*
Y029564D02*
Y029674D01*
X037332Y029761D02*
X037722D01*
X037332D02*
Y029871D01*
X037722D01*
Y029761D02*
Y029871D01*
X037332Y029957D02*
X037722D01*
X037332D02*
Y030067D01*
X037722D01*
Y029957D02*
Y030067D01*
X037332Y030154D02*
X037722D01*
X037332D02*
Y030264D01*
X037722D01*
Y030154D02*
Y030264D01*
X037332Y030351D02*
X037722D01*
X037332D02*
Y030461D01*
X037722D01*
Y030351D02*
Y030461D01*
X037332Y030548D02*
X037722D01*
X037332D02*
Y030658D01*
X037722D01*
Y030548D02*
Y030658D01*
X037332Y030745D02*
X037722D01*
X037332D02*
Y030855D01*
X037722D01*
Y030745D02*
Y030855D01*
X037332Y030942D02*
X037722D01*
X037332D02*
Y031052D01*
X037722D01*
Y030942D02*
Y031052D01*
X037332Y031138D02*
X037722D01*
X037332D02*
Y031248D01*
X037722D01*
Y031138D02*
Y031248D01*
X037332Y031335D02*
X037722D01*
X037332D02*
Y031445D01*
X037722D01*
Y031335D02*
Y031445D01*
X037332Y031532D02*
X037722D01*
X037332D02*
Y031642D01*
X037722D01*
Y031532D02*
Y031642D01*
X038004Y031924D02*
Y032314D01*
X038114D01*
Y031924D02*
Y032314D01*
X038004Y031924D02*
X038114D01*
X038201D02*
Y032314D01*
X038311D01*
Y031924D02*
Y032314D01*
X038201Y031924D02*
X038311D01*
X038398D02*
Y032314D01*
X038508D01*
Y031924D02*
Y032314D01*
X038398Y031924D02*
X038508D01*
X038595D02*
Y032314D01*
X038705D01*
Y031924D02*
Y032314D01*
X038595Y031924D02*
X038705D01*
X038792D02*
Y032314D01*
X038902D01*
Y031924D02*
Y032314D01*
X038792Y031924D02*
X038902D01*
X038989D02*
Y032314D01*
X039099D01*
Y031924D02*
Y032314D01*
X038989Y031924D02*
X039099D01*
X039186D02*
Y032314D01*
X039296D01*
Y031924D02*
Y032314D01*
X039186Y031924D02*
X039296D01*
X039382D02*
Y032314D01*
X039492D01*
Y031924D02*
Y032314D01*
X039382Y031924D02*
X039492D01*
X039579D02*
Y032314D01*
X039689D01*
Y031924D02*
Y032314D01*
X039579Y031924D02*
X039689D01*
X039776D02*
Y032314D01*
X039886D01*
Y031924D02*
Y032314D01*
X039776Y031924D02*
X039886D01*
X039973D02*
Y032314D01*
X040083D01*
Y031924D02*
Y032314D01*
X039973Y031924D02*
X040083D01*
X04017D02*
Y032314D01*
X04028D01*
Y031924D02*
Y032314D01*
X04017Y031924D02*
X04028D01*
X040562Y031642D02*
X040952D01*
Y031532D02*
Y031642D01*
X040562Y031532D02*
X040952D01*
X040562D02*
Y031642D01*
Y031445D02*
X040952D01*
Y031335D02*
Y031445D01*
X040562Y031335D02*
X040952D01*
X040562D02*
Y031445D01*
Y031248D02*
X040952D01*
Y031138D02*
Y031248D01*
X040562Y031138D02*
X040952D01*
X040562D02*
Y031248D01*
Y031052D02*
X040952D01*
Y030942D02*
Y031052D01*
X040562Y030942D02*
X040952D01*
X040562D02*
Y031052D01*
Y030855D02*
X040952D01*
Y030745D02*
Y030855D01*
X040562Y030745D02*
X040952D01*
X040562D02*
Y030855D01*
Y030658D02*
X040952D01*
Y030548D02*
Y030658D01*
X040562Y030548D02*
X040952D01*
X040562D02*
Y030658D01*
Y030461D02*
X040952D01*
Y030351D02*
Y030461D01*
X040562Y030351D02*
X040952D01*
X040562D02*
Y030461D01*
Y030264D02*
X040952D01*
Y030154D02*
Y030264D01*
X040562Y030154D02*
X040952D01*
X040562D02*
Y030264D01*
Y030067D02*
X040952D01*
Y029957D02*
Y030067D01*
X040562Y029957D02*
X040952D01*
X040562D02*
Y030067D01*
Y029871D02*
X040952D01*
Y029761D02*
Y029871D01*
X040562Y029761D02*
X040952D01*
X040562D02*
Y029871D01*
Y029674D02*
X040952D01*
Y029564D02*
Y029674D01*
X040562Y029564D02*
X040952D01*
X040562D02*
Y029674D01*
Y029477D02*
X040952D01*
Y029367D02*
Y029477D01*
X040562Y029367D02*
X040952D01*
X040562D02*
Y029477D01*
X04028Y028694D02*
Y029084D01*
X04017Y028694D02*
X04028D01*
X04017D02*
Y029084D01*
X04028D01*
X040083Y028694D02*
Y029084D01*
X039973Y028694D02*
X040083D01*
X039973D02*
Y029084D01*
X040083D01*
X039886Y028694D02*
Y029084D01*
X039776Y028694D02*
X039886D01*
X039776D02*
Y029084D01*
X039886D01*
X039689Y028694D02*
Y029084D01*
X039579Y028694D02*
X039689D01*
X039579D02*
Y029084D01*
X039689D01*
X039492Y028694D02*
Y029084D01*
X039382Y028694D02*
X039492D01*
X039382D02*
Y029084D01*
X039492D01*
X039296Y028694D02*
Y029084D01*
X039186Y028694D02*
X039296D01*
X039186D02*
Y029084D01*
X039296D01*
X039099Y028694D02*
Y029084D01*
X038989Y028694D02*
X039099D01*
X038989D02*
Y029084D01*
X039099D01*
X038902Y028694D02*
Y029084D01*
X038792Y028694D02*
X038902D01*
X038792D02*
Y029084D01*
X038902D01*
X038705Y028694D02*
Y029084D01*
X038595Y028694D02*
X038705D01*
X038595D02*
Y029084D01*
X038705D01*
X038508Y028694D02*
Y029084D01*
X038398Y028694D02*
X038508D01*
X038398D02*
Y029084D01*
X038508D01*
X038311Y028694D02*
Y029084D01*
X038201Y028694D02*
X038311D01*
X038201D02*
Y029084D01*
X038311D01*
X038114Y028694D02*
Y029084D01*
X038004Y028694D02*
X038114D01*
X038004D02*
Y029084D01*
X038114D01*
D130*
X013548Y026984D02*
G03*
X013548Y027339I0J000177D01*
G01*
Y028953D02*
G03*
X013548Y029307I0J000177D01*
G01*
X013548Y030921D02*
G03*
X013548Y031276I0J000177D01*
G01*
X020906Y017389D02*
Y021011D01*
Y017389D02*
X027374D01*
Y021011D01*
X020906D02*
X027374D01*
X028544Y025259D02*
X032056D01*
X032056Y021361D02*
Y025259D01*
X028544Y021361D02*
X032056D01*
X028544D02*
Y025259D01*
X024604Y025259D02*
X028116D01*
X028116Y021361D02*
Y025259D01*
X024604Y021361D02*
X028116D01*
X024604D02*
Y025259D01*
X014336Y021011D02*
X020804D01*
Y017389D02*
Y021011D01*
X014336Y017389D02*
X020804D01*
X014336D02*
Y021011D01*
X027486Y017389D02*
Y021011D01*
Y017389D02*
X033954D01*
Y021011D01*
X027486D02*
X033954D01*
X034066Y017389D02*
Y021011D01*
Y017389D02*
X040534D01*
Y021011D01*
X034066D02*
X040534D01*
X042237Y027654D02*
Y028185D01*
X043063Y027654D02*
Y028185D01*
X042237D02*
X043063D01*
X042237Y027654D02*
X043063D01*
X012131Y026906D02*
X013548Y026982D01*
X012131Y027417D02*
X013548Y027341D01*
X014355Y025941D02*
X014729D01*
X01471Y026177D02*
X014729Y025941D01*
X014355D02*
X014375Y026177D01*
X01471D02*
X015084D01*
X012131D02*
X014375D01*
X013076Y032083D02*
X015084D01*
Y026177D02*
Y032083D01*
X012131D02*
X0128D01*
X012771Y032319D02*
X0128Y032083D01*
X013076D02*
X013105Y032319D01*
X012771D02*
X013105D01*
X012131Y026177D02*
X012131Y032083D01*
X012131Y029386D02*
X013548Y029309D01*
X012131Y028874D02*
X013548Y028951D01*
X012131Y030843D02*
X013548Y030919D01*
X012131Y031354D02*
X013548Y031278D01*
X01349Y039318D02*
X017112D01*
X01349Y03585D02*
Y039318D01*
Y03585D02*
X017112D01*
Y039318D01*
X01349Y042934D02*
X017112D01*
X01349Y039465D02*
Y042934D01*
Y039465D02*
X017112D01*
Y042934D01*
X030361Y035139D02*
X031739D01*
Y037501D01*
X030361D02*
X031739D01*
X030361Y035139D02*
Y037501D01*
Y038189D02*
X031739D01*
Y040551D01*
X030361D02*
X031739D01*
X030361Y038189D02*
Y040551D01*
X032014Y038189D02*
X033392D01*
Y040551D01*
X032014D02*
X033392D01*
X032014Y038189D02*
Y040551D01*
X030411Y042315D02*
X031789D01*
Y044678D01*
X030411D02*
X031789D01*
X030411Y042315D02*
Y044678D01*
X032011Y042313D02*
X033389D01*
Y044675D01*
X032011D02*
X033389D01*
X032011Y042313D02*
Y044675D01*
X035527Y043476D02*
X036353D01*
X035527Y042944D02*
X036353D01*
X035527D02*
Y043476D01*
X036353Y042944D02*
Y043476D01*
X038974Y039328D02*
Y040155D01*
X038442Y039328D02*
Y040155D01*
X038974D01*
X038442Y039328D02*
X038974D01*
X041147Y042426D02*
X041973D01*
X041147Y041894D02*
X041973D01*
X041147D02*
Y042426D01*
X041973Y041894D02*
Y042426D01*
X041147Y043226D02*
X041973D01*
X041147Y042694D02*
X041973D01*
X041147D02*
Y043226D01*
X041973Y042694D02*
Y043226D01*
X041147Y044126D02*
X041973D01*
X041147Y043594D02*
X041973D01*
X041147D02*
Y044126D01*
X041973Y043594D02*
Y044126D01*
X040576Y042996D02*
Y043823D01*
X040044Y042996D02*
Y043823D01*
X040576D01*
X040044Y042996D02*
X040576D01*
X039776D02*
Y043823D01*
X039244Y042996D02*
Y043823D01*
X039776D01*
X039244Y042996D02*
X039776D01*
X038976D02*
Y043823D01*
X038444Y042996D02*
Y043823D01*
X038976D01*
X038444Y042996D02*
X038976D01*
X038176D02*
Y043823D01*
X037644Y042996D02*
Y043823D01*
X038176D01*
X037644Y042996D02*
X038176D01*
X049824Y042307D02*
Y043133D01*
X050356Y042307D02*
Y043133D01*
X049824Y042307D02*
X050356D01*
X049824Y043133D02*
X050356D01*
M02*
