G04*
G04 #@! TF.GenerationSoftware,Altium Limited,Altium Designer,18.1.6 (161)*
G04*
G04 Layer_Color=255*
%FSTAX24Y24*%
%MOIN*%
G70*
G01*
G75*
%ADD21R,0.0800X0.0600*%
%ADD22O,0.0800X0.0600*%
%ADD23R,0.0550X0.0500*%
%ADD24R,0.0500X0.0550*%
%ADD25R,0.0530X0.0160*%
%ADD26R,0.0630X0.1240*%
%ADD27R,0.0110X0.0580*%
%ADD28R,0.0580X0.0110*%
%ADD29R,0.0433X0.0472*%
%ADD30R,0.1299X0.0945*%
%ADD31R,0.0394X0.0945*%
%ADD32R,0.1540X0.0390*%
%ADD33R,0.4510X0.4110*%
%ADD34R,0.0591X0.0787*%
%ADD35R,0.0472X0.0433*%
%ADD36O,0.0400X0.0600*%
%ADD37O,0.0600X0.0400*%
%ADD38R,0.0380X0.0080*%
%ADD39R,0.0080X0.0380*%
%ADD41R,0.0787X0.0787*%
%ADD42R,0.0750X0.0590*%
%ADD43R,0.0150X0.0150*%
%ADD59R,0.1320X0.1320*%
%ADD85O,0.0750X0.0480*%
%ADD91O,0.0850X0.0650*%
%ADD92R,0.0850X0.0650*%
%ADD93O,0.0650X0.0850*%
%ADD94R,0.0650X0.0850*%
%ADD95R,0.0750X0.0650*%
%ADD96O,0.0750X0.0650*%
%ADD97C,0.1380*%
%ADD98R,0.0827X0.0827*%
%ADD99C,0.0827*%
%ADD100O,0.0650X0.0750*%
%ADD101R,0.0650X0.0750*%
%ADD102C,0.0512*%
%ADD103O,0.0860X0.0600*%
%ADD104O,0.0650X0.0900*%
%ADD105R,0.0650X0.0900*%
%ADD106O,0.0900X0.0650*%
%ADD107R,0.0900X0.0650*%
%ADD108C,0.0768*%
%ADD109R,0.0768X0.0768*%
%ADD110R,0.0827X0.0827*%
%ADD111C,0.0800*%
%ADD112R,0.0800X0.0800*%
%ADD113C,0.0240*%
%ADD114C,0.0570*%
D21*
X04879Y025969D02*
D03*
D22*
Y025182D02*
D03*
Y024394D02*
D03*
Y023607D02*
D03*
Y02282D02*
D03*
Y022032D02*
D03*
D23*
X03747Y02795D02*
D03*
Y02885D02*
D03*
X04825Y038568D02*
D03*
Y039468D02*
D03*
X031191Y03628D02*
D03*
Y03718D02*
D03*
X03038D02*
D03*
Y03628D02*
D03*
X02798Y04307D02*
D03*
Y04397D02*
D03*
X02682Y03557D02*
D03*
Y03647D02*
D03*
X02774Y03525D02*
D03*
Y03615D02*
D03*
X0353Y042158D02*
D03*
Y041258D02*
D03*
X0345Y042158D02*
D03*
Y041258D02*
D03*
X03601Y039308D02*
D03*
Y040208D02*
D03*
X03682Y042158D02*
D03*
Y041258D02*
D03*
X03602Y042158D02*
D03*
Y041258D02*
D03*
X03762Y042158D02*
D03*
Y041258D02*
D03*
X03842Y042158D02*
D03*
Y041258D02*
D03*
X04087Y042108D02*
D03*
Y043008D02*
D03*
X041633Y042108D02*
D03*
Y043008D02*
D03*
X04821Y040448D02*
D03*
Y041348D02*
D03*
D24*
X03675Y03278D02*
D03*
X03765D02*
D03*
X04552Y01898D02*
D03*
X04642D02*
D03*
X01982Y03071D02*
D03*
X01892D02*
D03*
X01982Y02991D02*
D03*
X01892D02*
D03*
X02821Y03073D02*
D03*
X02731D02*
D03*
X02821Y02993D02*
D03*
X02731D02*
D03*
X04339Y02257D02*
D03*
X04249D02*
D03*
X043116Y02712D02*
D03*
X042216D02*
D03*
X0337Y03708D02*
D03*
X0328D02*
D03*
X0303Y03548D02*
D03*
X0312D02*
D03*
X02821Y03258D02*
D03*
X02731D02*
D03*
X01971D02*
D03*
X01881D02*
D03*
X02019Y03829D02*
D03*
X01929D02*
D03*
X01944Y04384D02*
D03*
X01854D02*
D03*
X0345Y044108D02*
D03*
X0336D02*
D03*
X04127Y041358D02*
D03*
X04037D02*
D03*
X04815Y044058D02*
D03*
X04905D02*
D03*
X050773D02*
D03*
X049873D02*
D03*
D25*
X051497Y039116D02*
D03*
Y039372D02*
D03*
Y039883D02*
D03*
Y039628D02*
D03*
Y03886D02*
D03*
D26*
X02176Y02803D02*
D03*
Y029959D02*
D03*
X03031Y02803D02*
D03*
Y029959D02*
D03*
X02621Y043095D02*
D03*
Y045025D02*
D03*
D27*
X040225Y028844D02*
D03*
X040028D02*
D03*
X039831D02*
D03*
X039634D02*
D03*
X039437D02*
D03*
X039241D02*
D03*
X039044D02*
D03*
X038847D02*
D03*
X03865D02*
D03*
X038453D02*
D03*
X038256D02*
D03*
X038059D02*
D03*
Y032164D02*
D03*
X038256D02*
D03*
X038453D02*
D03*
X03865D02*
D03*
X038847D02*
D03*
X039044D02*
D03*
X039241D02*
D03*
X039437D02*
D03*
X039634D02*
D03*
X039831D02*
D03*
X040028D02*
D03*
X040225D02*
D03*
D28*
X037482Y029422D02*
D03*
Y029619D02*
D03*
Y029816D02*
D03*
Y030012D02*
D03*
Y030209D02*
D03*
Y030406D02*
D03*
Y030603D02*
D03*
Y0308D02*
D03*
Y030997D02*
D03*
Y031193D02*
D03*
Y03139D02*
D03*
Y031587D02*
D03*
X040802D02*
D03*
Y03139D02*
D03*
Y031193D02*
D03*
Y030997D02*
D03*
Y0308D02*
D03*
Y030603D02*
D03*
Y030406D02*
D03*
Y030209D02*
D03*
Y030012D02*
D03*
Y029816D02*
D03*
Y029619D02*
D03*
Y029422D02*
D03*
D29*
X042237Y02792D02*
D03*
X043063D02*
D03*
X033637Y043208D02*
D03*
X034463D02*
D03*
X039257Y042158D02*
D03*
X040083D02*
D03*
X039257Y042958D02*
D03*
X040083D02*
D03*
X039257Y043858D02*
D03*
X040083D02*
D03*
D30*
X01974Y034717D02*
D03*
D31*
X018834Y037D02*
D03*
X01974D02*
D03*
X020646D02*
D03*
D32*
X018945Y04035D02*
D03*
Y042429D02*
D03*
D33*
X02244Y04139D02*
D03*
D34*
X02914Y037383D02*
D03*
Y035257D02*
D03*
X02924Y040713D02*
D03*
Y038587D02*
D03*
X03081Y040713D02*
D03*
Y038587D02*
D03*
X02921Y044409D02*
D03*
Y042283D02*
D03*
X03081Y044407D02*
D03*
Y042281D02*
D03*
D35*
X036818Y040153D02*
D03*
Y039326D02*
D03*
X03842Y043821D02*
D03*
Y042994D02*
D03*
X03762Y043821D02*
D03*
Y042994D02*
D03*
X03682Y043821D02*
D03*
Y042994D02*
D03*
X03602Y043821D02*
D03*
Y042994D02*
D03*
X0482Y042305D02*
D03*
Y043131D02*
D03*
D36*
X052398Y036634D02*
D03*
X051611D02*
D03*
X050823D02*
D03*
X050036D02*
D03*
X049248D02*
D03*
X048461D02*
D03*
X047674D02*
D03*
X046886D02*
D03*
Y030335D02*
D03*
X047674D02*
D03*
X048461D02*
D03*
X049248D02*
D03*
X050036D02*
D03*
X050823D02*
D03*
X051611D02*
D03*
X052398D02*
D03*
D37*
X046296Y035453D02*
D03*
Y034666D02*
D03*
Y033878D02*
D03*
Y033091D02*
D03*
Y032304D02*
D03*
Y031516D02*
D03*
D38*
X050755Y041647D02*
D03*
Y041844D02*
D03*
Y042041D02*
D03*
Y042238D02*
D03*
Y042435D02*
D03*
Y042632D02*
D03*
Y042828D02*
D03*
X048925D02*
D03*
Y042632D02*
D03*
Y042435D02*
D03*
Y042238D02*
D03*
Y042041D02*
D03*
Y041844D02*
D03*
Y041647D02*
D03*
D39*
X050431Y043153D02*
D03*
X050234D02*
D03*
X050037D02*
D03*
X04984D02*
D03*
X049643D02*
D03*
X049446D02*
D03*
X049249D02*
D03*
Y041323D02*
D03*
X049446D02*
D03*
X049643D02*
D03*
X04984D02*
D03*
X050037D02*
D03*
X050234D02*
D03*
X050431D02*
D03*
D41*
X04949Y038241D02*
D03*
Y039815D02*
D03*
D42*
X05255Y039765D02*
D03*
Y038978D02*
D03*
D43*
X02486Y0325D02*
D03*
D59*
X04984Y042238D02*
D03*
D85*
X05255Y04075D02*
D03*
Y037994D02*
D03*
D91*
X04374Y03228D02*
D03*
Y03528D02*
D03*
Y03428D02*
D03*
Y03328D02*
D03*
Y03128D02*
D03*
D92*
Y03628D02*
D03*
D93*
X04753Y01802D02*
D03*
X04653D02*
D03*
X04553D02*
D03*
X04453D02*
D03*
X04353D02*
D03*
X05229Y02787D02*
D03*
X05129D02*
D03*
X05029D02*
D03*
X04929D02*
D03*
X04829D02*
D03*
X02504Y02658D02*
D03*
X02604D02*
D03*
X02704D02*
D03*
X02804D02*
D03*
X02904D02*
D03*
X03004D02*
D03*
X03104D02*
D03*
X03204D02*
D03*
Y03158D02*
D03*
X03104D02*
D03*
X03004D02*
D03*
X02904D02*
D03*
X02804D02*
D03*
X02704D02*
D03*
X02604D02*
D03*
X02504D02*
D03*
X01687Y02658D02*
D03*
X01787D02*
D03*
X01887D02*
D03*
X01987D02*
D03*
X02087D02*
D03*
X02187D02*
D03*
X02287D02*
D03*
X02387D02*
D03*
Y03158D02*
D03*
X02287D02*
D03*
X02187D02*
D03*
X02087D02*
D03*
X01987D02*
D03*
X01887D02*
D03*
X01787D02*
D03*
X01687D02*
D03*
D94*
X04253Y01802D02*
D03*
X04729Y02787D02*
D03*
D95*
X02383Y02422D02*
D03*
X02249D02*
D03*
X02115D02*
D03*
X01981D02*
D03*
X01847D02*
D03*
X01713D02*
D03*
X01579D02*
D03*
X01445D02*
D03*
X04124Y01771D02*
D03*
X01605Y03542D02*
D03*
X01463D02*
D03*
X02661Y04078D02*
D03*
X02777Y03977D02*
D03*
X02663Y03753D02*
D03*
X02775Y03853D02*
D03*
X03241Y04431D02*
D03*
X04519Y03438D02*
D03*
Y03124D02*
D03*
D96*
X02383Y02321D02*
D03*
Y02223D02*
D03*
X02249Y02321D02*
D03*
Y02223D02*
D03*
X02115D02*
D03*
Y02321D02*
D03*
X01981Y02223D02*
D03*
Y02321D02*
D03*
X01847Y02223D02*
D03*
Y02321D02*
D03*
X01713Y02223D02*
D03*
Y02321D02*
D03*
X01579Y02223D02*
D03*
Y02321D02*
D03*
X01445D02*
D03*
Y02223D02*
D03*
X04124Y0197D02*
D03*
Y01872D02*
D03*
X01605Y03441D02*
D03*
X01463D02*
D03*
X02661Y04179D02*
D03*
X02777Y04176D02*
D03*
Y04078D02*
D03*
X02663Y03854D02*
D03*
X02775Y03752D02*
D03*
X03241Y04232D02*
D03*
Y0433D02*
D03*
X04519Y03239D02*
D03*
Y03337D02*
D03*
Y03023D02*
D03*
Y02925D02*
D03*
D97*
X03055Y0337D02*
D03*
X05219Y04465D02*
D03*
X01474D02*
D03*
Y02591D02*
D03*
X05219Y01822D02*
D03*
D98*
X02189Y020539D02*
D03*
X01532D02*
D03*
X02847D02*
D03*
X03505D02*
D03*
D99*
X02339D02*
D03*
X02489D02*
D03*
X02639D02*
D03*
X01982D02*
D03*
X01832D02*
D03*
X01682D02*
D03*
X02997D02*
D03*
X03147D02*
D03*
X03297D02*
D03*
X03655D02*
D03*
X03805D02*
D03*
X03955D02*
D03*
X01664Y037314D02*
D03*
Y04093D02*
D03*
D100*
X03555Y02715D02*
D03*
X03457D02*
D03*
X03555Y02565D02*
D03*
X03457D02*
D03*
X04468Y02703D02*
D03*
X03619Y03475D02*
D03*
X03518D02*
D03*
X0342D02*
D03*
X03319D02*
D03*
X04473Y044538D02*
D03*
X04372D02*
D03*
X04274D02*
D03*
X04173D02*
D03*
X04468Y02813D02*
D03*
D101*
X03356Y02715D02*
D03*
Y02565D02*
D03*
X04569Y02703D02*
D03*
Y02813D02*
D03*
D102*
X0293Y02481D02*
D03*
X0303D02*
D03*
X0313D02*
D03*
Y02181D02*
D03*
X0303D02*
D03*
X0293D02*
D03*
X02536Y02481D02*
D03*
X02636D02*
D03*
X02736D02*
D03*
Y02181D02*
D03*
X02636D02*
D03*
X02536D02*
D03*
D103*
X03869Y02497D02*
D03*
X03969D02*
D03*
X03869Y02397D02*
D03*
X03969D02*
D03*
X03869Y02297D02*
D03*
X03969D02*
D03*
X03869Y02197D02*
D03*
X03969D02*
D03*
D104*
X03984Y03622D02*
D03*
X03784D02*
D03*
X03584D02*
D03*
X03484D02*
D03*
X03384D02*
D03*
X03684D02*
D03*
X03884D02*
D03*
X04084D02*
D03*
X04184D02*
D03*
D105*
X03284D02*
D03*
D106*
X03414Y02965D02*
D03*
Y03065D02*
D03*
Y03165D02*
D03*
Y02865D02*
D03*
D107*
Y03265D02*
D03*
D108*
X014513Y028382D02*
D03*
Y03035D02*
D03*
D109*
Y032318D02*
D03*
D110*
X01664Y038814D02*
D03*
Y04243D02*
D03*
D111*
X04487Y041945D02*
D03*
D112*
Y039158D02*
D03*
D113*
X052685Y04075D02*
D03*
X052415D02*
D03*
X052685Y037994D02*
D03*
X052415D02*
D03*
D114*
X051487Y040356D02*
D03*
Y038387D02*
D03*
M02*
