M48
;Layer_Color=9474304
;FILE_FORMAT=2:4
INCH,LZ
;TYPE=PLATED
T1F00S00C0.0157
T2F00S00C0.0240
T3F00S00C0.0315
T4F00S00C0.0330
T5F00S00C0.0360
T6F00S00C0.0420
T7F00S00C0.0512
T8F00S00C0.0551
T9F00S00C0.1181
%
T01
X047033Y01915
X047983Y01945
X048842Y01925
X048587Y02005
X049446Y01985
X049141Y02065
X05Y02045
X049691Y021162
X05055Y020962
X05219Y02095
X052198Y02195
Y0228
X05219Y02367
X052198Y02436
X05219Y02497
Y02562
Y026299
X05105Y0253
X05085Y02393
X050922Y02245
X04977Y022436
X04958Y02425
X0493Y02518
X04945Y02652
X049708Y029173
X05026Y029166
X050721Y028963
X05126Y02896
X05186
X05246
X05219Y02941
X05155
X050943Y029483
X049973Y029561
X048644Y02913
X04772Y02939
X047258Y030012
X04717Y030718
X047674Y030639
X048451Y030649
X049251Y030649
X04732Y02445
X0476Y02402
X047512Y022778
Y02197
X047527Y021162
Y02035
X046884Y020826
X05177Y01995
X05137Y019488
X050925Y019015
X05047Y018532
X04997Y01805
X04463Y019104
X04403Y01911
X043424Y019104
X043756Y019506
X044326Y019488
X04542Y02081
X04502Y02254
X044633Y02284
X044276Y02254
X04396Y02282
X043693Y02317
X04426Y023161
X044496Y024027
X045007
X04528Y0244
X046286Y024208
X0462Y023415
Y0228
X0468
X046816Y0234
X04396Y024027
X04363Y02497
X041595Y0248
X040998
Y0242
Y0236
X041602
Y0242
X04225Y02367
X04293Y02317
X041735Y02297
X04087Y02295
X04047Y02245
X041333
X040909Y021999
X041797Y022032
X04151Y021192
X04031Y02095
X040486Y018804
X03993Y01888
X039643Y01792
X038708
X037774
X036746
X035593
X03451Y01795
X033576
X032641
X031614
X032255Y021192
X031968Y021722
X03228Y02217
X03167Y022302
X03134Y02346
X03241Y023218
X0329Y022755
X033Y02373
X03346Y02436
X033525Y022208
X03477Y022412
X034617Y02315
X03629Y02306
X03627Y02246
X037921Y022302
X03784Y02342
X0375Y024158
X0372Y025182
Y02665
X03702Y02739
X0379Y02725
X03917Y02732
X03941Y02683
X03997Y026665
X04056Y02732
X04124Y02718
X04123Y028
X041115Y028926
X04151Y02952
X04179Y02986
X04207Y03022
X04243Y03056
X04272Y03003
X04171Y03069
X041354Y030892
X04024Y03071
X03965Y02942
X03915
X038465Y03057
X03663Y03024
X03629Y03047
X03579Y03054
X03542Y03074
X035Y03104
X03608Y02975
X03631Y02907
X03619Y02802
X035333Y027901
X035445Y028347
X03332Y02912
X03228Y025471
X03542Y02484
X03805Y02597
X040617Y02595
X040995Y02545
X04165Y0267
X04017Y02806
X04363Y02796
X04398Y02887
X04431Y03024
X04644Y03046
X046017Y029214
X046507Y028777
X039177Y022479
X03882Y020106
X03724Y02029
X03538Y01973
X03397Y020998
X03Y0232
Y0238
X0294Y023796
Y0232
X02835Y02402
X02807Y02511
X02705Y023796
X027054Y0232
X02639
X0258Y0232
Y0238
X02639
X02517
X02257Y024979
X02043Y0251
X01912Y02448
X017196Y024979
X01603Y02632
X01576Y02683
X0174Y0276
X01799
X0186
X0192
X01889Y02845
X018581Y029173
X0178Y0292
Y0298
X017196
Y0292
X01779Y030502
X02031Y03071
X020631Y02965
X019949Y029166
X021046Y028692
Y028153
Y0276
X02287Y02755
X02339
X02287Y028153
X023643Y02896
X023279Y02935
X022935Y02971
X02257Y03015
X02347Y031
X024074Y02855
X024836Y02787
X02555Y02756
X026244Y02796
X026978Y028
X027268Y02845
X026659
X026605Y02745
X02738Y027404
X029011Y027796
X029615Y028474
X03006Y028926
X03104Y028493
X03106Y027994
X03107Y027409
X02821Y02933
X02876Y03068
X021494Y02905
X021261Y02135
X01987
X018515
X0174
X017251Y018532
X018185
X01912
X020359
X021512
X02254
X023474
X024409
X02552
X026673
X027701
X028635
X02957
X03046Y01795
X02777Y019954
X026934Y01995
X027435Y020461
Y02105
X025632Y019954
X02357Y01975
X020705Y019727
X02011
X01948Y019738
X018869Y01975
X016223Y018532
X01507
X01447Y01924
X014111Y020295
X014108Y02155
X014444Y027001
X01507
X015345Y02755
X01474
X014132
X01519Y0297
X014474Y03128
X01457Y03315
Y0337
X01557Y03325
X015345Y034754
X016805Y03489
Y03565
X01664Y036448
Y038058
X01643Y03961
X01697Y04015
X0176Y0404
Y0412
Y042
Y042794
X018176Y043131
X01889Y043095
X019903Y04307
X01962Y041633
X019635Y04102
X01892
Y041633
X018224Y041647
X018221Y04102
X019475Y039674
X01998Y03772
X020764Y03829
X0222Y037996
Y0386
X0228
Y038
X023462Y038587
X025346Y038814
X025898Y038432
X026188Y03595
X026185Y03535
X027256Y034459
X027955
X028596Y03445
X028297Y03395
X027645Y033952
X029011Y03395
X029116Y03595
X029405Y03636
X028788
X02847Y037935
X029791
X02961Y03919
X02948Y03983
X02882Y04154
X03013Y04282
X030797Y04262
X03081Y04412
X027983Y044407
X02703Y044206
Y043673
Y042661
X026356Y044058
X02703Y04475
X02467Y04415
X02287Y04405
X02217
X02147
X02079
X017882Y04375
X018176Y03835
X01839Y037834
X018313Y036872
X01809Y03565
X01885
X018462Y03515
X018719Y034699
X01807
X01832Y034248
X018558Y03385
X01909
X020016Y03383
X02079Y034164
X02127Y034583
X021666Y035337
X021279Y03573
X02244Y03565
X02297Y03528
X02207Y03495
X0242Y033987
X024204Y033404
X024807Y033388
Y034
X02683Y03306
X023352Y032164
X021363
X020534Y032967
X01727
X0176Y03258
X016876
X016204Y03255
X016581Y03305
X016002Y03365
X01737Y03385
X01797
X0177Y03427
Y03516
X01574Y03193
X01576Y031282
X025244Y041282
X025805Y041289
X03184Y04061
X032564Y039674
X03266Y03883
X03167Y03867
X03302Y0376
X034548Y03755
X03493Y03715
X034288Y036918
X03467Y038446
X03631Y03761
X03765Y03886
Y039414
Y03995
X038104Y039674
Y039111
X038553Y03886
Y039414
X038973Y039158
X039759Y039255
X04031Y039266
X040263Y0376
X04027Y037117
X039703Y03715
Y03761
X03915Y037627
Y037161
X038551Y03718
X038636Y034926
X038129Y034926
X037613
Y03441
X038129Y034402
X03709Y034421
Y034926
X03712Y03193
X03597Y032569
X035575Y0322
X034907Y032464
X03529Y032916
X03471Y03327
X03257Y0332
X03188Y03278
X03228Y03489
X0338Y03516
X0381Y0329
X0386Y032904
X03933Y03282
X0394Y03327
X04008Y03346
X04031Y03414
X04071Y03411
X04112Y033795
X041223Y034666
X041797Y034675
X042358
X04202Y03407
X04283Y03284
X04237Y03224
X04305Y03157
X044534Y032706
X04667Y033476
X046017Y03645
X04553Y03607
X045378Y03689
X04468Y03725
X04427Y037682
X0443Y038458
X04368Y038368
X043405Y037671
X043811Y03726
X044752Y036393
X04513Y038058
X04515Y038518
X04611Y039218
X0466Y038028
X046533Y0376
X044008Y039558
X04391Y040058
X04432Y040398
X044708Y041198
X045112Y040798
X04399Y041748
X044164Y042215
X04372Y043534
X04474Y043508
X04468Y043908
X04635Y043028
X046306Y042498
X04637Y044877
Y04555
X0426Y043148
X0429Y04281
X04171Y043558
X040642
X04077Y044627
X040028
X039248
X03847
X037734
X038023Y043418
X0372
X0364Y043441
X0354Y042728
X03452Y042568
X03305Y041748
X03502Y04075
X03631Y04073
X039235Y04078
X039618Y0404
X042044Y040499
Y040982
Y039988
Y03919
Y038722
X04207Y037627
X042081Y037114
X039515Y034314
X0394Y0314
X03877Y03145
X03888Y043418
X0355Y044798
X03479
X03493Y04527
X03411Y044798
X03351Y044792
X04706Y044518
X04763Y044728
X04727Y04555
X048233
X04907
X04997
X050933
X05171Y043568
X05142Y04303
X052123Y04305
X051882Y042498
X05166Y042078
X05135Y041548
X05255Y041647
Y04075
Y042547
Y04351
X04859Y043558
X047487Y043652
X04751Y042598
X047444Y04215
Y041489
Y040888
Y04029
X046915Y04
Y04061
Y041183
Y04175
X04722Y03961
X047033Y03761
X04891Y037627
X050198Y037958
X05028Y039238
X05Y039898
X04957Y040668
X051445Y037714
X051937Y037314
X05255Y037994
X05203Y03587
X052198Y034939
X051627Y034174
X051537Y03346
X050925Y03338
X051036Y032365
X051128Y03161
X05186Y031607
X051884Y03228
X05252Y032272
Y031646
Y032916
Y033581
X049791Y03239
X049841Y0317
X049081Y03427
X048431Y03603
X046941Y03525
X050481Y03636
T02
X052415Y037994
X052685
Y04075
X052415
T03
X0313Y02181
Y02481
X0303
X0293
X02736Y02481
X02636
X02536
Y02181
X02636
X02736
X0293Y02181
X0303
T04
X051487Y038387
Y040356
T05
X04753Y01802
X04729Y02787
X04829
X04929
X05029
X05129
X05229
X04569Y02813
X04468
Y02703
X04569
X04519Y02925
Y03023
Y03124
X03414Y03065
Y02965
Y02865
X03457Y02715
X03555
Y02565
X03457
X03356
Y02715
X03204Y02658
X03869Y02497
X03969
Y02397
X03869
Y02297
X03969
Y02197
X03869
X04124Y0197
Y01872
Y01771
X04253Y01802
X04353
X04453
X04553
X04653
X03104Y02658
X03004
X02904
X02804
X02704
X02604
X02504
X02387
X02287
X02187
X02087
X01987
X01887
X01787
X01687
X01713Y02422
Y02321
Y02223
X01847
Y02321
Y02422
X01981
Y02321
Y02223
X02115
Y02321
Y02422
X02249
Y02321
Y02223
X02383
Y02321
Y02422
X01579
Y02321
Y02223
X01445
Y02321
Y02422
X01463Y03441
Y03542
X01605
Y03441
X01687Y03158
X01787
X01887
X01987
X02087
X02187
X02287
X02387
X02504
X02604
X02704
X02804
X02904
X03004
X03104
X02775Y03752
Y03853
X02663Y03854
Y03753
X02661Y04078
Y04179
X02777Y04176
Y04078
Y03977
X03241Y04232
Y0433
Y04431
X04173Y044538
X04274
X04372
X04473
X04487Y041945
Y039158
X04374Y03628
Y03528
Y03428
Y03328
Y03228
Y03128
X04519Y03239
Y03337
Y03438
X03619Y03475
X03518
X0342
X03319
X03414Y03265
Y03165
X03204Y03158
T06
X03284Y03622
X03384
X03484
X03584
X03684
X03784
X03884
X03984
X04084
X04184
T07
X014513Y028382
Y03035
Y032318
T08
X03147Y020539
X03297
X03505
X03655
X03805
X03955
X02997
X02847
X02639
X02489
X02339
X02189
X01982
X01832
X01682
X01532
X01664Y037314
Y038814
Y04093
Y04243
T09
X05219Y01822
X01474Y02591
Y04465
X03055Y0337
X05219Y04465
M30
