G04*
G04 #@! TF.GenerationSoftware,Altium Limited,Altium Designer,18.1.6 (161)*
G04*
G04 Layer_Color=32768*
%FSTAX24Y24*%
%MOIN*%
G70*
G01*
G75*
%ADD130C,0.0039*%
%ADD131C,0.0020*%
D130*
X0253Y036373D02*
Y036767D01*
X025103Y03657D02*
X025497D01*
X023587Y035152D02*
X027013D01*
X023587Y037987D02*
X027013D01*
X023587Y035152D02*
Y037987D01*
X027013Y035152D02*
Y037987D01*
X02525Y039523D02*
Y039917D01*
X025053Y03972D02*
X025447D01*
X023537Y038302D02*
X026963D01*
X023537Y041137D02*
X026963D01*
X023537Y038302D02*
Y041137D01*
X026963Y038302D02*
Y041137D01*
X025258Y042623D02*
Y043017D01*
X025061Y04282D02*
X025455D01*
X023546Y041402D02*
X026971D01*
X023546Y044237D02*
X026971D01*
X023546Y041402D02*
Y044237D01*
X026971Y041402D02*
Y044237D01*
X0419Y02757D02*
Y02827D01*
X04345Y02757D02*
Y02827D01*
X0419D02*
X04345D01*
X0419Y02757D02*
X04345D01*
X042453Y02792D02*
X042847D01*
X04265Y027723D02*
Y028117D01*
X019543Y035859D02*
X019937D01*
X01974Y035662D02*
Y036055D01*
X018323Y034146D02*
Y037571D01*
X021157Y034146D02*
Y037571D01*
X018323Y034146D02*
X021157D01*
X018323Y037571D02*
X021157D01*
X03594Y043013D02*
Y043407D01*
X035743Y04321D02*
X036137D01*
X03514Y04356D02*
X03669D01*
X03514Y04286D02*
X03669D01*
X03514D02*
Y04356D01*
X03669Y04286D02*
Y04356D01*
X038511Y039742D02*
X038905D01*
X038708Y039545D02*
Y039939D01*
X039058Y038992D02*
Y040542D01*
X038358Y038992D02*
Y040542D01*
X039058D01*
X038358Y038992D02*
X039058D01*
X04156Y041963D02*
Y042357D01*
X041363Y04216D02*
X041757D01*
X04076Y04251D02*
X04231D01*
X04076Y04181D02*
X04231D01*
X04076D02*
Y04251D01*
X04231Y04181D02*
Y04251D01*
X04156Y042763D02*
Y043157D01*
X041363Y04296D02*
X041757D01*
X04076Y04331D02*
X04231D01*
X04076Y04261D02*
X04231D01*
X04076D02*
Y04331D01*
X04231Y04261D02*
Y04331D01*
X04156Y043663D02*
Y044057D01*
X041363Y04386D02*
X041757D01*
X04076Y04421D02*
X04231D01*
X04076Y04351D02*
X04231D01*
X04076D02*
Y04421D01*
X04231Y04351D02*
Y04421D01*
X040113Y04341D02*
X040507D01*
X04031Y043213D02*
Y043607D01*
X04066Y04266D02*
Y04421D01*
X03996Y04266D02*
Y04421D01*
X04066D01*
X03996Y04266D02*
X04066D01*
X039313Y04341D02*
X039707D01*
X03951Y043213D02*
Y043607D01*
X03986Y04266D02*
Y04421D01*
X03916Y04266D02*
Y04421D01*
X03986D01*
X03916Y04266D02*
X03986D01*
X038513Y04341D02*
X038907D01*
X03871Y043213D02*
Y043607D01*
X03906Y04266D02*
Y04421D01*
X03836Y04266D02*
Y04421D01*
X03906D01*
X03836Y04266D02*
X03906D01*
X037713Y04341D02*
X038107D01*
X03791Y043213D02*
Y043607D01*
X03826Y04266D02*
Y04421D01*
X03756Y04266D02*
Y04421D01*
X03826D01*
X03756Y04266D02*
X03826D01*
X049893Y04272D02*
X050287D01*
X05009Y042523D02*
Y042917D01*
X04974Y04192D02*
Y04347D01*
X05044Y04192D02*
Y04347D01*
X04974Y04192D02*
X05044D01*
X04974Y04347D02*
X05044D01*
D131*
X020827Y01731D02*
Y02109D01*
Y01731D02*
X027453D01*
Y02109D01*
X020827D02*
X027453D01*
X023943Y0192D02*
X024337D01*
X02414Y019003D02*
Y019397D01*
X028426Y025357D02*
X032174D01*
Y021262D02*
Y025357D01*
X028426Y021262D02*
X032174D01*
X028426D02*
Y025357D01*
X030103Y02331D02*
X030497D01*
X0303Y023113D02*
Y023507D01*
X024486Y025357D02*
X028234D01*
Y021262D02*
Y025357D01*
X024486Y021262D02*
X028234D01*
X024486D02*
Y025357D01*
X026163Y02331D02*
X026557D01*
X02636Y023113D02*
Y023507D01*
X01757Y019003D02*
Y019397D01*
X017373Y0192D02*
X017767D01*
X014257Y02109D02*
X020883D01*
Y01731D02*
Y02109D01*
X014257Y01731D02*
X020883D01*
X014257D02*
Y02109D01*
X027407Y01731D02*
Y02109D01*
Y01731D02*
X034033D01*
Y02109D01*
X027407D02*
X034033D01*
X030523Y0192D02*
X030917D01*
X03072Y019003D02*
Y019397D01*
X033987Y01731D02*
Y02109D01*
Y01731D02*
X040613D01*
Y02109D01*
X033987D02*
X040613D01*
X037103Y0192D02*
X037497D01*
X0373Y019003D02*
Y019397D01*
X01341Y02913D02*
X013804D01*
X013607Y028933D02*
Y029327D01*
X012052Y032398D02*
X015162D01*
X012052Y025862D02*
Y032398D01*
Y025862D02*
X015162D01*
Y032398D01*
X013412Y039397D02*
X017191D01*
X013412Y035771D02*
Y039397D01*
Y035771D02*
X017191D01*
Y039397D01*
X015301Y037387D02*
Y037781D01*
X015105Y037584D02*
X015498D01*
X013412Y043013D02*
X017191D01*
X013412Y039387D02*
Y043013D01*
Y039387D02*
X017191D01*
Y043013D01*
X015301Y041003D02*
Y041397D01*
X015105Y0412D02*
X015498D01*
X03105Y036123D02*
Y036517D01*
X030853Y03632D02*
X031247D01*
X030282Y034784D02*
Y037855D01*
X031818D01*
Y034784D02*
Y037855D01*
X030282Y034784D02*
X031818D01*
X03105Y039173D02*
Y039567D01*
X030853Y03937D02*
X031247D01*
X030282Y037834D02*
Y040905D01*
X031818D01*
Y037834D02*
Y040905D01*
X030282Y037834D02*
X031818D01*
X032703Y039173D02*
Y039567D01*
X032506Y03937D02*
X0329D01*
X031935Y037834D02*
Y040905D01*
X03347D01*
Y037834D02*
Y040905D01*
X031935Y037834D02*
X03347D01*
X0311Y0433D02*
Y043693D01*
X030903Y043496D02*
X031297D01*
X030332Y041961D02*
Y045032D01*
X031868D01*
Y041961D02*
Y045032D01*
X030332Y041961D02*
X031868D01*
X0327Y043297D02*
Y043691D01*
X032503Y043494D02*
X032897D01*
X031932Y041958D02*
Y045029D01*
X033468D01*
Y041958D02*
Y045029D01*
X031932Y041958D02*
X033468D01*
M02*
